<svg width="8" height="13" viewBox="0 0 8 13" fill="none" xmlns="http://www.w3.org/2000/svg">
<path d="M5.20075 6.3458C4.69768 5.7392 4.02506 5.29664 3.26886 5.07481C2.74256 4.83253 2.28033 4.47003 1.91974 4.01652C1.55916 3.56301 1.31013 3.03115 1.19269 2.46378C1.10869 2.14778 0.816773 1.97982 0.626773 1.73582C0.500896 1.56935 0.439666 1.3628 0.454654 1.15464C0.469641 0.94648 0.559889 0.750879 0.708316 0.604164C0.856742 0.45745 1.05346 0.369605 1.26178 0.357033C1.4701 0.344461 1.67589 0.408006 1.84088 0.535805C1.92402 0.604909 2.00238 0.679364 2.07575 0.758766C3.67975 2.35877 5.28345 3.96278 6.88678 5.57078C7.01649 5.65441 7.12328 5.76906 7.19757 5.90434C7.27187 6.03961 7.31133 6.19129 7.31232 6.34562C7.31331 6.49995 7.27574 6.65209 7.20319 6.78831C7.13064 6.92452 7.02541 7.04047 6.89679 7.12577L1.94269 12.0808C1.83098 12.2178 1.68074 12.3179 1.51129 12.3682C1.34185 12.4185 1.16109 12.4166 0.992739 12.3628C0.83518 12.3176 0.694371 12.2273 0.58771 12.1028C0.48105 11.9784 0.413379 11.8254 0.392886 11.6628C0.374413 11.5013 0.3976 11.3377 0.460269 11.1877C0.522937 11.0376 0.62291 10.9062 0.750796 10.8058C2.1288 9.43443 3.50473 8.0611 4.87873 6.68577C4.98473 6.57877 5.08275 6.4708 5.20075 6.3458Z" fill="#777777"/>
</svg>
