<svg width="37" height="37" viewBox="0 0 37 37" fill="none" xmlns="http://www.w3.org/2000/svg">
<g id="Academy" clip-path="url(#clip0_75_30152)">
<g id="Group">
<path id="Vector" d="M36.2621 9.28537L19.0544 1.11255C18.7021 0.94523 18.298 0.94523 17.9456 1.11255L9.39423 5.17406L0.737936 9.28537C0.267075 9.50902 -0.0154413 9.97161 0.000652736 10.4926C0.0167468 11.0137 0.327319 11.4579 0.811084 11.6521L3.38266 12.684V18.9485C3.38266 19.2488 3.6261 19.4922 3.92638 19.4922C3.92638 19.4922 4.4701 19.2488 4.4701 18.9485V13.1204L8.41931 14.7052V18.549C8.41931 19.4807 9.50464 20.2201 11.6451 20.7465C13.4996 21.2025 15.9566 21.4537 18.5634 21.4537C21.1703 21.4537 23.6273 21.2025 25.4818 20.7465C27.6222 20.2201 28.7076 19.4808 28.7076 18.549V14.6543L36.189 11.6521C36.6728 11.4579 36.9833 11.0137 36.9994 10.4926C37.0154 9.97161 36.7329 9.50902 36.2621 9.28537ZM27.6201 17.1277C27.0953 16.8323 26.3823 16.573 25.4817 16.3515C23.6271 15.8955 21.1702 15.6443 18.5634 15.6443C15.9566 15.6443 13.4995 15.8955 11.645 16.3515C10.7445 16.573 10.0315 16.8323 9.50667 17.1277V14.3292V14.3271V12.0016V11.0417C9.50667 10.9252 9.91366 10.3899 11.9047 9.90021C13.6767 9.46443 16.0415 9.2244 18.5634 9.2244C21.0853 9.2244 23.45 9.46443 25.222 9.90021C27.2131 10.3898 27.6201 10.9252 27.6201 11.0417V17.1277ZM25.222 19.6905C23.45 20.1263 21.0853 20.3663 18.5634 20.3663C16.0415 20.3663 13.6768 20.1263 11.9047 19.6905C9.91366 19.2008 9.50667 18.6655 9.50667 18.549C9.50667 18.4324 9.91366 17.8972 11.9047 17.4074C13.6767 16.9717 16.0415 16.7316 18.5634 16.7316C21.0853 16.7316 23.45 16.9717 25.222 17.4074C27.2131 17.8971 27.6201 18.4324 27.6201 18.549C27.6201 18.6655 27.2131 19.2008 25.222 19.6905ZM35.784 10.6429L28.7076 13.4827V11.0417C28.7076 10.11 27.6222 9.37063 25.4818 8.84423C23.6273 8.38816 21.1703 8.13696 18.5634 8.13696C15.9566 8.13696 13.4996 8.38816 11.6451 8.84423C9.50464 9.37063 8.41931 10.1099 8.41931 11.0417V12.0016V13.5335L1.21605 10.6429C1.10781 10.5994 1.08911 10.509 1.08758 10.459C1.08606 10.409 1.09918 10.3176 1.20445 10.2676L9.86074 6.1563L18.412 2.0948C18.468 2.06826 18.5321 2.06826 18.5879 2.0948L35.7955 10.2676C35.9008 10.3176 35.9139 10.409 35.9123 10.459C35.9109 10.5091 35.8921 10.5995 35.784 10.6429Z" fill="white"/>
<path id="Vector_2" d="M5.41745 21.7672C5.71998 21.4402 5.90535 21.0033 5.90535 20.5237C5.90535 19.7004 5.35982 19.0024 4.6113 18.7716C4.61413 18.7493 4.61601 18.7267 4.61601 18.7036V12.5425C4.61601 12.2422 4.37257 11.9988 4.07229 11.9988C3.77202 11.9988 3.52858 12.2422 3.52858 12.5425V18.7036C3.52858 18.7268 3.53046 18.7493 3.53329 18.7716C2.78477 19.0024 2.23916 19.7005 2.23916 20.5237C2.23916 21.0033 2.42454 21.4402 2.72706 21.7672C2.28252 22.1476 2 22.7121 2 23.3416V26.743C2 27.0433 2.24344 27.2867 2.54372 27.2867H5.60087C5.90115 27.2867 6.14459 27.0433 6.14459 26.743V23.3416C6.14452 22.7121 5.862 22.1476 5.41745 21.7672ZM3.3266 20.5237C3.3266 20.1126 3.6611 19.7781 4.07229 19.7781C4.48349 19.7781 4.81791 20.1126 4.81791 20.5237C4.81791 20.9348 4.48342 21.2693 4.07229 21.2693C3.66117 21.2693 3.3266 20.9349 3.3266 20.5237ZM5.05708 26.1993H3.08737V23.3417C3.08737 22.7986 3.52916 22.3568 4.07222 22.3568C4.61529 22.3568 5.05708 22.7986 5.05708 23.3417V26.1993Z" fill="white"/>
</g>
</g>
<defs>
<clipPath id="clip0_75_30152">
<rect width="37" height="37" fill="white"/>
</clipPath>
</defs>
</svg>
