<svg width="81" height="81" viewBox="0 0 81 81" fill="none" xmlns="http://www.w3.org/2000/svg">
<g id="Group 1089">
<g id="Group 976">
<path id="Path 825" d="M40.5334 80.9142C32.7462 80.9129 25.1259 78.6552 18.5949 74.4142C12.0639 70.1732 6.90163 64.1306 3.73261 57.0175C0.563588 49.9043 -0.476297 42.0252 0.738471 34.3334C1.95324 26.6415 5.37046 19.4665 10.5773 13.6761C15.7842 7.8857 22.5572 3.72808 30.0773 1.70618C37.5974 -0.315727 45.5428 -0.115304 52.9514 2.2832C60.36 4.68171 66.9151 9.17554 71.8234 15.2211C76.7317 21.2667 79.7832 28.6049 80.6086 36.3482C81.6244 45.4952 79.4188 54.7101 74.3723 62.4062C74.0546 63.0747 73.5197 63.6155 72.8547 63.9403C72.1897 64.2651 71.4336 64.3546 70.7111 64.1942C68.4521 63.7242 67.6109 61.2852 69.0109 59.0992C71.5052 55.2136 73.2176 50.8786 74.0519 46.3372C77.381 28.5182 64.9263 10.4282 47.0803 7.22324C42.6056 6.35516 38.0018 6.39566 33.5432 7.34235C29.0845 8.28903 24.862 10.1226 21.1262 12.7339C17.3903 15.3453 14.2179 18.6812 11.7971 22.5432C9.37623 26.4053 7.75638 30.7147 7.03437 35.2152C3.80137 53.7822 17.7346 72.2432 36.4006 74.2652C43.8423 75.1569 51.3711 73.5989 57.8478 69.8272C59.5088 68.8742 60.9077 68.9992 62.0197 70.1182C62.3738 70.4725 62.638 70.9063 62.7902 71.3835C62.9425 71.8607 62.9792 72.3674 62.8957 72.8613C62.8122 73.3551 62.6114 73.8218 62.3107 74.2225C62.0101 74.6231 61.618 74.946 61.1672 75.1642C56.3984 78.0388 51.0699 79.8599 45.5393 80.5052C43.8803 80.7032 42.2044 80.7812 40.5334 80.9142Z" fill="#FEC008"/>
<path id="Path 826" d="M43.7437 43.7123C43.7437 46.2673 43.6523 48.6203 43.7603 50.9653C44.0603 57.3783 42.7374 57.5983 40.6284 57.8063C38.1604 58.0503 37.4468 56.3623 37.4468 50.8883V43.7113C33.9018 43.7113 30.5096 43.7283 27.1206 43.6973C26.445 43.7116 25.772 43.6028 25.1353 43.3763C24.5028 43.107 23.9808 42.6311 23.6538 42.0264C23.3269 41.4217 23.2145 40.724 23.3355 40.0473C23.4514 39.3138 23.8266 38.6462 24.3931 38.1661C24.9596 37.686 25.6798 37.4253 26.4224 37.4313C29.4594 37.3833 32.4986 37.4153 35.5366 37.4143H37.4497V31.4143C37.4497 29.9473 37.4427 28.4803 37.4497 27.0143C37.4627 24.7143 38.6393 23.2933 40.5493 23.2693C42.5183 23.2433 43.7318 24.6883 43.7378 27.0903C43.7458 29.9713 43.7378 32.8523 43.7378 35.7343V37.4183C47.2758 37.4183 50.6653 37.4103 54.0533 37.4273C54.6264 37.4066 55.1995 37.4717 55.7534 37.6203C56.4563 37.8531 57.0538 38.3285 57.438 38.9615C57.8222 39.5945 57.9681 40.3436 57.8501 41.0746C57.7322 41.8056 57.3582 42.4707 56.7945 42.9507C56.2307 43.4308 55.5144 43.6943 54.774 43.6943C51.789 43.7503 48.8019 43.7143 45.8169 43.7163L43.7437 43.7123Z" fill="#FEC008"/>
</g>
</g>
</svg>
