<svg width="9" height="9" viewBox="0 0 9 9" fill="none" xmlns="http://www.w3.org/2000/svg">
<path id="Path 1551" d="M6.55176 5.09028H4.90479C3.73179 5.09028 2.5597 5.09028 1.3877 5.09028C1.2981 5.09522 1.20876 5.08186 1.12451 5.05097C1.04026 5.02008 0.963121 4.97233 0.897949 4.91065C0.832778 4.84897 0.780593 4.77469 0.745117 4.69227C0.709641 4.60985 0.691406 4.52101 0.691406 4.43128C0.691406 4.34155 0.709641 4.25278 0.745117 4.17036C0.780593 4.08794 0.832778 4.01365 0.897949 3.95197C0.963121 3.89029 1.04026 3.84254 1.12451 3.81165C1.20876 3.78077 1.2981 3.76735 1.3877 3.77228C1.4517 3.77228 1.51559 3.77228 1.57959 3.77228H6.51367C6.43567 3.68228 6.38991 3.62033 6.33691 3.56733C5.76091 2.99 5.18489 2.41329 4.60889 1.83729C4.53072 1.78014 4.46568 1.70658 4.41895 1.62177C4.37221 1.53697 4.34495 1.44299 4.33838 1.34638C4.3318 1.24977 4.34604 1.15286 4.38086 1.06251C4.41568 0.97215 4.46984 0.890524 4.53955 0.82331C4.60763 0.758417 4.68877 0.708527 4.77734 0.676887C4.86591 0.645246 4.96041 0.632525 5.0542 0.639594C5.14799 0.646664 5.23895 0.673342 5.32178 0.717902C5.4046 0.762462 5.47709 0.823957 5.53467 0.898322C6.53467 1.89432 7.5325 2.89166 8.52783 3.89033C8.61138 3.95265 8.67948 4.03348 8.72656 4.12647C8.77364 4.21947 8.79854 4.32211 8.79932 4.42634C8.80009 4.53057 8.77665 4.63356 8.73096 4.72724C8.68527 4.82093 8.61825 4.90275 8.53564 4.96632C7.53564 5.97232 6.53224 6.97597 5.5249 7.9773C5.46669 8.04971 5.39366 8.10908 5.31104 8.15156C5.22841 8.19403 5.13817 8.21868 5.04541 8.22388C4.95265 8.22908 4.8598 8.21474 4.77295 8.18177C4.6861 8.1488 4.60695 8.09792 4.54102 8.03248C4.47508 7.96703 4.42376 7.88843 4.39014 7.80183C4.35651 7.71522 4.3412 7.62252 4.3457 7.52973C4.35021 7.43694 4.37416 7.34613 4.41602 7.26319C4.45787 7.18025 4.5169 7.10703 4.58887 7.04829C5.22487 6.41129 5.86076 5.78028 6.55176 5.09028Z" fill="#0D0D0D"/>
</svg>
