<svg width="19" height="14" viewBox="0 0 19 14" fill="none" xmlns="http://www.w3.org/2000/svg">
<g id="Group 1803">
<g id="Group 1084">
<path id="Path 1014" d="M14.4517 8.01187H13.7212C7.85223 8.01187 7.72112 8.00582 1.85112 8.00082C1.63467 8.00807 1.41854 7.99469 1.20463 7.96084C0.970544 7.91412 0.75929 7.78954 0.605022 7.60739C0.450754 7.42523 0.362557 7.19625 0.355022 6.95767C0.347486 6.71908 0.420564 6.48495 0.563029 6.29342C0.705495 6.10189 0.908529 5.96425 1.1392 5.90286C1.36937 5.85555 1.60458 5.83604 1.8394 5.84481C7.7254 5.84481 7.87332 5.84485 13.7593 5.85085H14.4654C14.2984 5.66385 14.2013 5.54384 14.0923 5.43484C13.0653 4.40484 12.0313 3.38185 11.0103 2.34585C10.902 2.25241 10.8138 2.13811 10.7505 2.00979C10.6873 1.88147 10.6502 1.74172 10.6421 1.5989C10.634 1.45608 10.6553 1.31313 10.7037 1.17849C10.752 1.04386 10.8263 0.920337 10.9234 0.815271C11.0205 0.710205 11.1377 0.625728 11.2681 0.566919C11.3985 0.50811 11.5401 0.476136 11.6831 0.472925C11.8262 0.469713 11.9682 0.495346 12.1011 0.548242C12.234 0.601138 12.3549 0.680245 12.4566 0.780847C14.2639 2.56751 16.0618 4.36351 17.8511 6.16885C17.9575 6.26566 18.0427 6.38385 18.1001 6.51571C18.1576 6.64757 18.1866 6.7901 18.1851 6.93392C18.1836 7.07775 18.1516 7.21962 18.0914 7.35024C18.0311 7.48087 17.9439 7.5973 17.8355 7.69186C16.0688 9.47319 14.2946 11.2462 12.5132 13.0108C12.4172 13.117 12.3007 13.2024 12.1705 13.2617C12.0402 13.3211 11.8995 13.3533 11.7564 13.3562C11.6133 13.3591 11.471 13.3327 11.3384 13.2786C11.2059 13.2246 11.0861 13.144 10.9859 13.0418C10.8822 12.9379 10.8004 12.8138 10.7466 12.6773C10.6929 12.5407 10.6674 12.3946 10.6724 12.2479C10.6774 12.1012 10.713 11.957 10.7759 11.8244C10.8388 11.6918 10.9282 11.5735 11.0386 11.4768C12.0386 10.4638 13.0444 9.46387 14.0474 8.45687C14.1534 8.34287 14.2587 8.22087 14.4517 8.01187Z" fill="white"/>
</g>
</g>
</svg>
