<svg width="25" height="24" viewBox="0 0 25 24" fill="none" xmlns="http://www.w3.org/2000/svg">
<path d="M7.31647 10.0905H12.2745C15.8155 10.0905 19.3555 10.0815 22.8965 10.0905C23.1662 10.0769 23.4354 10.1184 23.6885 10.2123C23.9417 10.3062 24.1736 10.4505 24.3692 10.6366C24.5648 10.8227 24.7198 11.0464 24.8262 11.2946C24.9327 11.5427 24.9883 11.81 24.9883 12.08C24.9883 12.35 24.9327 12.6172 24.8262 12.8654C24.7198 13.1135 24.5648 13.3373 24.3692 13.5233C24.1736 13.7094 23.9417 13.8538 23.6885 13.9476C23.4354 14.0415 23.1662 14.083 22.8965 14.0695C22.7035 14.0745 22.5085 14.0695 22.3165 14.0695H7.41608C7.65108 14.3435 7.79021 14.5286 7.95221 14.6906C9.69021 16.4339 11.4296 18.1748 13.171 19.9135C14.194 20.9415 14.271 22.1134 13.379 22.9774C13.1731 23.1735 12.929 23.3243 12.6612 23.4198C12.3934 23.5153 12.1078 23.5535 11.8243 23.5319C11.5408 23.5103 11.2649 23.4295 11.0147 23.2946C10.7645 23.1596 10.5459 22.9734 10.3721 22.7484C7.35746 19.7411 4.34533 16.7301 1.336 13.7155C1.08345 13.5273 0.877781 13.283 0.735412 13.0021C0.593043 12.7211 0.518107 12.411 0.515685 12.0961C0.513263 11.7811 0.583708 11.47 0.72174 11.1869C0.859772 10.9038 1.06196 10.6566 1.31158 10.4645C4.33692 7.42849 7.36831 4.39748 10.4063 1.37148C10.5816 1.15246 10.8006 0.972843 11.0499 0.844132C11.2991 0.71542 11.5726 0.640521 11.8526 0.624405C12.1326 0.608289 12.4135 0.651111 12.6758 0.750382C12.9382 0.849652 13.1768 1.00311 13.376 1.20058C13.5753 1.39804 13.7305 1.63516 13.8321 1.89662C13.9337 2.15808 13.9785 2.43798 13.9649 2.71816C13.9513 2.99833 13.8795 3.27247 13.753 3.52284C13.6265 3.77321 13.449 3.99432 13.2315 4.17152C11.3235 6.10152 9.40247 8.00847 7.31647 10.0905Z" fill="#F7F7F7"/>
</svg>
