<svg width="41" height="8" viewBox="0 0 41 8" fill="none" xmlns="http://www.w3.org/2000/svg">
<g id="Group 1114">
<g id="Group 1093">
<g id="Group 1092">
<path id="Path 1518" d="M20.446 5.4181H0.9201C0.8711 5.4181 0.820174 5.4181 0.771174 5.4181C0.684174 5.4181 0.620201 5.41014 0.624201 5.29414C0.628201 5.17814 0.701174 5.1941 0.771174 5.1941H40.1843C40.2503 5.1941 40.2658 5.23714 40.2648 5.29414C40.2638 5.35114 40.2653 5.41315 40.1843 5.41615C40.1033 5.41915 40.0419 5.41615 39.9709 5.41615H20.446V5.4181Z" fill="white"/>
<path id="Path 1519" d="M1.82461 0.769043C1.86302 0.810306 1.89254 0.858967 1.91153 0.912048C2.25153 1.76005 2.59575 2.60607 2.94375 3.45007C2.96475 3.50007 2.96585 3.56403 3.04385 3.59503C3.35318 2.84703 3.66287 2.09771 3.97354 1.34705C3.99254 1.30205 4.0106 1.25606 4.0336 1.21106C4.1056 1.07006 4.06587 0.849058 4.20987 0.784058C4.22218 0.7782 4.23496 0.773174 4.24795 0.769043H5.06875C5.09575 0.775043 5.11272 0.792074 5.11172 0.838074C5.11466 0.860917 5.1087 0.883985 5.09512 0.902588C5.08154 0.92119 5.06162 0.933887 5.03897 0.938049C4.73897 1.03805 4.66575 1.15608 4.69375 1.47308C4.74475 2.07308 4.79995 2.67307 4.85195 3.27307C4.85195 3.28707 4.85195 3.30206 4.85195 3.31506C4.85195 3.35606 4.85195 3.39705 4.85195 3.43805C4.84651 3.60801 4.86218 3.77798 4.89883 3.94403C4.90466 4.04064 4.94383 4.13224 5.00967 4.20319C5.07551 4.27413 5.16377 4.32005 5.25967 4.33307C5.31967 4.34407 5.39662 4.33304 5.38662 4.43304C5.37662 4.53304 5.29665 4.50507 5.23965 4.50507C4.82865 4.50507 4.41874 4.50507 4.00674 4.50507C3.95274 4.50507 3.88976 4.51704 3.88076 4.43304C3.87176 4.34904 3.92486 4.34307 3.98086 4.33307C4.03047 4.32671 4.07797 4.31028 4.121 4.28479C4.16403 4.2593 4.20146 4.22527 4.23086 4.18481C4.26027 4.14436 4.28142 4.09829 4.29238 4.0495C4.30335 4.0007 4.30409 3.95021 4.29483 3.90106C4.29483 3.74606 4.28183 3.59004 4.27383 3.43604C4.23083 2.83604 4.18892 2.23607 4.14492 1.61707C4.10992 1.64207 4.09277 1.64806 4.08877 1.65906C3.86677 2.20906 3.64569 2.75908 3.42569 3.30908C3.28635 3.64242 3.14612 3.97408 3.00479 4.30408C2.97279 4.37708 2.96661 4.47707 2.84561 4.47107C2.72461 4.46507 2.73296 4.37108 2.70596 4.30908C2.35796 3.46375 2.01094 2.6184 1.66494 1.77307C1.64794 1.73107 1.64485 1.67307 1.56485 1.64807C1.51685 2.19107 1.46469 2.72406 1.42569 3.25806C1.38778 3.48956 1.38371 3.72532 1.41299 3.95807C1.4215 4.05773 1.46494 4.15107 1.53604 4.22144C1.60713 4.2918 1.70094 4.33456 1.80069 4.34204C1.86369 4.34904 1.93664 4.33406 1.92764 4.43506C1.91864 4.53606 1.83962 4.50706 1.78262 4.50806C1.42729 4.50806 1.07234 4.50806 0.717678 4.50806C0.661678 4.50806 0.583681 4.53806 0.571681 4.43506C0.559681 4.33206 0.628775 4.34508 0.692775 4.33508C0.809797 4.31225 0.915361 4.25033 0.99258 4.15948C1.0698 4.06864 1.11389 3.95426 1.11758 3.83508C1.16158 3.52108 1.17387 3.20109 1.20987 2.88708C1.24887 2.55308 1.2678 2.21709 1.3168 1.88708C1.3458 1.69508 1.3609 1.50007 1.3749 1.30707C1.3859 1.15307 1.21953 0.998031 1.01553 0.944031C0.948529 0.926031 0.815912 0.988055 0.832912 0.844055C0.832383 0.830102 0.835108 0.816208 0.841213 0.80365C0.847317 0.791092 0.856281 0.780237 0.86758 0.772034L1.82461 0.769043Z" fill="white"/>
<path id="Path 1520" d="M26.1717 4.60108C25.7828 4.60643 25.401 4.49605 25.075 4.28401C24.749 4.07196 24.4934 3.76782 24.3406 3.41017C24.1878 3.05251 24.1445 2.65752 24.2166 2.27534C24.2887 1.89316 24.4727 1.54101 24.7454 1.26368C25.0181 0.986348 25.3674 0.796316 25.7483 0.717721C26.1292 0.639127 26.5249 0.675524 26.8851 0.822275C27.2452 0.969025 27.5538 1.21953 27.7713 1.54194C27.9888 1.86436 28.1055 2.24413 28.1067 2.63307C28.1108 2.88986 28.0639 3.1449 27.9686 3.38337C27.8732 3.62184 27.7311 3.83897 27.5511 4.0221C27.371 4.20524 27.1565 4.35075 26.9197 4.45014C26.6829 4.54954 26.4285 4.60085 26.1717 4.60108ZM27.4715 2.64509C27.4771 2.37415 27.4395 2.10401 27.3597 1.84504C27.296 1.58395 27.1479 1.35124 26.9383 1.18305C26.7287 1.01486 26.4692 0.920628 26.2005 0.915048C25.935 0.901898 25.6732 0.978793 25.4568 1.13325C25.2405 1.2877 25.0824 1.51068 25.0086 1.76606C24.7957 2.34536 24.8045 2.98291 25.0335 3.55604C25.1106 3.79501 25.2629 4.00272 25.4676 4.14814C25.6723 4.29356 25.9187 4.36892 26.1697 4.36305C26.417 4.36747 26.6594 4.29392 26.8626 4.15284C27.0658 4.01176 27.2193 3.81031 27.3016 3.57704C27.4218 3.2814 27.4802 2.9641 27.4715 2.64509Z" fill="white"/>
<path id="Path 1521" d="M33.0269 2.71206C32.8269 3.25606 32.627 3.78706 32.436 4.31906C32.427 4.35326 32.4152 4.38674 32.4009 4.41909C32.3689 4.47609 32.3759 4.57109 32.2729 4.56509C32.1699 4.55909 32.1919 4.47508 32.1729 4.42208C31.9489 3.80908 31.7349 3.19208 31.5049 2.58108C31.4109 2.33308 31.393 2.01808 31.042 1.95108C31.028 1.95108 31.0147 1.90607 31.0127 1.88107C31.0127 1.83807 31.0376 1.81808 31.0786 1.81808H31.9526C31.9896 1.81808 32.0258 1.82406 32.0308 1.87106C32.0358 1.91806 32.0228 1.95608 31.9678 1.96108C31.7918 1.97908 31.7797 2.09307 31.8247 2.22207C32.0067 2.75207 32.195 3.27909 32.396 3.84909C32.578 3.34909 32.7507 2.8981 32.9097 2.4371C32.9607 2.2881 32.8098 2.0551 32.6338 1.9811C32.5808 1.9581 32.4877 1.9691 32.5117 1.8721C32.5357 1.7751 32.6118 1.82109 32.6738 1.82009C32.9148 1.82009 33.1569 1.82009 33.3989 1.82009C33.4499 1.82009 33.5208 1.7941 33.5288 1.8851C33.5358 1.9571 33.4827 1.9591 33.4287 1.9681C33.2747 1.9951 33.279 2.11008 33.314 2.21408C33.497 2.74808 33.6876 3.27909 33.8906 3.85409C34.0906 3.29309 34.2908 2.77505 34.4688 2.25405C34.5198 2.10805 34.4967 1.98108 34.3037 1.96408C34.2487 1.96408 34.2039 1.95105 34.2119 1.87905C34.2199 1.80705 34.2627 1.81906 34.3047 1.81906H34.9668C35.0088 1.81906 35.0549 1.81906 35.0669 1.87606C35.0694 1.88627 35.0697 1.89691 35.0679 1.90725C35.066 1.91759 35.062 1.92744 35.0562 1.93618C35.0503 1.94492 35.043 1.95237 35.0342 1.95803C35.0253 1.9637 35.0153 1.96744 35.0049 1.96908C34.7819 2.02908 34.7047 2.21308 34.6367 2.40408C34.3967 3.06408 34.1567 3.72407 33.9097 4.38107C33.8847 4.45007 33.895 4.57407 33.771 4.56307C33.671 4.55407 33.6817 4.44605 33.6567 4.37905C33.4807 3.90005 33.3116 3.4181 33.1396 2.9371C33.1208 2.85406 33.0822 2.77681 33.0269 2.71206Z" fill="white"/>
<path id="Path 1522" d="M6.04004 3.09002C6.05629 2.86075 6.1257 2.6384 6.24268 2.44055C6.35965 2.24269 6.52081 2.07481 6.71387 1.95007C6.89364 1.8407 7.09575 1.77323 7.30518 1.75274C7.5146 1.73225 7.72578 1.75927 7.92334 1.83172C8.1209 1.90417 8.29976 2.02023 8.44629 2.17126C8.59282 2.32229 8.70358 2.50437 8.77002 2.70404C8.88614 3.06221 8.85773 3.45157 8.69092 3.78912C8.5241 4.12667 8.23201 4.38572 7.87695 4.51104C7.69748 4.56913 7.50814 4.5901 7.32031 4.57263C7.13248 4.55516 6.94987 4.49961 6.78418 4.40942C6.61849 4.31923 6.47308 4.19629 6.35645 4.04803C6.23981 3.89977 6.15461 3.72931 6.10596 3.54705C6.07225 3.39664 6.05027 3.24382 6.04004 3.09002ZM8.36084 3.20202C8.37527 2.91419 8.31264 2.62776 8.17969 2.37207C8.10979 2.24332 8.00731 2.13526 7.88232 2.05883C7.75734 1.98241 7.61423 1.94031 7.46777 1.93676C7.32132 1.93321 7.17688 1.96835 7.04834 2.03863C6.9198 2.10891 6.8119 2.21182 6.73584 2.33703C6.60734 2.55385 6.53152 2.79775 6.51416 3.04919C6.4968 3.30062 6.53827 3.55261 6.63574 3.78503C6.68538 3.96581 6.79588 4.12405 6.94824 4.23327C7.10061 4.34249 7.28551 4.39611 7.47266 4.38507C7.65541 4.3805 7.83202 4.31725 7.97607 4.20471C8.12013 4.09216 8.2243 3.93628 8.27295 3.76007C8.32816 3.57908 8.35767 3.39121 8.36084 3.20202Z" fill="white"/>
<path id="Path 1523" d="M37.1557 4.5139H36.7719C36.7289 4.5139 36.6828 4.5189 36.6718 4.4619C36.6677 4.44999 36.6666 4.43727 36.6684 4.42479C36.6701 4.41231 36.6748 4.40046 36.682 4.39013C36.6892 4.37979 36.6988 4.37129 36.7099 4.36535C36.721 4.3594 36.7334 4.35621 36.746 4.35595C36.927 4.32995 36.9096 4.21293 36.8686 4.08593C36.8566 4.04493 36.8469 4.00394 36.8329 3.96294C36.6249 3.34194 36.6249 3.34494 35.9599 3.39794C35.9254 3.39633 35.8913 3.40716 35.8642 3.42846C35.837 3.44975 35.8186 3.48004 35.8119 3.5139C35.7519 3.7039 35.6789 3.88892 35.6259 4.08092C35.5929 4.19992 35.5826 4.32991 35.7606 4.35491C35.8216 4.36391 35.8487 4.39494 35.8417 4.45494C35.8347 4.51494 35.791 4.51293 35.747 4.51293H35.1469C35.1039 4.51293 35.0578 4.51295 35.0468 4.45995C35.0358 4.40695 35.047 4.36991 35.102 4.35991C35.329 4.32391 35.3808 4.13795 35.4408 3.95995C35.6758 3.27595 35.9095 2.5909 36.1405 1.9049C36.1785 1.7889 36.2257 1.73095 36.3607 1.73095C36.4126 1.72466 36.4648 1.73891 36.5063 1.77068C36.5477 1.80245 36.5755 1.84921 36.5829 1.90093C36.8082 2.5956 37.0379 3.28895 37.2719 3.98095C37.3279 4.14695 37.3716 4.33195 37.5946 4.35595C37.6466 4.36095 37.6636 4.3999 37.6566 4.4489C37.6496 4.4979 37.6015 4.50591 37.5565 4.50591C37.4255 4.51491 37.2907 4.5139 37.1557 4.5139ZM36.2499 2.20592C36.1749 2.42992 36.1097 2.5879 36.0697 2.7509C36.0347 2.8879 35.8698 3.05093 36.0048 3.15093C36.1048 3.22593 36.3048 3.1679 36.4608 3.1679C36.5338 3.1679 36.5605 3.13894 36.5365 3.06194C36.4455 2.79994 36.3589 2.53092 36.2499 2.20592Z" fill="white"/>
<path id="Path 1524" d="M19.081 4.51398C18.96 4.51398 18.8387 4.51398 18.7177 4.51398C18.6667 4.51398 18.5967 4.53501 18.5917 4.44501C18.5917 4.37701 18.6339 4.362 18.6859 4.354C18.8249 4.333 18.8346 4.23598 18.8046 4.13098C18.7396 3.91398 18.6656 3.69897 18.5976 3.48297C18.5927 3.4586 18.579 3.43691 18.559 3.42212C18.539 3.40733 18.5144 3.40055 18.4897 3.40302H18.4257C17.7537 3.37802 17.6739 3.44302 17.5419 4.11902C17.5179 4.23902 17.5416 4.33302 17.6786 4.35602C17.7316 4.36502 17.7789 4.37902 17.7729 4.44702C17.7669 4.51502 17.7139 4.51501 17.6659 4.51501H17.0658C17.0238 4.51501 16.9767 4.51499 16.9657 4.45599C16.9547 4.39699 16.9757 4.37 17.0277 4.362C17.2417 4.327 17.2998 4.15299 17.3578 3.98499C17.5958 3.29499 17.8329 2.60401 18.0629 1.91101C18.1019 1.79401 18.1466 1.73999 18.2816 1.73999C18.4166 1.73999 18.4619 1.791 18.5009 1.909C18.7249 2.60433 18.9542 3.29731 19.1889 3.98798C19.2449 4.15198 19.2886 4.34098 19.5126 4.36298C19.5666 4.36898 19.5787 4.41201 19.5727 4.45801C19.5667 4.50401 19.5206 4.51599 19.4726 4.51599L19.081 4.51398ZM18.1806 2.21399C18.1116 2.41399 18.0539 2.56998 18.0019 2.72998C17.8469 3.20498 17.8475 3.205 18.3485 3.172H18.3695C18.4765 3.18 18.4898 3.124 18.4608 3.039C18.3688 2.779 18.2806 2.51797 18.1776 2.21497L18.1806 2.21399Z" fill="white"/>
<path id="Path 1525" d="M10.856 3.10613C10.856 3.40613 10.856 3.70609 10.856 4.00109C10.856 4.17409 10.887 4.33308 11.105 4.35808C11.1157 4.35775 11.1263 4.35975 11.1362 4.36388C11.1462 4.368 11.1552 4.37416 11.1626 4.38201C11.17 4.38985 11.1757 4.39922 11.1792 4.40941C11.1827 4.4196 11.1836 4.43036 11.1826 4.44109C11.1826 4.51109 11.13 4.51409 11.083 4.51409H10.1826C10.1316 4.51409 10.0827 4.5141 10.0767 4.4431C10.0707 4.3721 10.1198 4.36111 10.1768 4.35411C10.3458 4.33211 10.3999 4.21209 10.4019 4.06609C10.4019 3.42009 10.4077 2.77412 10.4087 2.12712C10.4087 2.07312 10.419 2.00209 10.335 2.00109C10.1303 1.97185 9.92163 1.99458 9.72803 2.06713C9.68924 2.08508 9.65562 2.11307 9.63135 2.14824C9.60708 2.18342 9.59286 2.22445 9.58984 2.26708C9.58384 2.32808 9.55475 2.35812 9.48975 2.35112C9.42475 2.34412 9.4209 2.2911 9.4209 2.2401C9.4209 2.0771 9.4209 1.91411 9.4209 1.75011C9.4209 1.62911 9.51292 1.60412 9.56592 1.67912C9.60615 1.72869 9.659 1.76662 9.71875 1.78911C9.7785 1.8116 9.84283 1.81784 9.90576 1.80712C10.3888 1.81312 10.873 1.81312 11.356 1.80712C11.479 1.80712 11.6078 1.81309 11.6958 1.67809C11.7318 1.62109 11.8349 1.61209 11.8389 1.73009C11.8459 1.90709 11.8389 2.08511 11.8389 2.26311C11.8389 2.30811 11.8309 2.3491 11.7729 2.3521C11.7514 2.35496 11.7292 2.35008 11.7109 2.33837C11.6926 2.32665 11.6793 2.30883 11.6729 2.28807C11.594 2.16167 11.4752 2.06505 11.3354 2.01329C11.1957 1.96153 11.0431 1.95762 10.9009 2.00212C10.8199 2.03812 10.8487 2.11008 10.8477 2.16808C10.8477 2.48008 10.8477 2.79309 10.8477 3.10509L10.856 3.10613Z" fill="white"/>
<path id="Path 1526" d="M28.927 4.15717C28.927 4.07217 28.927 3.98619 28.927 3.90119C28.927 3.84519 28.9191 3.78217 29.0031 3.77717C29.0871 3.77217 29.08 3.83618 29.093 3.89118C29.1098 4.03506 29.1818 4.16684 29.2937 4.25892C29.4055 4.351 29.5486 4.39626 29.6931 4.3852C29.7861 4.39174 29.8785 4.36878 29.9577 4.31959C30.0369 4.27039 30.0987 4.19748 30.134 4.11122C30.1728 4.02217 30.1807 3.92268 30.1564 3.82862C30.1322 3.73456 30.0773 3.6513 30.0002 3.59217C29.8331 3.45982 29.6566 3.33924 29.4728 3.23121C29.3415 3.168 29.2264 3.07572 29.1359 2.96137C29.0455 2.84703 28.9821 2.71358 28.9509 2.57118C28.9341 2.44943 28.9486 2.32542 28.9924 2.21058C29.0361 2.09574 29.1078 1.99378 29.2014 1.91407C29.2949 1.83437 29.4072 1.77949 29.5275 1.75453C29.6479 1.72956 29.7723 1.73528 29.8898 1.77119C30.0108 1.79719 30.1308 1.89021 30.2658 1.76521C30.3268 1.70821 30.3752 1.78016 30.3742 1.85816C30.3742 2.00016 30.3742 2.14219 30.3742 2.28419C30.3742 2.33519 30.403 2.40918 30.321 2.42518C30.239 2.44118 30.2273 2.36718 30.2053 2.30818C30.1867 2.23782 30.1531 2.17214 30.1076 2.11537C30.0621 2.05859 30.0053 2.01197 29.9406 1.97852C29.876 1.94508 29.8053 1.92558 29.7326 1.92121C29.66 1.91685 29.5874 1.92774 29.5192 1.9532C29.4677 1.96781 29.4198 1.99377 29.3796 2.02918C29.3394 2.0646 29.3078 2.10856 29.2868 2.15785C29.2658 2.20713 29.2562 2.26051 29.2585 2.31403C29.2608 2.36756 29.2748 2.41987 29.3 2.46717C29.3605 2.59683 29.4603 2.70422 29.5852 2.77418C29.7852 2.89818 29.9849 3.01316 30.1779 3.15016C30.3259 3.24462 30.4373 3.38709 30.4929 3.55366C30.5484 3.72023 30.5448 3.90082 30.4831 4.06519C30.4161 4.23113 30.2964 4.37057 30.1428 4.46229C29.9891 4.55401 29.8099 4.59297 29.632 4.57319C29.513 4.56219 29.397 4.52222 29.278 4.49922C29.231 4.49022 29.1609 4.46617 29.1359 4.48817C28.8869 4.71017 28.9362 4.48816 28.9362 4.35316C28.9252 4.28516 28.927 4.22117 28.927 4.15717Z" fill="white"/>
<path id="Path 1527" d="M21.0614 4.51412C20.7704 4.51412 20.4794 4.51412 20.1874 4.51412C20.1364 4.51412 20.0652 4.53711 20.0522 4.45211C20.0392 4.36711 20.1011 4.36313 20.1591 4.35213C20.224 4.34387 20.2832 4.31039 20.3236 4.25893C20.3641 4.20747 20.3828 4.14213 20.3754 4.07711C20.3814 3.46711 20.3814 2.85678 20.3754 2.24611C20.3788 2.2121 20.3752 2.17779 20.3651 2.1451C20.3551 2.11241 20.3387 2.08201 20.3168 2.05575C20.2949 2.02948 20.2681 2.00788 20.2377 1.99215C20.2074 1.97641 20.1741 1.96688 20.1401 1.96413C20.0861 1.95713 20.0402 1.94217 20.0502 1.87417C20.0602 1.80617 20.1204 1.81612 20.1674 1.81612C20.4794 1.81612 20.792 1.81612 21.1054 1.81612C21.1584 1.81612 21.2275 1.80113 21.2255 1.89113C21.2235 1.98113 21.1651 1.95814 21.1171 1.96114C20.9171 1.97214 20.8461 2.09515 20.8451 2.27315C20.8451 2.87315 20.8451 3.48013 20.8451 4.08413C20.8451 4.23513 20.9232 4.30214 21.0702 4.30214C21.2342 4.30214 21.3975 4.30214 21.5605 4.30214C21.6682 4.31175 21.776 4.28496 21.8666 4.22603C21.9573 4.16711 22.0255 4.07945 22.0605 3.97713C22.0785 3.92613 22.0963 3.85916 22.1733 3.87716C22.2503 3.89516 22.2054 3.96915 22.2094 4.01815C22.2083 4.03216 22.205 4.04597 22.2001 4.05916C22.1051 4.51416 22.1051 4.51315 21.6401 4.51015C21.4481 4.51015 21.2564 4.51015 21.0644 4.51015L21.0614 4.51412Z" fill="white"/>
<path id="Path 1528" d="M15.3198 4.51501C15.0358 4.51501 14.7508 4.51501 14.4668 4.51501C14.4098 4.51501 14.3266 4.55198 14.3066 4.45898C14.2866 4.36598 14.3637 4.35901 14.4277 4.35101C14.4846 4.34104 14.5359 4.31039 14.5717 4.26501C14.6075 4.21963 14.6256 4.16266 14.622 4.10498C14.655 3.47998 14.653 2.85498 14.622 2.22998C14.6254 2.16485 14.6029 2.10097 14.56 2.05188C14.5171 2.00279 14.457 1.97235 14.3921 1.96698C14.3361 1.95998 14.2918 1.94597 14.2998 1.87897C14.3078 1.81197 14.368 1.81897 14.415 1.81897C14.721 1.81897 15.027 1.81897 15.332 1.81897C15.382 1.81897 15.4558 1.78997 15.4658 1.87897C15.4758 1.96797 15.407 1.95899 15.353 1.96399C15.3157 1.96546 15.2788 1.97452 15.2451 1.9906C15.2114 2.00667 15.1813 2.02943 15.1567 2.05749C15.1321 2.08556 15.1135 2.11837 15.102 2.15387C15.0905 2.18937 15.0864 2.22681 15.0898 2.26398C15.0808 2.86398 15.0898 3.47199 15.0898 4.07599C15.0861 4.10647 15.0894 4.13742 15.0996 4.16638C15.1098 4.19534 15.1264 4.22158 15.1484 4.24304C15.1703 4.26451 15.1969 4.28063 15.226 4.29016C15.2552 4.29969 15.2865 4.30234 15.3169 4.29797C15.4869 4.29797 15.6576 4.29797 15.8286 4.29797C15.9325 4.30353 16.0356 4.27567 16.1225 4.21844C16.2094 4.16122 16.276 4.07764 16.312 3.97998C16.338 3.91898 16.3559 3.847 16.4419 3.88C16.5279 3.913 16.466 3.97996 16.456 4.02496C16.356 4.51296 16.3559 4.51199 15.8559 4.50799C15.6779 4.50799 15.4997 4.50799 15.3217 4.50799L15.3198 4.51501Z" fill="white"/>
<path id="Path 1529" d="M39.1272 4.51407C38.8502 4.51407 38.5722 4.51407 38.2952 4.51407C38.2392 4.51407 38.155 4.55308 38.135 4.45908C38.115 4.36508 38.1941 4.36611 38.2551 4.35111C38.3115 4.33825 38.3613 4.30594 38.3962 4.25986C38.4312 4.21378 38.4489 4.15685 38.446 4.09909C38.472 3.47443 38.472 2.84943 38.446 2.22409C38.4484 2.16277 38.4278 2.10274 38.3884 2.05564C38.3491 2.00854 38.2939 1.97771 38.2331 1.96909C38.1861 1.95909 38.127 1.9621 38.133 1.8881C38.139 1.8141 38.2099 1.8201 38.2619 1.8201C38.5613 1.8201 38.8612 1.8201 39.1619 1.8201C39.2129 1.8201 39.2842 1.79208 39.2952 1.88108C39.3062 1.97008 39.2368 1.96106 39.1828 1.96506C39.1453 1.9658 39.1085 1.97437 39.0744 1.99021C39.0404 2.00604 39.0103 2.02881 38.9856 2.05704C38.9608 2.08527 38.9421 2.11839 38.9309 2.15421C38.9197 2.19003 38.916 2.2278 38.9202 2.26511C38.9142 2.86511 38.9202 3.4741 38.9202 4.0781C38.9163 4.10835 38.9191 4.13906 38.9289 4.16794C38.9388 4.19682 38.9553 4.22311 38.9768 4.24472C38.9983 4.26634 39.0246 4.28275 39.0535 4.2927C39.0823 4.30264 39.113 4.30585 39.1433 4.3021C39.3203 4.3021 39.498 4.3021 39.676 4.3021C39.7765 4.30625 39.8757 4.2778 39.9587 4.22104C40.0418 4.16428 40.1043 4.08225 40.1369 3.9871C40.1609 3.9231 40.1819 3.85612 40.2659 3.88712C40.3499 3.91812 40.2909 3.98706 40.2829 4.03006C40.1969 4.52106 40.1962 4.52006 39.7112 4.51706C39.5192 4.51706 39.327 4.51706 39.135 4.51706L39.1272 4.51407Z" fill="white"/>
<path id="Path 1530" d="M13.0024 1.81716C13.1444 1.81716 13.2872 1.81716 13.4292 1.81716C13.4812 1.81716 13.5511 1.79813 13.5581 1.88613C13.5631 1.95913 13.5055 1.95715 13.4585 1.96615C13.3976 1.97451 13.3419 2.00508 13.3022 2.05197C13.2626 2.09885 13.2414 2.15872 13.2432 2.22012C13.2102 2.84412 13.2132 3.46813 13.2432 4.09213C13.2388 4.15718 13.2605 4.22139 13.3032 4.27066C13.3459 4.31992 13.4062 4.35026 13.4712 4.35513C13.5272 4.36213 13.5715 4.38412 13.5605 4.44912C13.5495 4.51412 13.4962 4.51217 13.4482 4.51217C13.1572 4.51217 12.8662 4.51217 12.5742 4.51217C12.5222 4.51217 12.4532 4.53013 12.4492 4.44113C12.4492 4.37313 12.4943 4.36115 12.5493 4.35415C12.7303 4.32915 12.7793 4.19413 12.7803 4.04513C12.7863 3.45613 12.7803 2.86713 12.7803 2.27713C12.7901 2.20541 12.7715 2.13269 12.7285 2.07443C12.6856 2.01616 12.6217 1.97694 12.5503 1.96511C12.5023 1.95611 12.4502 1.95916 12.4502 1.88516C12.4502 1.81116 12.5296 1.81816 12.5806 1.81716C12.7186 1.81516 12.8604 1.81716 13.0024 1.81716Z" fill="white"/>
<path id="Path 1531" d="M6.51034 7.02018C6.51034 6.87818 6.51034 6.73616 6.51034 6.59416C6.51034 6.55416 6.50126 6.50314 6.55526 6.48814C6.60926 6.47314 6.66856 6.46014 6.68856 6.51414C6.72656 6.61414 6.76035 6.57715 6.82235 6.53715C6.85715 6.50539 6.89836 6.48116 6.94296 6.46598C6.98756 6.45081 7.03469 6.44501 7.08163 6.44895C7.12857 6.4529 7.17398 6.46653 7.21542 6.48893C7.25686 6.51133 7.29334 6.54203 7.32235 6.57914C7.38035 6.64614 7.4094 6.64114 7.4664 6.57914C7.52063 6.5164 7.59448 6.47363 7.67587 6.45768C7.75726 6.44173 7.84171 6.4535 7.91561 6.49113C7.9817 6.52692 8.03498 6.58228 8.06845 6.64958C8.10192 6.71687 8.11396 6.79287 8.10263 6.86717C8.10263 7.05217 8.10263 7.23618 8.10263 7.42118C8.10263 7.48618 8.12632 7.57114 8.01132 7.57414C7.89632 7.57714 7.91122 7.49914 7.91122 7.42814C7.91122 7.25814 7.91738 7.08713 7.90438 6.91813C7.89438 6.79413 7.88468 6.65113 7.70468 6.64213C7.52468 6.63313 7.44533 6.75515 7.42733 6.90415C7.41313 7.08077 7.40878 7.25804 7.41366 7.43516C7.41366 7.50816 7.41322 7.58014 7.30722 7.57414C7.21522 7.56914 7.21249 7.50914 7.21249 7.44114C7.21249 7.26414 7.21261 7.08616 7.20761 6.90916C7.20761 6.77516 7.18041 6.64713 7.00741 6.64213C6.97322 6.6393 6.93871 6.64376 6.90634 6.65513C6.87396 6.6665 6.84434 6.68458 6.81942 6.70817C6.79451 6.73176 6.77492 6.76033 6.76181 6.79203C6.74869 6.82374 6.74229 6.85783 6.74325 6.89213C6.72525 7.06713 6.73651 7.24614 6.73251 7.42314C6.73251 7.49014 6.75029 7.56917 6.63729 7.57517C6.52429 7.58117 6.51862 7.50514 6.51962 7.42314C6.51162 7.28914 6.51034 7.15418 6.51034 7.02018Z" fill="white"/>
<path id="Path 1532" d="M12.7249 6.05107C12.753 6.04704 12.7816 6.04704 12.8098 6.05107C12.8948 6.07707 13.0458 6.03811 13.0208 6.19011C12.9958 6.34211 12.8847 6.21911 12.8127 6.22411C12.7407 6.22911 12.6838 6.21811 12.6218 6.22411C12.5802 6.22433 12.5398 6.2384 12.5071 6.26414C12.4744 6.28989 12.4511 6.32585 12.4412 6.36626C12.4312 6.40666 12.435 6.44921 12.4519 6.48723C12.4688 6.52524 12.4977 6.55651 12.5344 6.5761C12.6424 6.6451 12.7516 6.71111 12.8606 6.77611C12.9496 6.81635 13.0208 6.88781 13.0608 6.97697C13.1008 7.06614 13.1066 7.16686 13.0774 7.26012C13.0486 7.34903 12.9933 7.42692 12.9187 7.48326C12.8441 7.5396 12.7538 7.57168 12.6604 7.57512C12.5326 7.58724 12.4038 7.57186 12.2825 7.53007C12.1915 7.50507 12.2094 7.43009 12.2234 7.37309C12.2434 7.28609 12.2996 7.34511 12.3406 7.35411C12.4478 7.39248 12.5629 7.40383 12.6755 7.38713C12.8755 7.33013 12.9305 7.1661 12.7815 7.0211C12.6969 6.9448 12.6045 6.87774 12.5056 6.82109C12.2676 6.67009 12.1768 6.51309 12.2268 6.32109C12.2683 6.22741 12.3394 6.15015 12.4294 6.1013C12.5195 6.05246 12.6237 6.03476 12.7249 6.05107Z" fill="white"/>
<path id="Path 1533" d="M1.37408 7.01196C1.37408 6.87096 1.37408 6.72891 1.37408 6.58691C1.37408 6.46491 1.49905 6.44595 1.52105 6.49395C1.60005 6.67195 1.66404 6.53395 1.73004 6.50195C1.78551 6.46603 1.84958 6.44546 1.91559 6.44232C1.9816 6.43918 2.04689 6.45358 2.10553 6.48407C2.16416 6.51455 2.21374 6.56 2.24908 6.61584C2.28443 6.67168 2.30423 6.7359 2.3067 6.80194C2.3287 7.01994 2.31593 7.24093 2.31793 7.46093C2.31793 7.52393 2.30316 7.57093 2.22516 7.57293C2.14716 7.57493 2.11185 7.53792 2.11285 7.45892C2.11285 7.28192 2.11285 7.10394 2.11285 6.92694C2.10685 6.77694 2.07294 6.63591 1.87994 6.63391C1.84239 6.63069 1.8046 6.63564 1.7691 6.64831C1.73361 6.66098 1.7014 6.68113 1.67437 6.70739C1.64735 6.73366 1.62604 6.76541 1.61236 6.80053C1.59869 6.83565 1.59264 6.87332 1.59478 6.91095C1.58378 7.08795 1.58609 7.26495 1.58209 7.44195C1.58209 7.50895 1.58199 7.56893 1.48199 7.57293C1.38199 7.57693 1.37113 7.51191 1.37213 7.43591L1.37408 7.01196Z" fill="white"/>
<path id="Path 1534" d="M9.54992 7.01099C9.54992 6.86899 9.54992 6.72702 9.54992 6.58502C9.54992 6.44302 9.68987 6.44799 9.71887 6.50299C9.77987 6.61899 9.80807 6.56499 9.87707 6.52399C9.93463 6.47777 10.0042 6.44959 10.0778 6.44293C10.1513 6.43628 10.2252 6.45145 10.2902 6.48658C10.3551 6.5217 10.4083 6.5752 10.443 6.64038C10.4776 6.70556 10.4922 6.77951 10.485 6.85297C10.493 7.04497 10.485 7.23702 10.485 7.42902C10.485 7.49802 10.4989 7.57802 10.3849 7.57502C10.2709 7.57202 10.297 7.48499 10.295 7.41999C10.295 7.24999 10.2947 7.079 10.2867 6.909C10.2767 6.769 10.2368 6.63901 10.0538 6.63501C10.018 6.63201 9.982 6.63631 9.94787 6.64771C9.91374 6.65911 9.88244 6.67734 9.85559 6.7013C9.82873 6.72525 9.80683 6.75444 9.79162 6.78705C9.77641 6.81966 9.7683 6.85503 9.76721 6.89099C9.75314 7.06796 9.748 7.2455 9.75207 7.42298C9.75207 7.48898 9.77197 7.57202 9.65197 7.57502C9.53197 7.57802 9.54016 7.49502 9.54016 7.41602C9.54549 7.28135 9.54859 7.14632 9.54992 7.01099Z" fill="white"/>
<path id="Path 1535" d="M13.9364 7.59202C13.6364 7.60502 13.4512 7.51403 13.3632 7.29203C13.3102 7.1825 13.2902 7.05989 13.3061 6.93925C13.3219 6.81861 13.3726 6.70519 13.452 6.61302C13.5157 6.5399 13.6006 6.48813 13.6947 6.4647C13.7888 6.44127 13.8879 6.44733 13.9784 6.48203C14.0762 6.52405 14.1579 6.59618 14.2118 6.68791C14.2658 6.77963 14.289 6.88617 14.2782 6.99204C14.2632 7.07404 14.2141 7.07301 14.1571 7.07401C13.9861 7.07401 13.8154 7.08001 13.6454 7.07401C13.4944 7.06701 13.4983 7.13303 13.5453 7.24003C13.588 7.32273 13.6589 7.38751 13.745 7.42271C13.8312 7.4579 13.9267 7.46121 14.015 7.43205C14.067 7.42305 14.1534 7.32106 14.1854 7.44706C14.2124 7.55506 14.11 7.56901 14.037 7.58701C14.0038 7.59391 13.9701 7.5956 13.9364 7.59202ZM13.7802 6.95506C13.8682 6.88106 14.0484 7.04301 14.0624 6.84501C14.0645 6.81261 14.0592 6.78016 14.0478 6.7498C14.0363 6.71943 14.0185 6.6919 13.9955 6.66898C13.9725 6.64607 13.9449 6.62829 13.9145 6.61692C13.884 6.60555 13.8516 6.6008 13.8192 6.60301C13.7833 6.59919 13.7467 6.60309 13.7123 6.61436C13.6779 6.62563 13.6463 6.64406 13.6195 6.66844C13.5928 6.69282 13.5719 6.72258 13.5575 6.75578C13.5431 6.78898 13.5355 6.82488 13.536 6.86106C13.535 7.03706 13.7022 6.88506 13.7802 6.95506Z" fill="white"/>
<path id="Path 1536" d="M4.20759 7.59311C4.09969 7.61223 3.98856 7.59536 3.89118 7.54514C3.7938 7.49491 3.71549 7.41409 3.66852 7.31509C3.61172 7.20715 3.58739 7.08509 3.59821 6.96359C3.60903 6.84209 3.65457 6.72631 3.72956 6.6301C3.78871 6.55314 3.87055 6.49663 3.96345 6.46848C4.05634 6.44032 4.1557 6.44194 4.24763 6.47311C4.35209 6.50949 4.44158 6.57944 4.50202 6.67209C4.56246 6.76474 4.59042 6.87481 4.58161 6.98508C4.56961 7.08508 4.50345 7.0691 4.44245 7.0701C4.27945 7.0701 4.11522 7.0761 3.95222 7.0701C3.78922 7.0641 3.79261 7.14608 3.85261 7.25308C3.89784 7.33053 3.96834 7.39003 4.05231 7.42154C4.13628 7.45305 4.22853 7.45463 4.31354 7.42606C4.36754 7.41706 4.45639 7.3201 4.48639 7.4371C4.51639 7.5541 4.40333 7.5661 4.32233 7.5831C4.28448 7.5906 4.24617 7.59397 4.20759 7.59311ZM4.10749 6.95407C4.18549 6.88507 4.36332 7.04709 4.36432 6.84409C4.36489 6.81172 4.35902 6.77961 4.34675 6.74966C4.33447 6.71972 4.31615 6.69254 4.29304 6.66989C4.26992 6.64724 4.24217 6.62955 4.21198 6.61789C4.18179 6.60623 4.1496 6.60085 4.11725 6.60208C3.97825 6.59508 3.80866 6.73211 3.82966 6.85611C3.85766 7.04011 4.01663 6.88807 4.10163 6.95407H4.10749Z" fill="white"/>
<path id="Path 1537" d="M8.96157 7.59315C8.85154 7.61357 8.73798 7.59648 8.63881 7.54463C8.53964 7.49277 8.46071 7.40915 8.41469 7.30714C8.35849 7.19916 8.33474 7.07713 8.34682 6.956C8.3589 6.83487 8.40615 6.71989 8.48256 6.62513C8.54283 6.54938 8.62496 6.49415 8.71791 6.46711C8.81086 6.44007 8.9101 6.44253 9.00161 6.47413C9.10622 6.5106 9.19549 6.5815 9.25454 6.67524C9.31358 6.76899 9.33861 6.88002 9.32631 6.99012C9.31131 7.07212 9.26173 7.07014 9.20473 7.07014C9.03373 7.07014 8.8635 7.07614 8.6935 7.07014C8.5445 7.06414 8.5434 7.13211 8.5934 7.23811C8.638 7.31966 8.70972 7.38318 8.79604 7.41767C8.88236 7.45216 8.97803 7.4555 9.06655 7.42713C9.11755 7.41913 9.20454 7.3171 9.23354 7.4441C9.25854 7.5521 9.15761 7.56514 9.08461 7.58314C9.04415 7.59132 9.00282 7.59469 8.96157 7.59315ZM8.86147 6.95814C8.92247 6.86614 9.10342 7.04813 9.11342 6.84913C9.11504 6.81505 9.10956 6.78099 9.09682 6.74934C9.08408 6.71769 9.06447 6.68917 9.03969 6.66572C9.01491 6.64227 8.98557 6.62445 8.95327 6.61347C8.92096 6.60249 8.88662 6.59863 8.85268 6.60212C8.72068 6.60212 8.54527 6.7601 8.57827 6.8711C8.61627 7.0151 8.75456 6.90314 8.85756 6.95814H8.86147Z" fill="white"/>
<path id="Path 1538" d="M18.4022 7.59405C18.2919 7.6133 18.1786 7.59499 18.08 7.54205C17.9813 7.48911 17.9032 7.4046 17.8583 7.30206C17.8079 7.19569 17.7868 7.07774 17.7977 6.96057C17.8086 6.84339 17.8512 6.73129 17.9203 6.63604C17.9776 6.55809 18.0582 6.5002 18.1503 6.47058C18.2424 6.44096 18.341 6.44113 18.433 6.47107C18.5383 6.50267 18.6297 6.56971 18.6913 6.66082C18.7529 6.75194 18.7813 6.86153 18.7714 6.97107C18.7624 7.06207 18.7144 7.07104 18.6434 7.07104C18.4734 7.07104 18.3032 7.07104 18.1332 7.07104C17.9982 7.06604 17.9961 7.13204 18.0331 7.23004C18.1011 7.40104 18.2864 7.46907 18.5204 7.42407C18.5664 7.41607 18.6402 7.32406 18.6742 7.43206C18.7082 7.54006 18.6194 7.56405 18.5424 7.58105C18.4961 7.58872 18.4491 7.59307 18.4022 7.59405ZM18.287 6.95202C18.37 6.88502 18.542 7.04303 18.557 6.85803C18.5595 6.82376 18.5548 6.78935 18.5428 6.75714C18.5309 6.72493 18.512 6.69568 18.4877 6.67138C18.4634 6.64709 18.4344 6.62836 18.4022 6.61639C18.37 6.60442 18.3354 6.59951 18.3011 6.60205C18.1631 6.60205 17.9934 6.74606 18.0214 6.86706C18.0614 7.02106 18.2024 6.89802 18.2914 6.95202H18.287Z" fill="white"/>
<path id="Path 1539" d="M6.11972 7.58994C6.08131 7.59545 6.04216 7.59256 6.00498 7.58145C5.9678 7.57035 5.93349 7.55128 5.90439 7.52561C5.87529 7.49993 5.85217 7.46828 5.83652 7.43277C5.82087 7.39726 5.81338 7.35878 5.81406 7.31998C5.80206 7.15798 5.80381 6.99494 5.80381 6.83194C5.80381 6.73194 5.81776 6.624 5.65976 6.637C5.61176 6.637 5.58208 6.60998 5.58408 6.55698C5.58608 6.50398 5.61616 6.47599 5.66416 6.48099C5.81716 6.49899 5.81908 6.39996 5.81308 6.29496C5.80708 6.18996 5.8748 6.16896 5.9498 6.16996C6.0398 6.16996 6.00793 6.25198 6.00693 6.29898C6.00693 6.41098 6.01272 6.49895 6.16172 6.47995C6.21372 6.47295 6.26181 6.47995 6.26181 6.55295C6.26181 6.62595 6.23102 6.64695 6.17002 6.63895C6.01302 6.61895 5.999 6.71198 6.004 6.83298C6.009 6.95398 6.00384 7.10194 6.01084 7.23294C6.01084 7.31794 6.03211 7.40696 6.14511 7.41996C6.20411 7.42696 6.28804 7.40397 6.27304 7.50797C6.25804 7.61197 6.16772 7.57394 6.11972 7.58994Z" fill="white"/>
<path id="Path 1540" d="M3.00203 7.32598C3.1003 7.09792 3.18472 6.86416 3.25496 6.62597C3.26712 6.57876 3.28818 6.53432 3.31697 6.49499C3.33698 6.47999 3.36083 6.4714 3.38582 6.47033C3.4108 6.46926 3.43589 6.47577 3.45711 6.48901C3.49811 6.51101 3.47887 6.55 3.46687 6.583C3.35987 6.883 3.25105 7.18296 3.14705 7.48296C3.12105 7.55996 3.07008 7.572 3.00008 7.575C2.96519 7.58036 2.92948 7.57214 2.90047 7.55205C2.87145 7.53197 2.85109 7.50151 2.84383 7.46697C2.74983 7.18497 2.64376 6.90602 2.55476 6.62402C2.54076 6.58202 2.48085 6.511 2.57185 6.484C2.58947 6.47536 2.60887 6.47085 2.62849 6.47082C2.64812 6.47078 2.66749 6.47524 2.68513 6.48382C2.70278 6.4924 2.71846 6.50486 2.73054 6.52032C2.74263 6.53577 2.75088 6.5538 2.75496 6.57299C2.81796 6.78299 2.88515 6.99198 2.95515 7.20098C2.95915 7.23098 2.97303 7.26298 3.00203 7.32598Z" fill="white"/>
<path id="Path 1541" d="M15.6537 7.36511C15.7537 7.07511 15.8258 6.84713 15.8978 6.61713C15.9258 6.52913 15.9627 6.44411 16.0707 6.48511C16.1787 6.52611 16.0975 6.60708 16.0785 6.66308C15.9925 6.91808 15.8999 7.17113 15.8089 7.42413C15.7809 7.50413 15.7619 7.5811 15.6429 7.5791C15.5239 7.5771 15.4986 7.51611 15.4706 7.43011C15.3816 7.16111 15.2886 6.89314 15.1976 6.62414C15.1816 6.57614 15.1268 6.51114 15.2098 6.48614C15.2928 6.46114 15.3629 6.4591 15.3929 6.5711C15.4379 6.7421 15.4926 6.90912 15.5526 7.07812C15.5776 7.15612 15.6067 7.23111 15.6537 7.36511Z" fill="white"/>
<path id="Path 1542" d="M19.3641 6.47217C19.4011 6.47217 19.4514 6.47218 19.5004 6.48218C19.5494 6.49218 19.6155 6.50715 19.6005 6.58215C19.5855 6.65715 19.5221 6.64116 19.4691 6.63116C19.4341 6.62516 19.401 6.61115 19.369 6.60815C19.28 6.60115 19.1861 6.61319 19.1551 6.70819C19.1241 6.80319 19.2122 6.8432 19.2782 6.8822C19.3442 6.9212 19.4313 6.95717 19.5023 7.00317C19.5531 7.0297 19.5948 7.07088 19.6219 7.12134C19.649 7.17179 19.6601 7.22923 19.6542 7.28619C19.6481 7.34629 19.6242 7.40313 19.5853 7.44934C19.5464 7.49555 19.4946 7.52896 19.4364 7.54517C19.2963 7.59872 19.1414 7.59872 19.0013 7.54517C18.9893 7.54275 18.9777 7.53783 18.9676 7.53076C18.9576 7.52369 18.9491 7.51462 18.9427 7.50409C18.9364 7.49356 18.9322 7.48181 18.9305 7.4696C18.9289 7.4574 18.9296 7.445 18.933 7.43317C18.949 7.34917 19.0022 7.39015 19.0472 7.40015C19.0882 7.41093 19.13 7.41832 19.1722 7.42218C19.2722 7.42818 19.3842 7.42816 19.4222 7.31116C19.4602 7.19416 19.3564 7.14116 19.2694 7.09216L19.1942 7.05316C19.0482 6.97016 18.894 6.88515 18.954 6.68115C19.014 6.47715 19.1821 6.47317 19.3641 6.47217Z" fill="white"/>
<path id="Path 1543" d="M5.17578 6.47119C5.22278 6.47119 5.27594 6.47718 5.33594 6.48718C5.39594 6.49718 5.41186 6.54318 5.40186 6.59918C5.39186 6.65518 5.34376 6.64616 5.30176 6.63916C5.25976 6.63216 5.2477 6.62015 5.2207 6.61615C5.1207 6.60115 5.00389 6.59116 4.96289 6.70416C4.92189 6.81716 5.03677 6.85317 5.11377 6.90417C5.13777 6.91917 5.16396 6.93018 5.18896 6.94318C5.44096 7.07618 5.51892 7.23217 5.41992 7.40717C5.34293 7.49496 5.23993 7.55602 5.12598 7.58154C5.01202 7.60707 4.89273 7.59576 4.78564 7.54919C4.77424 7.54459 4.76412 7.53776 4.75537 7.52911C4.74662 7.52047 4.73961 7.51019 4.73486 7.49884C4.73012 7.48749 4.72755 7.47531 4.72754 7.46301C4.72753 7.45072 4.73013 7.43854 4.73486 7.42719C4.75586 7.36719 4.80096 7.39419 4.83496 7.40619C4.85524 7.41268 4.87597 7.4177 4.89697 7.4212C5.01597 7.4342 5.15787 7.47016 5.21387 7.32916C5.27587 7.16916 5.11402 7.1372 5.02002 7.0752C4.97902 7.0482 4.93607 7.02418 4.89307 7.00018C4.8384 6.97426 4.79395 6.93023 4.76807 6.87555C4.74218 6.82086 4.73637 6.75891 4.75098 6.7002C4.77998 6.5612 4.88872 6.51218 5.01172 6.48718C5.06591 6.47776 5.12079 6.47242 5.17578 6.47119Z" fill="white"/>
<path id="Path 1544" d="M11.2226 7.59102C11.1869 7.59582 11.1508 7.59297 11.1162 7.58272C11.0816 7.57246 11.0493 7.55502 11.022 7.53151C10.9946 7.508 10.9724 7.47896 10.957 7.4463C10.9416 7.41364 10.9333 7.37808 10.9326 7.342C10.9186 7.17299 10.919 7.00199 10.915 6.83199C10.915 6.73199 10.9379 6.62304 10.7759 6.63704C10.7269 6.63704 10.6997 6.60798 10.7007 6.55598C10.6993 6.54528 10.7009 6.53444 10.7046 6.52431C10.7083 6.51418 10.7142 6.50508 10.7221 6.49776C10.7301 6.49043 10.7396 6.4851 10.75 6.48219C10.7604 6.47928 10.7712 6.47889 10.7817 6.48103C10.9167 6.49603 10.9328 6.41599 10.9248 6.31099C10.9212 6.29335 10.9216 6.27511 10.9263 6.25771C10.9309 6.2403 10.9397 6.22426 10.9516 6.21077C10.9636 6.19728 10.9784 6.18673 10.9951 6.18001C11.0118 6.17328 11.0299 6.17056 11.0478 6.17201C11.1668 6.16601 11.1167 6.26304 11.1147 6.30904C11.1077 6.43304 11.1398 6.5 11.2778 6.48C11.3318 6.473 11.3779 6.49004 11.3779 6.55904C11.3779 6.62804 11.3318 6.64602 11.2778 6.63802C11.1128 6.61502 11.1127 6.71703 11.1177 6.83803C11.1177 6.97303 11.1177 7.10799 11.1177 7.23799C11.1177 7.32999 11.1508 7.40799 11.2558 7.42299C11.3148 7.43199 11.3967 7.40402 11.3847 7.51002C11.3727 7.61602 11.2826 7.57502 11.2226 7.59102Z" fill="white"/>
<path id="Path 1545" d="M17.4129 6.64206C17.3419 6.6301 17.2686 6.64138 17.2044 6.67416C17.1403 6.70695 17.0884 6.75949 17.0565 6.82407C17.0184 6.89301 17.0009 6.97139 17.0057 7.05002C17.0105 7.12864 17.0376 7.20428 17.0838 7.2681C17.1283 7.32928 17.1905 7.37523 17.262 7.39975C17.3336 7.42426 17.4111 7.42611 17.4837 7.40506C17.5387 7.39606 17.6106 7.33008 17.6356 7.43808C17.6606 7.54608 17.5726 7.55307 17.5076 7.57107C17.394 7.60205 17.2735 7.59768 17.1624 7.55856C17.0513 7.51944 16.9548 7.44743 16.8856 7.35208C16.8227 7.24869 16.7913 7.12926 16.7952 7.00833C16.7992 6.8874 16.8382 6.77023 16.9076 6.67111C16.9876 6.58476 17.0898 6.52198 17.203 6.48971C17.3162 6.45745 17.4361 6.45688 17.5496 6.48807C17.6016 6.50607 17.6398 6.52911 17.6278 6.59311C17.6158 6.65711 17.6149 6.65106 17.4129 6.64206Z" fill="white"/>
<path id="Path 1546" d="M14.51 7.03101C14.51 6.88201 14.51 6.731 14.51 6.586C14.51 6.486 14.6164 6.44501 14.6424 6.49201C14.7424 6.67401 14.808 6.50201 14.888 6.49201C14.968 6.48201 15.0492 6.421 15.0882 6.529C15.1272 6.637 15.0493 6.64999 14.9593 6.66199C14.7743 6.68899 14.733 6.83801 14.722 6.99201C14.711 7.14601 14.722 7.30201 14.722 7.45801C14.722 7.52701 14.7153 7.58198 14.6223 7.58198C14.5293 7.58198 14.5222 7.52899 14.5222 7.45899C14.5102 7.31099 14.509 7.17001 14.51 7.03101Z" fill="white"/>
<path id="Path 1547" d="M1.00881 6.82501C1.00881 7.03101 1.00881 7.23699 1.00881 7.44299C1.00881 7.50799 1.00904 7.57298 0.91604 7.57598C0.82304 7.57898 0.792969 7.53402 0.793969 7.44702C0.793969 7.02702 0.793969 6.60796 0.793969 6.18896C0.793969 6.10496 0.812645 6.05396 0.911645 6.05596C1.01065 6.05796 1.01174 6.11899 1.01174 6.18499L1.00881 6.82501Z" fill="white"/>
<path id="Path 1548" d="M16.5264 7.04915C16.5264 7.18315 16.5264 7.31811 16.5264 7.44911C16.5264 7.52011 16.5113 7.57316 16.4263 7.57216C16.3413 7.57116 16.3262 7.51314 16.3262 7.44514C16.3262 7.16214 16.3262 6.88012 16.3262 6.59712C16.3262 6.52612 16.3383 6.47411 16.4263 6.47511C16.5143 6.47611 16.5264 6.53215 16.5264 6.60115C16.5264 6.75315 16.5264 6.90115 16.5264 7.04915Z" fill="white"/>
<path id="Path 1549" d="M16.4185 5.97395C16.4875 5.96795 16.5183 5.99495 16.5273 6.06795C16.5363 6.14095 16.5044 6.18296 16.4204 6.18196C16.3364 6.18096 16.3203 6.14992 16.3203 6.08192C16.3203 6.01392 16.3435 5.96895 16.4185 5.97395Z" fill="white"/>
</g>
</g>
</g>
</svg>
