<svg width="179" height="48" viewBox="0 0 179 48" fill="none" xmlns="http://www.w3.org/2000/svg">
<g id="Group 1117">
<path id="Path 1575" d="M57.4019 20.679V2.70996H73.293C76.568 2.70996 81.8398 3.15299 81.8398 7.42499C81.8398 9.52499 79.9979 11.006 77.8569 11.542C80.5249 12.342 81.8398 13.818 81.8398 15.835C81.8398 20.235 76.84 20.661 73.293 20.674H57.4019V20.679ZM63.2371 13.107L64.9041 10.353C65.1153 10.046 65.3976 9.79468 65.7271 9.62054C66.0565 9.44641 66.4232 9.3546 66.7959 9.35297H73.2959C74.4559 9.35297 75.396 8.821 75.396 7.922C75.396 7.023 74.4599 6.48096 73.2959 6.48096H63.2349V13.11L63.2371 13.107ZM63.2371 13.107V20.67L64.9041 17.911C65.1156 17.6043 65.3979 17.3532 65.7273 17.1791C66.0567 17.005 66.4233 16.9131 66.7959 16.911H73.2039C73.4749 16.949 73.7508 16.9283 74.0132 16.8505C74.2755 16.7727 74.5181 16.6395 74.7246 16.46C74.9311 16.2804 75.0968 16.0586 75.2102 15.8096C75.3237 15.5606 75.3823 15.2901 75.3823 15.0165C75.3823 14.7428 75.3237 14.4724 75.2102 14.2234C75.0968 13.9744 74.9311 13.7526 74.7246 13.573C74.5181 13.3934 74.2755 13.2602 74.0132 13.1824C73.7508 13.1046 73.4749 13.084 73.2039 13.122L63.2371 13.107ZM95.946 7.047L88.0701 20.692H81.209L92.1929 2.70801H99.7L110.672 20.679H103.819L101.976 17.479H91.8079L93.4949 14.724C93.7078 14.4189 93.9904 14.169 94.3193 13.9951C94.6482 13.8211 95.014 13.7282 95.386 13.724H99.791L95.946 7.047ZM143.654 7.047L135.784 20.692H128.908L139.888 2.70801H147.395L158.365 20.679H151.525L149.68 17.479H139.514L141.181 14.724C141.392 14.4184 141.673 14.168 142.001 13.994C142.33 13.8199 142.695 13.7273 143.066 13.724H147.477L143.633 7.052H143.65L143.654 7.047ZM121.302 16.912C122.637 16.912 123.702 16.267 123.702 14.961V2.70996H129.51V15.501C129.51 19.379 126.944 20.678 123.585 20.678H113.877C113.505 20.6744 113.139 20.5818 112.811 20.4078C112.482 20.2338 112.2 19.9835 111.988 19.678L110.3 16.91L121.302 16.912ZM168.987 16.912C170.323 16.912 171.387 16.267 171.387 14.961V2.70996H177.214V15.501C177.214 19.379 174.654 20.678 171.292 20.678H161.584C161.212 20.676 160.846 20.584 160.517 20.4099C160.188 20.2358 159.906 19.9847 159.695 19.678L158.008 16.91L168.987 16.912Z" fill="#A5A5A5"/>
<path id="Path 1576" d="M57.3689 26.6602H71.7539V31.0272H62.354V35.3102H70.854V39.4452H62.354V44.6451H57.3699L57.3689 26.6602Z" fill="#A5A5A5"/>
<path id="Path 1577" d="M75.144 26.6602H80.144V44.6432H75.144V26.6602Z" fill="#A5A5A5"/>
<path id="Path 1578" d="M84.469 26.6602H89.1189L96.519 36.1602V26.6602H101.451V44.6432H97.084L89.4109 34.7802V44.6432H84.47L84.469 26.6602Z" fill="#A5A5A5"/>
<path id="Path 1579" d="M104.304 41.9701L107.076 38.6581C108.714 40.028 110.774 40.7906 112.909 40.8171C114.244 40.8171 114.964 40.3542 114.964 39.5832V39.5321C114.964 38.7881 114.373 38.3742 111.935 37.8122C108.104 36.9372 105.152 35.8611 105.152 32.1601V32.1101C105.152 28.7721 107.798 26.3542 112.114 26.3542C114.786 26.2508 117.407 27.0975 119.514 28.7441L117.023 32.2621C115.563 31.1749 113.809 30.5556 111.99 30.4861C110.783 30.4861 110.19 31.0001 110.19 31.6451V31.6952C110.19 32.5192 110.807 32.8762 113.299 33.4432C117.435 34.3432 119.999 35.6771 119.999 39.0431V39.0942C119.999 42.7632 117.099 44.9491 112.733 44.9491C109.653 45.0229 106.654 43.9627 104.304 41.9701Z" fill="#A5A5A5"/>
<path id="Path 1580" d="M123.441 26.6602H137.903V30.9001H128.375V33.6222H137.007V37.5532H128.375V40.4102H138.034V44.6462H123.441V26.6602Z" fill="#A5A5A5"/>
<path id="Path 1581" d="M141.604 26.6602H150.104C152.852 26.6602 154.755 27.3801 155.959 28.6111C156.5 29.1608 156.921 29.8167 157.196 30.5374C157.47 31.2581 157.592 32.0279 157.554 32.7982V32.8512C157.595 34.0434 157.26 35.2181 156.595 36.209C155.931 37.2 154.972 37.9568 153.854 38.3722L158.144 44.6412H152.388L148.765 39.1962H146.584V44.6412H141.6V26.6602H141.604ZM149.859 35.2942C151.559 35.2942 152.528 34.4702 152.528 33.1592V33.1102C152.528 31.6952 151.5 30.9781 149.833 30.9781H146.571V35.2961L149.859 35.2942Z" fill="#A5A5A5"/>
<path id="Path 1582" d="M159.149 26.6602H164.725L168.808 38.0402L172.883 26.6602H178.355L171.055 44.7722H166.445L159.149 26.6602Z" fill="#A5A5A5"/>
<path id="Path 1583" d="M39.0949 29.767C39.0949 36.167 31.9489 36.7731 26.8949 36.8021H22.3478V31.0441H31.3898V26.6511H22.3478V20.679H32.3578V16.035H17.0468V36.8101H11.1989V10.696H26.8989C31.5699 10.696 39.0988 11.362 39.0988 17.543C39.0988 20.599 36.4789 22.843 33.4279 23.619C37.2129 24.786 39.0949 26.66 39.0949 29.767ZM24.4489 0.290039C19.8079 0.289841 15.271 1.66591 11.412 4.2442C7.55309 6.82249 4.54535 10.4872 2.76922 14.7749C0.993082 19.0626 0.528397 23.7807 1.43377 28.3326C2.33914 32.8844 4.57394 37.0656 7.85564 40.3473C11.1373 43.629 15.3184 45.8639 19.8703 46.7692C24.4221 47.6746 29.1402 47.2099 33.4279 45.4337C37.7156 43.6576 41.3804 40.6498 43.9587 36.7909C46.537 32.9319 47.913 28.3951 47.9128 23.754C47.9125 17.5323 45.4414 11.5654 41.0427 7.16528C36.6439 2.76519 30.6777 0.29216 24.456 0.290039H24.4489Z" fill="#A5A5A5"/>
</g>
</svg>
