<svg width="114" height="60" viewBox="0 0 114 60" fill="none" xmlns="http://www.w3.org/2000/svg">
<g id="Group 1122">
<g id="Group 1121">
<path id="Path 1585" d="M57.0159 59.1461C38.4825 59.1461 19.9494 59.1501 1.41602 59.1581C0.91602 59.1581 0.754864 59.112 0.755864 58.54C0.775864 39.412 0.775864 20.2841 0.755864 1.15607C0.755864 0.650067 0.893042 0.567078 1.36304 0.567078C38.457 0.577744 75.5507 0.575392 112.644 0.560059C113.221 0.560059 113.26 0.733083 113.26 1.22308C113.246 20.3251 113.246 39.4271 113.26 58.5291C113.26 59.0791 113.131 59.1601 112.612 59.1601C94.0814 59.1441 75.5492 59.1394 57.0159 59.1461ZM66.8279 27.5771C66.8279 22.1631 66.8279 16.7487 66.8279 11.334C66.8366 11.0742 66.8302 10.8141 66.8088 10.5551C66.7088 9.68205 66.475 9.55505 65.709 10.024C63.4875 11.4364 61.018 12.4144 58.4319 12.9061C57.9319 12.9931 57.5318 13.188 57.5588 13.8C57.5808 14.432 58.0709 14.3491 58.4639 14.4001C58.8048 14.3989 59.1427 14.465 59.458 14.5946C59.7733 14.7242 60.06 14.9148 60.3015 15.1554C60.5431 15.396 60.7346 15.6819 60.8655 15.9968C60.9963 16.3116 61.0638 16.6491 61.064 16.9901C61.1193 17.4546 61.1458 17.9222 61.1431 18.3901C61.1491 23.1271 61.1771 27.8651 61.1431 32.6021C61.0961 38.5591 61.343 44.5201 60.95 50.4741C60.927 50.8231 60.826 51.274 61.229 51.454C61.685 51.654 61.937 51.216 62.179 50.938C62.726 50.312 63.231 49.6491 63.752 49.0001C64.024 48.6611 64.2899 48.5731 64.6609 48.9051C65.5046 49.6034 66.4793 50.126 67.5278 50.4421C73.2278 52.4301 78.9849 50.698 82.2959 45.962C83.4123 44.336 84.1955 42.5049 84.6001 40.5745C85.0047 38.644 85.0225 36.6525 84.6528 34.7151C83.5678 27.7801 77.2121 25.2331 71.7481 27.1451C69.8901 27.7951 69.9169 27.845 70.0969 29.761C70.1399 30.225 70.2799 30.3091 70.7109 30.2401C72.0281 29.9871 73.391 30.1369 74.6218 30.6699C75.8526 31.2029 76.8941 32.0944 77.6108 33.2281C78.8825 34.9888 79.6936 37.0397 79.9697 39.194C80.2459 41.3483 79.9784 43.5375 79.1919 45.5621C78.1809 48.4951 75.892 49.7901 72.822 49.6381C69.922 49.4951 66.6359 46.1151 66.7659 43.2701C66.9979 38.0491 66.825 32.8091 66.825 27.5771H66.8279ZM43.197 30.1631C44.5339 29.6151 46.0054 29.4855 47.4175 29.7913C48.8295 30.0972 50.1156 30.824 51.106 31.876C52.8385 33.5655 54.0417 35.7226 54.5691 38.0843C55.0965 40.446 54.9252 42.9101 54.0759 45.1761C53.5241 46.7825 52.4082 48.1341 50.9353 48.9801C49.4624 49.8261 47.7325 50.1089 46.0669 49.7761C44.3524 49.6104 42.7674 48.7917 41.6399 47.4896C40.5124 46.1874 39.9289 44.5016 40.01 42.7811V30.7661C40.01 24.3361 40.01 17.9068 40.01 11.4781C40.01 10.5121 39.701 10.3011 38.898 10.7581C37.0256 11.8349 35.0035 12.6272 32.898 13.1091C32.485 13.2031 31.9249 13.3381 32.0559 13.9271C32.1699 14.4431 32.6759 14.258 33.0559 14.238C33.1559 14.238 33.262 14.21 33.366 14.201C33.6859 14.1389 34.0154 14.1462 34.3323 14.2225C34.6491 14.2989 34.9459 14.4424 35.2024 14.6435C35.4589 14.8445 35.6693 15.0984 35.8191 15.3878C35.9689 15.6773 36.055 15.9955 36.071 16.321C36.1821 17.0156 36.2392 17.7177 36.2419 18.4211C36.2419 26.3081 36.2729 34.1951 36.2549 42.0821C36.4214 44.8103 36.296 47.5485 35.8809 50.2501C35.8079 50.5861 35.7989 50.9701 36.1809 51.1331C36.5979 51.3111 36.804 50.94 36.981 50.67C37.381 50.035 37.747 49.37 38.125 48.722C38.407 48.236 38.7409 48.157 39.1939 48.532C39.8407 49.0568 40.5386 49.5154 41.2769 49.9011C43.4103 51.1269 45.908 51.5602 48.3296 51.1246C50.7512 50.689 52.9414 49.4125 54.5139 47.5201C56.0794 45.752 57.1426 43.5967 57.593 41.2785C58.0434 38.9603 57.8646 36.5637 57.075 34.3381C55.045 27.8301 48.7 26.444 43.814 28.626C43.069 28.95 42.763 29.3301 43.197 30.1631Z" fill="#494949"/>
<path id="Path 1586" d="M66.8249 27.5769C66.8249 32.8089 66.9947 38.0489 66.7567 43.2699C66.6267 46.1149 69.9119 49.4949 72.8129 49.6379C75.8859 49.7899 78.1718 48.4949 79.1828 45.5619C79.9692 43.5373 80.2367 41.3481 79.9606 39.1938C79.6845 37.0395 78.8736 34.9886 77.602 33.2279C76.8853 32.0942 75.8435 31.2027 74.6127 30.6697C73.3819 30.1367 72.019 29.9869 70.7018 30.2398C70.2708 30.3088 70.1308 30.2248 70.0878 29.7608C69.9078 27.8438 69.8809 27.7949 71.7389 27.1449C77.2029 25.2329 83.559 27.7799 84.644 34.7149C85.0136 36.6523 84.9955 38.6438 84.591 40.5743C84.1864 42.5047 83.4032 44.3358 82.2868 45.9618C78.9758 50.6978 73.22 52.4299 67.519 50.4419C66.4704 50.1258 65.4954 49.6032 64.6518 48.9049C64.2808 48.5729 64.0148 48.6609 63.7428 48.9999C63.2218 49.6489 62.7168 50.3118 62.1698 50.9378C61.9278 51.2158 61.6759 51.6538 61.2199 51.4538C60.8199 51.2768 60.9198 50.8229 60.9408 50.4739C61.3298 44.5199 61.0869 38.5588 61.1339 32.6018C61.1719 27.8648 61.1439 23.1269 61.1339 18.3899C61.1367 17.922 61.1102 17.4544 61.0548 16.9898C61.0547 16.6489 60.9874 16.3114 60.8566 15.9966C60.7258 15.6817 60.5339 15.3958 60.2924 15.1552C60.0509 14.9146 59.7642 14.724 59.4489 14.5944C59.1336 14.4648 58.7957 14.3987 58.4547 14.3999C58.0617 14.3499 57.572 14.4328 57.55 13.7998C57.528 13.1878 57.9178 12.9929 58.4228 12.9059C61.0089 12.4142 63.4783 11.4362 65.6999 10.0238C66.4669 9.55884 66.7 9.68185 66.8 10.5548C66.8213 10.8139 66.8275 11.074 66.8188 11.3338C66.8228 16.7492 66.8249 22.1635 66.8249 27.5769Z" fill="#A5A5A5"/>
<path id="Path 1587" d="M43.1969 30.1631C42.7629 29.3301 43.0688 28.9501 43.7968 28.6241C48.6828 26.4421 55.0277 27.824 57.0577 34.336C57.8474 36.5617 58.0264 38.9582 57.5761 41.2765C57.1257 43.5947 56.0625 45.7499 54.497 47.518C52.9244 49.4104 50.7343 50.6869 48.3126 51.1225C45.891 51.5581 43.3933 51.1248 41.2599 49.899C40.5216 49.5134 39.8238 49.0548 39.1769 48.5301C38.7239 48.1551 38.3898 48.2301 38.1078 48.7201C37.7298 49.3711 37.3678 50.0331 36.9638 50.6681C36.7918 50.9381 36.5859 51.309 36.1639 51.131C35.7849 50.968 35.7939 50.584 35.8639 50.248C36.279 47.5464 36.4044 44.8083 36.2379 42.08C36.2559 34.193 36.2277 26.306 36.2247 18.419C36.222 17.7157 36.1649 17.0136 36.0538 16.3191C36.0378 15.9935 35.952 15.6752 35.8021 15.3858C35.6523 15.0963 35.442 14.8425 35.1854 14.6414C34.9289 14.4404 34.6322 14.2969 34.3153 14.2205C33.9985 14.1442 33.6687 14.1368 33.3488 14.199C33.2488 14.208 33.1429 14.2311 33.0389 14.2361C32.6639 14.2561 32.1579 14.441 32.0389 13.925C31.9079 13.336 32.4677 13.201 32.8807 13.107C34.9862 12.6252 37.0084 11.8328 38.8807 10.756C39.6807 10.299 39.9928 10.51 39.9928 11.476C39.9928 17.9047 39.9928 24.334 39.9928 30.764V42.783C39.9117 44.5036 40.4952 46.1894 41.6227 47.4915C42.7502 48.7937 44.3355 49.6123 46.0499 49.778C47.7156 50.1109 49.4452 49.828 50.9181 48.9821C52.391 48.1361 53.5069 46.7844 54.0587 45.178C54.908 42.9121 55.0795 40.448 54.5521 38.0863C54.0247 35.7246 52.8213 33.5674 51.0888 31.878C50.1 30.8291 48.8172 30.104 47.4086 29.7979C46 29.4918 44.5318 29.6191 43.1969 30.1631Z" fill="#A5A5A5"/>
</g>
</g>
</svg>
