<svg width="316" height="43" viewBox="0 0 316 43" fill="none" xmlns="http://www.w3.org/2000/svg">
<path d="M285.934 2.85892e-05C286.636 -0.00174436 287.328 0.16128 287.955 0.47596C288.582 0.79064 289.126 1.24818 289.544 1.81175L314.413 35.876C314.879 36.527 315.155 37.2951 315.209 38.094C315.263 38.893 315.093 39.6912 314.718 40.3991C314.344 41.1069 313.78 41.6964 313.089 42.1014C312.398 42.5064 311.608 42.7109 310.808 42.6919H5.18766C4.38711 42.7109 3.5971 42.5064 2.90629 42.1014C2.21548 41.6964 1.65121 41.1069 1.2768 40.3991C0.902389 39.6912 0.732662 38.893 0.786666 38.094C0.840669 37.2951 1.11627 36.527 1.58253 35.876L26.4562 1.81175C26.8725 1.24775 27.4158 0.789801 28.0422 0.475029C28.6686 0.160256 29.3603 -0.00248094 30.0613 2.85892e-05H285.934Z" fill="#FFCE00"/>
</svg>
