<svg width="30" height="31" viewBox="0 0 30 31" fill="none" xmlns="http://www.w3.org/2000/svg">
<g id="Group 1195">
<path id="Path 1450" d="M5.23119 3.22302V0.96106H7.51623V3.18103H22.6713V0.954102H24.9562V3.22302C25.4502 3.22302 25.8833 3.21702 26.3173 3.22302C26.7731 3.21608 27.2256 3.30038 27.6484 3.47083C28.0712 3.64127 28.4556 3.89445 28.7792 4.21558C29.1027 4.5367 29.3588 4.91932 29.5325 5.34082C29.7061 5.76232 29.7937 6.2142 29.7902 6.67004C29.8022 13.4034 29.8022 20.1344 29.7902 26.863C29.796 27.3194 29.71 27.7724 29.5371 28.1948C29.3642 28.6172 29.108 29.0005 28.7838 29.3218C28.4596 29.6431 28.0741 29.8958 27.6501 30.0649C27.2262 30.234 26.7725 30.316 26.3162 30.306C18.8402 30.3174 11.3636 30.3174 3.88622 30.306C3.42997 30.3155 2.97653 30.233 2.55285 30.0635C2.12916 29.8939 1.74384 29.6409 1.42003 29.3193C1.09623 28.9978 0.840549 28.6143 0.668081 28.1918C0.495613 27.7693 0.409978 27.3164 0.41625 26.8601C0.402917 20.1268 0.402917 13.3961 0.41625 6.66809C0.412953 6.21717 0.498839 5.76999 0.669058 5.35242C0.839276 4.93485 1.09047 4.5551 1.40807 4.23499C1.72567 3.91488 2.10342 3.6608 2.51964 3.4873C2.93586 3.3138 3.38231 3.22437 3.83324 3.22412C4.27124 3.21412 4.70919 3.22302 5.23119 3.22302ZM27.4982 11.76H2.70824V12.312C2.70824 17.0553 2.70824 21.7983 2.70824 26.541C2.70824 27.633 3.09526 28.014 4.20226 28.014H26.0012C27.1082 28.014 27.4932 27.6341 27.4932 26.5391C27.4932 22.4057 27.4932 18.2748 27.4932 14.1461L27.4982 11.76ZM7.50719 5.54504V7.7771H5.20727V5.52405C4.70727 5.52405 4.26416 5.50505 3.82616 5.52405C3.55365 5.521 3.29005 5.62106 3.08812 5.80408C2.8862 5.98709 2.76085 6.23961 2.73717 6.51111C2.69417 7.45911 2.72619 8.41108 2.72619 9.38208H27.4943C27.4943 8.41408 27.5252 7.4821 27.4822 6.5481C27.4781 6.2938 27.3792 6.05015 27.2047 5.86511C27.0302 5.68008 26.7928 5.56703 26.5392 5.5481C26.0116 5.51147 25.4823 5.50706 24.9542 5.53503V7.7821H22.6692V5.54309L7.50719 5.54504Z" fill="white"/>
<path id="Path 1451" d="M4.80078 16.384V14.155H7.02771V16.384H4.80078Z" fill="white"/>
<path id="Path 1452" d="M11.6154 16.4031H9.40137V14.156H11.6183L11.6154 16.4031Z" fill="white"/>
<path id="Path 1453" d="M16.215 16.4139H14.001V14.168H16.2159L16.215 16.4139Z" fill="white"/>
<path id="Path 1454" d="M20.8149 14.1582V16.3812H18.582V14.1582H20.8149Z" fill="white"/>
<path id="Path 1455" d="M25.394 16.397H23.165V14.1709H25.394V16.397Z" fill="white"/>
<path id="Path 1456" d="M4.80078 18.7422H7.02771V20.9802H4.80078V18.7422Z" fill="white"/>
<path id="Path 1457" d="M11.6385 18.7612V20.9812H9.3916V18.7612H11.6385Z" fill="white"/>
<path id="Path 1458" d="M13.9912 18.7461H16.2242V20.972H13.9912V18.7461Z" fill="white"/>
<path id="Path 1459" d="M18.5684 20.9719V18.75H20.8153V20.9719H18.5684Z" fill="white"/>
<path id="Path 1460" d="M23.1699 18.7461H25.39V20.9761H23.1699V18.7461Z" fill="white"/>
<path id="Path 1461" d="M4.79395 25.5781V23.3462H7.03601V25.5781H4.79395Z" fill="white"/>
<path id="Path 1462" d="M9.38477 25.5781V23.3462H11.6267V25.5781H9.38477Z" fill="white"/>
<path id="Path 1463" d="M16.2113 25.5801H13.9844V23.354H16.2113V25.5801Z" fill="white"/>
<path id="Path 1464" d="M18.5879 23.332H20.8098V25.578H18.5879V23.332Z" fill="white"/>
</g>
</svg>
