<svg width="468" height="66" viewBox="0 0 468 66" fill="none" xmlns="http://www.w3.org/2000/svg">
<path d="M30.3032 65.2137C24.0507 65.2137 18.6955 63.8532 14.2376 61.1322C9.77978 58.3823 6.34956 54.5613 3.94696 49.6692C1.57331 44.7772 0.38648 39.1036 0.38648 32.6484C0.38648 26.1932 1.57331 20.5196 3.94696 15.6275C6.34956 10.7355 9.77978 6.92896 14.2376 4.20794C18.6955 1.45798 24.0507 0.0829941 30.3032 0.0829941C37.511 0.0829941 43.5175 1.89218 48.3227 5.51056C53.1279 9.09998 56.5002 13.9486 58.4397 20.0564L47.8885 22.9656C46.6727 18.8841 44.603 15.6999 41.6794 13.4131C38.7557 11.0973 34.9637 9.93945 30.3032 9.93945C26.1059 9.93945 22.6033 10.8802 19.7954 12.7618C17.0165 14.6433 14.9179 17.292 13.4995 20.7077C12.11 24.0945 11.4008 28.0747 11.3719 32.6484C11.3719 37.222 12.0666 41.2167 13.4561 44.6324C14.8745 48.0192 16.9876 50.6534 19.7954 52.535C22.6033 54.4165 26.1059 55.3573 30.3032 55.3573C34.9637 55.3573 38.7557 54.1994 41.6794 51.8837C44.603 49.5679 46.6727 46.3837 47.8885 42.3311L58.4397 45.2403C56.5002 51.3481 53.1279 56.2112 48.3227 59.8296C43.5175 63.419 37.511 65.2137 30.3032 65.2137ZM68.8416 63.9111V1.38561H79.306V63.9111H68.8416ZM92.3124 63.9111V1.38561H117.106C121.332 1.38561 124.791 2.23954 127.483 3.94742C130.204 5.62634 132.216 7.78289 133.518 10.4171C134.85 13.0512 135.516 15.7723 135.516 18.5801C135.516 22.0248 134.691 24.9485 133.041 27.3511C131.42 29.7537 129.205 31.3747 126.398 32.2142V30.0431C130.334 30.9405 133.316 32.8076 135.342 35.6444C137.397 38.4812 138.425 41.7088 138.425 45.3272C138.425 49.0324 137.716 52.2744 136.297 55.0533C134.879 57.8323 132.766 60.0033 129.958 61.5664C127.179 63.1296 123.734 63.9111 119.624 63.9111H92.3124ZM102.907 54.0547H118.321C120.145 54.0547 121.78 53.6928 123.228 52.9692C124.675 52.2165 125.804 51.1745 126.615 49.8429C127.454 48.4824 127.874 46.8758 127.874 45.0232C127.874 43.3443 127.512 41.839 126.788 40.5075C126.065 39.1759 125.008 38.1194 123.619 37.3378C122.229 36.5273 120.565 36.122 118.625 36.122H102.907V54.0547ZM102.907 26.3524H116.975C118.481 26.3524 119.827 26.0629 121.013 25.484C122.2 24.905 123.141 24.0511 123.836 22.9222C124.53 21.7932 124.878 20.4038 124.878 18.7538C124.878 16.5828 124.183 14.7736 122.794 13.3262C121.404 11.8789 119.465 11.1552 116.975 11.1552H102.907V26.3524ZM147.965 63.9111V1.38561H158.43V63.9111H147.965ZM172.305 63.9111V1.38561H182.769V54.0981H210.384V63.9111H172.305ZM253.943 65.2137C249.37 65.2137 245.245 64.4177 241.568 62.8256C237.921 61.2335 234.911 58.9612 232.537 56.0086C230.192 53.0271 228.701 49.4955 228.065 45.414L238.92 43.764C239.846 47.4692 241.742 50.335 244.608 52.3613C247.503 54.3876 250.831 55.4007 254.595 55.4007C256.823 55.4007 258.922 55.0533 260.891 54.3586C262.859 53.6639 264.451 52.6507 265.667 51.3192C266.911 49.9876 267.534 48.3521 267.534 46.4127C267.534 45.5443 267.389 44.7482 267.1 44.0245C266.81 43.2719 266.376 42.6061 265.797 42.0272C265.247 41.4483 264.523 40.9272 263.626 40.4641C262.758 39.972 261.744 39.5522 260.587 39.2049L244.434 34.4286C243.045 34.0234 241.539 33.4878 239.918 32.8221C238.326 32.1273 236.807 31.1865 235.359 29.9997C233.941 28.7839 232.768 27.2498 231.842 25.3971C230.945 23.5156 230.496 21.1998 230.496 18.4499C230.496 14.4262 231.509 11.0539 233.536 8.33289C235.591 5.58292 238.341 3.52768 241.785 2.16718C245.259 0.806667 249.109 0.140886 253.335 0.169834C257.619 0.198779 261.44 0.936927 264.798 2.38428C268.156 3.80268 270.964 5.87239 273.222 8.59341C275.48 11.3144 277.072 14.5999 277.998 18.4499L266.752 20.4038C266.289 18.2038 265.392 16.3367 264.06 14.8025C262.758 13.2394 261.151 12.0526 259.241 11.2421C257.359 10.4315 255.347 9.99734 253.205 9.93945C251.121 9.9105 249.181 10.2289 247.387 10.8947C245.621 11.5315 244.188 12.4578 243.088 13.6736C242.017 14.8894 241.482 16.3078 241.482 17.9288C241.482 19.463 241.945 20.7222 242.871 21.7064C243.797 22.6617 244.941 23.4287 246.301 24.0077C247.691 24.5577 249.095 25.0208 250.513 25.3971L261.715 28.5234C263.25 28.9287 264.972 29.4787 266.883 30.1734C268.793 30.8681 270.631 31.8379 272.397 33.0826C274.163 34.3273 275.61 35.9628 276.739 37.9891C277.897 40.0154 278.476 42.5917 278.476 45.7179C278.476 48.96 277.796 51.8113 276.435 54.2718C275.103 56.7033 273.294 58.7296 271.007 60.3507C268.721 61.9717 266.101 63.1875 263.148 63.998C260.225 64.8085 257.156 65.2137 253.943 65.2137ZM308.239 65.2137C303.404 65.2137 299.279 64.1427 295.864 62.0006C292.448 59.8296 289.828 56.877 288.005 53.1428C286.21 49.4087 285.298 45.1824 285.269 40.4641C285.298 35.6589 286.239 31.4036 288.091 27.6984C289.973 23.9643 292.636 21.0406 296.081 18.9275C299.525 16.7854 303.621 15.7144 308.369 15.7144C313.695 15.7144 318.196 17.0604 321.873 19.7525C325.578 22.4156 327.995 26.0629 329.124 30.6944L318.703 33.5168C317.892 30.9984 316.546 29.0445 314.665 27.655C312.783 26.2366 310.641 25.5274 308.239 25.5274C305.518 25.5274 303.274 26.1787 301.508 27.4813C299.743 28.755 298.44 30.5208 297.601 32.7786C296.761 35.0365 296.341 37.5983 296.341 40.4641C296.341 44.9219 297.34 48.5258 299.337 51.2758C301.335 54.0257 304.302 55.4007 308.239 55.4007C311.017 55.4007 313.203 54.7639 314.795 53.4902C316.416 52.2165 317.632 50.3784 318.442 47.9758L329.124 50.3639C327.676 55.1402 325.144 58.8165 321.525 61.3927C317.907 63.9401 313.478 65.2137 308.239 65.2137ZM357.264 65.2137C352.575 65.2137 348.479 64.1572 344.976 62.0441C341.474 59.9309 338.753 57.0217 336.813 53.3165C334.903 49.5824 333.948 45.2982 333.948 40.4641C333.948 35.5431 334.932 31.23 336.9 27.5247C338.869 23.8195 341.604 20.9248 345.107 18.8406C348.609 16.7565 352.662 15.7144 357.264 15.7144C361.983 15.7144 366.093 16.7709 369.596 18.8841C373.098 20.9972 375.819 23.9208 377.759 27.655C379.698 31.3602 380.668 35.6299 380.668 40.4641C380.668 45.3272 379.684 49.6258 377.715 53.36C375.776 57.0652 373.055 59.9743 369.552 62.0875C366.05 64.1717 361.954 65.2137 357.264 65.2137ZM357.264 55.4007C361.433 55.4007 364.53 54.0113 366.556 51.2323C368.583 48.4534 369.596 44.864 369.596 40.4641C369.596 35.9194 368.568 32.301 366.513 29.6089C364.458 26.8879 361.375 25.5274 357.264 25.5274C354.456 25.5274 352.141 26.1642 350.317 27.4379C348.522 28.6826 347.191 30.4339 346.322 32.6918C345.454 34.9207 345.02 37.5115 345.02 40.4641C345.02 45.0087 346.047 48.6416 348.103 51.3626C350.187 54.0547 353.241 55.4007 357.264 55.4007ZM390.235 63.9111V17.017H399.483V28.4366L398.354 26.9603C398.933 25.3971 399.7 23.9787 400.656 22.7051C401.64 21.4025 402.812 20.3314 404.173 19.492C405.331 18.7104 406.604 18.1025 407.994 17.6683C409.412 17.2051 410.859 16.9301 412.336 16.8433C413.812 16.7275 415.245 16.7854 416.634 17.017V26.7866C415.245 26.3813 413.638 26.2511 411.815 26.3958C410.02 26.5406 408.399 27.0471 406.952 27.9155C405.504 28.6971 404.317 29.6958 403.391 30.9115C402.494 32.1273 401.828 33.5168 401.394 35.0799C400.96 36.6141 400.743 38.2786 400.743 40.0733V63.9111H390.235ZM445.392 65.2137C440.644 65.2137 436.476 64.1861 432.887 62.1309C429.297 60.0757 426.489 57.2244 424.463 53.5771C422.466 49.9297 421.467 45.7324 421.467 40.9851C421.467 35.8615 422.451 31.4181 424.42 27.655C426.388 23.863 429.123 20.9248 432.626 18.8406C436.129 16.7565 440.181 15.7144 444.784 15.7144C449.647 15.7144 453.772 16.8578 457.159 19.1446C460.574 21.4025 463.107 24.6011 464.757 28.7405C466.407 32.8799 467.03 37.7575 466.624 43.3732H456.247V39.5522C456.218 34.4576 455.32 30.7379 453.555 28.3932C451.789 26.0485 449.01 24.8761 445.218 24.8761C440.934 24.8761 437.75 26.2077 435.665 28.8708C433.581 31.505 432.539 35.3694 432.539 40.4641C432.539 45.2114 433.581 48.8876 435.665 51.4929C437.75 54.0981 440.789 55.4007 444.784 55.4007C447.36 55.4007 449.574 54.8362 451.427 53.7073C453.309 52.5494 454.756 50.885 455.769 48.714L466.103 51.8402C464.309 56.0665 461.53 59.352 457.766 61.6967C454.032 64.0414 449.907 65.2137 445.392 65.2137ZM429.239 43.3732V35.4707H461.501V43.3732H429.239Z" fill="white"/>
</svg>
