<svg width="222" height="57" viewBox="0 0 222 57" fill="none" xmlns="http://www.w3.org/2000/svg">
<g id="Group 1113">
<g id="Group 1112">
<g id="Group 1111">
<g id="Group 1102">
<path id="Path 1556" d="M47.5999 28.3594C47.3174 26.9809 46.9159 25.6295 46.3999 24.3204C45.8999 23.0314 45.1999 21.8203 44.5879 20.5713C44.4599 20.3103 44.3118 20.2713 44.0378 20.4363C42.8478 21.1493 41.638 21.8274 40.438 22.5304C37.7473 24.1144 35.0587 25.7021 32.3721 27.2934C29.8981 28.7524 27.427 30.2154 24.938 31.6484C24.8115 31.7122 24.6726 31.7478 24.531 31.7526C24.3894 31.7575 24.2485 31.7314 24.1179 31.6764C23.2039 31.1554 22.3319 30.5634 21.4399 30.0044C18.2639 28.0131 15.0866 26.0237 11.908 24.0364C10.864 23.3824 9.32689 22.2363 8.28589 21.5823C7.79656 22.3119 7.37593 23.0853 7.02905 23.8924C6.84191 24.2706 6.67501 24.6585 6.52905 25.0544C6.59705 25.0964 7.15994 25.6333 7.24194 25.6883C8.45494 26.5063 9.65987 27.3394 10.8909 28.1304C15.2029 30.8964 19.535 33.6304 23.832 36.4214C24.0297 36.5764 24.2737 36.6602 24.5249 36.6591C24.7761 36.658 25.0198 36.5721 25.2161 36.4153C26.9461 35.3803 28.6889 34.3674 30.4329 33.3574C33.5195 31.568 36.6089 29.7827 39.7009 28.0013C40.5179 27.5283 41.3259 27.0364 42.1519 26.5784C42.4259 26.4274 42.781 26.1594 42.958 26.7214C43.5358 28.4906 43.8587 30.3331 43.917 32.1933C44.0452 36.0575 43.0154 39.8717 40.96 43.1464C40.735 43.5034 40.7851 43.6753 41.1121 43.8683C42.0021 44.3933 42.8869 44.9273 43.7729 45.4623C44.0429 45.6253 44.2899 45.6453 44.4509 45.3314C45.0999 44.0634 45.812 42.8203 46.365 41.5113C48.0271 37.3359 48.4546 32.7709 47.5969 28.3594H47.5999Z" fill="#A5A5A5"/>
</g>
<path id="Path 1557" d="M6.0249 26.0642C5.42421 27.6442 5.06432 29.3053 4.95703 30.9922C4.8604 31.7313 4.81163 32.4758 4.81104 33.2212C4.90801 34.5482 5.09028 35.8676 5.35693 37.1712C5.61879 38.4013 5.98285 39.6075 6.44507 40.7772C6.85267 41.6592 7.32035 42.5123 7.84497 43.3302C8.94796 45.1959 10.4032 46.8292 12.1299 48.1392C13.3586 49.0971 14.689 49.9171 16.0969 50.5842C17.3709 51.1524 18.6946 51.602 20.051 51.9272C20.9698 52.1294 21.9011 52.2687 22.8389 52.3442C23.4152 52.4558 24.002 52.5051 24.5889 52.4912C25.9698 52.3854 27.3436 52.2017 28.7039 51.9412C29.931 51.6678 31.137 51.3063 32.312 50.8592C33.0513 50.5619 33.7599 50.1935 34.428 49.7592C35.9776 48.8347 37.3813 47.6852 38.593 46.3482C38.787 46.1312 38.93 46.1292 39.178 46.2992C40.057 46.8992 40.955 47.4702 41.853 48.0392C42.185 48.2492 42.0729 48.4392 41.8599 48.6312C40.8599 49.5442 39.886 50.4912 38.845 51.3562C37.4448 52.5307 35.8734 53.4844 34.1851 54.1842C32.9741 54.6842 31.7699 55.2102 30.5239 55.5982C29.6141 55.8462 28.6841 56.0135 27.7449 56.0982C26.6029 56.2835 25.4488 56.3837 24.292 56.3982C22.7777 56.3718 21.2678 56.225 19.7769 55.9592C18.017 55.6163 16.3097 55.0448 14.698 54.2592C13.1698 53.5554 11.7163 52.6995 10.3599 51.7042C7.21325 49.3503 4.71607 46.236 3.10205 42.6532C2.60205 41.4432 2.07701 40.2362 1.68701 38.9882C1.45014 38.0943 1.28628 37.1826 1.19702 36.2622C1.03202 35.1002 0.907916 33.9322 0.763916 32.7452C0.943916 31.2382 1.03393 29.7162 1.32593 28.2352C1.65567 26.7135 2.1242 25.2253 2.72583 23.7892C3.36555 22.1717 4.21231 20.644 5.24487 19.2442C6.33322 17.8093 7.54356 16.471 8.86206 15.2442C10.4565 13.716 12.3103 12.4841 14.3369 11.6062C15.5377 11.0406 16.7736 10.5526 18.0369 10.1452C19.5463 9.65039 21.1217 9.38542 22.71 9.3592C23.256 9.3702 23.8101 9.17719 24.3521 9.22419C26.034 9.37019 27.729 9.48716 29.385 9.79816C31.7335 10.2829 33.9855 11.1537 36.0491 12.3752C36.9323 12.8747 37.7689 13.4524 38.5491 14.1012C39.6961 15.0602 40.776 16.1012 41.866 17.1262C42.329 17.5612 42.249 17.7832 41.72 18.0942C40.942 18.5522 40.1899 19.0572 39.4419 19.5652C39.3987 19.6086 39.3463 19.6416 39.2883 19.6615C39.2304 19.6814 39.1684 19.6878 39.1077 19.6801C39.0469 19.6723 38.9889 19.6507 38.9377 19.6169C38.8866 19.5832 38.8439 19.5381 38.813 19.4852C36.9683 17.4681 34.7051 15.8784 32.1819 14.8272C30.5988 14.0897 28.9014 13.6281 27.1628 13.4622C25.5687 13.2938 23.9643 13.2471 22.363 13.3222C20.7437 13.4226 19.1536 13.8011 17.6628 14.4412C16.4058 15.0162 15.1531 15.6022 13.9141 16.2152C13.5173 16.418 13.1476 16.67 12.814 16.9652C11.814 17.8302 10.821 18.6962 9.87695 19.6152C9.37947 20.1502 8.91218 20.7124 8.47705 21.2992" fill="#A5A5A5"/>
<g id="Group 1103">
<path id="Path 1558" d="M161.7 32.9291C161.7 36.4181 161.692 39.9061 161.709 43.3941C161.709 43.8531 161.559 43.9941 161.118 43.9661C160.53 43.9351 159.938 43.9471 159.348 43.9661C158.996 43.9771 158.878 43.8371 158.879 43.4921C158.893 37.8208 158.902 32.1501 158.906 26.4801C158.919 26.3916 158.919 26.3017 158.906 26.2131C158.847 26.0619 158.781 25.914 158.706 25.7701C158.6 25.8912 158.51 26.0256 158.439 26.1701C157.844 27.9261 157.256 29.6851 156.673 31.4471C156.09 33.2071 155.513 34.9701 154.929 36.7301C154.329 38.5408 153.726 40.3511 153.119 42.1611C152.972 42.6011 152.8 43.0351 152.694 43.4851C152.687 43.5562 152.665 43.6251 152.631 43.6878C152.597 43.7505 152.551 43.8057 152.495 43.8502C152.439 43.8947 152.374 43.9275 152.306 43.9467C152.237 43.9659 152.165 43.9711 152.094 43.9621C151.468 43.9621 150.839 43.9971 150.217 43.9451C150.094 43.9297 149.976 43.8863 149.872 43.8184C149.768 43.7505 149.681 43.6597 149.617 43.5531C148.917 41.5531 148.27 39.5291 147.6 37.5161C147.014 35.7551 146.416 33.9981 145.829 32.2371C145.242 30.4761 144.651 28.6831 144.062 26.9061C144.023 26.7501 143.964 26.5996 143.888 26.4581C143.771 26.3068 143.642 26.1652 143.502 26.0351C143.421 26.2145 143.366 26.4044 143.338 26.5991C143.338 32.2344 143.343 37.8695 143.352 43.5041C143.352 43.8571 143.217 43.9791 142.873 43.9691C142.284 43.9511 141.691 43.9371 141.103 43.9691C140.65 43.9951 140.521 43.8341 140.522 43.3871C140.536 37.5551 140.539 31.7235 140.532 25.8921C140.532 24.7111 140.543 23.5301 140.523 22.3501C140.517 21.9571 140.639 21.8091 141.045 21.8181C142.1 21.8401 143.156 21.8341 144.211 21.8181C144.387 21.7983 144.564 21.8477 144.705 21.9559C144.846 22.064 144.939 22.2226 144.965 22.3981C145.646 24.5041 146.37 26.5981 147.07 28.6981C147.555 30.1521 148.021 31.6121 148.505 33.0661C148.972 34.4661 149.453 35.8661 149.924 37.2721C150.214 38.1341 150.483 39.0031 150.791 39.8581C150.897 40.0451 151.032 40.2139 151.191 40.3581C151.314 40.2095 151.419 40.0463 151.503 39.8721C151.86 38.8291 152.193 37.7771 152.541 36.7311C153.053 35.1911 153.568 33.6518 154.085 32.1131C154.996 29.3838 155.907 26.6544 156.818 23.9251C156.993 23.3991 157.176 22.8761 157.331 22.3441C157.365 22.1766 157.463 22.0288 157.603 21.9314C157.743 21.834 157.916 21.7945 158.085 21.8211C159.104 21.8391 160.124 21.8491 161.143 21.8211C161.612 21.8061 161.711 21.9881 161.709 22.4211C161.693 25.9121 161.699 29.4231 161.7 32.9291Z" fill="#A5A5A5"/>
</g>
<path id="Path 1559" d="M54.304 32.8843C54.4027 31.548 54.608 30.2219 54.918 28.9183C55.4449 26.6271 56.7566 24.5922 58.626 23.1663C59.6833 22.3552 60.9163 21.804 62.2258 21.5573C63.2157 21.3352 64.2302 21.2421 65.2439 21.2803C67.0764 21.3628 68.8503 21.9512 70.3689 22.9803C71.4457 23.747 72.3042 24.7809 72.8599 25.9803C73.1515 26.6438 73.3747 27.3354 73.5259 28.0443C73.5499 28.1323 73.3321 28.3883 73.2161 28.3943C72.5745 28.442 71.9302 28.4397 71.2891 28.3873C71.1211 28.3703 70.8888 28.0473 70.8508 27.8343C70.6453 26.7791 70.0948 25.8223 69.2859 25.1143C68.4893 24.4265 67.5263 23.9597 66.4929 23.7603C65.0998 23.4181 63.6383 23.4763 62.2769 23.9283C60.9899 24.2699 59.8759 25.0775 59.1509 26.1943C58.8249 26.7593 58.4249 27.2863 58.1509 27.8743C57.9185 28.4414 57.7288 29.025 57.583 29.6203C57.1783 31.271 57.08 32.9821 57.293 34.6683C57.3242 36.7086 58.0569 38.6758 59.3679 40.2393C60.1202 41.1064 61.1413 41.6968 62.2681 41.9163C62.9821 42.0383 63.7031 42.1273 64.4241 42.2033C65.5696 42.2905 66.7156 42.0438 67.7239 41.4933C68.7284 40.9727 69.5536 40.1624 70.092 39.1673C70.5937 38.3318 70.9408 37.4128 71.1169 36.4543C71.157 36.3644 71.2185 36.2857 71.2961 36.2252C71.3737 36.1647 71.4651 36.1242 71.562 36.1073C72.149 36.0643 72.7411 36.0953 73.3311 36.0863C73.7091 36.0803 73.7559 36.3283 73.6819 36.5863C73.4615 37.463 73.1916 38.3264 72.873 39.1723C72.2289 40.6534 71.1831 41.9246 69.854 42.8423C69.1907 43.2694 68.4765 43.6118 67.728 43.8613C67.1208 44.0943 66.493 44.2697 65.853 44.3853C64.604 44.5991 63.3247 44.56 62.0911 44.2703C61.1342 44.0914 60.2186 43.7367 59.3909 43.2243C58.7391 42.7933 58.1271 42.305 57.562 41.7653C56.1567 40.3643 55.1935 38.5816 54.792 36.6383C54.5584 35.3972 54.3955 34.1438 54.304 32.8843Z" fill="#A5A5A5"/>
<path id="Path 1560" d="M117.765 32.9452C117.765 36.3452 117.765 39.7452 117.765 43.1452C117.765 43.8632 117.765 43.8672 117.052 43.8702C115.578 43.8762 115.584 43.8702 115.552 42.3702C115.52 42.1906 115.462 42.0168 115.379 41.8542C115.187 41.9452 114.935 41.9852 114.814 42.1332C114.097 43.0699 113.091 43.744 111.952 44.0514C110.813 44.3587 109.605 44.282 108.514 43.8332C107.102 43.3179 105.911 42.3324 105.141 41.0422C104.604 40.1889 104.228 39.2442 104.033 38.2552C103.629 36.8075 103.577 35.2841 103.882 33.8122C104.039 33.2312 104.067 32.6122 104.257 32.0442C104.511 31.1729 104.943 30.364 105.527 29.6691C106.111 28.9742 106.833 28.4085 107.648 28.0082C108.75 27.4483 110.003 27.2563 111.222 27.4602C112.496 27.6961 113.643 28.3825 114.454 29.3942C114.661 29.5606 114.896 29.6908 115.147 29.7792C115.237 29.5483 115.298 29.3071 115.329 29.0612C115.343 26.9152 115.335 24.7682 115.336 22.6222C115.336 21.9672 115.391 21.9162 116.036 21.9162C116.412 21.9162 116.789 21.9382 117.163 21.9112C117.635 21.8762 117.781 22.0702 117.778 22.5342C117.761 25.1462 117.769 27.7572 117.769 30.3692L117.765 32.9452ZM115.335 35.7712C115.216 35.0922 115.062 33.8542 114.77 32.6502C114.549 31.6433 113.964 30.7532 113.128 30.1502C112.575 29.7452 111.93 29.484 111.251 29.3902C110.572 29.2963 109.88 29.3727 109.238 29.6125C108.596 29.8523 108.023 30.2479 107.572 30.7639C107.121 31.2798 106.805 31.8999 106.653 32.5682C106.091 34.8152 106.174 37.1749 106.891 39.3772C107.115 40.0427 107.505 40.6403 108.024 41.114C108.542 41.5878 109.172 41.9222 109.855 42.086C110.538 42.2497 111.252 42.2375 111.929 42.0504C112.606 41.8633 113.224 41.5075 113.726 41.0162C115.048 39.7232 115.269 38.0592 115.335 35.7712Z" fill="#A5A5A5"/>
<g id="Group 1105">
<g id="Group 1104">
<path id="Path 1561" d="M178.543 36.6614C178.543 38.1101 178.543 39.5588 178.543 41.0074C178.543 41.8964 178.761 42.1074 179.65 42.1074C180.326 42.1074 180.328 42.1124 180.325 42.8074V42.9684C180.325 43.9234 180.113 44.1684 179.154 44.2744C178.515 44.3787 177.86 44.2481 177.311 43.9067C176.761 43.5652 176.354 43.0362 176.164 42.4174C176.034 41.7684 175.864 41.7775 175.374 42.2545C174.553 43.1119 173.499 43.709 172.341 43.9714C171.528 44.1566 170.698 44.2521 169.864 44.2564C168.693 44.2575 167.56 43.8453 166.664 43.0924C166.054 42.5457 165.602 41.846 165.353 41.0657C165.105 40.2854 165.069 39.453 165.251 38.6544C165.335 37.7814 165.692 36.9572 166.272 36.299C166.851 35.6408 167.624 35.1822 168.479 34.9884C169.791 34.6344 171.162 34.4964 172.506 34.2604C173.36 34.1094 174.227 34.0044 175.065 33.7874C175.332 33.7004 175.564 33.5277 175.723 33.2959C175.882 33.0641 175.961 32.7863 175.946 32.5054C176.082 30.7274 174.983 29.8334 173.303 29.5214C172.387 29.3322 171.437 29.3881 170.549 29.6834C170.009 29.8535 169.527 30.1731 169.161 30.6052C168.794 31.0374 168.558 31.5645 168.479 32.1254C168.399 32.5574 168.224 32.7054 167.813 32.6914C167.331 32.6754 166.847 32.6854 166.365 32.6914C166.058 32.6974 165.948 32.5664 165.996 32.2614C166.078 31.0711 166.574 29.9469 167.397 29.0836C168.221 28.2203 169.321 27.6723 170.506 27.5344C171.448 27.3491 172.409 27.2789 173.368 27.3254C174.713 27.3485 176.014 27.8145 177.068 28.6514C177.562 29.1196 177.949 29.6896 178.201 30.3218C178.453 30.9541 178.565 31.6336 178.529 32.3134C178.559 33.7614 178.536 35.2134 178.536 36.6584L178.543 36.6614ZM175.995 37.1614C175.995 36.8044 175.995 36.4464 175.995 36.0884C175.995 35.7304 175.795 35.6454 175.461 35.7074C173.941 35.9874 172.415 36.2334 170.899 36.5314C169.986 36.6288 169.128 37.014 168.449 37.6314C168.159 37.9982 167.965 38.4312 167.884 38.8914C167.803 39.3517 167.838 39.8248 167.985 40.2684C168.118 40.8099 168.431 41.2901 168.872 41.6303C169.314 41.9705 169.858 42.1504 170.416 42.1404C171.25 42.117 172.08 42.006 172.891 41.8094C173.936 41.5254 174.835 40.8576 175.409 39.9394C175.888 39.0955 176.093 38.1231 175.995 37.1574V37.1614Z" fill="#A5A5A5"/>
</g>
</g>
<path id="Path 1562" d="M95.2959 36.7813H90.253C89.43 36.7813 89.3951 36.7813 89.4781 37.6033C89.4893 38.2968 89.6416 38.9807 89.9258 39.6134C90.21 40.246 90.62 40.8143 91.1309 41.2833C91.8016 41.8213 92.622 42.1393 93.48 42.1942C94.5655 42.3454 95.6706 42.1376 96.627 41.6023C97.4768 41.1063 98.1256 40.3277 98.46 39.4022C98.4992 39.3072 98.5595 39.2224 98.6363 39.154C98.713 39.0855 98.804 39.0354 98.9029 39.0073C99.4029 38.9553 99.9029 38.9913 100.403 38.9853C100.681 38.9853 100.825 39.1163 100.75 39.3853C100.649 39.798 100.508 40.1999 100.329 40.5853C99.8904 41.4847 99.245 42.2673 98.4453 42.8687C97.6457 43.4702 96.7148 43.8734 95.729 44.0453C94.325 44.3421 92.8673 44.2625 91.5039 43.8143C90.0758 43.3359 88.8637 42.3664 88.083 41.0783C86.689 38.9083 86.663 36.5223 86.961 34.1193C87.0797 33.0265 87.4272 31.971 87.981 31.0214C88.5348 30.0719 89.2824 29.2497 90.1751 28.6082C91.1816 27.9291 92.3423 27.5132 93.5511 27.3983C94.5455 27.2777 95.5544 27.4044 96.4881 27.7673C97.8872 28.2343 99.0573 29.214 99.763 30.5092C100.256 31.3637 100.643 32.2751 100.916 33.2233C101.112 34.2706 101.215 35.3329 101.226 36.3983C101.25 36.8053 100.898 36.7893 100.603 36.7893C98.8331 36.7893 97.063 36.7893 95.293 36.7893L95.2959 36.7813ZM94.013 34.7753C95.355 34.7753 96.6965 34.7753 98.0379 34.7753C98.3199 34.7753 98.609 34.7813 98.607 34.3913C98.6047 33.3901 98.382 32.4017 97.9549 31.4962C97.7027 30.9705 97.329 30.5124 96.8645 30.1599C96.4 29.8074 95.8582 29.5706 95.284 29.4693C94.2145 29.1954 93.0815 29.3242 92.1009 29.8313C91.3373 30.2798 90.6982 30.9125 90.2417 31.6714C89.7853 32.4304 89.5263 33.2915 89.4881 34.1763C89.4321 34.6303 89.594 34.7853 90.043 34.7763C91.366 34.7643 92.69 34.7753 94.013 34.7753Z" fill="#A5A5A5"/>
<g id="Group 1106">
<path id="Path 1563" d="M183.125 35.9323C183.125 33.4823 183.138 31.0323 183.114 28.5833C183.114 28.0783 183.286 27.9093 183.765 27.9373C184.194 27.9598 184.623 27.9598 185.052 27.9373C185.452 27.9183 185.606 28.0973 185.59 28.4783C185.574 28.7641 185.574 29.0505 185.59 29.3363C185.618 29.4838 185.664 29.6275 185.726 29.7643C185.886 29.7126 186.039 29.6393 186.18 29.5463C186.67 29.0332 187.201 28.5612 187.768 28.1353C188.789 27.5492 189.958 27.27 191.134 27.331C192.31 27.392 193.444 27.7907 194.399 28.4793C194.941 28.9243 195.377 29.4838 195.677 30.1177C195.977 30.7516 196.133 31.4441 196.133 32.1453C196.186 35.9173 196.148 39.6903 196.158 43.4623C196.158 43.8303 196.045 43.9843 195.665 43.9623C195.165 43.9393 194.665 43.9383 194.165 43.9623C193.744 43.9833 193.589 43.8093 193.593 43.3983C193.606 42.1823 193.604 40.9663 193.593 39.7503C193.578 37.4633 193.608 35.1733 193.521 32.8883C193.442 30.8213 192.265 29.8713 190.207 29.7643C189.657 29.7443 189.107 29.8331 188.591 30.0253C188.075 30.2176 187.602 30.5096 187.199 30.8848C186.795 31.2599 186.47 31.7108 186.241 32.2118C186.012 32.7127 185.884 33.2539 185.864 33.8043C185.701 36.0643 185.734 38.3383 185.693 40.6043C185.677 41.5163 185.672 42.4283 185.7 43.3403C185.715 43.8183 185.522 43.9813 185.068 43.9593C184.621 43.9363 184.174 43.9363 183.728 43.9593C183.261 43.9833 183.104 43.7983 183.115 43.3293C183.142 42.0963 183.125 40.8623 183.125 39.6293C183.125 38.3963 183.125 37.1663 183.125 35.9323Z" fill="#A5A5A5"/>
</g>
<g id="Group 1107">
<path id="Path 1564" d="M200.841 35.6773C200.841 34.0313 200.829 32.3853 200.848 30.7393C200.854 30.2763 200.695 30.0783 200.228 30.1073C199.872 30.1293 199.513 30.1073 199.155 30.1143C198.797 30.1213 198.626 29.9703 198.641 29.5993C198.656 29.2283 198.659 28.8473 198.641 28.4723C198.62 28.0723 198.817 27.9283 199.191 27.9393C199.531 27.9503 199.872 27.9233 200.211 27.9483C200.711 27.9843 200.861 27.7573 200.849 27.2783C200.822 26.1883 200.849 25.0963 200.83 24.0053C200.821 23.5843 200.975 23.4183 201.388 23.4303C201.907 23.4463 202.426 23.4433 202.944 23.4303C203.332 23.4223 203.482 23.5823 203.474 23.9783C203.454 25.0333 203.467 26.0893 203.465 27.1443C203.465 27.9343 203.465 27.9443 204.283 27.9443C204.658 27.9443 205.034 27.9543 205.41 27.9393C205.81 27.9243 205.999 28.0713 205.988 28.5013C205.937 30.3723 206.278 30.0883 204.425 30.1123C204.282 30.1123 204.139 30.1193 203.996 30.1123C203.607 30.0923 203.454 30.2733 203.459 30.6613C203.473 31.7343 203.466 32.8073 203.466 33.8813C203.466 35.9206 203.466 37.96 203.466 39.9993C203.466 40.9993 203.832 41.3913 204.83 41.4663C205.059 41.469 205.283 41.5318 205.479 41.6483C205.676 41.7648 205.839 41.9311 205.951 42.1303C206.064 42.3295 206.122 42.5548 206.119 42.7834C206.117 43.0121 206.055 43.2362 205.939 43.4333C205.894 43.5099 205.831 43.5736 205.754 43.6183C205.091 43.8974 204.369 44.0071 203.653 43.9373C202.938 43.8674 202.25 43.6203 201.654 43.2183C201.402 42.95 201.206 42.6335 201.078 42.2878C200.951 41.9421 200.895 41.5743 200.913 41.2063C200.844 39.4743 200.859 37.7383 200.84 36.0063C200.84 35.8983 200.84 35.7913 200.84 35.6843L200.841 35.6773Z" fill="#A5A5A5"/>
</g>
<path id="Path 1565" d="M129.438 35.8974C129.438 34.1454 129.427 32.3974 129.445 30.6404C129.445 30.1864 129.313 29.9744 128.832 30.0124C128.459 30.0424 128.082 30.0184 127.706 30.0214C127.097 30.0264 127.168 29.5634 127.229 29.2214C127.302 28.8064 126.852 28.1314 127.701 28.0414C128.093 28.0089 128.487 28.0089 128.88 28.0414C129.303 28.0664 129.449 27.8854 129.443 27.4744C129.426 26.3664 129.451 25.2574 129.428 24.1494C129.418 23.6884 129.572 23.4894 130.045 23.5214C130.455 23.5479 130.867 23.5479 131.278 23.5214C131.738 23.4924 131.921 23.6624 131.909 24.1364C131.883 25.1554 131.9 26.1744 131.899 27.1934C131.899 28.0364 131.899 28.0364 132.766 28.0354C133.159 28.0354 133.552 28.0354 133.946 28.0354C134.274 28.0304 134.446 28.1684 134.446 28.5114C134.441 30.3054 134.622 30.0024 133.054 30.0214C131.8 30.0364 131.901 29.8704 131.901 31.1674C131.901 34.1007 131.901 37.034 131.901 39.9674C131.901 41.1104 132.254 41.4784 133.415 41.5674C133.622 41.5722 133.824 41.6326 134 41.7423C134.176 41.8521 134.319 42.0071 134.414 42.1911C134.51 42.3751 134.554 42.5814 134.542 42.7883C134.53 42.9953 134.463 43.1953 134.348 43.3674C134.062 43.625 133.698 43.7774 133.314 43.7994C132.761 43.9514 132.179 43.961 131.622 43.8272C131.065 43.6935 130.55 43.4207 130.127 43.0344C129.669 42.4998 129.437 41.8088 129.478 41.1064C129.424 39.3744 129.46 37.6394 129.46 35.9064L129.438 35.8974Z" fill="#A5A5A5"/>
<g id="Group 1108">
<path id="Path 1566" d="M209.271 35.9515C209.271 33.5208 209.271 31.0892 209.271 28.6565C209.271 27.9845 209.307 27.9455 209.954 27.9425C210.366 27.9425 210.777 27.9515 211.188 27.9375C211.549 27.9255 211.721 28.0765 211.711 28.4425C211.701 28.8355 211.689 29.2295 211.711 29.6215C211.742 29.7826 211.795 29.9385 211.87 30.0845C212.039 30.0246 212.199 29.9382 212.341 29.8285C212.815 29.2526 213.318 28.7018 213.85 28.1785C214.566 27.5753 215.482 27.2602 216.418 27.2945C216.847 27.3005 217.039 27.4995 217.036 27.9195C217.036 28.4735 217.015 29.0295 217.043 29.5825C217.063 29.9875 216.899 30.1445 216.512 30.1125C215.706 30.0485 214.898 30.2186 214.186 30.6025C213.519 30.9418 212.958 31.4579 212.564 32.0943C212.17 32.7307 211.958 33.4631 211.952 34.2115C211.834 36.4415 211.895 38.6805 211.882 40.9115C211.882 41.7345 211.859 42.5575 211.892 43.3795C211.912 43.8425 211.729 43.9795 211.299 43.9605C210.817 43.9385 210.333 43.9415 209.851 43.9605C209.407 43.9785 209.261 43.7885 209.264 43.3525C209.278 40.8875 209.271 38.4195 209.271 35.9515Z" fill="#A5A5A5"/>
</g>
<path id="Path 1567" d="M77.625 35.9124C77.625 33.5184 77.625 31.124 77.625 28.7294C77.625 28.0764 77.6731 28.0294 78.3311 28.0294C78.7071 28.0294 79.082 28.0394 79.457 28.0294C79.832 28.0194 79.9869 28.1773 79.9829 28.5353C79.9789 28.8933 79.959 29.2514 79.988 29.6064C80.0265 29.781 80.0895 29.9493 80.175 30.1064C80.375 30.0244 80.6318 29.9943 80.7668 29.8503C81.1768 29.3181 81.6195 28.8119 82.092 28.3344C82.7947 27.7202 83.6957 27.3811 84.6289 27.3794C85.0549 27.3854 85.26 27.5454 85.249 27.9794C85.236 28.4794 85.229 28.9794 85.249 29.4794C85.265 29.8734 85.1048 30.0494 84.7148 30.0114C83.8551 29.9487 82.9975 30.1587 82.2639 30.6114C81.3886 31.1056 80.7357 31.916 80.439 32.8763C80.144 33.9429 80.0254 35.0506 80.0879 36.1554C80.0989 38.4964 80.0801 40.8373 80.1021 43.1783C80.1071 43.6833 79.965 43.9104 79.438 43.8594C79.119 43.8284 78.7949 43.8534 78.4729 43.8594C77.6289 43.8594 77.625 43.8594 77.625 43.0374V35.9124Z" fill="#A5A5A5"/>
<path id="Path 1568" d="M24.5149 0.987307C25.3009 0.987307 26.0881 1.01332 26.8731 0.980318C27.0692 0.937348 27.2726 0.940387 27.4673 0.989199C27.6621 1.03801 27.8427 1.13127 27.9954 1.26166C28.1481 1.39205 28.2685 1.55601 28.3472 1.74072C28.4259 1.92544 28.4608 2.12587 28.449 2.3263C28.5048 3.33412 28.4482 4.34507 28.2801 5.34033C28.232 5.50613 28.1482 5.65933 28.0345 5.78925C27.9208 5.91917 27.7801 6.0226 27.6221 6.09229C27.4624 6.14289 27.3267 6.25009 27.2405 6.39374C27.1543 6.53739 27.1236 6.7076 27.1541 6.87232C27.1631 7.77232 27.154 7.73328 26.272 7.70728C25.042 7.67228 23.8089 7.69228 22.5789 7.72028C21.9329 7.73528 21.8609 7.72528 21.8919 7.10828C21.9416 6.88701 21.9101 6.65531 21.803 6.45539C21.696 6.25546 21.5206 6.10066 21.3089 6.01929C21.0386 5.89333 20.8155 5.68468 20.6717 5.42346C20.5279 5.16225 20.471 4.86206 20.5091 4.56632C20.5481 3.90732 20.5091 3.24432 20.5181 2.58332C20.5005 2.37012 20.5292 2.15564 20.6023 1.95462C20.6755 1.7536 20.7912 1.57081 20.9417 1.41879C21.0922 1.26677 21.2739 1.14912 21.4742 1.07395C21.6744 0.998774 21.8887 0.967862 22.1021 0.983309C22.9068 0.984642 23.7109 0.985974 24.5149 0.987307Z" fill="#A5A5A5"/>
<g id="Group 1109">
<path id="Path 1569" d="M221.914 35.9532C221.914 38.4372 221.906 40.9221 221.922 43.4071C221.922 43.8231 221.807 43.9952 221.374 43.9662C220.91 43.9342 220.445 43.9342 219.981 43.9662C219.471 44.0022 219.281 43.8171 219.29 43.2951C219.312 41.1501 219.3 39.0052 219.3 36.8592C219.3 34.1425 219.3 31.4255 219.3 28.7082C219.3 27.9542 219.316 27.9402 220.093 27.9422C220.522 27.9422 220.953 27.9662 221.38 27.9342C221.807 27.9022 221.925 28.0881 221.922 28.4981C221.907 30.9832 221.914 33.4682 221.914 35.9532Z" fill="#A5A5A5"/>
</g>
<path id="Path 1570" d="M124.255 35.9481C124.255 38.3791 124.242 40.8111 124.265 43.2421C124.27 43.7421 124.128 43.9181 123.629 43.8741C123.183 43.8486 122.735 43.8486 122.289 43.8741C121.923 43.8841 121.763 43.7131 121.773 43.3581C121.773 43.2681 121.773 43.1791 121.773 43.0901V28.8191C121.773 28.0611 121.802 28.0321 122.553 28.0341C122.928 28.0341 123.306 28.0591 123.679 28.0281C124.121 27.9911 124.267 28.1491 124.264 28.6001C124.245 31.0491 124.255 33.4991 124.255 35.9481Z" fill="#A5A5A5"/>
<path id="Path 1571" d="M34.7338 6.00537C35.4178 6.31837 36.1058 6.62439 36.7858 6.94739C37.0858 7.09239 37.3758 7.27136 37.6698 7.43536C37.8254 7.52988 37.9599 7.65544 38.0648 7.8042C38.1697 7.95296 38.2426 8.12172 38.2794 8.29999C38.3162 8.47826 38.3159 8.6622 38.2785 8.84033C38.241 9.01846 38.1674 9.18702 38.0619 9.33539C37.7698 9.86177 37.5069 10.4039 37.2748 10.9594C37.0848 11.3774 36.8618 11.4594 36.4848 11.2034C35.3501 10.4176 34.105 9.80522 32.7899 9.38635C32.5099 9.30235 32.3899 9.15937 32.5429 8.87537C32.9209 8.15937 33.3337 7.45738 33.6627 6.71838C33.7312 6.51354 33.8728 6.34113 34.0604 6.23413C34.2481 6.12713 34.4686 6.09302 34.6798 6.13837L34.7338 6.00537Z" fill="#A5A5A5"/>
<g id="Group 1110">
<path id="Path 1572" d="M221.916 23.3945C221.916 23.7695 221.905 24.1436 221.916 24.5176C221.928 24.8336 221.806 24.9745 221.48 24.9675C220.91 24.9535 220.339 24.9565 219.769 24.9625C219.422 24.9625 219.239 24.8365 219.246 24.4625C219.258 23.7492 219.258 23.0362 219.246 22.3235C219.239 21.9445 219.43 21.8235 219.773 21.8235C220.344 21.8295 220.914 21.8325 221.484 21.8235C221.814 21.8155 221.927 21.9645 221.916 22.2775C221.905 22.6455 221.916 23.0205 221.916 23.3945Z" fill="#A5A5A5"/>
</g>
<path id="Path 1573" d="M124.254 23.3865C124.254 24.8645 124.254 24.8645 122.771 24.8675C121.737 24.8675 121.737 24.8675 121.739 23.8535C121.739 23.3715 121.739 22.8885 121.739 22.4055C121.739 22.0725 121.886 21.9115 122.225 21.9155C122.761 21.9205 123.298 21.9275 123.833 21.9155C124.171 21.9055 124.272 22.0625 124.259 22.3715C124.244 22.7075 124.255 23.0475 124.254 23.3865Z" fill="#A5A5A5"/>
</g>
</g>
</g>
</svg>
