<svg width="10" height="5" viewBox="0 0 10 5" fill="none" xmlns="http://www.w3.org/2000/svg">
<path d="M5.02621 1.60002C4.94021 1.68002 4.86619 1.74701 4.79519 1.81702L2.05318 4.55702C1.99074 4.62559 1.92399 4.69005 1.85323 4.75001C1.7388 4.83888 1.59578 4.88277 1.45119 4.87341C1.30661 4.86405 1.17046 4.80208 1.06844 4.6992C0.966424 4.59632 0.905568 4.45964 0.897423 4.31499C0.889278 4.17033 0.934366 4.0277 1.02419 3.91402C1.07204 3.85713 1.12314 3.80303 1.17721 3.75201C2.28121 2.64801 3.38553 1.54402 4.4902 0.440016C4.54781 0.350707 4.62677 0.277155 4.71993 0.225996C4.81309 0.174838 4.91755 0.147681 5.02383 0.146986C5.13011 0.146292 5.23488 0.172078 5.3287 0.222014C5.42252 0.27195 5.5024 0.344464 5.56118 0.433012L8.97323 3.84401C9.06759 3.92086 9.13656 4.02439 9.17117 4.14107C9.20578 4.25774 9.20439 4.38214 9.1672 4.49801C9.13558 4.606 9.07313 4.70241 8.98751 4.77542C8.90189 4.84843 8.79683 4.89486 8.6852 4.90901C8.57396 4.92161 8.46133 4.90552 8.35806 4.86229C8.25478 4.81905 8.16433 4.75011 8.09524 4.66202C7.15124 3.71268 6.20553 2.76535 5.2582 1.82002C5.1862 1.75402 5.11221 1.68702 5.02621 1.60002Z" fill="white"/>
</svg>
