<svg width="10" height="6" viewBox="0 0 10 6" fill="none" xmlns="http://www.w3.org/2000/svg">
<g id="Group 1884">
<g id="Group 1883">
<path id="Path 3195" d="M5.06432 3.61601C5.15032 3.53601 5.22434 3.47001 5.29534 3.39901L8.03734 0.659009C8.0998 0.590763 8.16662 0.526627 8.23735 0.467007C8.35145 0.376576 8.49485 0.331364 8.64019 0.340008C8.78552 0.348653 8.92256 0.410548 9.02513 0.513867C9.12771 0.617186 9.18862 0.754689 9.19622 0.900082C9.20381 1.04548 9.15758 1.18857 9.06633 1.30201C9.01899 1.35935 8.96786 1.41348 8.91332 1.46402C7.80932 2.56868 6.705 3.673 5.60033 4.777C5.54263 4.86626 5.46362 4.93974 5.37041 4.99081C5.2772 5.04188 5.17274 5.06894 5.06645 5.06953C4.96017 5.07013 4.85542 5.04425 4.76165 4.99423C4.66787 4.94421 4.58804 4.87162 4.52935 4.78302C3.39135 3.64968 2.25402 2.51301 1.11736 1.37301C1.02311 1.29607 0.954144 1.19255 0.919543 1.07591C0.884943 0.959266 0.886275 0.834894 0.923328 0.719006C0.954598 0.610828 1.01696 0.514223 1.10265 0.441159C1.18833 0.368095 1.29356 0.321795 1.40532 0.308011C1.5165 0.295006 1.62915 0.3108 1.73247 0.353879C1.83579 0.396957 1.92634 0.465877 1.99535 0.554013C2.93935 1.50335 3.88499 2.45102 4.83232 3.39702C4.90432 3.46702 4.97832 3.53401 5.06432 3.61601Z" fill="white"/>
</g>
</g>
</svg>
