<svg width="133" height="14" viewBox="0 0 133 14" fill="none" xmlns="http://www.w3.org/2000/svg">
<path d="M0.560076 0.198608V9.79327H0V0.198608H0.560076Z" fill="#EAEAEA"/>
<path d="M18.5613 6.28886V9.79415H18.0039V6.28886C18.0039 4.99649 17.8837 3.97045 16.9779 3.35764C16.5221 3.07922 15.9914 2.94864 15.4585 2.98382C14.9298 2.99759 14.4237 3.20113 14.0326 3.55725C13.6458 3.9267 13.3927 4.41416 13.313 4.94307C13.2482 5.23631 13.2169 5.53596 13.2195 5.83626V9.79415H12.6602V2.59797H13.1795V3.77087C13.3126 3.54687 13.4739 3.34091 13.6595 3.15806C14.147 2.7186 14.7757 2.46807 15.4318 2.45178C16.0827 2.38964 16.7356 2.54939 17.2843 2.90506C18.375 3.65071 18.588 4.92973 18.5613 6.28886Z" fill="#EAEAEA"/>
<path d="M35.3442 4.6113C35.1451 4.03114 34.7362 3.54639 34.198 3.25219C33.8052 3.05322 33.37 2.95263 32.9297 2.95912C32.4942 2.94167 32.0604 3.02363 31.6613 3.19877C31.4547 3.28468 31.2756 3.4259 31.144 3.6069C31.0123 3.78791 30.9331 4.00171 30.915 4.22481C30.906 4.37985 30.9325 4.5349 30.9926 4.67812C31.0526 4.82135 31.1446 4.94896 31.2615 5.05122C31.5595 5.29185 31.9117 5.45636 32.2875 5.53053C32.634 5.63733 33.1273 5.77083 33.8335 5.95708C34.3392 6.07443 34.8124 6.30242 35.2194 6.62462C35.4533 6.79227 35.6391 7.01834 35.7584 7.28025C35.8776 7.54217 35.9261 7.83078 35.8989 8.11728C35.8691 8.39728 35.777 8.66708 35.6296 8.90696C35.4821 9.14684 35.2829 9.35074 35.0465 9.50377C34.4335 9.84842 33.7363 10.0145 33.0338 9.98306C32.5993 10.0039 32.1652 9.93411 31.759 9.77816C31.3529 9.62222 30.9836 9.3835 30.6747 9.0772C30.28 8.59686 30.0181 8.02145 29.915 7.40833L30.4885 7.26147C30.5613 7.78328 30.773 8.27594 31.1013 8.68802C31.3505 8.93611 31.6487 9.12956 31.9768 9.25599C32.305 9.38242 32.6559 9.43906 33.0071 9.42233C33.6057 9.44644 34.1997 9.30803 34.7261 9.02179C34.8864 8.91396 35.0209 8.77207 35.12 8.60625C35.2191 8.44043 35.2804 8.25478 35.2995 8.06254C35.3175 7.87025 35.2866 7.67653 35.2097 7.49938C35.1328 7.32222 35.0123 7.16736 34.8596 7.0492C34.4931 6.76493 34.0635 6.57305 33.6073 6.48978C33.2735 6.38297 32.8476 6.2635 32.2875 6.10328C31.7817 6.00167 31.3037 5.7927 30.8857 5.49048C30.7003 5.33632 30.5524 5.14202 30.4531 4.92228C30.3539 4.70255 30.306 4.46312 30.3129 4.22212C30.3364 3.88754 30.4521 3.56603 30.6472 3.29324C30.8424 3.02045 31.1093 2.80706 31.4183 2.67676C31.8963 2.4672 32.4164 2.37123 32.9377 2.39638C33.4599 2.39207 33.9758 2.51077 34.4437 2.74285C35.1423 3.10589 35.6699 3.72939 35.9123 4.47846L35.3442 4.6113Z" fill="#EAEAEA"/>
<path d="M49.003 7.40873C48.94 7.84515 48.9903 8.29043 49.1492 8.70176C49.2314 8.8784 49.3607 9.02901 49.5228 9.13709C49.685 9.24518 49.8737 9.30658 50.0684 9.31457C50.4693 9.35795 50.8745 9.33995 51.27 9.26118V9.79521C50.8542 9.89053 50.4251 9.91312 50.0016 9.86197C49.7147 9.84674 49.4371 9.75461 49.198 9.59524C48.9588 9.43586 48.767 9.21511 48.6425 8.95611C48.461 8.46223 48.3925 7.9339 48.4422 7.41006V3.15912H46.75V2.59971H48.4449V0.600403H49.005V2.59971H51.27V3.15912H49.005L49.003 7.40873Z" fill="#EAEAEA"/>
<path d="M63.0674 3.94563C63.1419 3.8106 63.2264 3.68139 63.3204 3.55911C63.6227 3.186 64.0076 2.88824 64.4447 2.68933C64.8818 2.49042 65.3591 2.39579 65.8391 2.41292C67.1588 2.41292 68.2509 2.93296 68.7175 4.13254C68.8484 4.50497 68.9161 4.89665 68.9178 5.2914V9.79601H68.4011V8.22327C68.0398 8.82219 67.5041 9.29642 66.8657 9.58241C66.2606 9.88832 65.5831 10.022 64.9072 9.9689C64.5327 9.94289 64.169 9.83223 63.8435 9.64525C63.518 9.45828 63.2391 9.19988 63.028 8.8895C62.8131 8.53087 62.6979 8.12134 62.6942 7.70326C62.6836 7.35001 62.7698 7.00057 62.9437 6.69285C63.1175 6.38513 63.3722 6.13086 63.6802 5.9576C64.5969 5.54344 65.5814 5.29961 66.5854 5.238L68.3043 4.99835C68.2786 4.45668 68.0447 3.94586 67.6515 3.57245C67.1414 3.15683 66.4964 2.94303 65.8391 2.97166C65.4468 2.95715 65.0566 3.03523 64.7001 3.19957C64.3436 3.3639 64.0308 3.60987 63.787 3.91758C63.7203 4.01103 63.6535 4.10383 63.6001 4.19728L63.0674 3.94563ZM66.319 5.83812C64.8664 6.03839 63.2803 6.29071 63.2803 7.68989C63.3025 8.1219 63.4747 8.53267 63.7671 8.85142C64.0595 9.17018 64.4539 9.37699 64.8825 9.43622C65.4802 9.48846 66.0808 9.37565 66.6188 9.1101C67.1569 8.84455 67.6117 8.43644 67.9338 7.93022C68.3026 7.19734 68.4508 6.37318 68.3604 5.55774L66.319 5.83812Z" fill="#EAEAEA"/>
<path d="M86.7836 6.28886V9.79415H86.2256V6.28886C86.2256 4.99649 86.1054 3.97045 85.1996 3.35764C84.7438 3.07922 84.2131 2.94864 83.6802 2.98382C83.1515 2.99759 82.6454 3.20113 82.2543 3.55725C81.8675 3.9267 81.6144 4.41416 81.5347 4.94307C81.4699 5.23631 81.4386 5.53596 81.4413 5.83626V9.79415H80.8818V2.59797H81.4012V3.77087C81.5343 3.54687 81.6956 3.34091 81.8812 3.15806C82.3687 2.7186 82.9974 2.46807 83.6535 2.45178C84.3044 2.38964 84.9572 2.54939 85.5059 2.90506C86.5974 3.65071 86.8103 4.92973 86.7836 6.28886Z" fill="#EAEAEA"/>
<path d="M100.066 7.40873C100.003 7.8452 100.053 8.29057 100.213 8.70176C100.295 8.87854 100.424 9.02927 100.586 9.13738C100.748 9.24549 100.937 9.3068 101.132 9.31457C101.533 9.35794 101.938 9.33994 102.333 9.26118V9.79521C101.918 9.89044 101.489 9.91302 101.065 9.86197C100.778 9.84674 100.501 9.75461 100.261 9.59524C100.022 9.43586 99.8305 9.21511 99.706 8.95611C99.5244 8.46223 99.456 7.9339 99.5057 7.41006V3.15912H97.8135V2.59971H99.5057V0.600403H100.066V2.59971H102.331V3.15912H100.066V7.40873Z" fill="#EAEAEA"/>
<path d="M114.159 9.79492V0H114.719V9.79492H114.159Z" fill="#EAEAEA"/>
<path d="M132.909 2.6143L129.484 11.4359C129.331 11.9543 129.024 12.4141 128.604 12.755C128.302 12.9432 127.946 13.0275 127.592 12.9953L127.352 12.982V12.4086L127.605 12.4353C127.879 12.4727 128.157 12.4008 128.378 12.235C128.698 11.982 128.845 11.5674 129.446 9.99604L126.154 2.60028H126.767L129.739 9.26307L132.311 2.61362L132.909 2.6143Z" fill="#EAEAEA"/>
</svg>
