<svg width="37" height="26" viewBox="0 0 37 26" fill="none" xmlns="http://www.w3.org/2000/svg">
<g id="Group 1181">
<g id="Group 65">
<path id="Path 133" d="M6.31287 19.4353C7.65835 20.9845 9.42549 22.1089 11.3989 22.6713C10.7609 23.4713 10.1899 24.2273 9.57087 24.9393C9.38386 25.0925 9.14482 25.1673 8.90384 25.1483C6.48468 25.1105 4.13496 24.3337 2.16987 22.9223C0.128865 21.4293 -0.223132 19.2973 0.109868 16.9303C0.536347 13.7482 1.32063 10.6244 2.44785 7.61824C3.24647 5.50313 4.63487 3.6614 6.4484 2.31136C8.26193 0.961312 10.4245 0.159563 12.6798 0.00123812C12.9804 -0.0114102 13.2771 0.073124 13.5259 0.242266C12.2309 0.707266 10.9029 1.09927 9.64887 1.65627C8.38125 2.24417 7.16384 2.93481 6.00885 3.72127C9.79835 2.06251 13.8928 1.21449 18.0294 1.23171C22.166 1.24893 26.2533 2.13099 30.0288 3.82125C27.9491 2.30313 25.6113 1.17491 23.1288 0.491289L23.1139 0.213274C23.5154 0.110299 23.9283 0.0585632 24.3429 0.0592825C26.4873 0.240302 28.5387 1.0157 30.2667 2.29836C31.9947 3.58102 33.3308 5.32011 34.1249 7.32027C35.5599 10.6915 36.4315 14.2755 36.7049 17.9293C36.7969 18.8842 36.6217 19.8458 36.1988 20.7069C35.7758 21.5679 35.1218 22.2944 34.3098 22.8053C32.3536 24.123 30.0746 24.8813 27.7188 24.9982C27.4873 25.034 27.2503 25.0022 27.0364 24.9066C26.8224 24.811 26.6406 24.6557 26.5129 24.4593C26.0599 23.8273 25.5459 23.2393 24.9939 22.5523C26.9474 22.0176 28.7095 20.9403 30.0759 19.4453C22.1309 24.2653 14.2249 22.9533 6.31287 19.4353ZM20.8329 14.3353C20.8531 14.9655 21.0588 15.5758 21.4241 16.0897C21.7895 16.6037 22.2983 16.9984 22.8868 17.2247C23.4754 17.4509 24.1176 17.4987 24.7332 17.3618C25.3487 17.2249 25.9102 16.9095 26.3474 16.4552C26.7846 16.0008 27.0781 15.4275 27.1912 14.8072C27.3043 14.1869 27.232 13.5469 26.9832 12.9675C26.7345 12.3881 26.3204 11.8949 25.7928 11.5496C25.2651 11.2043 24.6474 11.0223 24.0168 11.0263C23.1589 11.0526 22.3453 11.4138 21.7503 12.0324C21.1552 12.651 20.8259 13.4779 20.8329 14.3363V14.3353ZM15.7079 14.3632C15.6892 13.7335 15.4853 13.1233 15.1218 12.6088C14.7583 12.0943 14.2511 11.6983 13.6638 11.4704C13.0765 11.2424 12.435 11.1927 11.8196 11.3273C11.2041 11.4619 10.642 11.7749 10.2034 12.2271C9.76484 12.6794 9.46927 13.2509 9.35367 13.8702C9.23808 14.4895 9.30756 15.1292 9.55344 15.7092C9.79932 16.2892 10.2107 16.7839 10.7362 17.1314C11.2616 17.479 11.8779 17.664 12.5078 17.6633C13.3672 17.6426 14.1841 17.2852 14.7826 16.6682C15.3811 16.0512 15.7134 15.2239 15.7079 14.3643V14.3632Z" fill="white"/>
</g>
</g>
</svg>
