<svg width="249" height="110" viewBox="0 0 249 110" fill="none" xmlns="http://www.w3.org/2000/svg">
<path d="M44.711 22.0279C44.7188 25.7363 43.8661 29.3959 42.22 32.7189C40.4371 36.0492 37.796 38.8421 34.5704 40.808C31.3447 42.774 27.6521 43.8415 23.875 43.8999H8.875V0.159912H23.875C27.6528 0.212689 31.3474 1.27743 34.5738 3.24323C37.8003 5.20902 40.4407 8.00394 42.22 11.3369C43.8661 14.6599 44.7188 18.3195 44.711 22.0279ZM36.328 22.0279C36.3271 19.6425 35.8306 17.2834 34.87 15.0999C33.7994 12.9787 32.17 11.19 30.1575 9.92679C28.1449 8.66359 25.8257 7.97384 23.45 7.93192L17.25 7.87192V36.1779L23.45 36.1169C25.8188 36.0455 28.1258 35.3437 30.1331 34.084C32.1404 32.8242 33.7756 31.052 34.87 28.9499C35.8865 26.787 36.3857 24.4171 36.328 22.0279Z" fill="white"/>
<path d="M97.07 43.8999H88.69V17.7799L75.99 43.8999H73.075L60.375 17.8399V43.8999H52V0.159912H60.383L74.537 29.1999L88.69 0.159912H97.07V43.8999Z" fill="white"/>
<path d="M130.665 37.0929H112.806L110.741 43.8929H102.241L115.6 0.159912H127.931L141.295 43.8999H132.795L130.665 37.0929ZM128.296 29.3169L121.67 7.93491L115.17 29.3169H128.296Z" fill="white"/>
<path d="M176.831 8.4209H163.042V43.8999H154.781V8.4209H140.992V0.159912H176.831V8.4209Z" fill="white"/>
<path d="M29.008 101.6H11.149L9.08398 108.4H0.583984L13.948 64.6639H26.27L39.638 108.4H31.138L29.008 101.6ZM26.639 93.825L20.017 72.4429L13.517 93.825H26.639Z" fill="white"/>
<path d="M65.5761 86.2889C65.3897 85.9033 65.166 85.5368 64.9081 85.1949C64.176 84.3197 63.2608 83.6157 62.227 83.1327C61.1933 82.6496 60.0661 82.3993 58.9251 82.3993C57.784 82.3993 56.6568 82.6496 55.6231 83.1327C54.5893 83.6157 53.6741 84.3197 52.942 85.1949C51.7098 87.2504 51.059 89.6019 51.059 91.9984C51.059 94.3949 51.7098 96.7464 52.942 98.8019C53.6851 99.6598 54.6039 100.348 55.6362 100.819C56.6685 101.291 57.7901 101.535 58.9251 101.535C60.06 101.535 61.1816 101.291 62.2139 100.819C63.2462 100.348 64.165 99.6598 64.9081 98.8019C65.1332 98.4715 65.336 98.1264 65.515 97.7689L73.29 101.11C72.7603 102.051 72.1511 102.945 71.4691 103.783C69.9069 105.566 67.969 106.981 65.7947 107.926C63.6204 108.872 61.2637 109.323 58.894 109.249C56.5317 109.336 54.18 108.89 52.0137 107.944C49.8474 106.998 47.9222 105.575 46.381 103.783C43.6858 100.457 42.2638 96.2795 42.3701 91.9999C42.2725 87.7028 43.692 83.5086 46.3791 80.1539C47.9355 78.3799 49.8636 76.9705 52.0262 76.0256C54.1888 75.0807 56.5329 74.6237 58.8921 74.6869C61.2587 74.6348 63.6086 75.0965 65.7795 76.0403C67.9505 76.9841 69.8909 78.3876 71.467 80.1539C72.1711 81.0182 72.7816 81.9548 73.2881 82.9479L65.5761 86.2889Z" fill="white"/>
<path d="M100.14 86.2889C99.9533 85.9035 99.7295 85.5371 99.472 85.1949C98.7399 84.3197 97.8247 83.6157 96.7909 83.1327C95.7572 82.6496 94.63 82.3993 93.489 82.3993C92.3479 82.3993 91.2208 82.6496 90.187 83.1327C89.1532 83.6157 88.238 84.3197 87.506 85.1949C86.2731 87.2502 85.6219 89.6018 85.6219 91.9984C85.6219 94.3951 86.2731 96.7467 87.506 98.8019C88.249 99.6598 89.1678 100.348 90.2001 100.819C91.2324 101.291 92.354 101.535 93.489 101.535C94.6239 101.535 95.7455 101.291 96.7778 100.819C97.8101 100.348 98.729 99.6598 99.472 98.8019C99.6968 98.4713 99.8995 98.1262 100.079 97.7689L107.854 101.11C107.324 102.051 106.714 102.945 106.032 103.783C104.47 105.566 102.532 106.981 100.358 107.926C98.184 108.872 95.8275 109.323 93.458 109.249C91.0956 109.336 88.7439 108.891 86.5775 107.944C84.4112 106.998 82.486 105.576 80.945 103.783C78.25 100.457 76.8287 96.2793 76.936 91.9999C76.838 87.7027 78.2575 83.5084 80.945 80.1539C82.5014 78.3799 84.4295 76.9705 86.5921 76.0256C88.7547 75.0807 91.0988 74.6237 93.458 74.6869C95.8245 74.6348 98.1742 75.0965 100.345 76.0403C102.516 76.9842 104.456 78.3876 106.032 80.1539C106.737 81.018 107.347 81.9546 107.854 82.9479L100.14 86.2889Z" fill="white"/>
<path d="M115.508 103.843C112.795 100.503 111.373 96.3005 111.499 92C111.399 87.7025 112.819 83.5075 115.508 80.1539C117.088 78.3924 119.029 76.9921 121.199 76.0487C123.368 75.1052 125.716 74.6408 128.082 74.687C130.45 74.6208 132.804 75.0762 134.977 76.021C137.15 76.9657 139.089 78.3767 140.656 80.1539C143.42 83.4695 144.869 87.6857 144.726 92C144.85 96.3109 143.404 100.52 140.656 103.844C139.089 105.621 137.15 107.032 134.977 107.977C132.805 108.922 130.45 109.377 128.082 109.311C125.715 109.363 123.365 108.902 121.195 107.958C119.024 107.014 117.084 105.61 115.508 103.843ZM135.979 92C136.103 89.569 135.443 87.1624 134.096 85.135C133.347 84.2766 132.422 83.5885 131.385 83.1171C130.348 82.6457 129.222 82.4018 128.082 82.4018C126.943 82.4018 125.817 82.6457 124.78 83.1171C123.742 83.5885 122.818 84.2766 122.069 85.135C120.741 87.1686 120.102 89.5753 120.246 92C120.103 94.4041 120.742 96.7899 122.069 98.7999C122.808 99.6753 123.728 100.379 124.767 100.861C125.806 101.344 126.937 101.594 128.082 101.594C129.228 101.594 130.359 101.344 131.398 100.861C132.437 100.379 133.357 99.6753 134.096 98.7999C135.442 96.7962 136.102 94.4105 135.979 92Z" fill="white"/>
<path d="M180.93 75.5999V108.4H173.64V106.153C171.084 108.101 167.984 109.205 164.772 109.311C161.054 109.406 157.435 108.106 154.628 105.667C150.741 102.083 150.194 97.7088 150.194 91.9998V75.5999H158.576V91.9998C158.576 94.9758 159.062 97.7699 160.763 99.4709C162 100.548 163.558 101.186 165.195 101.285C166.833 101.384 168.456 100.938 169.814 100.018C171.114 98.9683 171.979 97.4752 172.244 95.8258C172.542 93.8562 172.664 91.864 172.608 89.8728V75.5999H180.93Z" fill="white"/>
<path d="M220.17 91.9999V108.4H211.788V91.9999C211.788 89.0229 211.302 86.2289 209.601 84.5279C208.364 83.4508 206.806 82.8131 205.169 82.7142C203.531 82.6152 201.908 83.0606 200.55 83.9809C199.25 85.0301 198.385 86.5229 198.12 88.1719C197.822 90.1415 197.7 92.1337 197.756 94.1249V108.4H189.434V75.5999H196.723V77.8479C199.28 75.9001 202.379 74.796 205.592 74.6889C209.31 74.5942 212.929 75.8945 215.736 78.3339C219.624 81.9149 220.17 86.2889 220.17 91.9999Z" fill="white"/>
<path d="M238.882 81.9759V93.8759C238.882 96.4279 238.942 98.3109 239.671 99.4649C240.046 100.025 240.54 100.494 241.117 100.84C241.695 101.186 242.343 101.399 243.013 101.465C244.796 101.584 246.587 101.523 248.358 101.283V108.4C245.209 109.157 241.933 109.219 238.758 108.583C235.781 107.732 233.473 106.274 232.198 103.844C230.798 101.232 230.618 98.0739 230.618 94.4899V81.9759H223.818V75.5999H230.618V66.4889H238.88V75.5999H248.356V81.9789L238.882 81.9759Z" fill="white"/>
</svg>
