<svg width="35" height="31" viewBox="0 0 35 31" fill="none" xmlns="http://www.w3.org/2000/svg">
<g id="Group 641" opacity="0.5">
<path id="Path 823" d="M26.1198 5.83316C25.7618 5.83316 25.4038 5.83316 24.9388 5.83316C24.9388 4.70616 24.9388 3.65016 24.9388 2.59316C24.9308 1.29316 24.5698 0.916156 23.3088 0.914156C19.4768 0.908823 15.6435 0.908823 11.8088 0.914156C10.5428 0.914156 10.1798 1.29416 10.1718 2.58716C10.1648 3.64316 10.1718 4.70116 10.1718 5.83316C7.80884 5.83316 5.55084 5.83316 3.28984 5.83316C1.24184 5.83316 0.341844 6.74315 0.339844 8.81015V27.4392C0.339844 29.5092 1.23984 30.4211 3.28484 30.4231C12.7962 30.4231 22.3062 30.4231 31.8148 30.4231C33.8668 30.4231 34.7668 29.5092 34.7668 27.4462C34.7668 23.1382 34.7838 18.8302 34.7668 14.5222C34.7218 4.70616 35.8908 5.88616 26.1198 5.83316ZM11.2648 22.6672C11.2737 22.8046 11.2533 22.9423 11.2049 23.0712C11.1565 23.2001 11.0813 23.3172 10.9841 23.4148C10.887 23.5124 10.7702 23.5882 10.6416 23.6373C10.5129 23.6863 10.3753 23.7074 10.2378 23.6992C9.76684 23.7132 9.29684 23.7082 8.82884 23.6992C8.677 23.7195 8.52251 23.7047 8.3773 23.6559C8.23208 23.6071 8.10002 23.5256 7.99131 23.4177C7.8826 23.3097 7.80013 23.1782 7.75029 23.0334C7.70045 22.8885 7.68456 22.7341 7.70384 22.5822C7.69484 21.0532 7.70384 19.5212 7.70384 17.9902C7.70384 16.4902 7.70384 14.9902 7.70384 13.4902C7.70384 12.6472 8.05484 12.3022 8.88984 12.2982C9.32984 12.2982 9.76884 12.2902 10.2078 12.2982C10.349 12.2847 10.4915 12.3024 10.6252 12.3498C10.7588 12.3973 10.8805 12.4735 10.9816 12.573C11.0827 12.6724 11.1608 12.7929 11.2104 12.9257C11.26 13.0586 11.28 13.2007 11.2688 13.3421C11.2742 16.4528 11.2728 19.5612 11.2648 22.6672ZM16.6518 21.7502C16.6651 21.891 16.6477 22.033 16.6008 22.1664C16.5539 22.2999 16.4786 22.4216 16.3802 22.5231C16.2817 22.6246 16.1623 22.7036 16.0304 22.7545C15.8984 22.8055 15.757 22.8272 15.6158 22.8182C15.1158 22.8292 14.6158 22.8312 14.1158 22.8182C13.9786 22.8261 13.8411 22.8048 13.7127 22.7556C13.5843 22.7063 13.4679 22.6304 13.3711 22.5326C13.2743 22.4349 13.1995 22.3177 13.1515 22.1889C13.1035 22.06 13.0835 21.9224 13.0928 21.7852C13.0808 20.6332 13.0928 19.4851 13.0928 18.3291C13.0928 17.1922 13.0928 16.0562 13.0928 14.9192C13.0758 14.7672 13.0932 14.6133 13.1438 14.469C13.1944 14.3247 13.2768 14.1936 13.385 14.0856C13.4932 13.9775 13.6243 13.8952 13.7687 13.8447C13.913 13.7943 14.0669 13.777 14.2188 13.7942C14.6728 13.7872 15.1278 13.7842 15.5828 13.7942C15.7274 13.7848 15.8722 13.8066 16.0076 13.8582C16.1429 13.9099 16.2656 13.99 16.3672 14.0932C16.4688 14.1964 16.547 14.3203 16.5964 14.4565C16.6459 14.5926 16.6655 14.7378 16.6538 14.8822C16.6578 17.1715 16.6572 19.4608 16.6518 21.7502ZM22.0388 24.7742C22.0519 24.915 22.0342 25.0571 21.987 25.1905C21.9398 25.3238 21.8641 25.4454 21.7653 25.5466C21.6665 25.6479 21.5469 25.7265 21.4147 25.777C21.2826 25.8275 21.141 25.8487 20.9998 25.8392C20.4998 25.8522 19.9998 25.8522 19.4998 25.8392C19.3627 25.8451 19.2258 25.822 19.0982 25.7715C18.9706 25.7209 18.855 25.644 18.7591 25.5458C18.6633 25.4475 18.5892 25.3302 18.5417 25.2013C18.4943 25.0725 18.4746 24.9351 18.4838 24.7982C18.4758 23.2802 18.4758 21.7625 18.4838 20.2451C18.4737 20.1114 18.4924 19.9771 18.5386 19.8512C18.5848 19.7253 18.6574 19.6108 18.7516 19.5154C18.8458 19.4199 18.9594 19.3458 19.0847 19.298C19.2099 19.2502 19.344 19.2298 19.4778 19.2382C20.0088 19.2252 20.5408 19.2232 21.0718 19.2382C21.2019 19.2324 21.3317 19.2541 21.4528 19.3019C21.5739 19.3496 21.6837 19.4222 21.7749 19.5151C21.8661 19.608 21.9367 19.7191 21.9822 19.8411C22.0277 19.963 22.047 20.0932 22.0388 20.2232C22.0538 20.9962 22.0388 21.7702 22.0388 22.5442C22.0408 23.2882 22.0478 24.0322 22.0388 24.7742ZM22.3968 5.77916H12.6838V3.44016H22.3978L22.3968 5.77916ZM27.4288 21.6492C27.4288 22.4572 27.0678 22.8142 26.2668 22.8232C25.8118 22.8232 25.3568 22.8332 24.9038 22.8232C24.7665 22.8325 24.6287 22.8127 24.4996 22.7649C24.3704 22.7172 24.2529 22.6426 24.1546 22.5462C24.0564 22.4497 23.9797 22.3335 23.9295 22.2053C23.8794 22.0771 23.857 21.9397 23.8638 21.8022C23.8538 19.4828 23.8538 17.1638 23.8638 14.8452C23.858 14.7081 23.8805 14.5714 23.9298 14.4434C23.9791 14.3154 24.0542 14.1989 24.1504 14.1012C24.2466 14.0035 24.3619 13.9266 24.4891 13.8753C24.6163 13.824 24.7527 13.7995 24.8898 13.8031C25.3758 13.7861 25.8608 13.7911 26.3458 13.8031C26.4906 13.791 26.6362 13.8106 26.7726 13.8605C26.9089 13.9104 27.0328 13.9893 27.1356 14.0919C27.2384 14.1945 27.3176 14.3182 27.3677 14.4545C27.4178 14.5908 27.4377 14.7364 27.4258 14.8812C27.4378 16.0312 27.4258 17.1812 27.4258 18.3352C27.4288 19.4362 27.4328 20.5422 27.4288 21.6492Z" fill="white"/>
</g>
</svg>
