<svg width="27" height="30" viewBox="0 0 27 30" fill="none" xmlns="http://www.w3.org/2000/svg">
<g id="Group 148">
<g id="Group 147">
<path id="Path 299" d="M2.81625 14.9673C2.81625 18.2544 2.81625 21.5411 2.81625 24.8272C2.81625 26.423 3.48915 27.0891 5.0888 27.0891C9.28994 27.0891 13.4915 27.0891 17.6936 27.0891C17.9309 27.0605 18.1716 27.0927 18.393 27.1827C18.6145 27.2727 18.8094 27.4175 18.9595 27.6035C19.1096 27.7895 19.21 28.0106 19.2512 28.2461C19.2924 28.4816 19.273 28.7237 19.1949 28.9497C19.0857 29.2548 18.8763 29.514 18.6009 29.6848C18.3255 29.8556 18.0004 29.928 17.6786 29.8902C14.8778 29.8902 12.0766 29.8902 9.27491 29.8902C7.79673 29.8902 6.31856 29.8902 4.84038 29.8902C4.20093 29.9172 3.56283 29.8116 2.96616 29.58C2.36948 29.3485 1.82716 28.996 1.37325 28.5447C0.919351 28.0935 0.563662 27.5532 0.328592 26.9578C0.0935221 26.3624 -0.0158775 25.7248 0.00727942 25.0852C-0.00909928 20.4371 0.00727942 15.7891 0.00727942 11.1411C0.00727942 9.05937 0.000454964 6.97897 0.00727942 4.89725C-0.0262813 4.24329 0.0784025 3.58963 0.314513 2.97887C0.550624 2.36812 0.912887 1.81406 1.37759 1.35278C1.84229 0.8915 2.399 0.533367 3.01143 0.301821C3.62386 0.0702743 4.27821 -0.0295141 4.93181 0.0089619C9.19209 0.0089619 13.4524 0.0089619 17.7127 0.0089619C17.9557 -0.0186359 18.2018 0.0177702 18.4265 0.114524C18.6512 0.211279 18.8467 0.365037 18.9937 0.560603C19.1407 0.756169 19.2341 0.986716 19.2646 1.22947C19.2951 1.47223 19.2617 1.7188 19.1676 1.94466C19.0428 2.23267 18.8287 2.47285 18.5568 2.62969C18.285 2.78654 17.9698 2.85172 17.6581 2.81557C13.4724 2.80556 9.29039 2.80556 5.112 2.81557C4.9373 2.81557 4.76121 2.81557 4.58651 2.81557C4.34219 2.82466 4.10212 2.8822 3.88023 2.98487C3.65835 3.08754 3.4591 3.23327 3.29401 3.41362C3.12892 3.59397 3.00131 3.80532 2.91859 4.03542C2.83587 4.26551 2.7997 4.50975 2.81216 4.75394C2.79306 6.36745 2.80533 7.98228 2.80533 9.59715L2.81625 14.9673Z" fill="white"/>
<path id="Path 300" d="M21.2541 16.3542H17.7668C15.2773 16.3542 12.7877 16.3542 10.2981 16.3542C10.1092 16.3626 9.92057 16.3326 9.74356 16.266C9.56655 16.1995 9.40485 16.0978 9.26821 15.9671C9.13158 15.8363 9.02282 15.6793 8.94853 15.5053C8.87423 15.3314 8.83594 15.1442 8.83594 14.9551C8.83594 14.766 8.87423 14.5788 8.94853 14.4049C9.02282 14.231 9.13158 14.0739 9.26821 13.9431C9.40485 13.8124 9.56655 13.7107 9.74356 13.6441C9.92057 13.5776 10.1092 13.5475 10.2981 13.5559C10.4346 13.5559 10.5711 13.5559 10.7076 13.5559H21.1859C21.0207 13.362 20.9238 13.2324 20.8091 13.1191C19.5871 11.8932 18.3637 10.6683 17.139 9.44428C16.9729 9.32288 16.8354 9.16663 16.7361 8.98645C16.6369 8.80627 16.5782 8.60657 16.5643 8.40132C16.5504 8.19606 16.5815 7.9902 16.6556 7.79827C16.7296 7.60633 16.8448 7.43291 16.9929 7.2902C17.1377 7.15236 17.3097 7.04647 17.498 6.97935C17.6863 6.91223 17.8866 6.88543 18.0859 6.90061C18.2852 6.9158 18.479 6.97263 18.655 7.0675C18.8309 7.16236 18.985 7.29316 19.1072 7.45134C21.2282 9.56628 23.3465 11.6839 25.4621 13.8043C25.6396 13.9367 25.7842 14.1083 25.8844 14.3058C25.9846 14.5033 26.0376 14.7213 26.0395 14.9428C26.0413 15.1642 25.9919 15.3832 25.895 15.5823C25.7982 15.7815 25.6565 15.9555 25.4812 16.0908C23.3519 18.2267 21.2196 20.3584 19.084 22.4861C18.9608 22.6413 18.8063 22.7689 18.6305 22.8603C18.4548 22.9517 18.2617 23.005 18.0639 23.0168C17.8661 23.0285 17.6681 22.9984 17.4828 22.9284C17.2974 22.8583 17.1289 22.75 16.9883 22.6104C16.8477 22.4708 16.7381 22.3031 16.6667 22.1183C16.5952 21.9334 16.5636 21.7357 16.5739 21.5378C16.5841 21.3399 16.6359 21.1464 16.726 20.9699C16.8161 20.7934 16.9424 20.6379 17.0966 20.5136C18.437 19.1594 19.7869 17.8176 21.2541 16.3542Z" fill="white"/>
</g>
</g>
</svg>
