<svg width="16" height="28" viewBox="0 0 16 28" fill="none" xmlns="http://www.w3.org/2000/svg">
<g id="Group 322">
<g id="Group 313">
<g id="Group 312">
<path id="Path 465" d="M10.0348 27.1884C10.0518 23.5245 10.0518 19.7885 10.0348 16.1285C10.0348 15.6435 10.1618 15.4645 10.6688 15.4825C11.6878 15.5175 12.7098 15.5104 13.7288 15.4754C13.9128 15.4694 14.2288 15.2754 14.2498 15.1274C14.4588 13.7324 14.6189 12.3274 14.7879 10.9274C14.7865 10.7885 14.7731 10.65 14.7478 10.5134C13.3898 10.5134 12.0818 10.4884 10.7758 10.5264C10.2098 10.5424 9.99381 10.3925 10.0318 9.79746C10.0818 8.98846 10.0389 8.17345 10.0459 7.36145C10.0051 7.07407 10.0316 6.78113 10.1234 6.50577C10.2152 6.23041 10.3698 5.98015 10.5749 5.77475C10.78 5.56936 11.03 5.41445 11.3053 5.32224C11.5805 5.23003 11.8734 5.20306 12.1608 5.24344C12.9098 5.23044 13.6608 5.22244 14.4088 5.24344C14.8308 5.25744 15.0198 5.11544 15.0148 4.67844C15.0018 3.55444 15.0048 2.42945 15.0148 1.30545C15.0148 0.962455 14.9148 0.738435 14.5398 0.716435C12.7082 0.439952 10.8422 0.487006 9.02681 0.855442C7.89472 1.17026 6.89103 1.83461 6.15889 2.7537C5.42675 3.67278 5.0036 4.79963 4.94984 5.97345C4.88684 7.28245 4.86383 8.59345 4.85683 9.90345C4.85683 10.3544 4.72483 10.5344 4.24983 10.5194C3.24983 10.4904 2.24983 10.5194 1.24983 10.5064C0.849831 10.4994 0.694806 10.6534 0.698806 11.0534C0.712139 12.3654 0.712139 13.6774 0.698806 14.9894C0.698806 15.3684 0.845825 15.4994 1.21883 15.4894C2.21883 15.4734 3.21883 15.5015 4.21883 15.4775C4.65683 15.4665 4.85883 15.5775 4.85683 16.0605C4.84149 19.7678 4.84149 23.4745 4.85683 27.1805L10.0348 27.1884Z" fill="#4267B2"/>
</g>
</g>
</g>
</svg>
