<svg width="33" height="32" viewBox="0 0 33 32" fill="none" xmlns="http://www.w3.org/2000/svg">
<g id="Group 324">
<g id="Group 307">
<path id="Path 458" d="M21.2809 24.1275C22.933 23.1041 24.2661 21.6394 25.1299 19.8985C25.3729 19.3925 25.3669 19.2165 24.7299 19.2265C22.6839 19.2585 20.6369 19.2405 18.5909 19.2375C17.4699 19.2375 17.137 18.9026 17.133 17.7886C17.133 16.6416 17.125 15.4945 17.133 14.3475C17.141 13.4345 17.5039 13.0645 18.3969 13.0635C22.5349 13.0595 26.6726 13.0595 30.81 13.0635C31.595 13.0635 31.9659 13.3575 32.0719 14.0825C32.4678 17.1218 31.9394 20.2098 30.5557 22.9446C29.172 25.6793 26.997 27.9342 24.3139 29.4155C24.0509 29.3685 23.9849 29.1266 23.8729 28.9436C23.0109 27.5436 22.2459 26.0935 21.3979 24.6885C21.2939 24.5195 21.1639 24.3465 21.2809 24.1275Z" fill="#167EE5"/>
<path id="Path 459" d="M8.10395 11.0312C7.55297 12.1084 7.16572 13.2618 6.95496 14.4532C6.66779 16.5801 7.08282 18.7427 8.13697 20.6122C8.12627 20.6905 8.09524 20.7647 8.047 20.8273C7.99876 20.89 7.93501 20.9389 7.862 20.9692C6.339 21.8412 4.82698 22.7302 3.30298 23.6002C3.23964 23.648 3.16675 23.6817 3.0893 23.6989C3.01184 23.7162 2.93159 23.7166 2.85395 23.7002C1.42202 21.3212 0.664539 18.5974 0.662601 15.8207C0.660664 13.044 1.41436 10.3192 2.84296 7.93821C3.29096 7.87721 3.58494 8.2002 3.92694 8.3892C5.19494 9.0892 6.43398 9.8442 7.69898 10.5522C7.89298 10.6552 8.10095 10.7592 8.10395 11.0312Z" fill="#FED400"/>
<path id="Path 460" d="M8.10376 11.0308L3.12878 8.10684C3.02878 8.05084 2.9378 7.99083 2.8418 7.93283C4.18354 5.51853 6.155 3.5134 8.54626 2.13101C10.9375 0.748628 13.659 0.0407549 16.4208 0.0828265C16.6034 0.342536 16.6839 0.660496 16.6468 0.975832C16.6508 2.4105 16.6508 3.84583 16.6468 5.28183C16.6933 5.59633 16.6131 5.91643 16.4238 6.17185C14.7371 6.2024 13.0866 6.66514 11.6299 7.51587C10.1732 8.3666 8.95909 9.57683 8.10376 11.0308Z" fill="#FE4B26"/>
<path id="Path 461" d="M2.854 23.6953L8.138 20.6123C8.80927 21.7398 9.69913 22.7218 10.7552 23.5006C11.8114 24.2794 13.0125 24.8393 14.288 25.1473C15.1643 25.3283 16.0586 25.4071 16.953 25.3823C16.6781 25.8677 16.5666 26.4287 16.635 26.9823C16.643 28.2083 16.643 29.4343 16.635 30.6603C16.6614 30.8145 16.6563 30.9724 16.6199 31.1246C16.5834 31.2767 16.5165 31.4198 16.423 31.5453C13.6657 31.5715 10.9518 30.8569 8.56494 29.476C6.17809 28.0952 4.20577 26.0988 2.854 23.6953Z" fill="#12B247"/>
<path id="Path 462" d="M16.4229 6.17225C16.4229 4.14225 16.4229 2.11256 16.4229 0.0832286C19.3141 0.00701229 22.1634 0.785901 24.6138 2.32224C25.3503 2.75568 26.0426 3.26006 26.6808 3.82822C26.8174 3.92058 26.9303 4.04385 27.0103 4.18803C27.0902 4.3322 27.1351 4.49323 27.1411 4.658C27.1472 4.82276 27.1142 4.98662 27.045 5.13627C26.9758 5.28592 26.8723 5.41713 26.7429 5.51923C25.8429 6.43523 24.9308 7.33124 24.0278 8.24024C23.9463 8.35003 23.8433 8.44205 23.725 8.51072C23.6068 8.57938 23.4757 8.62325 23.34 8.63963C23.2042 8.656 23.0665 8.64454 22.9353 8.60596C22.8041 8.56739 22.6821 8.50249 22.5768 8.41523C20.826 7.01468 18.6643 6.2268 16.4229 6.17225Z" fill="#D83F21"/>
<path id="Path 463" d="M16.4222 31.5418C16.4222 29.7568 16.4412 27.9708 16.4082 26.1868C16.3992 25.7348 16.5231 25.4868 16.9531 25.3868C18.4653 25.2658 19.9371 24.8388 21.2792 24.1318L24.3122 29.4208C22.566 30.5074 20.601 31.1941 18.5582 31.4318C17.8537 31.5589 17.136 31.5959 16.4222 31.5418Z" fill="#0F983E"/>
</g>
</g>
</svg>
