<svg width="131" height="122" viewBox="0 0 131 122" fill="none" xmlns="http://www.w3.org/2000/svg">
<g id="Group 1173">
<g id="Group 1088">
<path id="Path 1474" d="M118.379 121.358L111.452 117.59C111.162 117.422 110.924 117.178 110.763 116.885C110.601 116.592 110.522 116.26 110.535 115.926L117.463 119.695C117.45 120.029 117.529 120.361 117.69 120.654C117.851 120.947 118.09 121.19 118.379 121.358Z" fill="#141414"/>
<g id="Clip path group">
<mask id="mask0_1_42005" style="mask-type:luminance" maskUnits="userSpaceOnUse" x="110" y="115" width="9" height="7">
<g id="clip-path-3">
<path id="Path 1476" d="M118.379 121.358L111.452 117.59C111.162 117.422 110.924 117.178 110.763 116.885C110.601 116.592 110.522 116.26 110.535 115.926L117.463 119.695C117.45 120.029 117.529 120.361 117.69 120.654C117.851 120.947 118.09 121.19 118.379 121.358Z" fill="white"/>
</g>
</mask>
<g mask="url(#mask0_1_42005)">
<g id="Group 1087">
<g id="Group 1086">
<path id="Path 1475" d="M118.379 121.358L111.452 117.59C111.162 117.422 110.924 117.178 110.763 116.885C110.601 116.592 110.522 116.26 110.535 115.926L117.463 119.695C117.45 120.029 117.529 120.361 117.69 120.654C117.851 120.947 118.09 121.19 118.379 121.358Z" fill="#141414" stroke="#FFCE00" stroke-width="0.5" stroke-miterlimit="10"/>
</g>
</g>
</g>
</g>
<path id="Path 1477" d="M118.379 121.358L111.452 117.59C111.162 117.422 110.924 117.178 110.763 116.885C110.601 116.592 110.522 116.26 110.535 115.926L117.463 119.695C117.45 120.029 117.529 120.361 117.69 120.654C117.851 120.947 118.09 121.19 118.379 121.358Z" stroke="#FFCE00" stroke-width="0.5" stroke-miterlimit="10"/>
</g>
<g id="Group 1091">
<path id="Path 1478" d="M50.5031 120.373L43.5751 116.605C43.2857 116.437 43.0475 116.193 42.8862 115.9C42.7248 115.607 42.6463 115.275 42.6591 114.941L49.587 118.709C49.5738 119.043 49.6522 119.375 49.8136 119.668C49.975 119.961 50.2134 120.205 50.5031 120.373Z" fill="#141414"/>
<g id="Clip path group_2">
<mask id="mask1_1_42005" style="mask-type:luminance" maskUnits="userSpaceOnUse" x="42" y="114" width="9" height="7">
<g id="clip-path-4">
<path id="Path 1480" d="M50.5031 120.373L43.5751 116.605C43.2857 116.437 43.0475 116.193 42.8862 115.9C42.7248 115.607 42.6463 115.275 42.6591 114.941L49.587 118.709C49.5738 119.043 49.6522 119.375 49.8136 119.668C49.975 119.961 50.2134 120.205 50.5031 120.373Z" fill="white"/>
</g>
</mask>
<g mask="url(#mask1_1_42005)">
<g id="Group 1090">
<g id="Group 1089">
<path id="Path 1479" d="M50.5031 120.373L43.5751 116.605C43.2857 116.437 43.0475 116.193 42.8862 115.9C42.7248 115.607 42.6463 115.275 42.6591 114.941L49.587 118.709C49.5738 119.043 49.6522 119.375 49.8136 119.668C49.975 119.961 50.2134 120.205 50.5031 120.373Z" fill="#141414" stroke="#FFCE00" stroke-width="0.5" stroke-miterlimit="10"/>
</g>
</g>
</g>
</g>
<path id="Path 1481" d="M50.5031 120.373L43.5751 116.605C43.2857 116.437 43.0475 116.193 42.8862 115.9C42.7248 115.607 42.6463 115.275 42.6591 114.941L49.587 118.709C49.5738 119.043 49.6522 119.375 49.8136 119.668C49.975 119.961 50.2134 120.205 50.5031 120.373Z" stroke="#FFCE00" stroke-width="0.5" stroke-miterlimit="10"/>
</g>
<g id="Group 1172">
<g id="Group 1094">
<path id="Path 1482" d="M117.463 119.695L110.535 115.926L110.558 103.771L117.486 107.54L117.463 119.695Z" fill="#141414" stroke="#FFCE00" stroke-width="0.5" stroke-miterlimit="10"/>
</g>
<g id="Group 1097">
<path id="Path 1483" d="M110.268 108.063L103.34 104.294C102.905 104.041 102.548 103.675 102.306 103.235C102.063 102.794 101.946 102.296 101.965 101.794L108.893 105.563C108.873 106.065 108.991 106.563 109.233 107.004C109.476 107.444 109.833 107.811 110.268 108.063Z" fill="#141414"/>
<g id="Clip path group_3">
<mask id="mask2_1_42005" style="mask-type:luminance" maskUnits="userSpaceOnUse" x="101" y="101" width="10" height="8">
<g id="clip-path-5">
<path id="Path 1485" d="M110.268 108.063L103.34 104.294C102.905 104.041 102.548 103.675 102.306 103.235C102.063 102.794 101.946 102.296 101.965 101.794L108.893 105.563C108.873 106.065 108.991 106.563 109.233 107.004C109.476 107.444 109.833 107.811 110.268 108.063Z" fill="white"/>
</g>
</mask>
<g mask="url(#mask2_1_42005)">
<g id="Group 1096">
<g id="Group 1095">
<path id="Path 1484" d="M110.268 108.063L103.34 104.294C102.905 104.041 102.548 103.675 102.306 103.235C102.063 102.794 101.946 102.296 101.965 101.794L108.893 105.563C108.873 106.065 108.991 106.563 109.233 107.004C109.476 107.444 109.833 107.811 110.268 108.063Z" fill="#141414" stroke="#FFCE00" stroke-width="0.5" stroke-miterlimit="10"/>
</g>
</g>
</g>
</g>
<path id="Path 1486" d="M110.268 108.063L103.34 104.294C102.905 104.041 102.548 103.675 102.306 103.235C102.063 102.794 101.946 102.296 101.965 101.794L108.893 105.563C108.873 106.065 108.991 106.563 109.233 107.004C109.476 107.444 109.833 107.811 110.268 108.063Z" stroke="#FFCE00" stroke-width="0.5" stroke-miterlimit="10"/>
</g>
<g id="Group 1100">
<path id="Path 1487" d="M121.474 33.7369L128.402 37.506C127.922 37.2477 127.371 37.1521 126.832 37.2339L119.905 33.4659C120.444 33.3843 120.994 33.4794 121.474 33.7369Z" fill="#141414"/>
<g id="Clip path group_4">
<mask id="mask3_1_42005" style="mask-type:luminance" maskUnits="userSpaceOnUse" x="119" y="33" width="10" height="5">
<g id="clip-path-6">
<path id="Path 1491" d="M121.474 33.7369L128.402 37.506C127.922 37.2477 127.371 37.1521 126.832 37.2339L119.905 33.4659C120.444 33.3843 120.994 33.4794 121.474 33.7369Z" fill="white"/>
</g>
</mask>
<g mask="url(#mask3_1_42005)">
<g id="Group 1099">
<g id="Group 1098">
<path id="Path 1488" d="M126.832 37.234L119.905 33.466C120.243 33.4163 120.587 33.434 120.917 33.5181L127.845 37.286C127.514 37.2025 127.17 37.1848 126.832 37.234Z" fill="#141414" stroke="#FFCE00" stroke-width="0.5" stroke-miterlimit="10"/>
<path id="Path 1489" d="M127.845 37.286L120.917 33.5181C121.079 33.5596 121.235 33.6172 121.384 33.6901L128.312 37.4591C128.163 37.3855 128.007 37.3275 127.845 37.286Z" fill="#141414" stroke="#FFCE00" stroke-width="0.5" stroke-miterlimit="10"/>
<path id="Path 1490" d="M128.312 37.459L121.384 33.6899C121.415 33.7049 121.445 33.7209 121.474 33.7369L128.402 37.506L128.312 37.459Z" fill="#141414" stroke="#FFCE00" stroke-width="0.5" stroke-miterlimit="10"/>
</g>
</g>
</g>
</g>
<path id="Path 1492" d="M121.474 33.7369L128.402 37.506C127.922 37.2477 127.371 37.1521 126.832 37.2339L119.905 33.4659C120.444 33.3843 120.994 33.4794 121.474 33.7369Z" stroke="#FFCE00" stroke-width="0.5" stroke-miterlimit="10"/>
</g>
<g id="Group 1101">
<path id="Path 1493" d="M121.549 37.9788L114.621 34.2098L119.904 33.4678L126.832 37.2368L121.549 37.9788Z" fill="#141414" stroke="#FFCE00" stroke-width="0.5" stroke-miterlimit="10"/>
</g>
<g id="Group 1102">
<path id="Path 1494" d="M111.965 39.324L105.037 35.5549L110.686 34.761L117.614 38.5299L111.965 39.324Z" fill="#141414" stroke="#FFCE00" stroke-width="0.5" stroke-miterlimit="10"/>
</g>
<g id="Group 1103">
<path id="Path 1495" d="M108.893 105.562L101.965 101.793L102.081 39.1538L109.009 42.9229L108.893 105.562Z" fill="#141414" stroke="#FFCE00" stroke-width="0.5" stroke-miterlimit="10"/>
</g>
<g id="Group 1104">
<path id="Path 1496" d="M117.614 38.5299L110.686 34.761L110.709 22.606L117.637 26.3749L117.614 38.5299Z" fill="#141414" stroke="#FFCE00" stroke-width="0.5" stroke-miterlimit="10"/>
</g>
<g id="Group 1107">
<path id="Path 1497" d="M109.009 42.923L102.081 39.1539C102.082 38.3046 102.377 37.4819 102.916 36.8256C103.455 36.1692 104.205 35.7199 105.038 35.554L111.965 39.3229C111.132 39.4888 110.383 39.9383 109.844 40.5946C109.305 41.2509 109.01 42.0737 109.009 42.923Z" fill="#141414"/>
<g id="Clip path group_5">
<mask id="mask4_1_42005" style="mask-type:luminance" maskUnits="userSpaceOnUse" x="102" y="35" width="10" height="8">
<g id="clip-path-7">
<path id="Path 1506" d="M109.009 42.923L102.081 39.1539C102.082 38.3046 102.377 37.4819 102.916 36.8256C103.455 36.1692 104.205 35.7199 105.038 35.554L111.965 39.3229C111.132 39.4888 110.383 39.9383 109.844 40.5946C109.305 41.2509 109.01 42.0737 109.009 42.923Z" fill="white"/>
</g>
</mask>
<g mask="url(#mask4_1_42005)">
<g id="Group 1106">
<g id="Group 1105">
<path id="Path 1498" d="M109.009 42.923L102.081 39.1539C102.083 38.7289 102.16 38.3075 102.308 37.9089L109.235 41.678C109.088 42.0766 109.011 42.498 109.009 42.923Z" fill="#141414" stroke="#FFCE00" stroke-width="0.5" stroke-miterlimit="10"/>
<path id="Path 1499" d="M109.235 41.679L102.308 37.9099C102.371 37.7381 102.446 37.571 102.532 37.4099L109.46 41.178C109.373 41.3389 109.298 41.507 109.235 41.679Z" fill="#141414" stroke="#FFCE00" stroke-width="0.5" stroke-miterlimit="10"/>
<path id="Path 1500" d="M109.46 41.1791L102.532 37.411C102.605 37.2754 102.686 37.1442 102.774 37.0181L109.701 40.7871C109.613 40.9128 109.533 41.0437 109.46 41.1791Z" fill="#141414" stroke="#FFCE00" stroke-width="0.5" stroke-miterlimit="10"/>
<path id="Path 1501" d="M109.703 40.787L102.776 37.0179C102.859 36.9002 102.948 36.787 103.043 36.679L109.971 40.4469C109.876 40.5556 109.786 40.6691 109.703 40.787Z" fill="#141414" stroke="#FFCE00" stroke-width="0.5" stroke-miterlimit="10"/>
<path id="Path 1502" d="M109.969 40.447L103.041 36.6791C103.135 36.5715 103.235 36.4693 103.341 36.373L110.269 40.1411C110.164 40.2377 110.063 40.3397 109.969 40.447Z" fill="#141414" stroke="#FFCE00" stroke-width="0.5" stroke-miterlimit="10"/>
<path id="Path 1503" d="M110.272 40.1409L103.344 36.3728C103.458 36.2703 103.577 36.1755 103.703 36.0889L110.631 39.8568C110.506 39.9441 110.386 40.039 110.272 40.1409Z" fill="#141414" stroke="#FFCE00" stroke-width="0.5" stroke-miterlimit="10"/>
<path id="Path 1504" d="M110.631 39.8571L103.703 36.0891C103.855 35.984 104.015 35.8913 104.182 35.812L111.11 39.5811C110.943 39.6597 110.783 39.7521 110.631 39.8571Z" fill="#141414" stroke="#FFCE00" stroke-width="0.5" stroke-miterlimit="10"/>
<path id="Path 1505" d="M111.11 39.579L104.182 35.8099C104.453 35.6822 104.742 35.5956 105.038 35.553L111.965 39.3219C111.669 39.3641 111.381 39.4508 111.11 39.579Z" fill="#141414" stroke="#FFCE00" stroke-width="0.5" stroke-miterlimit="10"/>
</g>
</g>
</g>
</g>
<path id="Path 1507" d="M109.009 42.923L102.081 39.1539C102.082 38.3046 102.377 37.4819 102.916 36.8256C103.455 36.1692 104.205 35.7199 105.038 35.554L111.965 39.3229C111.132 39.4888 110.383 39.9383 109.844 40.5946C109.305 41.2509 109.01 42.0737 109.009 42.923Z" stroke="#FFCE00" stroke-width="0.5" stroke-miterlimit="10"/>
</g>
<g id="Group 1108">
<path id="Path 1508" d="M126.832 37.2341C127.216 37.1835 127.606 37.2189 127.974 37.3376C128.343 37.4563 128.68 37.6553 128.962 37.9205C129.244 38.1856 129.463 38.5102 129.604 38.8705C129.745 39.2309 129.804 39.6181 129.777 40.0041L129.66 102.643C129.659 103.492 129.364 104.315 128.825 104.971C128.286 105.627 127.537 106.077 126.704 106.243L121.421 106.985L121.398 119.14C121.398 119.706 121.201 120.255 120.842 120.692C120.482 121.13 119.982 121.429 119.427 121.54C119.172 121.574 118.912 121.55 118.666 121.471C118.421 121.392 118.196 121.26 118.008 121.083C117.82 120.907 117.673 120.691 117.579 120.451C117.485 120.21 117.445 119.952 117.463 119.695L117.486 107.54L111.837 108.334C111.453 108.385 111.063 108.349 110.695 108.23C110.327 108.111 109.989 107.912 109.708 107.647C109.426 107.381 109.206 107.057 109.066 106.696C108.925 106.336 108.866 105.948 108.893 105.562L109.009 42.9232C109.01 42.0739 109.305 41.2511 109.844 40.5948C110.383 39.9385 111.132 39.489 111.965 39.3231L117.614 38.5291L117.636 26.3741C117.637 25.8078 117.834 25.2591 118.193 24.8216C118.553 24.384 119.053 24.0845 119.608 23.9741C119.857 23.9351 120.111 23.9534 120.352 24.0275C120.593 24.1017 120.814 24.2299 120.997 24.4022C121.185 24.5868 121.333 24.808 121.432 25.0521C121.531 25.2961 121.578 25.5578 121.572 25.8211L121.549 37.9761L126.832 37.2341Z" fill="#141414" stroke="#FFCE00" stroke-width="0.5" stroke-miterlimit="10"/>
</g>
<g id="Group 1111">
<path id="Path 1509" d="M113.728 20.3868L120.656 24.1557C120.335 23.9838 119.968 23.9204 119.608 23.9748C119.053 24.0853 118.553 24.3848 118.193 24.8224C117.834 25.2599 117.637 25.8084 117.636 26.3747L110.709 22.6068C110.71 22.0406 110.906 21.4921 111.266 21.0545C111.625 20.617 112.125 20.3175 112.68 20.2068C113.04 20.1519 113.407 20.2151 113.728 20.3868Z" fill="#141414"/>
<g id="Clip path group_6">
<mask id="mask5_1_42005" style="mask-type:luminance" maskUnits="userSpaceOnUse" x="110" y="20" width="11" height="7">
<g id="clip-path-8">
<path id="Path 1520" d="M113.728 20.3868L120.656 24.1557C120.335 23.9838 119.968 23.9204 119.608 23.9748C119.053 24.0853 118.553 24.3848 118.193 24.8224C117.834 25.2599 117.637 25.8084 117.636 26.3747L110.709 22.6068C110.71 22.0406 110.906 21.4921 111.266 21.0545C111.625 20.617 112.125 20.3175 112.68 20.2068C113.04 20.1519 113.407 20.2151 113.728 20.3868Z" fill="white"/>
</g>
</mask>
<g mask="url(#mask5_1_42005)">
<g id="Group 1110">
<g id="Group 1109">
<path id="Path 1510" d="M117.636 26.3788L110.709 22.6108C110.71 22.3271 110.761 22.0457 110.86 21.7798L117.787 25.5479C117.689 25.8141 117.638 26.0951 117.636 26.3788Z" fill="#141414" stroke="#FFCE00" stroke-width="0.5" stroke-miterlimit="10"/>
<g id="Path 1511">
<path d="M117.787 25.5438L110.86 21.7788C110.902 21.6645 110.952 21.5532 111.009 21.4458L117.937 25.2148C117.879 25.322 117.829 25.4328 117.787 25.5468" fill="#141414"/>
<path d="M117.787 25.5438L110.86 21.7788C110.902 21.6645 110.952 21.5532 111.009 21.4458L117.937 25.2148C117.879 25.322 117.829 25.4328 117.787 25.5468" stroke="#FFCE00" stroke-width="0.5" stroke-miterlimit="10"/>
</g>
<path id="Path 1512" d="M117.937 25.2119L111.009 21.4429C111.058 21.3527 111.112 21.2656 111.171 21.1819L118.098 24.95C118.039 25.0342 117.986 25.1217 117.937 25.2119Z" fill="#141414" stroke="#FFCE00" stroke-width="0.5" stroke-miterlimit="10"/>
<path id="Path 1513" d="M118.098 24.9501L111.171 21.182C111.226 21.1031 111.285 21.0274 111.349 20.9551L118.277 24.724C118.213 24.796 118.153 24.8715 118.098 24.9501Z" fill="#141414" stroke="#FFCE00" stroke-width="0.5" stroke-miterlimit="10"/>
<path id="Path 1514" d="M118.277 24.7239L111.349 20.955C111.412 20.8847 111.479 20.8178 111.549 20.7549L118.477 24.5239C118.407 24.5867 118.34 24.6534 118.277 24.7239Z" fill="#141414" stroke="#FFCE00" stroke-width="0.5" stroke-miterlimit="10"/>
<path id="Path 1515" d="M118.479 24.52L111.551 20.7511C111.627 20.6834 111.706 20.6202 111.79 20.562L118.718 24.3311C118.634 24.3886 118.554 24.4517 118.479 24.52Z" fill="#141414" stroke="#FFCE00" stroke-width="0.5" stroke-miterlimit="10"/>
<path id="Path 1516" d="M118.718 24.3309L111.79 20.5619C111.892 20.492 111.999 20.4305 112.11 20.3779L119.037 24.147C118.926 24.1988 118.819 24.2604 118.718 24.3309Z" fill="#141414" stroke="#FFCE00" stroke-width="0.5" stroke-miterlimit="10"/>
<path id="Path 1517" d="M119.037 24.1469L112.11 20.3779C112.29 20.2923 112.482 20.2343 112.68 20.2059C112.907 20.1732 113.138 20.1854 113.36 20.2419L120.287 24.0099C120.065 23.9532 119.834 23.9414 119.608 23.9749C119.41 24.0034 119.218 24.0614 119.037 24.1469Z" fill="#141414" stroke="#FFCE00" stroke-width="0.5" stroke-miterlimit="10"/>
<path id="Path 1518" d="M120.287 24.0099L113.36 20.2419C113.467 20.2693 113.57 20.3078 113.669 20.3569L120.597 24.1249C120.498 24.0763 120.394 24.0377 120.287 24.0099Z" fill="#141414" stroke="#FFCE00" stroke-width="0.5" stroke-miterlimit="10"/>
<path id="Path 1519" d="M120.597 24.1249L113.669 20.3569C113.689 20.3659 113.709 20.376 113.728 20.387L120.656 24.1559L120.597 24.1249Z" fill="#141414" stroke="#FFCE00" stroke-width="0.5" stroke-miterlimit="10"/>
</g>
</g>
</g>
</g>
<path id="Path 1521" d="M113.728 20.3868L120.656 24.1557C120.335 23.9838 119.968 23.9204 119.608 23.9748C119.053 24.0853 118.553 24.3848 118.193 24.8224C117.834 25.2599 117.637 25.8084 117.636 26.3747L110.709 22.6068C110.71 22.0406 110.906 21.4921 111.266 21.0545C111.625 20.617 112.125 20.3175 112.68 20.2068C113.04 20.1519 113.407 20.2151 113.728 20.3868Z" stroke="#FFCE00" stroke-width="0.5" stroke-miterlimit="10"/>
</g>
<g id="Group 1114">
<path id="Path 1522" d="M81.9504 108.315L75.0234 104.546C74.7339 104.378 74.4956 104.135 74.3342 103.842C74.1727 103.549 74.0943 103.217 74.1074 102.883L81.0353 106.652C81.0223 106.986 81.1006 107.317 81.2618 107.61C81.423 107.903 81.6611 108.147 81.9504 108.315Z" fill="#141414"/>
<g id="Clip path group_7">
<mask id="mask6_1_42005" style="mask-type:luminance" maskUnits="userSpaceOnUse" x="74" y="102" width="8" height="7">
<g id="clip-path-9">
<path id="Path 1524" d="M81.9504 108.315L75.0234 104.546C74.7339 104.378 74.4956 104.135 74.3342 103.842C74.1727 103.549 74.0943 103.217 74.1074 102.883L81.0353 106.652C81.0223 106.986 81.1006 107.317 81.2618 107.61C81.423 107.903 81.6611 108.147 81.9504 108.315Z" fill="white"/>
</g>
</mask>
<g mask="url(#mask6_1_42005)">
<g id="Group 1113">
<g id="Group 1112">
<path id="Path 1523" d="M81.9504 108.315L75.0234 104.546C74.7339 104.378 74.4956 104.135 74.3342 103.842C74.1727 103.549 74.0943 103.217 74.1074 102.883L81.0353 106.652C81.0223 106.986 81.1006 107.317 81.2618 107.61C81.423 107.903 81.6611 108.147 81.9504 108.315Z" fill="#141414" stroke="#FFCE00" stroke-width="0.5" stroke-miterlimit="10"/>
</g>
</g>
</g>
</g>
<path id="Path 1525" d="M81.9504 108.315L75.0234 104.546C74.7339 104.378 74.4956 104.135 74.3342 103.842C74.1727 103.549 74.0943 103.217 74.1074 102.883L81.0353 106.652C81.0223 106.986 81.1006 107.317 81.2618 107.61C81.423 107.903 81.6611 108.147 81.9504 108.315Z" stroke="#FFCE00" stroke-width="0.5" stroke-miterlimit="10"/>
</g>
<g id="Group 1115">
<path id="Path 1526" d="M81.035 106.652L74.103 102.879L74.126 90.7241L81.0541 94.4932L81.035 106.652Z" fill="#141414" stroke="#FFCE00" stroke-width="0.5" stroke-miterlimit="10"/>
</g>
<g id="Group 1118">
<path id="Path 1527" d="M73.8373 95.019L66.9094 91.251C66.4748 90.9984 66.1173 90.6324 65.8752 90.1919C65.6331 89.7514 65.5156 89.2532 65.5353 88.751L72.4623 92.52C72.4429 93.0222 72.5607 93.5202 72.8029 93.9604C73.0452 94.4007 73.4028 94.7667 73.8373 95.019Z" fill="#141414"/>
<g id="Clip path group_8">
<mask id="mask7_1_42005" style="mask-type:luminance" maskUnits="userSpaceOnUse" x="65" y="88" width="9" height="8">
<g id="clip-path-10">
<path id="Path 1529" d="M73.8373 95.019L66.9094 91.251C66.4748 90.9984 66.1173 90.6324 65.8752 90.1919C65.6331 89.7514 65.5156 89.2532 65.5353 88.751L72.4623 92.52C72.4429 93.0222 72.5607 93.5202 72.8029 93.9604C73.0452 94.4007 73.4028 94.7667 73.8373 95.019Z" fill="white"/>
</g>
</mask>
<g mask="url(#mask7_1_42005)">
<g id="Group 1117">
<g id="Group 1116">
<path id="Path 1528" d="M73.8373 95.019L66.9094 91.251C66.4748 90.9984 66.1173 90.6324 65.8752 90.1919C65.6331 89.7514 65.5156 89.2532 65.5353 88.751L72.4623 92.52C72.4427 93.0223 72.5603 93.5205 72.8026 93.9609C73.0449 94.4014 73.4026 94.7666 73.8373 95.019Z" fill="#141414" stroke="#FFCE00" stroke-width="0.5" stroke-miterlimit="10"/>
</g>
</g>
</g>
</g>
<path id="Path 1530" d="M73.8373 95.019L66.9094 91.251C66.4748 90.9984 66.1173 90.6324 65.8752 90.1919C65.6331 89.7514 65.5156 89.2532 65.5353 88.751L72.4623 92.52C72.4429 93.0222 72.5607 93.5202 72.8029 93.9604C73.0452 94.4007 73.4028 94.7667 73.8373 95.019Z" stroke="#FFCE00" stroke-width="0.5" stroke-miterlimit="10"/>
</g>
<g id="Group 1121">
<path id="Path 1531" d="M85.0441 20.695L91.9711 24.463C91.4911 24.2055 90.9406 24.1104 90.4021 24.192L83.4741 20.423C84.0131 20.3412 84.5641 20.4366 85.0441 20.695Z" fill="#141414"/>
<g id="Clip path group_9">
<mask id="mask8_1_42005" style="mask-type:luminance" maskUnits="userSpaceOnUse" x="83" y="20" width="9" height="5">
<g id="clip-path-11">
<path id="Path 1535" d="M85.0441 20.695L91.9711 24.463C91.4911 24.2055 90.9406 24.1104 90.4021 24.192L83.4741 20.423C84.0131 20.3412 84.5641 20.4366 85.0441 20.695Z" fill="white"/>
</g>
</mask>
<g mask="url(#mask8_1_42005)">
<g id="Group 1120">
<g id="Group 1119">
<path id="Path 1532" d="M90.4031 24.1921L83.4751 20.4232C83.8126 20.374 84.1565 20.3917 84.4871 20.4752L91.4151 24.2441C91.0845 24.1602 90.7406 24.1425 90.4031 24.1921Z" fill="#141414" stroke="#FFCE00" stroke-width="0.5" stroke-miterlimit="10"/>
<path id="Path 1533" d="M91.4144 24.244L84.4863 20.4751C84.6475 20.5165 84.8041 20.5745 84.9534 20.6481L91.8813 24.416C91.7318 24.3432 91.5754 24.2856 91.4144 24.244Z" fill="#141414" stroke="#FFCE00" stroke-width="0.5" stroke-miterlimit="10"/>
<path id="Path 1534" d="M91.8811 24.4161L84.9531 20.6482C84.9841 20.6632 85.0141 20.6782 85.0441 20.6952L91.9711 24.4631C91.9421 24.4471 91.9121 24.4311 91.8811 24.4161Z" fill="#141414" stroke="#FFCE00" stroke-width="0.5" stroke-miterlimit="10"/>
</g>
</g>
</g>
</g>
<path id="Path 1536" d="M85.0441 20.695L91.9711 24.463C91.4911 24.2055 90.9406 24.1104 90.4021 24.192L83.4741 20.423C84.0131 20.3412 84.5641 20.4366 85.0441 20.695Z" stroke="#FFCE00" stroke-width="0.5" stroke-miterlimit="10"/>
</g>
<g id="Group 1122">
<path id="Path 1537" d="M85.1194 24.934L78.1914 21.1649L83.4744 20.4219L90.4024 24.1909L85.1194 24.934Z" fill="#141414" stroke="#FFCE00" stroke-width="0.5" stroke-miterlimit="10"/>
</g>
<g id="Group 1123">
<path id="Path 1538" d="M75.5354 26.2788L68.6074 22.5098L74.2584 21.7158L81.1864 25.4849L75.5354 26.2788Z" fill="#141414" stroke="#FFCE00" stroke-width="0.5" stroke-miterlimit="10"/>
</g>
<g id="Group 1124">
<path id="Path 1539" d="M72.4622 92.5188L65.5342 88.7498L65.6501 26.1108L72.5782 29.8798L72.4622 92.5188Z" fill="#141414" stroke="#FFCE00" stroke-width="0.5" stroke-miterlimit="10"/>
</g>
<g id="Group 1125">
<path id="Path 1540" d="M81.1853 25.4869L74.2573 21.7179L74.2803 9.56299L81.2083 13.3319L81.1853 25.4869Z" fill="#141414" stroke="#FFCE00" stroke-width="0.5" stroke-miterlimit="10"/>
</g>
<g id="Group 1128">
<path id="Path 1541" d="M72.5793 29.8788L65.6514 26.1099C65.6523 25.2607 65.9473 24.4379 66.4861 23.7816C67.025 23.1253 67.7746 22.6759 68.6074 22.5098L75.5353 26.2788C74.7025 26.4448 73.9529 26.8941 73.4139 27.5504C72.875 28.2067 72.5801 29.0295 72.5793 29.8788Z" fill="#141414"/>
<g id="Clip path group_10">
<mask id="mask9_1_42005" style="mask-type:luminance" maskUnits="userSpaceOnUse" x="65" y="22" width="11" height="8">
<g id="clip-path-12">
<path id="Path 1550" d="M72.5793 29.8788L65.6514 26.1099C65.6523 25.2607 65.9473 24.4379 66.4861 23.7816C67.025 23.1253 67.7746 22.6759 68.6074 22.5098L75.5353 26.2788C74.7025 26.4448 73.9529 26.8941 73.4139 27.5504C72.875 28.2067 72.5801 29.0295 72.5793 29.8788Z" fill="white"/>
</g>
</mask>
<g mask="url(#mask9_1_42005)">
<g id="Group 1127">
<g id="Group 1126">
<path id="Path 1542" d="M72.5793 29.8787L65.6514 26.1097C65.6534 25.6847 65.7299 25.2634 65.8774 24.8647L72.8054 28.6337C72.6574 29.0322 72.5809 29.4536 72.5793 29.8787Z" fill="#141414" stroke="#FFCE00" stroke-width="0.5" stroke-miterlimit="10"/>
<path id="Path 1543" d="M72.8035 28.6346L65.8755 24.8657C65.9383 24.6938 66.0135 24.5267 66.1005 24.3657L73.0275 28.1337C72.9412 28.2949 72.8663 28.4629 72.8035 28.6346Z" fill="#141414" stroke="#FFCE00" stroke-width="0.5" stroke-miterlimit="10"/>
<path id="Path 1544" d="M73.0295 28.1356L66.1025 24.3676C66.1749 24.2321 66.2554 24.1013 66.3436 23.9756L73.2715 27.7435C73.1835 27.8695 73.1027 28.0005 73.0295 28.1356Z" fill="#141414" stroke="#FFCE00" stroke-width="0.5" stroke-miterlimit="10"/>
<path id="Path 1545" d="M73.2712 27.7437L66.3433 23.9757C66.4261 23.8574 66.5155 23.7439 66.6112 23.6357L73.5392 27.4047C73.4433 27.5123 73.3539 27.6255 73.2712 27.7437Z" fill="#141414" stroke="#FFCE00" stroke-width="0.5" stroke-miterlimit="10"/>
<path id="Path 1546" d="M73.5394 27.4045L66.6113 23.6356C66.7055 23.528 66.8057 23.4259 66.9114 23.3296L73.8394 27.0985C73.7332 27.1943 73.633 27.2965 73.5394 27.4045Z" fill="#141414" stroke="#FFCE00" stroke-width="0.5" stroke-miterlimit="10"/>
<path id="Path 1547" d="M73.8425 27.0986L66.9146 23.3297C67.0281 23.2276 67.148 23.1326 67.2736 23.0457L74.2006 26.8147C74.0751 26.9014 73.9555 26.9962 73.8425 27.0986Z" fill="#141414" stroke="#FFCE00" stroke-width="0.5" stroke-miterlimit="10"/>
<path id="Path 1548" d="M74.2034 26.8146L67.2764 23.0455C67.4282 22.9405 67.5884 22.8482 67.7554 22.7695L74.6833 26.5376C74.5158 26.6162 74.3553 26.7089 74.2034 26.8146Z" fill="#141414" stroke="#FFCE00" stroke-width="0.5" stroke-miterlimit="10"/>
<path id="Path 1549" d="M74.6804 26.5377L67.7524 22.7697C68.023 22.6416 68.3112 22.5547 68.6074 22.5117L75.5354 26.2806C75.2392 26.3232 74.951 26.4099 74.6804 26.5377Z" fill="#141414" stroke="#FFCE00" stroke-width="0.5" stroke-miterlimit="10"/>
</g>
</g>
</g>
</g>
<path id="Path 1551" d="M72.5793 29.8788L65.6514 26.1099C65.6523 25.2607 65.9473 24.4379 66.4861 23.7816C67.025 23.1253 67.7746 22.6759 68.6074 22.5098L75.5353 26.2788C74.7025 26.4448 73.9529 26.8941 73.4139 27.5504C72.875 28.2067 72.5801 29.0295 72.5793 29.8788Z" stroke="#FFCE00" stroke-width="0.5" stroke-miterlimit="10"/>
</g>
<g id="Group 1129">
<path id="Path 1552" d="M90.4031 24.1918C90.7866 24.1412 91.1765 24.1765 91.5447 24.2952C91.9129 24.4139 92.2501 24.6129 92.5319 24.878C92.8137 25.143 93.033 25.4674 93.174 25.8277C93.315 26.1879 93.3741 26.5749 93.347 26.9608L93.2311 89.5999C93.23 90.449 92.9349 91.2715 92.3961 91.9278C91.8572 92.584 91.1077 93.0334 90.275 93.1997L84.991 93.9419L84.9691 106.097C84.9687 106.663 84.7722 107.211 84.413 107.649C84.0539 108.087 83.5542 108.386 82.999 108.497C82.7434 108.531 82.4836 108.508 82.2381 108.429C81.9926 108.35 81.7678 108.217 81.5799 108.041C81.392 107.864 81.2457 107.648 81.1516 107.408C81.0575 107.168 81.0181 106.91 81.0361 106.653L81.058 94.4978L75.4081 95.2918C75.0242 95.3424 74.6339 95.3071 74.2654 95.1883C73.897 95.0694 73.5596 94.8701 73.2776 94.6048C72.9957 94.3394 72.7764 94.0147 72.6355 93.6541C72.4946 93.2935 72.4357 92.906 72.4631 92.5198L72.5801 29.8809C72.5808 29.0316 72.8757 28.2089 73.4146 27.5525C73.9535 26.8962 74.7032 26.4468 75.5361 26.2808L81.186 25.4868L81.209 13.3318C81.2095 12.7655 81.4063 12.2168 81.7659 11.7792C82.1254 11.3416 82.6255 11.0421 83.181 10.9318C83.4294 10.8931 83.6833 10.9116 83.9235 10.9857C84.1636 11.0599 84.3838 11.1879 84.5671 11.3599C84.755 11.5444 84.903 11.7654 85.0019 12.0095C85.1009 12.2537 85.1485 12.5155 85.142 12.7788L85.1201 24.9339L90.4031 24.1918Z" fill="#141414" stroke="#FFCE00" stroke-width="0.5" stroke-miterlimit="10"/>
</g>
<g id="Group 1132">
<path id="Path 1553" d="M77.2973 7.34389L84.2253 11.1129C83.9057 10.9411 83.539 10.8775 83.1803 10.9319C82.6248 11.0422 82.1247 11.3417 81.7651 11.7793C81.4056 12.2169 81.2088 12.7656 81.2083 13.3319L74.2803 9.56301C74.2809 8.99669 74.4778 8.44807 74.8373 8.01052C75.1969 7.57296 75.6969 7.27347 76.2523 7.16298C76.6111 7.10861 76.9777 7.17203 77.2973 7.34389Z" fill="#141414"/>
<g id="Clip path group_11">
<mask id="mask10_1_42005" style="mask-type:luminance" maskUnits="userSpaceOnUse" x="74" y="7" width="11" height="7">
<g id="clip-path-13">
<path id="Path 1564" d="M77.2973 7.34389L84.2253 11.1129C83.9057 10.9411 83.539 10.8775 83.1803 10.9319C82.6248 11.0422 82.1247 11.3417 81.7651 11.7793C81.4056 12.2169 81.2088 12.7656 81.2083 13.3319L74.2803 9.56301C74.2809 8.99669 74.4778 8.44807 74.8373 8.01052C75.1969 7.57296 75.6969 7.27347 76.2523 7.16298C76.6111 7.10861 76.9777 7.17203 77.2973 7.34389Z" fill="white"/>
</g>
</mask>
<g mask="url(#mask10_1_42005)">
<g id="Group 1131">
<g id="Group 1130">
<path id="Path 1554" d="M81.2083 13.3319L74.2803 9.56299C74.2818 9.27963 74.3329 8.99864 74.4313 8.73291L81.3593 12.501C81.2605 12.7669 81.2093 13.0482 81.2083 13.3319Z" fill="#141414" stroke="#FFCE00" stroke-width="0.5" stroke-miterlimit="10"/>
<path id="Path 1555" d="M81.3592 12.501L74.4312 8.73291C74.473 8.6184 74.5231 8.5071 74.5812 8.3999L81.5082 12.1689C81.451 12.2761 81.4012 12.387 81.3592 12.501Z" fill="#141414" stroke="#FFCE00" stroke-width="0.5" stroke-miterlimit="10"/>
<path id="Path 1556" d="M81.5081 12.1689L74.5811 8.3999C74.6293 8.30969 74.6831 8.22254 74.7421 8.13892L81.67 11.908C81.6109 11.9917 81.5568 12.0788 81.5081 12.1689Z" fill="#141414" stroke="#FFCE00" stroke-width="0.5" stroke-miterlimit="10"/>
<path id="Path 1557" d="M81.6702 11.9081L74.7422 8.13904C74.7973 8.06049 74.8567 7.98509 74.9202 7.91309L81.8481 11.681C81.7844 11.7531 81.725 11.829 81.6702 11.9081Z" fill="#141414" stroke="#FFCE00" stroke-width="0.5" stroke-miterlimit="10"/>
<path id="Path 1558" d="M81.8484 11.679L74.9204 7.91089C74.9831 7.84039 75.0499 7.77365 75.1204 7.71094L82.0484 11.4789C81.9781 11.5419 81.9114 11.6087 81.8484 11.679Z" fill="#141414" stroke="#FFCE00" stroke-width="0.5" stroke-miterlimit="10"/>
<path id="Path 1559" d="M82.05 11.479L75.1221 7.71106C75.1976 7.64269 75.2774 7.57917 75.361 7.521L82.2891 11.29C82.2057 11.3482 82.1259 11.4113 82.05 11.479Z" fill="#141414" stroke="#FFCE00" stroke-width="0.5" stroke-miterlimit="10"/>
<path id="Path 1560" d="M82.2894 11.288L75.3613 7.51892C75.4628 7.44902 75.5699 7.38753 75.6813 7.33496L82.6094 11.1039C82.4979 11.1564 82.3908 11.218 82.2894 11.288Z" fill="#141414" stroke="#FFCE00" stroke-width="0.5" stroke-miterlimit="10"/>
<path id="Path 1561" d="M82.6092 11.1038L75.6812 7.33492C75.8618 7.24938 76.0543 7.1914 76.2522 7.16293C76.478 7.13019 76.7081 7.14243 76.9292 7.19894L83.8562 10.9669C83.6354 10.9108 83.4056 10.8989 83.1802 10.9318C82.9823 10.9603 82.7899 11.0183 82.6092 11.1038Z" fill="#141414" stroke="#FFCE00" stroke-width="0.5" stroke-miterlimit="10"/>
<path id="Path 1562" d="M83.8562 10.9669L76.9292 7.19897C77.036 7.22629 77.1395 7.26482 77.2382 7.31396L84.1662 11.0819C84.067 11.0332 83.9631 10.9947 83.8562 10.9669Z" fill="#141414" stroke="#FFCE00" stroke-width="0.5" stroke-miterlimit="10"/>
<path id="Path 1563" d="M84.1663 11.0791L77.2383 7.31104C77.2583 7.32004 77.2783 7.33106 77.2973 7.34106L84.2253 11.1101C84.2063 11.0991 84.1863 11.0891 84.1663 11.0791Z" fill="#141414" stroke="#FFCE00" stroke-width="0.5" stroke-miterlimit="10"/>
</g>
</g>
</g>
</g>
<path id="Path 1565" d="M77.2973 7.34389L84.2253 11.1129C83.9057 10.9411 83.539 10.8775 83.1803 10.9319C82.6248 11.0422 82.1247 11.3417 81.7651 11.7793C81.4056 12.2169 81.2088 12.7656 81.2083 13.3319L74.2803 9.56301C74.2809 8.99669 74.4778 8.44807 74.8373 8.01052C75.1969 7.57296 75.6969 7.27347 76.2523 7.16298C76.6111 7.10861 76.9777 7.17203 77.2973 7.34389Z" stroke="#FFCE00" stroke-width="0.5" stroke-miterlimit="10"/>
</g>
<g id="Group 1133">
<path id="Path 1566" d="M49.5833 118.709L42.6553 114.94L42.6783 102.785L49.6063 106.554L49.5833 118.709Z" fill="#141414" stroke="#FFCE00" stroke-width="0.5" stroke-miterlimit="10"/>
</g>
<g id="Group 1136">
<path id="Path 1567" d="M42.3871 107.079L35.4601 103.311C35.0254 103.059 34.6678 102.692 34.4255 102.252C34.1833 101.811 34.0656 101.313 34.0851 100.811L41.0121 104.58C40.9927 105.082 41.1104 105.58 41.3527 106.021C41.5949 106.461 41.9525 106.827 42.3871 107.079Z" fill="#141414"/>
<g id="Clip path group_12">
<mask id="mask11_1_42005" style="mask-type:luminance" maskUnits="userSpaceOnUse" x="34" y="100" width="9" height="8">
<g id="clip-path-14">
<path id="Path 1569" d="M42.3871 107.079L35.4601 103.311C35.0254 103.059 34.6678 102.692 34.4255 102.252C34.1833 101.811 34.0656 101.313 34.0851 100.811L41.0121 104.58C40.9927 105.082 41.1104 105.58 41.3527 106.021C41.5949 106.461 41.9525 106.827 42.3871 107.079Z" fill="white"/>
</g>
</mask>
<g mask="url(#mask11_1_42005)">
<g id="Group 1135">
<g id="Group 1134">
<path id="Path 1568" d="M42.3871 107.079L35.4601 103.311C35.0254 103.059 34.6678 102.692 34.4255 102.252C34.1833 101.811 34.0656 101.313 34.0851 100.811L41.0121 104.58C40.9925 105.082 41.1102 105.581 41.3524 106.021C41.5947 106.461 41.9524 106.827 42.3871 107.079Z" fill="#141414" stroke="#FFCE00" stroke-width="0.5" stroke-miterlimit="10"/>
</g>
</g>
</g>
</g>
<path id="Path 1570" d="M42.3871 107.079L35.4601 103.311C35.0254 103.059 34.6678 102.692 34.4255 102.252C34.1833 101.811 34.0656 101.313 34.0851 100.811L41.0121 104.58C40.9927 105.082 41.1104 105.58 41.3527 106.021C41.5949 106.461 41.9525 106.827 42.3871 107.079Z" stroke="#FFCE00" stroke-width="0.5" stroke-miterlimit="10"/>
</g>
<g id="Group 1139">
<path id="Path 1571" d="M53.5944 32.7519L60.5224 36.5198C60.042 36.2624 59.4913 36.1673 58.9524 36.2488L52.0244 32.4799C52.5634 32.3981 53.1144 32.4935 53.5944 32.7519Z" fill="#141414"/>
<g id="Clip path group_13">
<mask id="mask12_1_42005" style="mask-type:luminance" maskUnits="userSpaceOnUse" x="52" y="32" width="9" height="5">
<g id="clip-path-15">
<path id="Path 1575" d="M53.5944 32.7519L60.5224 36.5198C60.042 36.2624 59.4913 36.1673 58.9524 36.2488L52.0244 32.4799C52.5634 32.3981 53.1144 32.4935 53.5944 32.7519Z" fill="white"/>
</g>
</mask>
<g mask="url(#mask12_1_42005)">
<g id="Group 1138">
<g id="Group 1137">
<path id="Path 1572" d="M58.9524 36.2488L52.0244 32.4799C52.3623 32.4304 52.7066 32.4484 53.0374 32.5329L59.9644 36.3008C59.6338 36.2173 59.2899 36.1996 58.9524 36.2488Z" fill="#141414" stroke="#FFCE00" stroke-width="0.5" stroke-miterlimit="10"/>
<path id="Path 1573" d="M59.9646 36.3007L53.0376 32.5327C53.1989 32.5735 53.3554 32.6312 53.5046 32.7047L60.4316 36.4736C60.2823 36.4 60.1258 36.3421 59.9646 36.3007Z" fill="#141414" stroke="#FFCE00" stroke-width="0.5" stroke-miterlimit="10"/>
<path id="Path 1574" d="M60.4314 36.4738L53.5044 32.7048L53.5944 32.7518L60.5224 36.5198L60.4314 36.4738Z" fill="#141414" stroke="#FFCE00" stroke-width="0.5" stroke-miterlimit="10"/>
</g>
</g>
</g>
</g>
<path id="Path 1576" d="M53.5944 32.7519L60.5224 36.5198C60.042 36.2624 59.4913 36.1673 58.9524 36.2488L52.0244 32.4799C52.5634 32.3981 53.1144 32.4935 53.5944 32.7519Z" stroke="#FFCE00" stroke-width="0.5" stroke-miterlimit="10"/>
</g>
<g id="Group 1140">
<path id="Path 1577" d="M53.6693 36.9911L46.7412 33.222L52.0242 32.479L58.9522 36.248L53.6693 36.9911Z" fill="#141414" stroke="#FFCE00" stroke-width="0.5" stroke-miterlimit="10"/>
</g>
<g id="Group 1141">
<path id="Path 1578" d="M44.0852 38.3378L37.1572 34.5688L42.8032 33.7788L49.7313 37.5479L44.0852 38.3378Z" fill="#141414" stroke="#FFCE00" stroke-width="0.5" stroke-miterlimit="10"/>
</g>
<g id="Group 1142">
<path id="Path 1579" d="M41.012 104.579L34.084 100.81L34.2 38.1709L41.128 41.9399L41.012 104.579Z" fill="#141414" stroke="#FFCE00" stroke-width="0.5" stroke-miterlimit="10"/>
</g>
<g id="Group 1143">
<path id="Path 1580" d="M49.7343 37.545L42.8032 33.7791L42.8262 21.624L49.7542 25.3931L49.7343 37.545Z" fill="#141414" stroke="#FFCE00" stroke-width="0.5" stroke-miterlimit="10"/>
</g>
<g id="Group 1146">
<path id="Path 1581" d="M41.1292 41.9368L34.2012 38.1688C34.2021 37.3196 34.4971 36.497 35.0359 35.8407C35.5748 35.1844 36.3244 34.735 37.1572 34.5688L44.0851 38.3368C43.2523 38.5028 42.5027 38.9522 41.9637 39.6085C41.4248 40.2649 41.1299 41.0875 41.1292 41.9368Z" fill="#141414"/>
<g id="Clip path group_14">
<mask id="mask13_1_42005" style="mask-type:luminance" maskUnits="userSpaceOnUse" x="34" y="34" width="11" height="8">
<g id="clip-path-16">
<path id="Path 1590" d="M41.1292 41.9368L34.2012 38.1688C34.2021 37.3196 34.4971 36.497 35.0359 35.8407C35.5748 35.1844 36.3244 34.735 37.1572 34.5688L44.0851 38.3368C43.2523 38.5028 42.5027 38.9522 41.9637 39.6085C41.4248 40.2649 41.1299 41.0875 41.1292 41.9368Z" fill="white"/>
</g>
</mask>
<g mask="url(#mask13_1_42005)">
<g id="Group 1145">
<g id="Group 1144">
<path id="Path 1582" d="M41.1292 41.9368L34.2012 38.1688C34.2031 37.7438 34.2796 37.3224 34.4272 36.9238L41.3552 40.6918C41.2072 41.0903 41.1307 41.5117 41.1292 41.9368Z" fill="#141414" stroke="#FFCE00" stroke-width="0.5" stroke-miterlimit="10"/>
<path id="Path 1583" d="M41.3552 40.6918L34.4272 36.9238C34.4899 36.7519 34.5651 36.5848 34.6522 36.4238L41.5792 40.1927C41.4929 40.354 41.4181 40.5201 41.3552 40.6918Z" fill="#141414" stroke="#FFCE00" stroke-width="0.5" stroke-miterlimit="10"/>
<path id="Path 1584" d="M41.5793 40.1937L34.6523 36.4247C34.7251 36.2895 34.8056 36.1587 34.8934 36.0327L41.8214 39.8016C41.7329 39.9273 41.6521 40.0583 41.5793 40.1937Z" fill="#141414" stroke="#FFCE00" stroke-width="0.5" stroke-miterlimit="10"/>
<path id="Path 1585" d="M41.821 39.8018L34.8931 36.0328C34.9762 35.9151 35.0657 35.8019 35.1611 35.6938L42.0891 39.4618C41.9935 39.57 41.904 39.6835 41.821 39.8018Z" fill="#141414" stroke="#FFCE00" stroke-width="0.5" stroke-miterlimit="10"/>
<path id="Path 1586" d="M42.0891 39.4617L35.1611 35.6937C35.2553 35.5858 35.3554 35.4833 35.4611 35.3867L42.3891 39.1556C42.2832 39.2517 42.183 39.3539 42.0891 39.4617Z" fill="#141414" stroke="#FFCE00" stroke-width="0.5" stroke-miterlimit="10"/>
<path id="Path 1587" d="M42.3923 39.1558L35.4644 35.3868C35.5779 35.285 35.6978 35.1904 35.8234 35.1038L42.7504 38.8718C42.6252 38.9589 42.5056 39.0536 42.3923 39.1558Z" fill="#141414" stroke="#FFCE00" stroke-width="0.5" stroke-miterlimit="10"/>
<path id="Path 1588" d="M42.7502 38.8717L35.8232 35.1036C35.9748 34.998 36.135 34.9053 36.3022 34.8267L43.2302 38.5957C43.0629 38.6744 42.9024 38.7667 42.7502 38.8717Z" fill="#141414" stroke="#FFCE00" stroke-width="0.5" stroke-miterlimit="10"/>
<path id="Path 1589" d="M43.2302 38.5958L36.3022 34.8268C36.5729 34.699 36.861 34.6125 37.1572 34.5698L44.0852 38.3378C43.7888 38.3802 43.5006 38.4673 43.2302 38.5958Z" fill="#141414" stroke="#FFCE00" stroke-width="0.5" stroke-miterlimit="10"/>
</g>
</g>
</g>
</g>
<path id="Path 1591" d="M41.1292 41.9368L34.2012 38.1688C34.2021 37.3196 34.4971 36.497 35.0359 35.8407C35.5748 35.1844 36.3244 34.735 37.1572 34.5688L44.0851 38.3368C43.2523 38.5028 42.5027 38.9522 41.9637 39.6085C41.4248 40.2649 41.1299 41.0875 41.1292 41.9368Z" stroke="#FFCE00" stroke-width="0.5" stroke-miterlimit="10"/>
</g>
<g id="Group 1147">
<path id="Path 1592" d="M58.9524 36.249C59.336 36.1984 59.7261 36.2337 60.0944 36.3524C60.4626 36.4711 60.7999 36.6703 61.0817 36.9354C61.3635 37.2006 61.5828 37.5251 61.7237 37.8855C61.8647 38.2458 61.9236 38.633 61.8964 39.019L61.7804 101.658C61.7795 102.507 61.4845 103.33 60.9456 103.986C60.4067 104.642 59.6572 105.092 58.8244 105.258L53.5414 106.001L53.5184 118.155C53.5179 118.721 53.3212 119.27 52.9616 119.708C52.602 120.145 52.102 120.445 51.5464 120.555C51.2908 120.589 51.0308 120.566 50.7854 120.487C50.5399 120.408 50.3151 120.275 50.1272 120.098C49.9393 119.922 49.793 119.705 49.699 119.465C49.6049 119.225 49.5655 118.967 49.5834 118.71L49.6054 106.556L43.9574 107.35C43.5736 107.401 43.1833 107.365 42.8148 107.247C42.4463 107.128 42.1089 106.928 41.827 106.663C41.5451 106.398 41.3258 106.073 41.1849 105.712C41.044 105.352 40.985 104.964 41.0124 104.578L41.1294 41.9381C41.1301 41.0889 41.4251 40.2661 41.964 39.6097C42.5029 38.9534 43.2525 38.504 44.0854 38.338L49.7344 37.544L49.7564 25.39C49.7568 24.8238 49.9535 24.2752 50.3129 23.8376C50.6722 23.4001 51.1721 23.1006 51.7274 22.9901C51.9762 22.9507 52.2308 22.9686 52.4715 23.0428C52.7123 23.117 52.9329 23.2454 53.1164 23.4181C53.3044 23.6025 53.4525 23.8236 53.5514 24.0677C53.6503 24.3118 53.698 24.5737 53.6914 24.837L53.6694 36.9911L58.9524 36.249Z" fill="#141414" stroke="#FFCE00" stroke-width="0.5" stroke-miterlimit="10"/>
</g>
<g id="Group 1150">
<path id="Path 1593" d="M45.8471 19.402L52.7751 23.1699C52.4546 22.9976 52.0867 22.9345 51.7271 22.99C51.1718 23.1005 50.6719 23.4 50.3126 23.8375C49.9532 24.2751 49.7565 24.8237 49.7561 25.3899L42.8281 21.621C42.8288 21.0547 43.0256 20.506 43.3851 20.0685C43.7447 19.6309 44.2447 19.3314 44.8001 19.2209C45.1595 19.1663 45.5269 19.2299 45.8471 19.402Z" fill="#141414"/>
<g id="Clip path group_15">
<mask id="mask14_1_42005" style="mask-type:luminance" maskUnits="userSpaceOnUse" x="42" y="19" width="11" height="7">
<g id="clip-path-17">
<path id="Path 1604" d="M45.8471 19.402L52.7751 23.1699C52.4546 22.9976 52.0867 22.9345 51.7271 22.99C51.1718 23.1005 50.6719 23.4 50.3126 23.8375C49.9532 24.2751 49.7565 24.8237 49.7561 25.3899L42.8281 21.621C42.8288 21.0547 43.0256 20.506 43.3851 20.0685C43.7447 19.6309 44.2447 19.3314 44.8001 19.2209C45.1595 19.1663 45.5269 19.2299 45.8471 19.402Z" fill="white"/>
</g>
</mask>
<g mask="url(#mask14_1_42005)">
<g id="Group 1149">
<g id="Group 1148">
<path id="Path 1594" d="M49.7561 25.39L42.8281 21.6211C42.8302 21.3375 42.8812 21.0563 42.9791 20.79L49.9071 24.5591C49.8086 24.8251 49.7575 25.1063 49.7561 25.39Z" fill="#141414" stroke="#FFCE00" stroke-width="0.5" stroke-miterlimit="10"/>
<path id="Path 1595" d="M49.9031 24.5591L42.9751 20.79C43.0175 20.6761 43.0676 20.5651 43.1251 20.458L50.0531 24.2271C49.9948 24.3338 49.9447 24.4448 49.9031 24.5591Z" fill="#141414" stroke="#FFCE00" stroke-width="0.5" stroke-miterlimit="10"/>
<path id="Path 1596" d="M50.0569 24.2268L43.1289 20.4578C43.1775 20.3677 43.2313 20.2806 43.2899 20.1968L50.218 23.9648C50.1588 24.0487 50.105 24.1361 50.0569 24.2268Z" fill="#141414" stroke="#FFCE00" stroke-width="0.5" stroke-miterlimit="10"/>
<path id="Path 1597" d="M50.2181 23.965L43.29 20.1969C43.3455 20.118 43.4052 20.0423 43.4691 19.97L50.3961 23.7389C50.3326 23.8109 50.2732 23.8864 50.2181 23.965Z" fill="#141414" stroke="#FFCE00" stroke-width="0.5" stroke-miterlimit="10"/>
<path id="Path 1598" d="M50.3962 23.739L43.4692 19.9701C43.5319 19.8996 43.5987 19.8327 43.6693 19.77L50.5963 23.5391C50.5257 23.6018 50.459 23.6685 50.3962 23.739Z" fill="#141414" stroke="#FFCE00" stroke-width="0.5" stroke-miterlimit="10"/>
<path id="Path 1599" d="M50.5978 23.5349L43.6709 19.766C43.7465 19.698 43.8263 19.6348 43.9099 19.5769L50.8369 23.3459C50.753 23.4035 50.6732 23.4666 50.5978 23.5349Z" fill="#141414" stroke="#FFCE00" stroke-width="0.5" stroke-miterlimit="10"/>
<path id="Path 1600" d="M50.8372 23.3461L43.9102 19.577C44.0112 19.5069 44.1179 19.4454 44.2292 19.3931L51.1572 23.161C51.0454 23.2135 50.9384 23.2754 50.8372 23.3461Z" fill="#141414" stroke="#FFCE00" stroke-width="0.5" stroke-miterlimit="10"/>
<path id="Path 1601" d="M51.157 23.1609L44.229 19.3929C44.4097 19.3074 44.6021 19.2494 44.8 19.2209C45.0264 19.1878 45.2572 19.1998 45.479 19.256L52.406 23.0249C52.1842 22.9682 51.9534 22.9564 51.727 22.99C51.5294 23.0177 51.3372 23.0753 51.157 23.1609Z" fill="#141414" stroke="#FFCE00" stroke-width="0.5" stroke-miterlimit="10"/>
<path id="Path 1602" d="M52.4031 23.0248L45.4761 19.2559C45.5827 19.2836 45.6862 19.3221 45.785 19.3708L52.7131 23.1398C52.6138 23.0912 52.51 23.0527 52.4031 23.0248Z" fill="#141414" stroke="#FFCE00" stroke-width="0.5" stroke-miterlimit="10"/>
<path id="Path 1603" d="M52.7161 23.14L45.7881 19.3711C45.8081 19.3811 45.8281 19.3911 45.8471 19.4021L52.7751 23.17L52.7161 23.14Z" fill="#141414" stroke="#FFCE00" stroke-width="0.5" stroke-miterlimit="10"/>
</g>
</g>
</g>
</g>
<path id="Path 1605" d="M45.8471 19.402L52.7751 23.1699C52.4546 22.9976 52.0867 22.9345 51.7271 22.99C51.1718 23.1005 50.6719 23.4 50.3126 23.8375C49.9532 24.2751 49.7565 24.8237 49.7561 25.3899L42.8281 21.621C42.8288 21.0547 43.0256 20.506 43.3851 20.0685C43.7447 19.6309 44.2447 19.3314 44.8001 19.2209C45.1595 19.1663 45.5269 19.2299 45.8471 19.402Z" stroke="#FFCE00" stroke-width="0.5" stroke-miterlimit="10"/>
</g>
<g id="Group 1153">
<path id="Path 1606" d="M16.6882 101.779L9.76018 98.0107C9.47032 97.8424 9.2318 97.5984 9.07024 97.3047C8.90868 97.011 8.83018 96.6787 8.84319 96.3438L15.7712 100.113C15.7583 100.448 15.8369 100.779 15.9985 101.073C16.16 101.367 16.3984 101.611 16.6882 101.779Z" fill="#141414"/>
<g id="Clip path group_16">
<mask id="mask15_1_42005" style="mask-type:luminance" maskUnits="userSpaceOnUse" x="8" y="96" width="9" height="6">
<g id="clip-path-18">
<path id="Path 1608" d="M16.6882 101.779L9.76018 98.0107C9.47032 97.8424 9.2318 97.5984 9.07024 97.3047C8.90868 97.011 8.83018 96.6787 8.84319 96.3438L15.7712 100.113C15.7583 100.448 15.8369 100.779 15.9985 101.073C16.16 101.367 16.3984 101.611 16.6882 101.779Z" fill="white"/>
</g>
</mask>
<g mask="url(#mask15_1_42005)">
<g id="Group 1152">
<g id="Group 1151">
<path id="Path 1607" d="M16.6882 101.779L9.76018 98.0107C9.47032 97.8424 9.2318 97.5984 9.07024 97.3047C8.90868 97.011 8.83018 96.6787 8.84319 96.3438L15.7712 100.113C15.7583 100.448 15.8369 100.779 15.9985 101.073C16.16 101.367 16.3984 101.611 16.6882 101.779Z" fill="#141414" stroke="#FFCE00" stroke-width="0.5" stroke-miterlimit="10"/>
</g>
</g>
</g>
</g>
<path id="Path 1609" d="M16.6882 101.779L9.76018 98.0107C9.47032 97.8424 9.2318 97.5984 9.07024 97.3047C8.90868 97.011 8.83018 96.6787 8.84319 96.3438L15.7712 100.113C15.7583 100.448 15.8369 100.779 15.9985 101.073C16.16 101.367 16.3984 101.611 16.6882 101.779Z" stroke="#FFCE00" stroke-width="0.5" stroke-miterlimit="10"/>
</g>
<g id="Group 1154">
<path id="Path 1610" d="M15.7712 100.109L8.84326 96.3401L8.86621 84.1851L15.7943 87.9541L15.7712 100.109Z" fill="#141414" stroke="#FFCE00" stroke-width="0.5" stroke-miterlimit="10"/>
</g>
<g id="Group 1157">
<path id="Path 1611" d="M8.5732 88.479L1.64522 84.7109C1.2106 84.4585 0.853011 84.0923 0.610919 83.6519C0.368826 83.2114 0.251362 82.7132 0.271197 82.2109L7.19918 85.98C7.17919 86.4821 7.2966 86.9803 7.53871 87.4207C7.78083 87.861 8.13851 88.2269 8.5732 88.479Z" fill="#141414"/>
<g id="Clip path group_17">
<mask id="mask16_1_42005" style="mask-type:luminance" maskUnits="userSpaceOnUse" x="0" y="82" width="9" height="7">
<g id="clip-path-19">
<path id="Path 1613" d="M8.5732 88.479L1.64522 84.7109C1.2106 84.4585 0.853011 84.0923 0.610919 83.6519C0.368826 83.2114 0.251362 82.7132 0.271197 82.2109L7.19918 85.98C7.17919 86.4821 7.2966 86.9803 7.53871 87.4207C7.78083 87.861 8.13851 88.2269 8.5732 88.479Z" fill="white"/>
</g>
</mask>
<g mask="url(#mask16_1_42005)">
<g id="Group 1156">
<g id="Group 1155">
<path id="Path 1612" d="M8.5732 88.479L1.64522 84.7109C1.2106 84.4585 0.853011 84.0923 0.610919 83.6519C0.368826 83.2114 0.251362 82.7132 0.271197 82.2109L7.19918 85.98C7.17901 86.4823 7.29634 86.9806 7.53847 87.4211C7.78059 87.8617 8.13835 88.2268 8.5732 88.479Z" fill="#141414" stroke="#FFCE00" stroke-width="0.5" stroke-miterlimit="10"/>
</g>
</g>
</g>
</g>
<path id="Path 1614" d="M8.5732 88.479L1.64522 84.7109C1.2106 84.4585 0.853011 84.0923 0.610919 83.6519C0.368826 83.2114 0.251362 82.7132 0.271197 82.2109L7.19918 85.98C7.17919 86.4821 7.2966 86.9803 7.53871 87.4207C7.78083 87.861 8.13851 88.2269 8.5732 88.479Z" stroke="#FFCE00" stroke-width="0.5" stroke-miterlimit="10"/>
</g>
<g id="Group 1160">
<path id="Path 1615" d="M19.7819 14.1521L26.7099 17.9201C26.2289 17.6625 25.6775 17.5674 25.1379 17.6491L18.2109 13.8801C18.7502 13.7982 19.3015 13.8938 19.7819 14.1521Z" fill="#141414"/>
<g id="Clip path group_18">
<mask id="mask17_1_42005" style="mask-type:luminance" maskUnits="userSpaceOnUse" x="18" y="13" width="9" height="5">
<g id="clip-path-20">
<path id="Path 1619" d="M19.7819 14.1521L26.7099 17.9201C26.2289 17.6625 25.6775 17.5674 25.1379 17.6491L18.2109 13.8801C18.7502 13.7982 19.3015 13.8938 19.7819 14.1521Z" fill="white"/>
</g>
</mask>
<g mask="url(#mask17_1_42005)">
<g id="Group 1159">
<g id="Group 1158">
<path id="Path 1616" d="M25.1379 17.6492L18.2109 13.8802C18.5491 13.831 18.8936 13.8487 19.2249 13.9322L26.1519 17.7012C25.8206 17.6176 25.4761 17.5999 25.1379 17.6492Z" fill="#141414" stroke="#FFCE00" stroke-width="0.5" stroke-miterlimit="10"/>
<path id="Path 1617" d="M26.1521 17.7012L19.2251 13.9321C19.3863 13.9736 19.5428 14.0316 19.6921 14.1052L26.6201 17.8741C26.4705 17.8006 26.3136 17.7426 26.1521 17.7012Z" fill="#141414" stroke="#FFCE00" stroke-width="0.5" stroke-miterlimit="10"/>
<path id="Path 1618" d="M26.6199 17.8741L19.6919 14.1052C19.7229 14.1202 19.7529 14.1362 19.7819 14.1522L26.7098 17.9202L26.6199 17.8741Z" fill="#141414" stroke="#FFCE00" stroke-width="0.5" stroke-miterlimit="10"/>
</g>
</g>
</g>
</g>
<path id="Path 1620" d="M19.7819 14.1521L26.7099 17.9201C26.2289 17.6625 25.6775 17.5674 25.1379 17.6491L18.2109 13.8801C18.7502 13.7982 19.3015 13.8938 19.7819 14.1521Z" stroke="#FFCE00" stroke-width="0.5" stroke-miterlimit="10"/>
</g>
<g id="Group 1161">
<path id="Path 1621" d="M19.8572 18.391L12.9292 14.6219L18.2101 13.8799L25.1382 17.6489L19.8572 18.391Z" fill="#141414" stroke="#FFCE00" stroke-width="0.5" stroke-miterlimit="10"/>
</g>
<g id="Group 1162">
<path id="Path 1622" d="M10.2742 19.7378L3.34619 15.9688L8.9942 15.1748L15.9222 18.9438L10.2742 19.7378Z" fill="#141414" stroke="#FFCE00" stroke-width="0.5" stroke-miterlimit="10"/>
</g>
<g id="Group 1163">
<path id="Path 1623" d="M7.20343 85.9788L0.275391 82.2097L0.391418 19.5708L7.3194 23.3398L7.20343 85.9788Z" fill="#141414" stroke="#FFCE00" stroke-width="0.5" stroke-miterlimit="10"/>
</g>
<g id="Group 1164">
<path id="Path 1624" d="M15.9221 18.9441L8.99414 15.175L9.01709 3.02002L15.9451 6.78906L15.9221 18.9441Z" fill="#141414" stroke="#FFCE00" stroke-width="0.5" stroke-miterlimit="10"/>
</g>
<g id="Group 1167">
<path id="Path 1625" d="M7.31525 23.34L0.387207 19.5709C0.388644 18.7214 0.684212 17.8986 1.22363 17.2423C1.76305 16.586 2.51309 16.1368 3.34625 15.9709L10.2742 19.74C9.4409 19.9055 8.69067 20.3546 8.15118 21.011C7.6117 21.6673 7.3163 22.4904 7.31525 23.34Z" fill="#141414"/>
<g id="Clip path group_19">
<mask id="mask18_1_42005" style="mask-type:luminance" maskUnits="userSpaceOnUse" x="0" y="15" width="11" height="9">
<g id="clip-path-21">
<path id="Path 1634" d="M7.31525 23.34L0.387207 19.5709C0.388644 18.7214 0.684212 17.8986 1.22363 17.2423C1.76305 16.586 2.51309 16.1368 3.34625 15.9709L10.2742 19.74C9.4409 19.9055 8.69067 20.3546 8.15118 21.011C7.6117 21.6673 7.3163 22.4904 7.31525 23.34Z" fill="white"/>
</g>
</mask>
<g mask="url(#mask18_1_42005)">
<g id="Group 1166">
<g id="Group 1165">
<path id="Path 1626" d="M7.31525 23.3397L0.387207 19.5707C0.389509 19.1449 0.466386 18.723 0.614258 18.3237L7.54224 22.0917C7.39397 22.4911 7.31714 22.9136 7.31525 23.3397Z" fill="#141414" stroke="#FFCE00" stroke-width="0.5" stroke-miterlimit="10"/>
<path id="Path 1627" d="M7.54224 22.0917L0.614258 18.3237C0.676978 18.152 0.751832 17.9849 0.838257 17.8237L7.76624 21.5927C7.67994 21.7539 7.60509 21.92 7.54224 22.0917Z" fill="#141414" stroke="#FFCE00" stroke-width="0.5" stroke-miterlimit="10"/>
<path id="Path 1628" d="M7.76636 21.5938L0.838379 17.8248C0.911524 17.6897 0.992326 17.5588 1.08038 17.4329L8.00836 21.2018C7.91988 21.3275 7.83906 21.4583 7.76636 21.5938Z" fill="#141414" stroke="#FFCE00" stroke-width="0.5" stroke-miterlimit="10"/>
<path id="Path 1629" d="M8.00806 21.2018L1.08008 17.4329C1.16297 17.3149 1.25239 17.2016 1.34802 17.0938L8.27502 20.8618C8.17973 20.9701 8.09062 21.0835 8.00806 21.2018Z" fill="#141414" stroke="#FFCE00" stroke-width="0.5" stroke-miterlimit="10"/>
<path id="Path 1630" d="M8.27515 20.8618L1.34814 17.0938C1.44183 16.9857 1.54206 16.8836 1.64819 16.7878L8.5752 20.5558C8.46978 20.6523 8.36958 20.7545 8.27515 20.8618Z" fill="#141414" stroke="#FFCE00" stroke-width="0.5" stroke-miterlimit="10"/>
<path id="Path 1631" d="M8.57837 20.5559L1.65137 16.788C1.76432 16.6855 1.88388 16.5906 2.00934 16.5039L8.93738 20.272C8.81205 20.3593 8.69216 20.454 8.57837 20.5559Z" fill="#141414" stroke="#FFCE00" stroke-width="0.5" stroke-miterlimit="10"/>
<path id="Path 1632" d="M8.93732 20.2719L2.00928 16.5038C2.16119 16.3981 2.3218 16.3055 2.48932 16.2268L9.4173 19.9958C9.24997 20.0745 9.08944 20.1668 8.93732 20.2719Z" fill="#141414" stroke="#FFCE00" stroke-width="0.5" stroke-miterlimit="10"/>
<path id="Path 1633" d="M9.41724 19.9958L2.48926 16.2268C2.7605 16.0987 3.04934 16.0116 3.34625 15.9688L10.2742 19.7378C9.9772 19.7801 9.68828 19.8672 9.41724 19.9958Z" fill="#141414" stroke="#FFCE00" stroke-width="0.5" stroke-miterlimit="10"/>
</g>
</g>
</g>
</g>
<path id="Path 1635" d="M7.31525 23.34L0.387207 19.5709C0.388644 18.7214 0.684212 17.8986 1.22363 17.2423C1.76305 16.586 2.51309 16.1368 3.34625 15.9709L10.2742 19.74C9.4409 19.9055 8.69067 20.3546 8.15118 21.011C7.6117 21.6673 7.3163 22.4904 7.31525 23.34Z" stroke="#FFCE00" stroke-width="0.5" stroke-miterlimit="10"/>
</g>
<g id="Group 1170">
<path id="Path 1636" d="M12.0341 0.803999L18.9621 4.57194C18.6419 4.40097 18.2752 4.3376 17.9161 4.39104C17.3609 4.50188 16.861 4.80146 16.5016 5.23894C16.1421 5.67641 15.9451 6.22472 15.9441 6.79094L9.01709 3.02299C9.01753 2.45677 9.21419 1.9082 9.57355 1.47062C9.93291 1.03305 10.4328 0.733485 10.9881 0.622969C11.3472 0.568519 11.7142 0.632062 12.0341 0.803999Z" fill="#141414"/>
<g id="Clip path group_20">
<mask id="mask19_1_42005" style="mask-type:luminance" maskUnits="userSpaceOnUse" x="9" y="0" width="10" height="7">
<g id="clip-path-22">
<path id="Path 1647" d="M12.0341 0.803999L18.9621 4.57194C18.6419 4.40097 18.2752 4.3376 17.9161 4.39104C17.3609 4.50188 16.861 4.80146 16.5016 5.23894C16.1421 5.67641 15.9451 6.22472 15.9441 6.79094L9.01709 3.02299C9.01753 2.45677 9.21419 1.9082 9.57355 1.47062C9.93291 1.03305 10.4328 0.733485 10.9881 0.622969C11.3472 0.568519 11.7142 0.632062 12.0341 0.803999Z" fill="white"/>
</g>
</mask>
<g mask="url(#mask19_1_42005)">
<g id="Group 1169">
<g id="Group 1168">
<path id="Path 1637" d="M15.9441 6.78894L9.01709 3.02087C9.01823 2.73822 9.06902 2.45796 9.16711 2.19287L16.0951 5.96094C15.9972 6.22612 15.9461 6.50628 15.9441 6.78894Z" fill="#141414" stroke="#FFCE00" stroke-width="0.5" stroke-miterlimit="10"/>
<path id="Path 1638" d="M16.095 5.96082L9.16699 2.19275C9.20874 2.07821 9.2589 1.96703 9.31702 1.85986L16.244 5.62878C16.1869 5.73593 16.137 5.84689 16.095 5.96082Z" fill="#141414" stroke="#FFCE00" stroke-width="0.5" stroke-miterlimit="10"/>
<path id="Path 1639" d="M16.2444 5.62891L9.31738 1.85999C9.36569 1.76979 9.4194 1.68252 9.47833 1.59888L16.4064 5.36792C16.3472 5.45162 16.2931 5.53876 16.2444 5.62891Z" fill="#141414" stroke="#FFCE00" stroke-width="0.5" stroke-miterlimit="10"/>
<path id="Path 1640" d="M16.4031 5.36804L9.4751 1.599C9.53025 1.52046 9.58971 1.44506 9.65314 1.37305L16.5811 5.14111C16.5176 5.21343 16.4582 5.28914 16.4031 5.36804Z" fill="#141414" stroke="#FFCE00" stroke-width="0.5" stroke-miterlimit="10"/>
<path id="Path 1641" d="M16.5842 5.14087L9.65625 1.3728C9.71897 1.3023 9.78576 1.23557 9.85626 1.17285L16.7833 4.9408C16.713 5.00378 16.6472 5.07062 16.5842 5.14087Z" fill="#141414" stroke="#FFCE00" stroke-width="0.5" stroke-miterlimit="10"/>
<path id="Path 1642" d="M16.7864 4.93701L9.85938 1.16907C9.93476 1.10053 10.0146 1.03699 10.0983 0.979004L17.0253 4.74805C16.9417 4.80591 16.8619 4.869 16.7864 4.93701Z" fill="#141414" stroke="#FFCE00" stroke-width="0.5" stroke-miterlimit="10"/>
<path id="Path 1643" d="M17.0251 4.74792L10.0981 0.978882C10.1997 0.908982 10.3067 0.847486 10.4182 0.794922L17.3452 4.56299C17.2334 4.61548 17.1264 4.6773 17.0251 4.74792Z" fill="#141414" stroke="#FFCE00" stroke-width="0.5" stroke-miterlimit="10"/>
<path id="Path 1644" d="M17.345 4.56296L10.418 0.794896C10.5983 0.709445 10.7905 0.651472 10.988 0.622899C11.2138 0.590328 11.4437 0.602251 11.665 0.657933L18.593 4.42685C18.3719 4.37035 18.1418 4.35822 17.916 4.39097C17.7182 4.41944 17.5256 4.47742 17.345 4.56296Z" fill="#141414" stroke="#FFCE00" stroke-width="0.5" stroke-miterlimit="10"/>
<path id="Path 1645" d="M18.5931 4.42688L11.665 0.657959C11.772 0.685751 11.8758 0.724271 11.975 0.772949L18.902 4.54187C18.8032 4.49325 18.6997 4.45474 18.5931 4.42688Z" fill="#141414" stroke="#FFCE00" stroke-width="0.5" stroke-miterlimit="10"/>
<path id="Path 1646" d="M18.9031 4.54187L11.9761 0.772949L12.035 0.803955L18.9631 4.5719L18.9031 4.54187Z" fill="#141414" stroke="#FFCE00" stroke-width="0.5" stroke-miterlimit="10"/>
</g>
</g>
</g>
</g>
<path id="Path 1648" d="M12.0341 0.803999L18.9621 4.57194C18.6419 4.40097 18.2752 4.3376 17.9161 4.39104C17.3609 4.50188 16.861 4.80146 16.5016 5.23894C16.1421 5.67641 15.9451 6.22472 15.9441 6.79094L9.01709 3.02299C9.01753 2.45677 9.21419 1.9082 9.57355 1.47062C9.93291 1.03305 10.4328 0.733485 10.9881 0.622969C11.3472 0.568519 11.7142 0.632062 12.0341 0.803999Z" stroke="#FFCE00" stroke-width="0.5" stroke-miterlimit="10"/>
</g>
<g id="Group 1171">
<path id="Path 1649" d="M25.1383 17.649C25.5223 17.598 25.9128 17.6331 26.2815 17.7518C26.6502 17.8705 26.9879 18.0698 27.2701 18.3352C27.5522 18.6006 27.7718 18.9254 27.9128 19.2862C28.0538 19.647 28.1127 20.0346 28.0853 20.421L27.9693 83.06C27.968 83.9096 27.6726 84.7326 27.1331 85.3889C26.5937 86.0452 25.8436 86.4944 25.0103 86.6601L19.7293 87.4021L19.7073 99.5571C19.7064 100.123 19.5095 100.672 19.15 101.109C18.7905 101.547 18.2906 101.846 17.7353 101.957C17.4794 101.991 17.2193 101.968 16.9736 101.888C16.728 101.809 16.503 101.677 16.315 101.5C16.127 101.323 15.9806 101.106 15.8866 100.866C15.7926 100.626 15.7532 100.368 15.7713 100.11L15.7943 87.955L10.1453 88.749C9.76165 88.7999 9.37143 88.765 9.00299 88.6465C8.63454 88.5279 8.29703 88.3288 8.01501 88.0637C7.73299 87.7986 7.51352 87.4741 7.37243 87.1137C7.23134 86.7533 7.17217 86.366 7.19927 85.9799L7.3153 23.341C7.31636 22.4914 7.61175 21.6684 8.15124 21.0121C8.69072 20.3557 9.44095 19.9066 10.2743 19.7411L15.9223 18.947L15.9443 6.79196C15.9453 6.22575 16.1423 5.67744 16.5018 5.23996C16.8612 4.80248 17.3611 4.5029 17.9163 4.39206C18.1649 4.3536 18.419 4.37217 18.6593 4.4465C18.8996 4.52083 19.1198 4.64892 19.3033 4.82102C19.4919 5.00449 19.6406 5.22504 19.7399 5.46872C19.8392 5.7124 19.887 5.97398 19.8803 6.23703L19.8573 18.3921L25.1383 17.649Z" fill="#141414" stroke="#FFCE00" stroke-width="0.5" stroke-miterlimit="10"/>
</g>
</g>
</g>
</svg>
