<svg width="28" height="26" viewBox="0 0 28 26" fill="none" xmlns="http://www.w3.org/2000/svg">
<g id="Group 1483">
<path id="Path 2492" d="M1.97925 0.61892C1.84767 0.615868 1.71668 0.638909 1.59399 0.686547C1.4713 0.734186 1.35896 0.805707 1.26392 0.896753C1.16888 0.987798 1.09314 1.09653 1.04028 1.21707C0.987423 1.3376 0.958896 1.46756 0.956299 1.59915V24.8589C0.958896 24.9905 0.987423 25.1205 1.04028 25.241C1.09314 25.3615 1.16888 25.4703 1.26392 25.5613C1.35896 25.6523 1.4713 25.7239 1.59399 25.7715C1.71668 25.8191 1.84767 25.8422 1.97925 25.8391H27.4602V0.61892H1.97925Z" fill="#1D4E9E"/>
<path id="Path 2493" d="M15.2493 12.49C15.5795 12.3258 15.8686 12.0896 16.0955 11.7988C16.3223 11.5081 16.4813 11.1703 16.5603 10.8101C16.5603 10.4771 16.0203 10.2 15.2493 10.071V10.2C15.8663 10.311 16.2903 10.5139 16.2903 10.6809C16.2903 10.8279 15.9241 10.981 15.4031 11.05H15.384C15.3382 11.0469 15.2924 11.0534 15.2493 11.0691V12.49ZM14.343 9.99805C14.401 9.81305 14.4779 9.6099 14.5549 9.3689C14.6975 8.82852 14.6286 8.25415 14.3621 7.76294C14.2471 7.54094 13.9773 6.89502 13.9773 6.89502C13.8272 7.56999 13.5731 8.21758 13.2249 8.81494C13.1798 9.0895 13.2347 9.37107 13.3792 9.60889C13.4572 9.73889 13.5521 9.88611 13.6301 10.0161C13.4421 10.0356 13.2554 10.0661 13.071 10.1079V10.219C13.2811 10.1761 13.4937 10.1454 13.7073 10.127C13.7263 10.163 13.7649 10.181 13.7839 10.219C13.9123 10.3687 13.9868 10.5569 13.9958 10.7539C13.9958 11.0869 13.418 11.087 13.071 11.054V12.4011C13.4211 12.629 13.8296 12.751 14.2473 12.7529C14.5969 12.7501 14.9403 12.6611 15.2473 12.4939V11.073C14.8813 11.073 14.3793 11.054 14.2473 10.74C14.2045 10.5295 14.2243 10.3111 14.3049 10.1121C14.6219 10.1116 14.9384 10.1425 15.2493 10.2041V10.075C14.9493 10.0299 14.6463 10.0055 14.343 10.002V9.99805ZM13.071 10.1079C12.377 10.2369 11.9143 10.5141 11.9143 10.8081C11.9858 11.1389 12.1252 11.4509 12.3245 11.7244C12.5237 11.9978 12.7781 12.2266 13.071 12.396V11.0481C12.512 10.9741 12.1453 10.826 12.1453 10.679C12.1453 10.513 12.512 10.328 13.071 10.217V10.106" fill="white"/>
<path id="Path 2494" d="M9.0797 7.33787C9.12763 7.16174 9.16625 6.98323 9.19493 6.80296C9.19493 6.69196 9.11797 6.35897 9.48497 6.56297C9.54447 6.58772 9.59762 6.62543 9.64073 6.67332C9.68385 6.72121 9.71561 6.77806 9.73399 6.83982C9.75238 6.90159 9.75708 6.96682 9.74718 7.0305C9.73728 7.09417 9.71314 7.15473 9.67687 7.20799C9.59987 7.37499 9.40714 7.9481 9.31114 8.1511L8.90587 9.2219C8.90587 9.2219 8.86776 9.31505 8.84776 9.35105C8.73286 9.73381 8.69405 10.1352 8.73302 10.5329L8.81017 11.2329C8.81017 11.2329 8.82883 11.2879 8.88683 11.2329C8.88683 11.2329 8.96387 11.196 8.90587 10.845C8.90587 10.845 8.90589 10.125 8.92589 9.97703C8.95415 9.74645 8.99921 9.51809 9.06017 9.29393C9.09917 9.20093 9.11793 9.18296 9.19493 8.97996C9.27293 8.75796 9.52306 8.13108 9.52306 8.13108C9.67001 7.85037 9.79838 7.56027 9.90782 7.26292C10.0101 6.98509 10.0562 6.68978 10.0431 6.39402C10.0431 6.39402 10.0051 6.26494 10.0631 6.20994C10.135 6.19129 10.2097 6.18839 10.2828 6.20115C10.356 6.21392 10.4256 6.24203 10.4869 6.28392C10.5651 6.33694 10.6288 6.40863 10.6725 6.49241C10.7161 6.5762 10.7383 6.66944 10.7369 6.7639C10.683 7.11321 10.5858 7.45459 10.4479 7.78001C10.388 7.91466 10.3172 8.04407 10.2359 8.16697C10.0861 8.45489 9.9526 8.75099 9.83605 9.05394C9.81719 9.10087 9.79072 9.14458 9.75792 9.18309C9.68022 9.40057 9.61621 9.62246 9.56603 9.84788C9.50241 10.0965 9.45703 10.3496 9.43077 10.605C9.43208 10.9043 9.47095 11.2022 9.54601 11.4919C9.54601 11.4919 9.56613 11.584 9.62413 11.584C9.68213 11.584 9.68077 11.384 9.68077 11.363C9.67434 11.2573 9.66125 11.1522 9.64171 11.0481C9.62271 10.9741 9.64171 10.3479 9.64171 10.3479C9.67601 10.0827 9.74113 9.82239 9.83507 9.572C9.89307 9.461 9.93492 9.27206 10.0079 9.11106C10.1249 8.85206 10.2399 8.61106 10.2399 8.61106C10.2399 8.61106 10.6637 7.7249 10.6837 7.6699C10.7972 7.39011 10.881 7.09927 10.9337 6.80198C10.9325 6.65202 10.9522 6.50252 10.9918 6.35789C10.9918 6.35789 10.9528 6.15809 11.2228 6.26609C11.336 6.31062 11.4361 6.38305 11.5138 6.47679C11.5914 6.57052 11.6444 6.68239 11.6671 6.80198C11.6671 6.80198 11.706 7.00193 11.628 7.02293C11.528 7.05993 11.4932 7.00504 11.4352 7.06004C11.4157 7.07539 11.3999 7.09525 11.3898 7.1179C11.3797 7.14055 11.3755 7.16518 11.3771 7.18992C11.3581 7.26292 11.301 7.50309 11.277 7.55809C11.2766 7.68366 11.257 7.80831 11.2189 7.92796C11.1419 8.12796 10.9107 8.79599 10.8907 8.83299C10.8907 8.83299 10.7369 9.27597 10.7179 9.31297C10.7066 9.35948 10.6869 9.40367 10.6598 9.4431C10.6598 9.4611 10.4478 10.181 10.4288 10.343C10.3891 10.556 10.3696 10.7723 10.3707 10.989C10.3839 11.183 10.4175 11.375 10.4708 11.562C10.4708 11.562 10.4909 11.6181 10.5709 11.5991C10.6279 11.5801 10.5119 11.3591 10.5509 11.0261C10.5798 10.7239 10.6251 10.4233 10.6861 10.126C10.7051 9.99596 10.9371 9.36804 10.9371 9.33104C10.9561 9.29504 11.1682 8.66689 11.2262 8.55589C11.2652 8.44489 11.4582 7.8559 11.4772 7.7429C11.4962 7.6299 11.4958 7.33703 11.8038 7.30003C12.1318 7.39203 12.1128 7.94591 12.0738 8.14891C12.0341 8.4993 11.9431 8.84205 11.8038 9.166C11.6118 9.59 11.631 9.58987 11.631 9.60887C11.6573 9.81682 11.6701 10.0265 11.6691 10.2361C11.6824 10.4668 11.6562 10.6979 11.5919 10.9199C11.4769 11.2699 11.5529 11.308 11.5729 11.363C11.6786 11.5172 11.7751 11.6774 11.8619 11.843C11.9009 11.991 11.9621 12.287 11.9781 12.343C12.1023 12.4772 12.2179 12.6188 12.3248 12.7671C12.4018 12.9151 12.652 13.3031 12.672 13.3401C12.691 13.3961 13.481 14.3561 13.694 14.7261C13.9167 15.0278 14.0499 15.386 14.0787 15.76C14.0496 16.0328 13.9504 16.2934 13.7901 16.5161C13.708 16.617 13.6104 16.7042 13.5011 16.7749C13.4431 16.8119 13.3082 16.867 13.2692 16.959L13.1149 17.625H10.089L10.7447 16.5161C10.7447 16.5161 10.9568 16.387 10.4938 15.833C10.0377 15.2318 9.61927 14.6028 9.24083 13.9499C9.24083 13.9499 8.52817 12.7681 8.39317 12.5271C8.22377 11.7452 8.16488 10.9432 8.21886 10.145C8.18994 9.68797 8.27622 9.2309 8.46983 8.8159C8.79783 8.0579 9.08702 7.33787 9.08702 7.33787M19.3868 7.33787C19.3868 7.33787 19.2871 6.89496 19.2711 6.80296C19.2711 6.69196 19.348 6.35897 18.982 6.56297C18.9257 6.59129 18.8756 6.63088 18.8351 6.67918C18.7946 6.72748 18.7643 6.78359 18.7462 6.84397C18.7281 6.90436 18.7228 6.96765 18.7301 7.03025C18.7374 7.09286 18.7577 7.15339 18.7892 7.20799C18.8672 7.37499 19.0589 7.9481 19.1749 8.1511L19.5797 9.2219C19.5974 9.26326 19.6102 9.30671 19.6178 9.35105C19.7338 9.73359 19.7734 10.1351 19.734 10.5329L19.6568 11.2329C19.6568 11.2329 19.6367 11.2879 19.5797 11.2329C19.5797 11.2329 19.5031 11.196 19.5611 10.845C19.5611 10.845 19.5611 10.125 19.5411 9.97703C19.5211 9.74513 19.4756 9.51601 19.4059 9.29393C19.3679 9.20093 19.3481 9.18296 19.2711 8.97996C19.2131 8.75796 18.943 8.13108 18.943 8.13108C18.796 7.85037 18.6672 7.56027 18.5577 7.26292C18.4555 6.98509 18.4098 6.68978 18.423 6.39402C18.423 6.39402 18.4809 6.26494 18.4029 6.20994C18.3349 6.19203 18.2636 6.18934 18.1944 6.20213C18.1253 6.21492 18.0601 6.24286 18.003 6.28392C17.9217 6.33522 17.8544 6.40593 17.8072 6.48973C17.7601 6.57353 17.7346 6.66776 17.733 6.7639C17.7973 7.11087 17.8941 7.45114 18.0221 7.78001C18.0819 7.91466 18.1527 8.04407 18.234 8.16697C18.292 8.24097 18.6388 9.01694 18.6578 9.05394C18.6691 9.10013 18.6889 9.144 18.7159 9.18309C18.7941 9.4005 18.8584 9.6224 18.9088 9.84788C19.0843 10.3808 19.091 10.955 18.9278 11.4919C18.9278 11.4919 18.9092 11.584 18.8512 11.584C18.7932 11.584 18.7931 11.384 18.7931 11.363C18.7995 11.2573 18.8126 11.1522 18.8321 11.0481C18.8511 10.9741 18.8321 10.3479 18.8321 10.3479C18.7977 10.0827 18.7325 9.82245 18.6388 9.572C18.5895 9.41518 18.5316 9.26134 18.465 9.11106C18.3995 8.93929 18.3224 8.77223 18.234 8.61106C18.234 8.61106 17.8342 7.7249 17.8102 7.6699C17.6881 7.39154 17.5975 7.10048 17.5401 6.80198C17.5413 6.65209 17.522 6.50263 17.483 6.35789C17.483 6.35789 17.5401 6.15809 17.2701 6.26609C17.1528 6.30697 17.048 6.37781 16.9669 6.4719C16.8858 6.566 16.8309 6.67993 16.8077 6.80198C16.8077 6.80198 16.7689 7.00193 16.8649 7.02293C16.9419 7.05993 17.0002 7.00504 17.0392 7.06004C17.0808 7.09164 17.1081 7.13819 17.1158 7.18992C17.1305 7.31463 17.1565 7.43794 17.193 7.55809C17.2042 7.68255 17.2237 7.80602 17.2511 7.92796C17.3281 8.12796 17.5587 8.79599 17.5787 8.83299C17.5787 8.83299 17.7331 9.27597 17.7521 9.31297C17.7711 9.34997 17.7912 9.4061 17.8102 9.4431C17.9058 9.73807 17.9832 10.0385 18.0421 10.343C18.0611 10.509 18.1178 10.805 18.1178 10.989C18.0952 11.1817 18.0622 11.373 18.0182 11.562C18.0074 11.5778 17.9917 11.5898 17.9737 11.5964C17.9558 11.603 17.9365 11.6041 17.9181 11.5991C17.8411 11.5801 17.9561 11.3591 17.9181 11.0261C17.8997 10.7227 17.8543 10.4214 17.7828 10.126C17.6297 9.59376 17.4494 9.06968 17.2428 8.55589C17.2048 8.44489 17.0308 7.8559 16.9918 7.7429C16.9728 7.6329 16.9731 7.33703 16.6651 7.30003C16.3371 7.39203 16.3561 7.94591 16.3951 8.14891C16.4348 8.4993 16.5258 8.84205 16.6651 9.166C16.8771 9.59 16.839 9.58987 16.839 9.60887C16.8117 9.81673 16.7986 10.0264 16.7999 10.2361C16.7861 10.4668 16.8123 10.698 16.8771 10.9199C16.9921 11.2699 16.9151 11.308 16.8961 11.363C16.8771 11.437 16.665 11.695 16.607 11.843C16.5789 12.0118 16.5402 12.1788 16.4918 12.343C16.367 12.4766 16.2514 12.6183 16.1451 12.7671C16.0671 12.9151 15.817 13.3031 15.797 13.3401C15.778 13.3961 14.987 14.3561 14.775 14.7261C14.5577 15.0292 14.4306 15.3877 14.4088 15.76C14.4208 16.0366 14.5223 16.302 14.6979 16.5161C14.7733 16.6164 14.8645 16.7037 14.9679 16.7749C15.0638 16.8082 15.1455 16.8732 15.1998 16.959L15.3541 17.625H18.4L17.7438 16.5161C17.7438 16.5161 17.5132 16.387 17.9762 15.833C18.4326 15.232 18.851 14.6031 19.2291 13.9499C19.2291 13.9499 19.9618 12.7681 20.0958 12.5271C20.2584 11.7442 20.3108 10.9423 20.2511 10.145C20.28 9.68797 20.1937 9.2309 20.0001 8.8159C19.8001 8.3219 19.5943 7.8292 19.3829 7.33787" fill="white"/>
<path id="Path 2495" d="M14.2458 23.6631C14.5348 23.6451 14.8059 23.645 14.8059 23.645C15.8246 23.6281 16.8294 23.4031 17.7581 22.9839C18.6867 22.5646 19.5199 21.96 20.2063 21.207C21.4259 20.0219 22.172 18.4333 22.3059 16.738V9.573C22.1327 7.92296 21.3738 6.38973 20.1663 5.25195C19.4636 4.49292 18.6144 3.88393 17.6702 3.46167C16.726 3.03941 15.7063 2.8126 14.6721 2.79492H14.2473V3.01611H14.6721C16.0784 3.08398 17.4412 3.52514 18.6204 4.29443C19.7995 5.06372 20.7524 6.13332 21.3811 7.39307C21.6586 8.08403 21.7514 8.8353 21.6501 9.573V16.738C21.752 17.5927 21.6255 18.459 21.2839 19.249C20.9506 19.9066 20.5291 20.5156 20.031 21.0591C19.3639 21.7827 18.5573 22.3636 17.6594 22.7666C16.7615 23.1696 15.7909 23.3865 14.8069 23.4041C14.8069 23.4041 14.5373 23.4241 14.2473 23.4241V23.6631H14.2458ZM14.2458 2.79492H13.7458C12.712 2.8146 11.6932 3.04247 10.7493 3.4646C9.80536 3.88673 8.95607 4.49451 8.2522 5.25195C7.0284 6.40786 6.26721 7.96986 6.11108 9.646V16.793C6.25794 18.4688 7.00352 20.0358 8.21118 21.207C8.89771 21.9598 9.73083 22.5644 10.6594 22.9836C11.588 23.4029 12.5924 23.6279 13.6111 23.645C13.6111 23.645 13.9202 23.6631 14.2112 23.6631H14.2493V23.4241C13.9413 23.4241 13.613 23.4041 13.613 23.4041C12.6289 23.3864 11.6585 23.1696 10.7605 22.7666C9.86246 22.3636 9.05526 21.7827 8.38794 21.0591C7.88357 20.5257 7.44969 19.9297 7.09692 19.2859C6.83964 18.4627 6.74786 17.5969 6.8269 16.738V9.573C6.70192 8.64694 6.86353 7.70486 7.28931 6.87305C7.95774 5.74128 8.89881 4.79489 10.0271 4.12061C11.1554 3.44632 12.4349 3.06553 13.7483 3.01294H14.2483V2.79199" fill="white"/>
<path id="Path 2496" d="M13.2246 19.179C13.2302 19.2069 13.2274 19.2359 13.2158 19.262C13.2043 19.288 13.1851 19.3098 13.1607 19.3245C13.1362 19.3391 13.1075 19.3456 13.0791 19.3435C13.0507 19.3414 13.024 19.3306 13.002 19.3125C12.98 19.2944 12.9641 19.2701 12.9566 19.2427C12.949 19.2152 12.9499 19.186 12.9595 19.1592C12.9691 19.1324 12.987 19.1094 13.0103 19.093C13.0336 19.0767 13.0614 19.068 13.0899 19.0681C13.1222 19.0661 13.1542 19.0763 13.1792 19.0969C13.2043 19.1175 13.2204 19.1468 13.2246 19.179ZM13.3599 19.53C13.3599 19.53 13.0317 19.5111 12.7427 19.4741V19.696C12.8007 19.696 12.859 19.7151 12.897 19.7151L12.8779 20.1201H12.7427V20.4531L12.8428 20.4719L12.8237 20.9341L13.1128 20.97L13.229 19.752H13.3438L13.3638 19.53H13.3599ZM12.7427 19.4741C12.6847 19.4741 12.6269 19.4561 12.5689 19.4561C12.4339 19.4371 12.28 19.4 12.126 19.364L11.9326 19.0491L11.605 18.9751L11.7988 19.2891C11.7609 19.2792 11.7218 19.2731 11.6826 19.271L11.625 19.4709C11.6566 19.4844 11.6903 19.4909 11.7246 19.49L11.687 19.6741L11.417 19.6189C11.4628 19.5883 11.5006 19.5472 11.5274 19.499C11.5541 19.4509 11.569 19.3971 11.5708 19.342C11.57 19.2974 11.5604 19.2533 11.5425 19.2124C11.5246 19.1715 11.4986 19.1346 11.4663 19.1038C11.4341 19.0729 11.3962 19.0485 11.3545 19.0325C11.3128 19.0164 11.2683 19.0088 11.2236 19.01V19.2681C11.2338 19.2668 11.2442 19.2678 11.2539 19.271C11.2636 19.2742 11.2724 19.2798 11.2798 19.2869C11.2872 19.2939 11.2928 19.3025 11.2964 19.312C11.3 19.3216 11.3016 19.3319 11.3008 19.342C11.3001 19.3564 11.2966 19.3703 11.2901 19.3831C11.2835 19.3958 11.274 19.4071 11.2627 19.416H11.2236V19.822L11.6289 19.9331L11.4546 20.7451L11.7637 20.801L12.0337 19.563C12.128 19.5908 12.2249 19.6094 12.3228 19.6189L12.2647 20.062C12.2435 20.0569 12.2217 20.0562 12.2002 20.0601C12.1787 20.0639 12.1583 20.0721 12.1402 20.0842C12.122 20.0963 12.1065 20.112 12.0947 20.1304C12.083 20.1487 12.0752 20.1694 12.0718 20.1909C12.0528 20.3389 12.2267 20.491 12.3037 20.561C12.4377 20.708 12.5347 20.468 12.5347 20.468V20.4309L12.7471 20.45V20.1169L12.5728 20.1001L12.6499 19.675C12.681 19.6902 12.7157 19.6965 12.75 19.6931L12.7427 19.4741ZM11.2197 20.6741V20.1189C11.2442 20.1086 11.2704 20.103 11.2969 20.1021L11.4317 20.2671C11.3897 20.3204 11.3375 20.3645 11.2778 20.397C11.2621 20.4884 11.2556 20.5813 11.2588 20.6741H11.2197ZM11.2197 19.012C11.1737 19.0089 11.1276 19.0151 11.084 19.0303C11.0404 19.0454 11.0001 19.0691 10.9658 19.1001C10.9316 19.1311 10.9042 19.1685 10.8848 19.2104C10.8654 19.2524 10.8545 19.2978 10.853 19.344C10.8517 19.3809 10.8577 19.4178 10.8711 19.4521C10.8845 19.4865 10.9047 19.5177 10.9307 19.5439C10.874 19.5563 10.8212 19.5816 10.7759 19.6179C10.6989 19.6919 10.506 19.8591 10.564 20.0801C10.603 20.3201 10.8527 20.431 10.9297 20.468H10.9688C10.9878 20.468 10.9878 20.616 10.9878 20.616L11.2197 20.6709V20.116C11.1834 20.1348 11.1445 20.1477 11.104 20.1541C11.0652 20.1605 11.0254 20.1569 10.9883 20.1438C10.9512 20.1307 10.9178 20.1085 10.8916 20.0791C10.7916 19.9321 11.0077 19.729 11.1807 19.803L11.2197 19.821V19.415C11.2001 19.415 11.1814 19.4072 11.1675 19.3933C11.1536 19.3794 11.146 19.3607 11.146 19.3411C11.146 19.3214 11.1536 19.3025 11.1675 19.2886C11.1814 19.2747 11.2001 19.2671 11.2197 19.2671V19.009M10.7578 19.2671L10.834 19.0669C10.834 19.0669 10.2557 18.8669 9.67775 18.5859L9.57765 18.1799L9.30861 18.051L9.38576 18.457C9.03776 18.273 8.72964 18.0871 8.53664 17.9771V18.531C8.59701 18.4652 8.63249 18.3802 8.63673 18.291C8.72423 18.3329 8.80789 18.3824 8.88673 18.439L8.61671 18.863C8.59887 18.8904 8.57172 18.91 8.54005 18.918V19.6389L9.1758 18.5859C9.2338 18.6229 9.29162 18.641 9.34962 18.678L8.73292 19.8049L9.00197 19.9341L9.61964 18.8081L9.85109 18.9189C9.96609 19.2879 9.79298 19.3979 9.79298 19.3979C9.75498 19.3059 9.59962 19.2881 9.59962 19.2881C9.56998 19.2908 9.54173 19.3 9.51613 19.3152C9.49053 19.3304 9.46825 19.351 9.45167 19.3757C9.4351 19.4005 9.42427 19.4286 9.41994 19.458C9.4156 19.4875 9.41802 19.5175 9.42677 19.5459C9.46477 19.7689 9.67677 19.9161 9.92677 19.6941C10.0913 19.5197 10.181 19.2878 10.1768 19.0481C10.2348 19.0661 10.3116 19.1031 10.3696 19.1221L9.90773 20.304L10.1968 20.415L10.6397 19.2319C10.6801 19.2401 10.7197 19.2513 10.7578 19.2671ZM8.54005 17.9741C8.48037 17.9245 8.41533 17.8812 8.34669 17.845L8.19289 18.011C8.25434 18.0423 8.31244 18.0795 8.36671 18.1221C8.36671 18.1591 8.40465 18.4171 8.07765 18.3621H7.96193C7.90322 18.467 7.87411 18.5858 7.87746 18.7061C7.8808 18.8263 7.91652 18.9434 7.98097 19.0449C8.04665 19.102 8.12336 19.1447 8.20656 19.1702C8.28976 19.1957 8.3775 19.2036 8.46388 19.1931L8.25197 19.5249L8.52101 19.6731L8.54005 19.636V18.916C8.49802 18.9269 8.45409 18.9292 8.41115 18.9229C8.36821 18.9165 8.32714 18.9015 8.29005 18.8789C8.13605 18.7499 8.23195 18.6389 8.23195 18.6389C8.28855 18.646 8.34574 18.6396 8.39943 18.6204C8.45312 18.6011 8.50187 18.5696 8.54103 18.5281V17.979M20.647 19.0129L20.8589 18.8291L20.0689 17.812C20.1689 17.739 20.2227 17.7019 20.2227 17.7019L20.1069 17.5911C20.1069 17.5911 20.0069 17.6651 19.8379 17.7761V18.053L20.0879 18.3479L19.876 18.5139L19.8379 18.478V18.978H19.9527C20.1067 18.978 20.0689 18.7781 20.0689 18.7781L20.2998 18.6111L20.647 19.0181V19.0129ZM19.8379 17.7761C19.2078 18.1976 18.537 18.5561 17.8369 18.8469V19.0869L18.0488 19.512C18.0648 19.579 18.0536 19.6497 18.0176 19.7085C17.9816 19.7673 17.9239 19.8096 17.8569 19.8259L17.8369 19.844V20.144C17.9189 20.1506 18.0013 20.1357 18.0757 20.1006C18.1501 20.0655 18.2137 20.0115 18.2608 19.9441L18.4336 20.2581L18.7046 20.147L18.146 18.947C18.377 18.854 18.5888 18.747 18.7818 18.647L18.8198 18.7031C18.8198 18.7031 18.7199 18.7771 18.6079 18.8501C18.552 18.879 18.5067 18.9252 18.479 18.9817C18.4513 19.0382 18.4423 19.1021 18.4536 19.1641C18.4536 19.3301 18.7227 19.4409 18.7227 19.4409C18.7032 19.5674 18.7239 19.6969 18.7818 19.811C18.9548 20.125 19.4561 19.9951 19.4561 19.9951L19.3989 19.7739L19.2827 19.792C19.2485 19.7945 19.2142 19.7895 19.1821 19.7773C19.1501 19.7652 19.1211 19.746 19.0972 19.7214C19.0733 19.6968 19.0553 19.6674 19.044 19.635C19.0327 19.6026 19.0283 19.5681 19.0318 19.5339C19.0508 19.4779 19.1088 19.276 19.3018 19.293C19.4948 19.31 19.417 19.552 19.417 19.552L19.6099 19.645C19.6491 19.6065 19.6828 19.5627 19.71 19.5149C19.748 19.0719 19.5167 19.035 19.3237 18.999C19.2584 18.9873 19.1915 18.9911 19.1279 19.0103C19.0644 19.0294 19.0061 19.0631 18.958 19.1089C18.958 19.1089 18.8578 19.164 18.8418 19.127C18.8258 19.09 18.8618 19.054 18.8618 19.054L19.2617 18.7771L19.0698 18.4629C19.1513 18.428 19.2287 18.3845 19.3008 18.333C19.3986 18.4505 19.4888 18.5742 19.5708 18.7031C19.5708 18.7401 19.5127 18.7581 19.5327 18.8511C19.5707 18.9611 19.7058 18.98 19.8408 18.98V18.48L19.5908 18.147C19.6641 18.108 19.7348 18.0647 19.8027 18.0171L19.8408 18.0549V17.7781L19.8379 17.7761ZM17.8369 18.8469L17.2588 19.0691C16.2796 19.352 15.2696 19.5132 14.251 19.5491V19.7329H14.3867V19.863C14.3552 19.8765 14.3209 19.8827 14.2866 19.8811H14.2481V20.158H14.2866C14.3324 20.155 14.3785 20.1612 14.4219 20.176L14.4409 20.49C14.3928 20.5132 14.34 20.5259 14.2866 20.5271H14.2481V20.804H14.2866C14.3524 20.8008 14.4177 20.7885 14.48 20.7671L14.499 21.0071L14.8076 20.989L14.708 19.7151C14.939 19.6961 15.189 19.6781 15.459 19.6411L15.4981 19.751L15.209 19.7881C15.1487 19.8006 15.0932 19.8297 15.0488 19.8723C15.0044 19.9149 14.9729 19.9693 14.958 20.0291C14.9 20.1761 15.1128 20.3799 15.1128 20.3799C15.0396 20.488 15.0115 20.6206 15.0347 20.749C15.0737 21.1 15.5938 21.155 15.5938 21.155L15.6328 20.9331L15.4981 20.896C15.2671 20.786 15.3438 20.619 15.3628 20.583C15.4008 20.527 15.536 20.3601 15.71 20.4341C15.883 20.5271 15.71 20.7109 15.71 20.7109L15.8638 20.8779C15.9133 20.8536 15.9594 20.8222 16 20.7849C16.212 20.3789 15.9997 20.268 15.8257 20.158C15.7679 20.1325 15.7053 20.1194 15.6421 20.1194C15.5789 20.1194 15.5168 20.1325 15.459 20.158C15.459 20.158 15.3437 20.1759 15.3247 20.1389C15.3247 20.1019 15.3819 20.0649 15.3819 20.0649L15.8457 19.9729L15.7866 19.603C15.8456 19.585 15.922 19.5849 15.98 19.5659L16.3267 20.804L16.6348 20.748L16.3076 19.511C16.4076 19.493 16.4807 19.4741 16.5777 19.4561C16.6157 19.5661 16.751 19.936 16.751 19.936L16.6348 20.01C16.6348 20.01 16.5199 20.1389 16.6929 20.2319C16.7954 20.2951 16.9058 20.3448 17.021 20.3799C17.041 20.3799 17.1558 20.3419 17.1558 20.1799L17.3486 20.106L17.1558 19.8291L17.041 19.866L16.8858 19.386C17.0018 19.349 17.1169 19.33 17.2139 19.293C17.2719 19.312 17.3867 19.368 17.3867 19.478C17.3873 19.5252 17.3697 19.5708 17.3374 19.6052C17.3052 19.6397 17.261 19.6605 17.2139 19.6631L17.1367 19.7549C17.2472 19.9324 17.4185 20.0637 17.6187 20.124C17.6957 20.124 17.7541 20.1431 17.8311 20.1431V19.8479C17.7836 19.8545 17.7351 19.8455 17.6934 19.822C17.6517 19.7985 17.6186 19.762 17.5996 19.718C17.6375 19.6896 17.6692 19.6536 17.6924 19.6123C17.7156 19.571 17.7302 19.5252 17.7349 19.478C17.7239 19.3675 17.6897 19.2606 17.6348 19.1641C17.694 19.1284 17.7588 19.1034 17.8267 19.0901V18.8511L17.8369 18.8469ZM14.251 19.5471C14.001 19.5651 13.8511 19.5649 13.8511 19.5649L13.8706 19.75C13.8706 19.75 14.0049 19.75 14.2559 19.731L14.251 19.5471ZM14.251 19.8789C14.1859 19.8715 14.1196 19.8779 14.0571 19.8977C13.9947 19.9175 13.9376 19.9505 13.8887 19.9941C13.8398 20.0378 13.8007 20.0911 13.7739 20.1509C13.7472 20.2107 13.7329 20.2755 13.7329 20.3411C13.7329 20.4066 13.7472 20.4712 13.7739 20.531C13.8007 20.5908 13.8398 20.6444 13.8887 20.688C13.9376 20.7316 13.9947 20.7644 14.0571 20.7842C14.1196 20.804 14.1859 20.8104 14.251 20.803V20.5261C14.136 20.5071 14.0391 20.4331 14.0391 20.3411C14.0391 20.2491 14.139 20.175 14.251 20.157V19.8789ZM20.7866 19.011L21.0757 18.845C21.0757 18.845 21.1338 18.808 21.1758 18.845C21.1817 18.8502 21.1862 18.857 21.1885 18.8645C21.1908 18.872 21.1909 18.8801 21.189 18.8877C21.187 18.8953 21.1829 18.9025 21.1773 18.908C21.1716 18.9135 21.1644 18.9172 21.1568 18.9189C21.1568 18.9189 20.9447 19.1189 20.8877 19.1189C20.8552 19.1293 20.8201 19.1293 20.7876 19.1189C20.7876 19.1189 20.7496 19.0451 20.7876 19.0081" fill="white"/>
</g>
</svg>
