<svg width="8" height="13" viewBox="0 0 8 13" fill="none" xmlns="http://www.w3.org/2000/svg">
<g id="Group 1260">
<g id="Group 597">
<path id="Path 390" d="M5.22972 6.74301C5.11472 6.62001 5.01824 6.51093 4.91624 6.40793L0.935775 2.426C0.837121 2.33419 0.744932 2.23624 0.658431 2.13291C0.531165 1.96674 0.468303 1.75993 0.48265 1.55112C0.496997 1.34231 0.586783 1.14583 0.73558 0.99863C0.884377 0.851427 1.08229 0.763534 1.29124 0.751437C1.5002 0.739341 1.70653 0.803906 1.87132 0.932956C1.95436 1.00181 2.03224 1.07601 2.1057 1.155C3.71036 2.759 5.31486 4.36301 6.9182 5.96701C7.04785 6.05073 7.15453 6.16543 7.22874 6.30075C7.30295 6.43607 7.34211 6.58771 7.343 6.74204C7.34389 6.89637 7.30627 7.04849 7.23363 7.18467C7.16099 7.32084 7.05566 7.43673 6.92699 7.52195C5.27632 9.17461 3.62519 10.8267 1.97386 12.478C1.8622 12.615 1.71172 12.7151 1.54222 12.7652C1.37272 12.8154 1.1919 12.8132 1.02367 12.759C0.865979 12.7141 0.72509 12.6237 0.618392 12.4992C0.511694 12.3748 0.444299 12.2216 0.424056 12.0589C0.405777 11.8974 0.428785 11.7339 0.491439 11.584C0.554093 11.434 0.654715 11.3025 0.782455 11.202C2.16045 9.83067 3.53638 8.45765 4.91038 7.08298C5.01438 6.97898 5.11172 6.87101 5.22972 6.74301Z" fill="#777777"/>
</g>
</g>
</svg>
