<svg width="28" height="31" viewBox="0 0 28 31" fill="none" xmlns="http://www.w3.org/2000/svg">
<g id="Group 1479">
<path id="Path 2487" fill-rule="evenodd" clip-rule="evenodd" d="M14.1589 4.1001L3.94409 18.3L5.30298 27.7L6.63403 30.467C9.80268 30.3479 12.8758 29.35 15.51 27.585C19.1253 20.785 22.7409 13.9869 26.3562 7.19092L20.0813 2.24707L14.1589 4.1001Z" fill="white"/>
<path id="Path 2488" fill-rule="evenodd" clip-rule="evenodd" d="M19.1922 6.479C20.3262 5.087 20.601 3.43192 19.805 2.79492C19.009 2.15792 17.435 2.77497 16.305 4.16797C15.175 5.56097 14.8972 7.21505 15.6922 7.85205C16.4872 8.48905 18.0592 7.879 19.1922 6.479ZM21.722 21.8069C27.665 14.3679 29.011 5.5289 24.722 2.1289C20.433 -1.2711 12.081 2.02891 6.13804 9.46191C0.195039 16.8949 -1.14996 25.7399 3.13804 29.1389C4.17733 29.9377 5.43656 30.3985 6.74595 30.459C7.7321 29.9944 8.50295 29.1696 8.89927 28.1541C9.16527 27.4291 11.6762 20.5671 11.9862 17.2161C12.2142 14.7401 11.2192 14.627 10.6522 14.854C9.92941 15.2225 9.16 15.4917 8.36509 15.6541C7.67909 15.6921 7.60323 15.2731 7.98423 14.7781C8.36523 14.2831 13.7411 9.19511 15.7201 9.44311C16.0149 9.49481 16.294 9.6131 16.536 9.7893C16.778 9.96551 16.9768 10.195 17.1166 10.4597C17.2563 10.7245 17.3337 11.0177 17.3426 11.3169C17.3516 11.6161 17.292 11.9134 17.1683 12.186C16.8253 13.177 15.682 17.445 15.225 19.656C14.7088 21.7781 14.4275 23.9505 14.3861 26.134C14.3889 26.4549 14.4773 26.7693 14.6424 27.0444C14.8075 27.3196 15.0432 27.5455 15.3251 27.699C17.7554 26.0874 19.9145 24.1004 21.722 21.812V21.8069Z" fill="#D2562E"/>
<path id="Path 2489" fill-rule="evenodd" clip-rule="evenodd" d="M19.1923 6.47899C20.3263 5.08699 20.6011 3.43191 19.8051 2.79491C19.0091 2.15791 17.4351 2.77496 16.3051 4.16796C15.1751 5.56096 14.8973 7.21504 15.6923 7.85204C16.4873 8.48904 18.0593 7.87899 19.1923 6.47899ZM22.8281 18.4099C27.7671 12.1749 28.5085 4.7629 24.4775 1.9099C20.4465 -0.943101 13.1313 1.82109 8.19232 8.05809C3.25332 14.2951 2.51239 21.7051 6.54339 24.5581C7.49977 25.2143 8.61814 25.5947 9.7763 25.6579C10.7756 22.919 11.5151 20.0924 11.9853 17.2151C12.2143 14.7381 11.2193 14.626 10.6513 14.853C9.92862 15.221 9.1596 15.4901 8.36517 15.6531C7.67917 15.6911 7.60331 15.2721 7.98431 14.7761C8.36531 14.2801 13.7401 9.19391 15.7201 9.44091C16.0151 9.49274 16.2945 9.61152 16.5366 9.78783C16.7786 9.96414 16.9769 10.1934 17.1166 10.4582C17.2564 10.7231 17.3337 11.0164 17.3427 11.3157C17.3517 11.615 17.292 11.9123 17.1684 12.185C16.8254 13.176 15.6821 17.443 15.2241 19.654C14.8505 21.3763 14.5735 23.118 14.3935 24.8711C17.7251 23.497 20.6344 21.2673 22.8281 18.4079V18.4099Z" fill="#BA2A2F"/>
</g>
</svg>
