<svg width="32" height="27" viewBox="0 0 32 27" fill="none" xmlns="http://www.w3.org/2000/svg">
<g id="Group 1476">
<path id="Path 2472" fill-rule="evenodd" clip-rule="evenodd" d="M15.9832 26.187C7.70515 26.187 0.959229 20.382 0.959229 13.261C0.959229 6.13999 7.70515 0.341064 15.9832 0.341064C24.2612 0.341064 31.0022 6.14099 31.0022 13.261C31.0022 20.381 24.2562 26.187 15.9832 26.187Z" fill="#004A8F"/>
<path id="Path 2473" fill-rule="evenodd" clip-rule="evenodd" d="M25.6223 14.572L27.2961 14.646C26.2961 21.607 19.696 22.1179 16.365 15.3719L16.802 14.646C20.249 16.831 24.2803 17.656 25.6223 14.572Z" fill="white"/>
<path id="Path 2474" fill-rule="evenodd" clip-rule="evenodd" d="M14.2542 4.44104L17.6023 3.34106L17.7502 22.293L14.1062 23.53L14.2542 4.43701" fill="#ED1C24"/>
<path id="Path 2475" fill-rule="evenodd" clip-rule="evenodd" d="M25.6959 12.017H27.2218C26.6318 8.83497 25.0219 6.829 21.9039 6.552C19.3039 6.60067 17.0925 8.10661 15.2692 11.0699C14.0692 12.8979 12.1418 15.77 9.80284 16.104C6.98384 16.511 5.34703 14.03 6.56603 11.894C7.30403 10.589 9.30477 10.048 10.7018 10.177C10.7078 10.177 10.7212 10.183 10.7272 10.183C11.9498 10.2753 13.1358 10.6413 14.1979 11.254L14.2169 8.57104C13.6486 8.00708 13.0101 7.51872 12.317 7.11804C11.4134 6.6322 10.3742 6.45913 9.36193 6.62598C5.11493 7.56098 4.33376 11.033 5.13976 15.661C6.78976 21.035 11.94 21.447 14.902 17.994C16.933 15.569 21.974 7.36397 25.692 12.017" fill="white"/>
</g>
</svg>
