<svg width="98" height="137" viewBox="0 0 98 137" fill="none" xmlns="http://www.w3.org/2000/svg">
<g id="Group 1093">
<g id="Group 1092">
<g id="Group 1086">
<path id="Path 1015" d="M9.3457 78.8171L-6.7002 76.3672L-8.72266 123.901L7.32422 126.351L9.3457 78.8171Z" fill="#FFF09C"/>
<path id="Path 1016" d="M9.3457 78.8157L-6.7002 76.3657L3.9248 69.5547L19.9707 72.0047L9.3457 78.8157Z" fill="url(#paint0_linear_74_17803)"/>
<path id="Path 1017" d="M9.3457 78.8172L21.877 70.7812L19.8535 118.315L7.32422 126.351L9.3457 78.8172Z" fill="url(#paint1_linear_74_17803)"/>
</g>
<g id="Group 1087">
<path id="Path 1018" d="M35.0742 70.0828L19.0273 67.6328L16.4473 128.281L32.4932 130.731L35.0742 70.0828Z" fill="#FFF09C"/>
<path id="Path 1019" d="M35.0742 70.0813L19.0273 67.6313L29.751 60.8203L45.7969 63.2703L35.0742 70.0813Z" fill="url(#paint2_linear_74_17803)"/>
<path id="Path 1020" d="M35.0742 70.0829L47.6035 62.0469L45.0244 122.695L32.4932 130.731L35.0742 70.0829Z" fill="url(#paint3_linear_74_17803)"/>
</g>
<g id="Group 1088">
<path id="Path 1021" d="M59.5674 78.6727L43.5195 76.2227L41.1357 132.261L57.1816 134.711L59.5674 78.6727Z" fill="#FFF09C"/>
<path id="Path 1022" d="M59.5674 78.6717L43.5195 76.2217L54.0107 69.5547L70.0566 72.0047L59.5674 78.6717Z" fill="url(#paint4_linear_74_17803)"/>
<path id="Path 1023" d="M59.5674 78.6727L72.0967 70.6367L69.7119 126.675L57.1816 134.711L59.5674 78.6727Z" fill="url(#paint5_linear_74_17803)"/>
</g>
<g id="Group 1089">
<path id="Path 1024" d="M85.3115 69.5555L69.2656 67.1055L66.3066 136.638L82.3525 139.089L85.3115 69.5555Z" fill="#FFF09C"/>
<path id="Path 1025" d="M85.3115 69.5544L69.2656 67.1044L79.2959 60.5664L95.3418 63.0164L85.3115 69.5544Z" fill="url(#paint6_linear_74_17803)"/>
<path id="Path 1026" d="M85.3115 69.5536L95.3418 63.0156L92.2422 132.744L82.3496 139.088L85.3115 69.5536Z" fill="url(#paint7_linear_74_17803)"/>
</g>
<g id="Group 1091">
<path id="Path 1027" d="M85.0469 4.51758L66.9014 8.48559C64.5474 9.00059 63.5742 12.8256 65.2442 15.0016L66.2374 16.2966C66.785 17.0916 67.076 18.0353 67.0714 19.0007C67.0667 19.966 66.7662 20.9069 66.211 21.6966L50.4424 42.8806C50.2317 43.2289 49.9361 43.5187 49.584 43.7232C49.232 43.9277 48.8348 44.0405 48.4278 44.051C48.0208 44.0616 47.6171 43.9696 47.2549 43.7836C46.8928 43.5976 46.583 43.3235 46.3545 42.9866L27.0811 17.8656C26.8527 17.5286 26.5428 17.2545 26.1807 17.0685C25.8186 16.8825 25.4158 16.7905 25.0088 16.801C24.6019 16.8116 24.2045 16.9244 23.8526 17.1289C23.5007 17.3335 23.2058 17.6232 22.9952 17.9716L-3.51557 53.0376C-4.07135 53.8271 -4.37207 54.7679 -4.37689 55.7333C-4.38172 56.6988 -4.09077 57.6426 -3.54291 58.4376L1.72955 65.3116C1.95833 65.6483 2.26871 65.9221 2.63092 66.108C2.99312 66.2938 3.39583 66.3857 3.80279 66.3751C4.20975 66.3646 4.60793 66.252 4.96002 66.0476C5.31211 65.8433 5.60739 65.5537 5.81842 65.2056L22.8731 42.7896C23.0837 42.4412 23.3786 42.1515 23.7305 41.9469C24.0825 41.7423 24.4798 41.6296 24.8868 41.619C25.2937 41.6085 25.6966 41.7004 26.0587 41.8865C26.4207 42.0725 26.7307 42.3466 26.959 42.6836L46.2344 67.8046C46.4628 68.1415 46.7718 68.4157 47.1338 68.6017C47.4959 68.7877 47.8988 68.8797 48.3057 68.8691C48.7127 68.8586 49.111 68.7458 49.4629 68.5413C49.8149 68.3367 50.1098 68.0469 50.3204 67.6985L75.545 33.8636C75.7563 33.5158 76.0512 33.2267 76.4034 33.0228C76.7556 32.819 77.1538 32.7069 77.5606 32.697C77.9674 32.687 78.3707 32.7794 78.7325 32.9658C79.0942 33.1522 79.4029 33.4265 79.6309 33.7635L80.6241 35.0586C82.2941 37.2336 85.1782 35.8996 85.5372 32.7846L88.3038 8.77258C88.5948 6.22658 86.9629 4.09958 85.0469 4.51758Z" fill="#F1CA00"/>
<g id="Group 1090">
<path id="Path 1028" d="M4.64062 66.1525V66.1595L4.7627 66.1016C4.7227 66.1216 4.68062 66.1345 4.64062 66.1525Z" fill="url(#paint8_linear_74_17803)"/>
<path id="Path 1029" d="M26.958 42.6787C26.7296 42.3417 26.4197 42.0676 26.0576 41.8816C25.6955 41.6955 25.2927 41.6035 24.8857 41.6141C24.4788 41.6247 24.0814 41.7374 23.7295 41.942C23.3775 42.1465 23.0827 42.4363 22.8721 42.7847L5.81738 65.2006C5.566 65.5433 5.24662 65.8309 4.87988 66.0457C6.16788 65.4287 12.6359 62.3297 13.5439 61.9067C13.9932 61.6885 14.381 61.362 14.6729 60.9567L27.7725 43.7407L26.958 42.6787Z" fill="url(#paint9_linear_74_17803)"/>
<path id="Path 1030" d="M27.0801 17.8639L46.3535 42.985C46.582 43.3219 46.8918 43.596 47.2539 43.782C47.6161 43.968 48.0198 44.06 48.4268 44.0494C48.8338 44.0389 49.231 43.9261 49.583 43.7216C49.935 43.5171 50.2307 43.2273 50.4414 42.879L54.3535 37.6219L35.9365 13.6219C35.6076 13.1241 35.1024 12.7693 34.5225 12.6288C33.9425 12.4884 33.3308 12.5727 32.8105 12.8649C32.4615 13.0649 24.1426 17.012 24.1426 17.012L24.1299 17.035C24.6398 16.7995 25.2171 16.7536 25.7578 16.9056C26.2985 17.0575 26.7674 17.3973 27.0801 17.8639Z" fill="url(#paint10_linear_74_17803)"/>
<path id="Path 1031" d="M79.6299 33.7549C79.4018 33.4178 79.0932 33.1435 78.7314 32.9571C78.3697 32.7708 77.9664 32.6783 77.5596 32.6882C77.1527 32.6982 76.7546 32.8102 76.4023 33.0141C76.0501 33.2179 75.7552 33.5071 75.5439 33.8549L50.3193 67.6949C50.0077 68.1231 49.585 68.4587 49.0977 68.6659L49.1035 68.6789C49.1035 68.6789 56.7686 65.1479 57.6396 64.6959C58.2372 64.3992 58.7619 63.9741 59.1758 63.4509L80.4854 34.8699L79.6299 33.7549Z" fill="url(#paint11_linear_74_17803)"/>
<path id="Path 1032" d="M93.9033 0.275395L75.7559 4.24341C75.2586 4.36774 74.774 4.53953 74.3096 4.75641C72.3096 5.76641 66.21 8.75641 66.21 8.75641L66.2354 8.76642C66.4428 8.64175 66.6676 8.54837 66.9023 8.48938L85.0479 4.52143C86.9639 4.10343 88.5957 6.23041 88.3037 8.76441L85.5371 32.7764C85.5007 33.41 85.3061 34.0244 84.9717 34.5637C84.6372 35.1031 84.1734 35.5501 83.6221 35.8644C84.6641 35.3644 91.5297 32.0704 92.4297 31.6534C92.9956 31.3432 93.4735 30.8938 93.8174 30.3477C94.1612 29.8016 94.3595 29.1768 94.3945 28.5324L97.1631 4.52039C97.4531 1.98439 95.8213 -0.142605 93.9033 0.275395Z" fill="url(#paint12_linear_74_17803)"/>
<path id="Path 1033" d="M83.4775 35.9232V35.9342L83.5303 35.9102C83.5103 35.9162 83.4935 35.9162 83.4775 35.9232Z" fill="url(#paint13_linear_74_17803)"/>
</g>
</g>
</g>
</g>
<defs>
<linearGradient id="paint0_linear_74_17803" x1="-1.57938" y1="81.8533" x2="0.638584" y2="64.6815" gradientUnits="userSpaceOnUse">
<stop stop-color="#FFFADD"/>
<stop offset="0.172" stop-color="#FFF7D7"/>
<stop offset="0.401" stop-color="#FFF1C6"/>
<stop offset="0.663" stop-color="#FFE6AA"/>
<stop offset="0.946" stop-color="#FFD784"/>
<stop offset="0.999" stop-color="#FFD47C"/>
</linearGradient>
<linearGradient id="paint1_linear_74_17803" x1="7.32422" y1="98.5662" x2="21.877" y2="98.5662" gradientUnits="userSpaceOnUse">
<stop stop-color="#FF9B2F"/>
<stop offset="0.441" stop-color="#FF9B2F"/>
<stop offset="1" stop-color="#CA6D00"/>
</linearGradient>
<linearGradient id="paint2_linear_74_17803" x1="24.1671" y1="73.1374" x2="26.376" y2="55.9308" gradientUnits="userSpaceOnUse">
<stop stop-color="#FFFADD"/>
<stop offset="0.172" stop-color="#FFF7D7"/>
<stop offset="0.401" stop-color="#FFF1C6"/>
<stop offset="0.663" stop-color="#FFE6AA"/>
<stop offset="0.946" stop-color="#FFD784"/>
<stop offset="0.999" stop-color="#FFD47C"/>
</linearGradient>
<linearGradient id="paint3_linear_74_17803" x1="32.4932" y1="96.3889" x2="47.6035" y2="96.3889" gradientUnits="userSpaceOnUse">
<stop stop-color="#FF9B2F"/>
<stop offset="0.441" stop-color="#FF9B2F"/>
<stop offset="1" stop-color="#CA6D00"/>
</linearGradient>
<linearGradient id="paint4_linear_74_17803" x1="48.6412" y1="81.7077" x2="50.7911" y2="64.7279" gradientUnits="userSpaceOnUse">
<stop stop-color="#FFFADD"/>
<stop offset="0.172" stop-color="#FFF7D7"/>
<stop offset="0.401" stop-color="#FFF1C6"/>
<stop offset="0.663" stop-color="#FFE6AA"/>
<stop offset="0.946" stop-color="#FFD784"/>
<stop offset="0.999" stop-color="#FFD47C"/>
</linearGradient>
<linearGradient id="paint5_linear_74_17803" x1="57.7484" y1="102.546" x2="71.5302" y2="102.559" gradientUnits="userSpaceOnUse">
<stop offset="0.001" stop-color="#F28000"/>
<stop offset="0.321" stop-color="#E67B00"/>
<stop offset="0.507" stop-color="#CA6C00"/>
<stop offset="1" stop-color="#CA6D00"/>
</linearGradient>
<linearGradient id="paint6_linear_74_17803" x1="74.2983" y1="72.5114" x2="76.4267" y2="55.8373" gradientUnits="userSpaceOnUse">
<stop stop-color="#FFFADD"/>
<stop offset="0.172" stop-color="#FFF7D7"/>
<stop offset="0.401" stop-color="#FFF1C6"/>
<stop offset="0.663" stop-color="#FFE6AA"/>
<stop offset="0.946" stop-color="#FFD784"/>
<stop offset="0.999" stop-color="#FFD47C"/>
</linearGradient>
<linearGradient id="paint7_linear_74_17803" x1="83.0122" y1="100.976" x2="94.6793" y2="100.98" gradientUnits="userSpaceOnUse">
<stop offset="0.507" stop-color="#CA6C00"/>
<stop offset="1" stop-color="#CA6D00"/>
</linearGradient>
<linearGradient id="paint8_linear_74_17803" x1="389.843" y1="125.299" x2="389.844" y2="125.329" gradientUnits="userSpaceOnUse">
<stop stop-color="#FFDD00"/>
<stop offset="0.057" stop-color="#FCDA00"/>
<stop offset="0.098" stop-color="#F5D000"/>
<stop offset="0.116" stop-color="#F1CA00"/>
<stop offset="0.893" stop-color="#E3CC00"/>
<stop offset="1" stop-color="#FFF200"/>
</linearGradient>
<linearGradient id="paint9_linear_74_17803" x1="399.021" y1="105.626" x2="405.221" y2="119.013" gradientUnits="userSpaceOnUse">
<stop offset="0.003" stop-color="#CD8F01"/>
<stop offset="0.094" stop-color="#C88B00"/>
<stop offset="0.399" stop-color="#C08500"/>
<stop offset="0.919" stop-color="#BE8400"/>
<stop offset="0.925" stop-color="#C28F08"/>
<stop offset="0.94" stop-color="#CCA519"/>
<stop offset="0.956" stop-color="#D3B525"/>
<stop offset="0.975" stop-color="#D7BF2C"/>
<stop offset="1" stop-color="#D9C22F"/>
</linearGradient>
<linearGradient id="paint10_linear_74_17803" x1="421.027" y1="70.9093" x2="435.764" y2="104.547" gradientUnits="userSpaceOnUse">
<stop stop-color="#FFEA40"/>
<stop offset="0.025" stop-color="#FFE93D"/>
<stop offset="0.043" stop-color="#FFE733"/>
<stop offset="0.059" stop-color="#FFE323"/>
<stop offset="0.074" stop-color="#FFDE0D"/>
<stop offset="0.081" stop-color="#FFDB00"/>
<stop offset="0.509" stop-color="#FCD900"/>
<stop offset="0.76" stop-color="#F4D500"/>
<stop offset="0.966" stop-color="#E6CD00"/>
<stop offset="1" stop-color="#E3CC00"/>
</linearGradient>
<linearGradient id="paint11_linear_74_17803" x1="450.358" y1="100.279" x2="460.749" y2="119.664" gradientUnits="userSpaceOnUse">
<stop offset="0.003" stop-color="#CD8F01"/>
<stop offset="0.094" stop-color="#C88B00"/>
<stop offset="0.399" stop-color="#C08500"/>
<stop offset="0.919" stop-color="#BE8400"/>
<stop offset="0.925" stop-color="#C28F08"/>
<stop offset="0.94" stop-color="#CCA519"/>
<stop offset="0.956" stop-color="#D3B525"/>
<stop offset="0.975" stop-color="#D7BF2C"/>
<stop offset="1" stop-color="#D9C22F"/>
</linearGradient>
<linearGradient id="paint12_linear_74_17803" x1="472.043" y1="61.7046" x2="486.024" y2="92.3657" gradientUnits="userSpaceOnUse">
<stop stop-color="#FFDD00"/>
<stop offset="0.061" stop-color="#FDDA00"/>
<stop offset="0.107" stop-color="#F7D000"/>
<stop offset="0.147" stop-color="#EEC000"/>
<stop offset="0.184" stop-color="#E1AA00"/>
<stop offset="0.218" stop-color="#D18E00"/>
<stop offset="0.901" stop-color="#CD8C00"/>
<stop offset="1" stop-color="#FFF200"/>
</linearGradient>
<linearGradient id="paint13_linear_74_17803" x1="482.873" y1="96.3342" x2="482.874" y2="96.3467" gradientUnits="userSpaceOnUse">
<stop stop-color="#FFDD00"/>
<stop offset="0.057" stop-color="#FCDA00"/>
<stop offset="0.098" stop-color="#F5D000"/>
<stop offset="0.116" stop-color="#F1CA00"/>
<stop offset="0.893" stop-color="#E3CC00"/>
<stop offset="1" stop-color="#FFF200"/>
</linearGradient>
</defs>
</svg>
