<svg width="28" height="28" viewBox="0 0 28 28" fill="none" xmlns="http://www.w3.org/2000/svg">
<g id="Group 1478">
<path id="Path 2484" d="M27.4841 13.679C27.4851 17.2509 26.0668 20.677 23.5417 23.2034C21.0167 25.7298 17.5917 27.1495 14.0198 27.1504C10.4478 27.1513 7.02176 25.7333 4.49536 23.2083C1.96897 20.6832 0.549024 17.258 0.548096 13.686V13.679C0.5473 10.107 1.9653 6.68109 4.49048 4.15479C7.01566 1.62848 10.441 0.208804 14.0129 0.208008C17.5849 0.207212 21.0111 1.62546 23.5374 4.15064C26.0637 6.67581 27.4833 10.1012 27.4841 13.6731V13.679Z" fill="#156DD1"/>
<path id="Path 2485" d="M16.4403 13.679C16.4403 14.1584 16.298 14.627 16.0316 15.0256C15.7653 15.4243 15.3867 15.735 14.9437 15.9185C14.5008 16.1019 14.0136 16.1499 13.5433 16.0564C13.0731 15.9629 12.6411 15.7321 12.3021 15.3931C11.9631 15.0541 11.7321 14.6221 11.6386 14.1519C11.545 13.6816 11.5933 13.1944 11.7767 12.7515C11.9602 12.3085 12.2707 11.9299 12.6693 11.6636C13.0679 11.3972 13.5366 11.2549 14.016 11.2549C14.6588 11.2551 15.2753 11.5108 15.7299 11.9653C16.1844 12.4199 16.44 13.0362 16.4403 13.679Z" fill="white"/>
<path id="Path 2486" d="M13.1799 15.4451H14.8523V27.145H13.1799V15.4451Z" fill="white"/>
</g>
</svg>
