<svg width="26" height="26" viewBox="0 0 26 26" fill="none" xmlns="http://www.w3.org/2000/svg">
<g id="Group 1485">
<path id="Path 2497" d="M25.5379 13.229C25.5379 15.723 24.7985 18.1612 23.4129 20.2349C22.0273 22.3086 20.0579 23.9247 17.7537 24.8792C15.4496 25.8336 12.9142 26.0832 10.4681 25.5967C8.02198 25.1101 5.77508 23.909 4.01154 22.1455C2.248 20.382 1.04693 18.1353 0.560369 15.6892C0.0738093 13.2431 0.323721 10.7075 1.27814 8.40332C2.23256 6.09914 3.84848 4.12975 5.92219 2.74414C7.99589 1.35854 10.434 0.618897 12.928 0.618897C14.5841 0.618765 16.2238 0.944948 17.7537 1.57861C19.2837 2.21228 20.6741 3.14104 21.845 4.31201C23.016 5.48298 23.9448 6.87335 24.5784 8.40332C25.2121 9.9333 25.538 11.573 25.5379 13.229Z" fill="white"/>
<g id="Group 1484">
<path id="Path 2498" d="M12.8291 22.6699C14.019 22.6734 15.1861 22.3417 16.1963 21.7128C16.7965 21.3536 17.332 20.8959 17.7802 20.3588C18.0523 20.0282 18.2955 19.675 18.5073 19.3029C18.8966 18.5751 19.1431 17.7794 19.2334 16.9589C19.3386 16.0393 19.2601 15.108 19.0024 14.219C18.523 12.6184 17.4791 11.246 16.0644 10.3569C15.8644 10.2249 15.7341 10.1259 15.5361 9.99385C15.2721 9.79385 14.8095 9.56506 14.4795 9.82906C14.2117 10.2024 14.083 10.6577 14.1162 11.1159C14.1162 14.2519 14.0832 17.3549 14.1162 20.4909C14.0832 20.7559 14.1825 21.086 13.9165 21.218C13.6302 21.3814 13.3171 21.4932 12.9922 21.5481C12.724 21.5801 12.452 21.5457 12.2002 21.448C11.9666 21.3921 11.7508 21.2786 11.5722 21.1179C11.3412 20.9179 11.4724 20.557 11.4404 20.259V10.686C11.4448 10.5073 11.4112 10.3297 11.3423 10.1648C11.2733 9.99985 11.1707 9.85139 11.0405 9.72896C10.9679 9.69628 10.8887 9.6794 10.8091 9.6794C10.7294 9.6794 10.6507 9.69628 10.5781 9.72896C10.2299 9.89496 9.89867 10.0939 9.58835 10.323C9.04647 10.6432 8.55639 11.0441 8.13523 11.5119C7.77296 11.8871 7.4624 12.3089 7.2114 12.7661C6.80618 13.4599 6.52669 14.2198 6.3862 15.0109C6.2598 15.7417 6.24895 16.4877 6.35349 17.2219C6.53318 18.3445 6.99919 19.4019 7.70651 20.2919C8.42316 21.1603 9.34094 21.8403 10.3803 22.2729C11.1738 22.5202 11.9981 22.6539 12.8291 22.6699ZM12.8291 8.04586H13.0932C13.1592 8.04586 13.1933 8.0129 13.2583 8.0129L13.3901 7.94698C13.4231 7.91398 13.4904 7.91406 13.5224 7.88106L13.6543 7.8149L13.7544 7.71504C13.8204 7.68204 13.8202 7.61496 13.8862 7.58296L13.9863 7.48287C14.0193 7.41687 14.0524 7.38307 14.0864 7.31807L14.1523 7.18599L14.2182 7.05391L14.2514 6.92208C14.2844 6.85608 14.2512 6.79004 14.2842 6.75704V6.35689C14.2571 6.2939 14.246 6.2253 14.2514 6.15694L14.2182 6.02486C14.1834 5.90589 14.1275 5.79429 14.0532 5.69503L13.9531 5.59493C13.9201 5.52893 13.8533 5.49489 13.8213 5.42989C13.7553 5.42989 13.7214 5.36404 13.6894 5.33004L13.5893 5.26387C13.5563 5.23087 13.5232 5.19795 13.4892 5.19795C13.4149 5.1587 13.3377 5.12517 13.2583 5.09786C13.2253 5.06486 13.1924 5.0309 13.1264 5.0649H12.6645C12.5985 5.0979 12.5323 5.06486 12.4643 5.09786C12.3963 5.13086 12.3321 5.13102 12.2641 5.16402L12.1323 5.22994C12.0663 5.22994 12.0325 5.29586 12.0005 5.29586L11.8672 5.39595C11.8012 5.39595 11.8011 5.46205 11.7671 5.49605L11.6675 5.5959C11.5939 5.67086 11.5376 5.76111 11.5024 5.86006C11.5024 5.89306 11.4695 5.9259 11.4365 5.9919L11.3701 6.12398C11.3751 6.181 11.3639 6.23829 11.3374 6.28902C11.321 6.40947 11.321 6.53161 11.3374 6.65206C11.3286 6.70923 11.34 6.76744 11.3701 6.81685C11.3765 6.88769 11.3995 6.95631 11.4365 7.01705C11.4365 7.08305 11.4694 7.08288 11.5024 7.14888L11.5683 7.28096C11.6013 7.34696 11.6682 7.41291 11.7002 7.48091L11.8003 7.58101L11.9004 7.68087L12.0332 7.78096C12.0992 7.81396 12.1652 7.81406 12.1982 7.88106L12.33 7.91402L12.4624 7.94698C12.5284 7.94698 12.5624 7.97994 12.6274 7.97994C12.6604 8.04594 12.7591 8.01286 12.8271 8.04586H12.8291Z" fill="#F58220"/>
<path id="Path 2499" d="M16.0034 5.40589C16.0332 5.31211 16.0837 5.22616 16.1513 5.15467C16.219 5.08318 16.302 5.02804 16.394 4.99305C16.486 4.95806 16.5845 4.9443 16.6826 4.95277C16.7806 4.96123 16.8758 4.99164 16.9604 5.04188C17.6525 5.56351 18.2937 6.14945 18.8754 6.79188C19.713 7.57337 20.4151 8.48809 20.954 9.49891C21.4961 10.5535 21.8007 11.7139 21.8461 12.8988C21.9526 14.0932 21.8067 15.2966 21.4174 16.4308C20.6893 18.6 19.1838 20.4229 17.1913 21.548C15.8382 22.2886 14.3184 22.6712 12.7758 22.6598C11.2333 22.6484 9.71901 22.2433 8.37689 21.4828C7.03478 20.7223 5.90888 19.6318 5.10639 18.3143C4.30389 16.9969 3.85152 15.4964 3.79144 13.955C3.70666 12.5877 3.9439 11.2196 4.48432 9.96082C5.05035 8.71499 5.87151 7.60188 6.89447 6.693C7.42028 6.09525 8.00641 5.55319 8.6435 5.07581C8.70954 5.01921 8.78704 4.97829 8.87103 4.9557C8.95503 4.9331 9.04332 4.92938 9.12885 4.9452C9.21438 4.96102 9.29531 4.99586 9.36566 5.047C9.43602 5.09815 9.49367 5.16437 9.5351 5.24085C9.88792 5.77977 10.0721 6.41171 10.0634 7.05579C9.99742 8.11179 9.04042 8.77279 8.31342 9.39979C7.46893 10.1515 6.79402 11.0743 6.33344 12.1068C5.86568 13.096 5.63902 14.1823 5.6723 15.276C5.67796 16.4572 5.95834 17.6208 6.49115 18.6749C7.02397 19.7291 7.79444 20.645 8.74213 21.35C9.9876 22.2522 11.4969 22.7162 13.0341 22.6698C14.0805 22.6351 15.106 22.3684 16.0366 21.8888C16.9672 21.4092 17.78 20.7288 18.4155 19.8969C19.555 18.4191 20.118 16.5773 19.9995 14.715C19.9257 13.5942 19.6102 12.5024 19.0751 11.5148C18.5855 10.6325 17.9361 9.84903 17.1601 9.20399C16.4912 8.75018 15.974 8.10594 15.6752 7.35487C15.5709 6.68725 15.6869 6.00381 16.0053 5.40784L16.0034 5.40589Z" fill="#F58220"/>
</g>
</g>
</svg>
