<svg width="21" height="12" viewBox="0 0 21 12" fill="none" xmlns="http://www.w3.org/2000/svg">
<g id="Group 1090">
<g id="Group 979">
<g id="Group 978">
<path id="Path 827" d="M17.3331 1.90903C16.3831 1.90903 15.4945 1.91603 14.6055 1.90903C14.4827 1.92276 14.3574 1.9078 14.2413 1.86536C14.1251 1.82292 14.0207 1.75413 13.9356 1.6644C13.8505 1.57468 13.7873 1.46647 13.751 1.34824C13.7148 1.23002 13.7064 1.10498 13.7266 0.983007C13.7595 0.769271 13.8754 0.577063 14.0489 0.447942C14.2224 0.318822 14.4402 0.263194 14.6544 0.293035C16.0714 0.293035 17.4893 0.293035 18.9063 0.293035C19.0563 0.293035 19.2065 0.280035 19.3585 0.293035C19.4625 0.294983 19.5649 0.317434 19.6602 0.359136C19.7555 0.400839 19.8411 0.460972 19.9132 0.536047C19.9852 0.611121 20.0415 0.69965 20.0792 0.796606C20.1169 0.893562 20.1353 0.99702 20.1329 1.10102C20.1395 2.69435 20.1395 4.28768 20.1329 5.88102C20.1421 5.99101 20.1285 6.10173 20.0928 6.20618C20.0572 6.31063 20.0004 6.40656 19.9258 6.48795C19.8513 6.56934 19.7611 6.63443 19.6602 6.67911C19.5593 6.7238 19.4493 6.74714 19.3389 6.74762C19.2286 6.74811 19.1199 6.72575 19.0186 6.68195C18.9173 6.63815 18.8263 6.57384 18.751 6.49311C18.6758 6.41237 18.6177 6.31694 18.5811 6.2128C18.5445 6.10867 18.5299 5.99807 18.5382 5.88801C18.5282 5.09801 18.5382 4.30801 18.5382 3.51801V3.14301C18.3472 3.16601 18.2825 3.30201 18.1915 3.39301C16.2728 5.30568 14.3561 7.22101 12.4415 9.13901C11.8935 9.68401 11.5178 9.68301 10.9688 9.13901C9.96882 8.13901 8.95282 7.14601 7.96882 6.12501C7.71982 5.86701 7.60865 5.92502 7.39265 6.14402C5.72465 7.82902 4.04416 9.50103 2.37116 11.18C2.28594 11.2888 2.17839 11.378 2.05573 11.4417C1.93308 11.5053 1.79823 11.5419 1.66023 11.549C1.52058 11.5503 1.38336 11.5139 1.26276 11.4435C1.14217 11.373 1.04215 11.2713 0.974678 11.149C0.896949 11.0259 0.857492 10.883 0.859444 10.7374C0.861397 10.5918 0.905394 10.45 0.986397 10.329C1.05674 10.2254 1.13874 10.1302 1.23054 10.045C3.14454 8.12835 5.05899 6.21237 6.97566 4.29703C7.05244 4.17984 7.15727 4.08347 7.28034 4.01652C7.40342 3.94956 7.54161 3.9141 7.68171 3.91331C7.82181 3.91251 7.95925 3.94641 8.08308 4.01197C8.2069 4.07752 8.31259 4.17269 8.39069 4.28901C9.42203 5.31634 10.4522 6.34535 11.4796 7.37601C11.6066 7.50301 11.6907 7.62901 11.8887 7.42701C13.6641 5.63634 15.4461 3.85136 17.2335 2.07203C17.2699 2.01968 17.3029 1.96526 17.3331 1.90903Z" fill="#0BD19D"/>
</g>
</g>
</g>
</svg>
