<svg width="24" height="24" viewBox="0 0 24 24" fill="none" xmlns="http://www.w3.org/2000/svg">
<g id="Group 419">
<g id="Group 418">
<path id="Path 796" d="M11.8819 23.8219C10.2216 23.8219 8.56176 23.8259 6.9015 23.8219C4.36019 23.8146 2.53983 22.0078 2.53073 19.4818C2.52491 17.9103 2.52491 16.3387 2.53073 14.767C2.53073 14.0601 2.84142 13.6371 3.35579 13.6163C3.88944 13.5949 4.25069 14.0503 4.25288 14.7702C4.25724 16.3417 4.24926 17.9132 4.25581 19.4847C4.26272 21.0784 5.27722 22.1115 6.86509 22.1162C10.2297 22.1257 13.5943 22.1257 16.9587 22.1162C17.3033 22.1339 17.6478 22.0789 17.9697 21.9546C18.2917 21.8303 18.5838 21.6395 18.8271 21.3948C19.0704 21.15 19.2594 20.8569 19.3818 20.5342C19.5042 20.2115 19.5573 19.8667 19.5375 19.5222C19.5462 17.9507 19.5374 16.3788 19.5407 14.8073C19.5407 14.0706 19.8725 13.6193 20.4003 13.6145C20.9282 13.6098 21.2621 14.0551 21.2632 14.7975C21.2665 16.369 21.2705 17.9408 21.2632 19.5123C21.2771 20.0842 21.1743 20.6529 20.9611 21.1837C20.7479 21.7145 20.4287 22.1963 20.023 22.5996C19.6174 23.0029 19.1339 23.3194 18.6019 23.5296C18.0699 23.7399 17.5006 23.8394 16.9289 23.8223C15.2464 23.827 13.5643 23.8219 11.8819 23.8219Z" fill="white"/>
<path id="Path 797" d="M11.8236 2.0461C10.6232 3.27601 9.44456 4.50045 8.24702 5.70708C6.06439 7.90523 3.87667 10.0977 1.68385 12.2845C1.33026 12.6384 0.966851 12.9811 0.414645 12.6482C-0.131013 12.3208 -0.142936 11.6944 0.407451 11.1415C2.56171 8.97847 4.72002 6.81895 6.88252 4.66275C8.27431 3.27023 9.66623 1.87778 11.0583 0.485499C11.7072 -0.160923 12.0954 -0.162742 12.7429 0.485499C16.28 4.01869 19.8103 7.55871 23.3338 11.1055C23.4699 11.2509 23.5749 11.4225 23.6426 11.6098C23.7102 11.7971 23.7392 11.9961 23.7274 12.1949C23.6161 12.8825 22.8085 12.9669 22.2148 12.3798C20.9093 11.0887 19.6182 9.78281 18.3224 8.48342C16.3212 6.47928 14.3198 4.47599 12.3181 2.47354C12.1918 2.34986 12.0517 2.24326 11.8236 2.0461Z" fill="white"/>
</g>
</g>
</svg>
