<svg width="28" height="30" viewBox="0 0 28 30" fill="none" xmlns="http://www.w3.org/2000/svg">
<g id="Group 1108">
<path id="Path 1503" fill-rule="evenodd" clip-rule="evenodd" d="M14.1621 3.43085L3.94727 17.6309L5.30615 27.0309L6.63721 29.7989C9.80582 29.6787 12.8787 28.6806 15.5132 26.9159C19.1285 20.1159 22.744 13.3179 26.3594 6.52185L20.0845 1.57886L14.1621 3.43085Z" fill="white"/>
<path id="Path 1504" fill-rule="evenodd" clip-rule="evenodd" d="M19.1954 5.81388C20.3294 4.42188 20.6042 2.7669 19.8082 2.1309C19.0122 1.4949 17.4382 2.11091 16.3082 3.50291C15.1782 4.89491 14.9004 6.54993 15.6954 7.18693C16.4904 7.82393 18.0624 7.20688 19.1954 5.81388ZM21.7252 21.1419C27.6682 13.7029 29.0142 4.86388 24.7252 1.46488C20.4362 -1.93412 12.0842 1.35891 6.14121 8.79691C0.198213 16.2349 -1.14679 25.0749 3.14121 28.4739C4.18039 29.273 5.43962 29.7341 6.74912 29.7949C7.7354 29.33 8.50625 28.5048 8.90244 27.4889C9.16844 26.7649 11.6794 19.9019 11.9894 16.5519C12.2174 14.0749 11.2224 13.9629 10.6554 14.1889C9.93253 14.5573 9.16314 14.8264 8.36826 14.9889C7.68226 15.0269 7.6064 14.6079 7.9874 14.1119C8.3684 13.6159 13.7442 8.52989 15.7232 8.77689C16.0182 8.82873 16.2976 8.94738 16.5397 9.1237C16.7817 9.30001 16.98 9.52935 17.1197 9.79417C17.2595 10.059 17.3368 10.3522 17.3458 10.6515C17.3548 10.9508 17.2951 11.2482 17.1715 11.5209C16.8285 12.5119 15.6851 16.7789 15.2281 18.9899C14.7119 21.112 14.4307 23.2844 14.3893 25.4679C14.3921 25.7888 14.4805 26.1031 14.6456 26.3783C14.8107 26.6534 15.0464 26.8795 15.3282 27.0329C17.7589 25.4202 19.918 23.4317 21.7252 21.1419Z" fill="#D2562E"/>
<path id="Path 1505" fill-rule="evenodd" clip-rule="evenodd" d="M19.195 5.81388C20.329 4.42188 20.6038 2.76689 19.8078 2.13089C19.0118 1.49489 17.4378 2.1109 16.3078 3.5029C15.1778 4.8949 14.9 6.54992 15.695 7.18692C16.49 7.82392 18.062 7.20688 19.195 5.81388ZM22.8307 17.7459C27.7697 11.5099 28.5112 4.09888 24.4802 1.24588C20.4492 -1.60712 13.134 1.15692 8.195 7.39292C3.256 13.6289 2.51508 21.0399 6.54608 23.8929C7.50243 24.5492 8.62082 24.9297 9.77899 24.9929C10.7783 22.254 11.5178 19.4272 11.988 16.5499C12.217 14.0739 11.222 13.9609 10.654 14.1879C9.93151 14.5563 9.16242 14.8254 8.36785 14.9879C7.68185 15.0259 7.60599 14.6069 7.98699 14.1119C8.36799 13.6169 13.7428 8.52889 15.7228 8.77689C16.0177 8.82858 16.2967 8.94706 16.5388 9.12326C16.7808 9.29947 16.9796 9.52874 17.1193 9.79349C17.2591 10.0582 17.3364 10.3515 17.3454 10.6507C17.3544 10.95 17.2947 11.2473 17.1711 11.5199C16.8281 12.5109 15.6847 16.7789 15.2267 18.9889C14.8531 20.7115 14.5761 22.4535 14.3962 24.2069C17.7276 22.8323 20.6368 20.603 22.8307 17.7439V17.7459Z" fill="#BA2A2F"/>
</g>
</svg>
