<svg width="28" height="24" viewBox="0 0 28 24" fill="none" xmlns="http://www.w3.org/2000/svg">
<g id="Group 1106">
<path id="Path 1492" d="M18.1392 15.2111L17.1304 16.2271L16.1494 15.2181L15.6201 13.6481L14.1201 13.1301V12.152H13.1431L12.6274 14.6331L13.1562 16.233L10.8564 17.2521L10.1562 16.243L10.6411 15.228V14.1451L9.14111 14.1511L7.1582 16.251L5.6582 15.767L5.65039 13.673L3.03027 13.2621L1.14941 14.2811L0.0302734 13.795L0.0234375 11.6661L1.0332 11.173L5.04248 9.17303L5.63721 9.66003L7.13721 8.15503V7.17603L9.12109 5.17603L10.1274 3.04303L11.6191 0.559082L14.0972 0.059082H15.1094V1.03607L17.1094 3.02008L17.1162 5.15002L20.2344 8.10706L23.2432 10.1221L24.7432 10.6061L25.2725 12.1061L27.2661 13.077L26.2563 14.092H25.2793V13.0801L23.7793 12.595L21.2583 10.1251L19.2642 9.11908L17.1245 6.12408L16.1445 5.14905L16.6274 3.54108L15.1211 2.04108L14.1113 3.02106L14.1182 5.15204L13.1445 6.13306L15.1445 8.11603L14.1353 9.13104L16.1665 11.1151V12.1271L17.1504 14.1141H18.1631L19.2773 13.0981L18.7524 12.6111L18.1523 11.1111H19.2695L20.2534 13.0981L21.2695 14.1071L18.1392 15.2111Z" fill="white"/>
<path id="Path 1493" d="M0.0454102 23.091L0.0273438 17.785L1.14307 17.292L1.16211 23.092L0.0454102 23.091Z" fill="white"/>
<path id="Path 1494" d="M5.77148 23.0732H4.65332L4.64551 20.7732C4.64551 20.0732 4.36431 19.8671 3.94531 19.8681C3.45631 19.8681 3.24512 20.0802 3.24512 20.7782L3.25342 23.0782H2.17139L2.15723 18.8542H3.23926V19.1692C3.36999 19.0356 3.52817 18.9318 3.70264 18.8648C3.8771 18.7979 4.06399 18.7694 4.25049 18.7812C5.22749 18.7812 5.7503 19.4742 5.7583 20.6612" fill="white"/>
<path id="Path 1495" d="M10.2607 18.8311L8.77295 23.061H7.65576L6.14062 18.8411H7.36279L7.96289 20.759C8.0286 21.0922 8.12269 21.4191 8.24463 21.7361C8.28367 21.4042 8.35267 21.0765 8.45068 20.7571L9.03857 18.8351" fill="white"/>
<path id="Path 1496" d="M13.2684 20.431C13.244 20.2366 13.1493 20.0579 13.0018 19.9289C12.8544 19.7999 12.6646 19.7295 12.4686 19.731C12.2592 19.7211 12.0529 19.7861 11.8871 19.9144C11.7213 20.0426 11.6069 20.2258 11.5639 20.431M12.5849 23.115C12.2968 23.1247 12.01 23.0741 11.7426 22.9666C11.4752 22.8591 11.2328 22.697 11.0316 22.4905C10.8305 22.2841 10.6747 22.038 10.5741 21.7679C10.4735 21.4978 10.4305 21.2097 10.4476 20.922C10.4297 20.6451 10.4683 20.3674 10.5614 20.106C10.6545 19.8446 10.8002 19.605 10.9891 19.4017C11.1781 19.1985 11.4061 19.036 11.66 18.9241C11.914 18.8122 12.1882 18.7533 12.4657 18.751C12.7353 18.7579 13.0003 18.8206 13.2445 18.9351C13.4887 19.0495 13.7069 19.2134 13.8847 19.4162C14.0624 19.619 14.1958 19.8564 14.2772 20.1135C14.3587 20.3706 14.3863 20.6418 14.3578 20.91V21.328L11.5648 21.338C11.6285 21.5526 11.764 21.7386 11.9486 21.8652C12.1332 21.9917 12.3554 22.051 12.5785 22.033C12.8721 22.0151 13.1526 21.9041 13.3788 21.716L14.1498 22.342C13.9645 22.5819 13.7269 22.7764 13.455 22.9103C13.183 23.0443 12.8836 23.1143 12.5805 23.115H12.5849Z" fill="white"/>
<path id="Path 1497" d="M16.7666 22.131C17.1506 22.131 17.3599 22.024 17.3599 21.815C17.3599 21.536 16.9738 21.432 16.7598 21.433C15.9598 21.226 14.9429 21.1239 14.9399 20.0429C14.9399 19.2429 15.74 18.743 16.646 18.743C17.2198 18.7317 17.7825 18.901 18.2549 19.227L17.6636 20.027C17.3619 19.8291 17.0106 19.7213 16.6499 19.716C16.1609 19.716 16.0556 19.823 16.0566 20.032C16.0566 20.207 16.6508 20.3089 16.9658 20.4129C17.7658 20.6199 18.4657 20.827 18.4717 21.7C18.4717 22.607 17.5716 23.1 16.6606 23.1C16.0125 23.0755 15.3837 22.8724 14.8438 22.513L15.4697 21.813C15.8665 22.0259 16.3115 22.1327 16.7617 22.123" fill="white"/>
<path id="Path 1498" d="M21.1572 19.8099C20.9669 19.8093 20.7796 19.8581 20.6138 19.9515C20.4479 20.0449 20.3091 20.1797 20.2109 20.3428C20.1128 20.5059 20.059 20.6917 20.0542 20.882C20.0494 21.0723 20.0939 21.2606 20.1836 21.4285C20.2733 21.5963 20.405 21.7381 20.5659 21.8398C20.7268 21.9415 20.9114 21.9997 21.1016 22.0087C21.2917 22.0177 21.4811 21.9772 21.6509 21.8912C21.8207 21.8052 21.9651 21.6766 22.0703 21.5179L22.9805 22.218C22.7554 22.4814 22.4779 22.6954 22.166 22.8465C21.8542 22.9976 21.5147 23.0826 21.1685 23.0959C20.8819 23.0969 20.5976 23.0413 20.3325 22.9325C20.0674 22.8237 19.8268 22.6638 19.6235 22.4618C19.213 22.0539 18.9814 21.4997 18.9795 20.921C18.9776 20.3423 19.2054 19.7865 19.6133 19.376C20.0212 18.9655 20.5756 18.7338 21.1543 18.7319C21.5007 18.7434 21.841 18.8264 22.1538 18.9756C22.4667 19.1248 22.7452 19.337 22.9722 19.5989L22.0664 20.299C21.9665 20.1496 21.8309 20.0272 21.6724 19.9426C21.5138 19.858 21.3369 19.8138 21.1572 19.8139" fill="white"/>
<path id="Path 1499" d="M26.4683 20.8761C26.4544 20.6703 26.3802 20.4731 26.2549 20.3092C26.1296 20.1453 25.9587 20.0219 25.7637 19.9545C25.5687 19.887 25.3585 19.8786 25.1587 19.9301C24.9589 19.9815 24.7787 20.0907 24.6406 20.244C24.5026 20.3973 24.4128 20.5879 24.3823 20.7919C24.3519 20.996 24.3819 21.2045 24.4692 21.3914C24.5566 21.5783 24.697 21.7353 24.8731 21.8428C25.0491 21.9504 25.2533 22.0037 25.4595 21.9961C25.6009 21.9938 25.7399 21.9623 25.8687 21.9037C25.9974 21.8452 26.1129 21.7607 26.2075 21.6556C26.3022 21.5506 26.3741 21.4271 26.419 21.293C26.4638 21.1589 26.4806 21.017 26.4683 20.8761ZM27.5503 20.8711C27.5646 21.1547 27.5212 21.4382 27.4229 21.7045C27.3245 21.9709 27.1732 22.2145 26.978 22.4207C26.7829 22.6269 26.5481 22.7914 26.2876 22.9042C26.0271 23.0171 25.7463 23.0758 25.4624 23.0771C25.1759 23.078 24.892 23.0225 24.627 22.9137C24.3619 22.8049 24.1208 22.645 23.9175 22.443C23.7142 22.241 23.5524 22.001 23.4419 21.7366C23.3314 21.4722 23.2744 21.1886 23.2734 20.9021C23.2725 20.6156 23.3277 20.3317 23.4365 20.0666C23.5453 19.8015 23.7053 19.5604 23.9072 19.3572C24.1092 19.1539 24.3494 18.9924 24.6138 18.8819C24.8782 18.7714 25.1617 18.7141 25.4483 18.7131C25.7291 18.7128 26.0073 18.7687 26.2661 18.8777C26.525 18.9868 26.7596 19.1466 26.9556 19.3478C27.1516 19.5491 27.3051 19.7875 27.4072 20.0492C27.5094 20.3108 27.5581 20.5903 27.5503 20.8711Z" fill="white"/>
</g>
</svg>
