<svg width="38" height="19" viewBox="0 0 38 19" fill="none" xmlns="http://www.w3.org/2000/svg">
<path id="Union 13" opacity="0.5" d="M17.5332 17.5561C16.9289 16.8983 16.6 16.0335 16.6147 15.1404C16.6294 14.2472 16.9861 13.3937 17.6118 12.7561L17.6221 12.7461L19.6851 11.7391L23.8931 9.68411L28.5791 7.39911L26.3042 11.2171L23.5132 15.8991L22.333 17.8721L22.3208 17.8821C21.6329 18.4529 20.7522 18.7374 19.8604 18.6768C18.9686 18.6161 18.134 18.2149 17.5298 17.5561H17.5332ZM29.7661 17.9871C29.58 15.8049 28.7215 13.734 27.3091 12.0601L32.7031 6.66711C35.5323 9.78345 37.193 13.7844 37.4028 17.9881L29.7661 17.9871ZM0.910156 17.9871C1.12173 13.7838 2.78222 9.78339 5.60986 6.66611L11.0098 12.0661C9.59338 13.7366 8.73261 15.8069 8.54688 17.9891L0.910156 17.9871ZM6.91016 5.36212C10.0277 2.5349 14.0277 0.874174 18.231 0.662109V8.30011C16.0495 8.48775 13.9802 9.34761 12.3081 10.7611L6.91016 5.36212ZM20.0762 8.29611V0.664124C23.6526 0.840081 27.097 2.07002 29.9761 4.19913L21.8398 8.59912C21.2622 8.4492 20.6729 8.34915 20.0781 8.30011L20.0762 8.29611ZM29.9761 4.19614C30.0391 4.24314 30.1002 4.28913 30.1582 4.33813L29.9761 4.19614Z" fill="white"/>
</svg>
