<svg width="28" height="27" viewBox="0 0 28 27" fill="none" xmlns="http://www.w3.org/2000/svg">
<g id="Group 1111">
<path id="Path 1508" d="M1.97607 0.94888C1.71078 0.944309 1.4543 1.04475 1.2627 1.2283C1.07109 1.41185 0.959943 1.66368 0.953125 1.92892V25.1889C0.959684 25.4543 1.07058 25.7064 1.26221 25.8902C1.45384 26.0739 1.71061 26.1745 1.97607 26.1699H27.457V0.94888H1.97607Z" fill="#1D4E9E"/>
<path id="Path 1509" d="M15.2461 12.8208C15.5764 12.6565 15.8654 12.4201 16.0923 12.1292C16.3192 11.8383 16.4782 11.5002 16.5571 11.1398C16.5571 10.8078 16.0171 10.5308 15.2461 10.4008V10.5308C15.8631 10.6418 16.2871 10.8448 16.2871 11.0108C16.2871 11.1588 15.9209 11.3108 15.3999 11.3808H15.3809C15.3351 11.3778 15.2895 11.3839 15.2461 11.3988V12.8208ZM14.3398 10.3308C14.3978 10.1458 14.4748 9.94282 14.5518 9.70282C14.694 9.16209 14.6251 8.58751 14.3589 8.09583C14.2439 7.87383 13.9741 7.22778 13.9741 7.22778C13.8241 7.9031 13.57 8.55113 13.2217 9.1488C13.1766 9.42337 13.2316 9.70499 13.376 9.94281C13.454 10.0718 13.549 10.2198 13.627 10.3488C13.4389 10.3688 13.2522 10.3998 13.0679 10.4418V10.5528C13.2778 10.5091 13.4904 10.4781 13.7041 10.4598C13.7231 10.4958 13.7618 10.5148 13.7808 10.5528C13.9093 10.7024 13.9838 10.8908 13.9927 11.0878C13.9927 11.4198 13.4149 11.4198 13.0679 11.3828V12.7308C13.4182 12.9579 13.8266 13.0797 14.2441 13.0818C14.5938 13.0794 14.9373 12.9904 15.2441 12.8228V11.4018C14.8781 11.4018 14.3761 11.3838 14.2441 11.0688C14.2013 10.8586 14.2211 10.6406 14.3018 10.4418C14.6186 10.4411 14.9352 10.4716 15.2461 10.5328V10.4038C14.9461 10.3593 14.6431 10.3349 14.3398 10.3308ZM13.0679 10.4418C12.3739 10.5698 11.9111 10.8478 11.9111 11.1418C11.9823 11.4726 12.122 11.7849 12.3213 12.0584C12.5206 12.3319 12.7748 12.5606 13.0679 12.7298V11.3808C12.5089 11.3068 12.1421 11.1588 12.1421 11.0108C12.1421 10.8448 12.5089 10.6598 13.0679 10.5498V10.4388" fill="white"/>
<path id="Path 1510" d="M9.07651 7.66782C9.12443 7.49169 9.16305 7.31312 9.19174 7.13285C9.19174 7.02185 9.11478 6.68986 9.48178 6.89286C9.5413 6.91773 9.59443 6.95553 9.63754 7.00352C9.68066 7.0515 9.71243 7.10843 9.73081 7.17026C9.74918 7.2321 9.7539 7.29726 9.74399 7.361C9.73408 7.42474 9.70995 7.48551 9.67368 7.53886C9.59668 7.70486 9.40395 8.27787 9.30795 8.48087L8.90268 9.55186C8.90268 9.55186 8.86458 9.64486 8.84458 9.68186C8.72962 10.0646 8.69081 10.4661 8.72983 10.8639L8.80698 11.5638C8.80698 11.5638 8.82564 11.6188 8.88364 11.5638C8.88364 11.5638 8.96068 11.5268 8.90268 11.1758C8.90268 11.1758 8.9027 10.4558 8.9227 10.3078C8.95104 10.0776 8.9961 9.84968 9.05698 9.62583C9.09598 9.53283 9.11474 9.51487 9.19174 9.31187C9.26974 9.08987 9.51987 8.46183 9.51987 8.46183C9.66682 8.18112 9.79519 7.89119 9.90463 7.59385C10.0069 7.31638 10.0531 7.0213 10.0399 6.72587C10.0399 6.72587 10.0019 6.59587 10.0599 6.54087C10.1318 6.52222 10.2065 6.51913 10.2796 6.5319C10.3528 6.54466 10.4224 6.57296 10.4837 6.61484C10.5621 6.6679 10.6261 6.73966 10.6698 6.82365C10.7134 6.90763 10.7354 7.00122 10.7337 7.09586C10.6796 7.44481 10.5825 7.78575 10.4447 8.11088C10.3849 8.24588 10.3141 8.37567 10.2328 8.49888C10.083 8.78653 9.94959 9.08231 9.83286 9.38486C9.81403 9.43212 9.78757 9.47602 9.75473 9.51487C9.677 9.732 9.61298 9.95376 9.56284 10.1789C9.49924 10.4275 9.45386 10.6805 9.42758 10.9358C9.4289 11.2351 9.46776 11.5331 9.54282 11.8229C9.54282 11.8229 9.56294 11.9148 9.62094 11.9148C9.67894 11.9148 9.67758 11.7148 9.67758 11.6938C9.6712 11.5884 9.65811 11.4836 9.63852 11.3799C9.61952 11.3059 9.63852 10.6798 9.63852 10.6798C9.67277 10.4149 9.73789 10.1549 9.83188 9.90482C9.88988 9.79382 9.93173 9.60485 10.0047 9.44285C10.1217 9.18385 10.2367 8.94285 10.2367 8.94285C10.2367 8.94285 10.6605 8.05683 10.6805 8.00083C10.7941 7.72108 10.8779 7.43016 10.9305 7.13285C10.9294 6.98322 10.949 6.83415 10.9886 6.68986C10.9886 6.68986 10.9496 6.48984 11.2196 6.59684C11.3328 6.64153 11.433 6.71413 11.5106 6.80784C11.5882 6.90154 11.6411 7.01333 11.6639 7.13285C11.6639 7.13285 11.7028 7.33283 11.6248 7.35483C11.5248 7.39083 11.49 7.33584 11.432 7.39084C11.4125 7.40619 11.3967 7.42606 11.3866 7.44871C11.3765 7.47135 11.3723 7.4961 11.3739 7.52085C11.3549 7.59485 11.2978 7.83487 11.2738 7.88987C11.2734 8.01511 11.2537 8.13951 11.2157 8.25883C11.1387 8.45883 10.9075 9.12686 10.8875 9.16386C10.8875 9.16386 10.7337 9.60687 10.7147 9.64487C10.7034 9.69107 10.6837 9.73477 10.6566 9.77384C10.6566 9.79184 10.4446 10.5119 10.4256 10.6789C10.3859 10.8915 10.3663 11.1075 10.3675 11.3238C10.3806 11.5178 10.4142 11.7099 10.4676 11.8968C10.4676 11.8968 10.4877 11.9529 10.5677 11.9339C10.6247 11.9159 10.5087 11.6939 10.5477 11.3619C10.5764 11.058 10.6217 10.7558 10.683 10.4568C10.702 10.3278 10.9339 9.69884 10.9339 9.66184C10.9529 9.62584 11.165 8.99788 11.223 8.88688C11.262 8.77588 11.455 8.18687 11.474 8.07487C11.493 7.96287 11.4926 7.66783 11.8006 7.63084C12.1286 7.72384 12.1096 8.27787 12.0706 8.48087C12.031 8.83096 11.94 9.17328 11.8006 9.49686C11.6086 9.92086 11.6278 9.92086 11.6278 9.93986C11.6541 10.1478 11.6668 10.3573 11.6659 10.5669C11.6792 10.7976 11.653 11.0288 11.5887 11.2508C11.4737 11.6018 11.5497 11.6389 11.5697 11.6949C11.6756 11.8489 11.7722 12.0092 11.8587 12.1748C11.8977 12.3218 11.9589 12.6178 11.9749 12.6748C12.0993 12.8092 12.2149 12.9511 12.3216 13.0998C12.3986 13.2478 12.6488 13.6358 12.6688 13.6728C12.6878 13.7278 13.4778 14.6878 13.6908 15.0578C13.913 15.3599 14.0461 15.718 14.0755 16.0918C14.0464 16.3646 13.9473 16.6252 13.787 16.8479C13.7048 16.9491 13.6072 17.0368 13.4979 17.1078C13.4399 17.1448 13.305 17.1998 13.266 17.2918L13.1117 17.9568H10.0858L10.7415 16.8479C10.7415 16.8479 10.9536 16.7198 10.4906 16.1648C10.0345 15.5636 9.61608 14.9347 9.23764 14.2818C9.23764 14.2818 8.52499 13.0998 8.38999 12.8598C8.2206 12.0779 8.16171 11.2761 8.21567 10.4778C8.18676 10.0205 8.27304 9.56322 8.46665 9.14786C8.79465 8.39086 9.08383 7.66984 9.08383 7.66984M19.3836 7.66984C19.3836 7.66984 19.2839 7.22686 19.2679 7.13486C19.2679 7.02386 19.3449 6.69187 18.9789 6.89487C18.9225 6.9233 18.8724 6.96287 18.8319 7.01127C18.7914 7.05966 18.7611 7.11584 18.743 7.17631C18.7249 7.23677 18.7196 7.30027 18.7269 7.36295C18.7342 7.42563 18.7545 7.48619 18.786 7.54087C18.864 7.70687 19.0557 8.27982 19.1717 8.48282L19.5765 9.55387C19.5943 9.59553 19.6072 9.63918 19.6146 9.68387C19.7307 10.0664 19.7703 10.468 19.7308 10.8658L19.6537 11.5658C19.6537 11.5658 19.6335 11.6208 19.5765 11.5658C19.5765 11.5658 19.5 11.5288 19.558 11.1778C19.558 11.1778 19.5579 10.4579 19.5379 10.3099C19.5178 10.0783 19.4723 9.8496 19.4027 9.62784C19.3647 9.53484 19.3449 9.51682 19.2679 9.31382C19.2099 9.09182 18.9398 8.46384 18.9398 8.46384C18.7928 8.18313 18.664 7.89321 18.5545 7.59586C18.4522 7.3184 18.4066 7.02325 18.4198 6.72782C18.4198 6.72782 18.4778 6.59782 18.3998 6.54282C18.3317 6.52491 18.2604 6.52228 18.1913 6.53507C18.1221 6.54786 18.0569 6.5758 17.9998 6.61686C17.9184 6.66825 17.8507 6.73917 17.8036 6.82316C17.7564 6.90715 17.7313 7.00157 17.7298 7.09788C17.7943 7.44448 17.8911 7.78425 18.0189 8.11283C18.0786 8.24784 18.1495 8.37762 18.2308 8.50083C18.2888 8.57483 18.6356 9.35088 18.6546 9.38688C18.6659 9.43339 18.6856 9.4774 18.7127 9.51682C18.791 9.73388 18.8553 9.95566 18.9056 10.1808C19.0811 10.7138 19.0877 11.288 18.9247 11.8249C18.9247 11.8249 18.906 11.9168 18.848 11.9168C18.79 11.9168 18.7899 11.7168 18.7899 11.6958C18.7963 11.5905 18.8094 11.4856 18.829 11.3819C18.848 11.3079 18.829 10.6819 18.829 10.6819C18.7946 10.417 18.7294 10.1569 18.6356 9.90684C18.5862 9.74974 18.5283 9.59553 18.4618 9.44486C18.3965 9.27302 18.3193 9.10595 18.2308 8.94486C18.2308 8.94486 17.831 8.05884 17.807 8.00284C17.6848 7.72452 17.5942 7.43339 17.537 7.13486C17.5381 6.9853 17.5188 6.83628 17.4798 6.69187C17.4798 6.69187 17.5369 6.49185 17.2669 6.59885C17.1497 6.63982 17.0453 6.71089 16.9642 6.80497C16.8831 6.89905 16.8278 7.01285 16.8045 7.13486C16.8045 7.13486 16.7657 7.33485 16.8617 7.35685C16.9387 7.39285 16.997 7.33786 17.036 7.39286C17.0777 7.42446 17.105 7.47113 17.1126 7.52286C17.1272 7.64792 17.1531 7.77137 17.1898 7.89182C17.2011 8.01595 17.2206 8.13923 17.2479 8.26084C17.3249 8.46084 17.5555 9.12887 17.5755 9.16587C17.5755 9.16587 17.7299 9.60883 17.7489 9.64683C17.7679 9.68483 17.788 9.73885 17.807 9.77585C17.9029 10.0725 17.9803 10.3747 18.0389 10.6808C18.0579 10.8458 18.1146 11.1418 18.1146 11.3258C18.0922 11.5186 18.0592 11.7099 18.015 11.8988C18.0042 11.9146 17.9885 11.9267 17.9706 11.9333C17.9526 11.94 17.9333 11.9408 17.9149 11.9358C17.8379 11.9178 17.9529 11.6959 17.9149 11.3639C17.8969 11.0588 17.8514 10.7559 17.7796 10.4588C17.6266 9.92663 17.4463 9.4026 17.2396 8.88883C17.2016 8.77783 17.0276 8.18882 16.9886 8.07682C16.9696 7.96582 16.97 7.66985 16.662 7.63285C16.334 7.72585 16.3529 8.27982 16.3919 8.48282C16.4316 8.83291 16.5226 9.1753 16.662 9.49888C16.874 9.92288 16.8358 9.92287 16.8358 9.94187C16.8085 10.1497 16.7954 10.3592 16.7967 10.5688C16.7829 10.7996 16.8091 11.031 16.8739 11.2528C16.9889 11.6038 16.9119 11.6409 16.8929 11.6969C16.8739 11.7699 16.6619 12.0289 16.6039 12.1769C16.5756 12.3457 16.537 12.5127 16.4886 12.6769C16.3637 12.8107 16.2481 12.9527 16.1419 13.1018C16.0639 13.2498 15.8138 13.6378 15.7938 13.6748C15.7748 13.7298 14.9838 14.6899 14.7718 15.0599C14.5549 15.3632 14.4278 15.7216 14.4056 16.0938C14.4176 16.3705 14.519 16.6358 14.6947 16.8498C14.7701 16.9505 14.8613 17.0383 14.9647 17.1098C15.0606 17.1431 15.1424 17.208 15.1966 17.2939L15.3509 17.9588H18.3968L17.7406 16.8498C17.7406 16.8498 17.51 16.7218 17.973 16.1668C18.4294 15.5659 18.8478 14.937 19.2259 14.2839C19.2259 14.2839 19.9586 13.1019 20.0926 12.8619C20.2552 12.079 20.3076 11.2772 20.2479 10.4798C20.2768 10.0225 20.1905 9.56517 19.9969 9.14982C19.7969 8.65582 19.5911 8.16318 19.3797 7.67185" fill="white"/>
<path id="Path 1511" d="M14.2422 23.994C14.5312 23.975 14.8022 23.975 14.8022 23.975C15.8209 23.958 16.8253 23.7332 17.7539 23.3141C18.6825 22.895 19.516 22.2906 20.2026 21.538C21.4222 20.3528 22.1683 18.7643 22.3022 17.069V9.90302C22.1287 8.25308 21.3698 6.71996 20.1626 5.58197C19.4598 4.82321 18.6107 4.21449 17.6665 3.79242C16.7223 3.37034 15.7025 3.14364 14.6685 3.12598H14.2437V3.34698H14.6685C16.0748 3.41465 17.4375 3.85587 18.6167 4.62518C19.7959 5.3945 20.7489 6.46412 21.3774 7.724C21.6549 8.41463 21.7476 9.16565 21.6465 9.90302V17.069C21.7483 17.9236 21.6218 18.79 21.2803 19.58C20.947 20.2373 20.5255 20.8459 20.0273 21.389C19.3604 22.1129 18.5537 22.6941 17.6558 23.0973C16.7579 23.5005 15.7874 23.7175 14.8032 23.735C14.8032 23.735 14.5337 23.754 14.2437 23.754V23.994H14.2422ZM14.2422 3.12598H13.7422C12.7084 3.14552 11.6895 3.37309 10.7456 3.79504C9.8017 4.217 8.9525 4.82471 8.24854 5.58197C7.02366 6.73956 6.2624 8.30381 6.10742 9.98199V17.129C6.25451 18.8045 7.00007 20.3711 8.20752 21.542C8.89409 22.2947 9.72718 22.8993 10.6558 23.3185C11.5843 23.7378 12.5887 23.9628 13.6074 23.98C13.6074 23.98 13.9165 23.998 14.2075 23.998H14.2456V23.759C13.9376 23.759 13.6094 23.74 13.6094 23.74C12.6251 23.7224 11.6544 23.5055 10.7563 23.1022C9.85829 22.699 9.0514 22.1179 8.38428 21.394C7.87967 20.8612 7.44576 20.2656 7.09326 19.622C6.83606 18.7988 6.74428 17.9328 6.82324 17.074V9.90802C6.69807 8.98196 6.85969 8.03976 7.28564 7.20801C7.95394 6.07612 8.89512 5.12975 10.0234 4.45544C11.1518 3.78114 12.4312 3.40044 13.7446 3.34802H14.2446V3.12701" fill="white"/>
<path id="Path 1512" d="M13.2215 19.5058C13.227 19.5337 13.2242 19.5627 13.2127 19.5887C13.2011 19.6147 13.1819 19.6366 13.1575 19.6512C13.1331 19.6658 13.1043 19.6725 13.0759 19.6704C13.0476 19.6683 13.0208 19.6575 12.9988 19.6394C12.9768 19.6213 12.9609 19.5969 12.9534 19.5695C12.9458 19.542 12.9467 19.5129 12.9563 19.4861C12.9659 19.4593 12.9838 19.4361 13.0071 19.4198C13.0304 19.4035 13.0582 19.3948 13.0867 19.3948C13.1191 19.3925 13.1514 19.4028 13.1765 19.4234C13.2016 19.4441 13.2174 19.4735 13.2215 19.5058ZM13.3567 19.8568C13.3567 19.8568 13.0285 19.8388 12.7395 19.8018V20.0238C12.7975 20.0238 12.8558 20.0418 12.8938 20.0418L12.8748 20.4478H12.7395V20.7808L12.8396 20.7988L12.8206 21.2608L13.1096 21.2968L13.2258 20.0788H13.3406L13.3606 19.8568H13.3567ZM12.7395 19.8018C12.6815 19.8018 12.6237 19.7828 12.5657 19.7828C12.4307 19.7648 12.2768 19.7278 12.1228 19.6908L11.9295 19.3768L11.6018 19.3028L11.7957 19.6168C11.7577 19.607 11.7186 19.6009 11.6795 19.5988L11.6218 19.7988C11.6536 19.8116 11.6872 19.8178 11.7215 19.8168L11.6839 20.0018L11.4138 19.9458C11.4597 19.9152 11.4974 19.8741 11.5242 19.8259C11.551 19.7778 11.5658 19.7239 11.5676 19.6688C11.5667 19.6242 11.5573 19.5802 11.5393 19.5394C11.5214 19.4985 11.4954 19.4616 11.4631 19.4308C11.4309 19.3999 11.3929 19.3757 11.3513 19.3596C11.3097 19.3435 11.2651 19.3357 11.2205 19.3368V19.5958C11.2306 19.5944 11.2411 19.5953 11.2507 19.5984C11.2604 19.6016 11.2692 19.6068 11.2766 19.6138C11.284 19.6208 11.2896 19.6294 11.2932 19.6389C11.2969 19.6484 11.2985 19.6587 11.2976 19.6688C11.2974 19.6832 11.294 19.6974 11.2874 19.7103C11.2808 19.7231 11.2711 19.7342 11.2595 19.7428H11.2205V20.1498L11.6257 20.2598L11.4514 21.0728L11.7605 21.1278L12.0305 19.8898C12.1249 19.9176 12.2217 19.9363 12.3196 19.9458L12.2615 20.3888C12.2403 20.3839 12.2184 20.3833 12.197 20.3872C12.1756 20.3911 12.1551 20.3993 12.137 20.4114C12.1189 20.4235 12.1038 20.4392 12.0921 20.4575C12.0803 20.4758 12.0722 20.4963 12.0686 20.5178C12.0496 20.6658 12.2236 20.8178 12.3006 20.8878C12.4346 21.0358 12.5315 20.7958 12.5315 20.7958V20.7588L12.7439 20.7768V20.4448L12.5696 20.4268L12.6467 20.0018C12.6775 20.0177 12.7124 20.0243 12.7468 20.0208L12.7395 19.8018ZM11.2166 21.0018V20.4478C11.2408 20.4369 11.2671 20.4308 11.2937 20.4298L11.4285 20.5958C11.3861 20.6485 11.334 20.6923 11.2747 20.7248C11.2589 20.8162 11.2525 20.9091 11.2556 21.0018H11.2166ZM11.2166 19.3398C11.1704 19.3368 11.1245 19.3431 11.0808 19.3584C11.0372 19.3737 10.9969 19.3975 10.9627 19.4286C10.9284 19.4597 10.901 19.4973 10.8816 19.5392C10.8622 19.5812 10.8514 19.6266 10.8499 19.6728C10.8487 19.7097 10.855 19.7464 10.8684 19.7808C10.8818 19.8151 10.9017 19.8464 10.9275 19.8728C10.8706 19.8846 10.8177 19.91 10.7727 19.9468C10.6957 20.0208 10.5028 20.1868 10.5608 20.4078C10.5998 20.6478 10.8495 20.7588 10.9265 20.7958H10.9656C10.9846 20.7958 10.9846 20.9438 10.9846 20.9438L11.2166 20.9988V20.4448C11.18 20.463 11.1412 20.4755 11.1008 20.4818C11.0621 20.4881 11.0222 20.4847 10.9851 20.4717C10.9481 20.4588 10.9148 20.4369 10.8884 20.4078C10.7884 20.2598 11.0045 20.0568 11.1775 20.1308L11.2166 20.1498V19.7428C11.1968 19.7419 11.1782 19.734 11.1638 19.7204C11.1495 19.7068 11.1404 19.6885 11.1384 19.6688C11.1404 19.6493 11.1495 19.631 11.1638 19.6176C11.1782 19.6042 11.1969 19.5965 11.2166 19.5958V19.3368M10.7547 19.5948L10.8308 19.3948C10.8308 19.3948 10.2526 19.1948 9.67458 18.9148L9.57448 18.5088L9.30543 18.3788L9.38258 18.7848C9.03458 18.6008 8.72646 18.4158 8.53346 18.3048V18.8588C8.59362 18.7932 8.62908 18.7087 8.63356 18.6198C8.72084 18.6618 8.80446 18.7109 8.88356 18.7668L8.61354 19.1908C8.59566 19.2183 8.56858 19.2383 8.53688 19.2468V19.9668L9.17262 18.9138C9.23062 18.9508 9.28845 18.9698 9.34645 19.0068L8.72975 20.1328L8.99879 20.2628L9.61647 19.1358L9.84791 19.2468C9.96291 19.6168 9.78981 19.7268 9.78981 19.7268C9.75181 19.6348 9.59645 19.6168 9.59645 19.6168C9.56681 19.6195 9.53855 19.6288 9.51295 19.644C9.48736 19.6592 9.46508 19.6799 9.4485 19.7046C9.43192 19.7293 9.42109 19.7574 9.41676 19.7869C9.41243 19.8163 9.41484 19.8464 9.4236 19.8748C9.4616 20.0968 9.6736 20.2438 9.9236 20.0228C10.0882 19.8481 10.178 19.6158 10.1736 19.3758C10.2316 19.3948 10.3085 19.4318 10.3665 19.4498L9.90456 20.6318L10.1936 20.7428L10.6365 19.5608C10.6768 19.5697 10.7165 19.5821 10.7547 19.5978V19.5948ZM8.53688 18.3028C8.47732 18.2528 8.41227 18.2092 8.34352 18.1728L8.18971 18.3388C8.2512 18.37 8.3093 18.4072 8.36354 18.4498C8.36354 18.4868 8.40148 18.7448 8.07448 18.6898H7.95875C7.90006 18.795 7.87094 18.914 7.87428 19.0344C7.87763 19.1548 7.91336 19.2721 7.9778 19.3738C8.04349 19.4309 8.12017 19.4734 8.20338 19.4987C8.2866 19.524 8.37439 19.5316 8.46071 19.5208L8.24879 19.8538L8.51784 20.0008L8.53688 19.9648V19.2438C8.49489 19.2551 8.45097 19.2576 8.40797 19.2512C8.36497 19.2449 8.32381 19.2297 8.28688 19.2068C8.13288 19.0778 8.22877 18.9668 8.22877 18.9668C8.28539 18.9741 8.34302 18.9679 8.39674 18.9486C8.45047 18.9293 8.49884 18.8975 8.53786 18.8558L8.53688 18.3028ZM20.6438 19.3368L20.8557 19.1518L20.0657 18.1358C20.1657 18.0618 20.2195 18.0258 20.2195 18.0258L20.1038 17.9138C20.1038 17.9138 20.0037 17.9888 19.8347 18.0988V18.3758L20.0847 18.6758L19.8728 18.8418L19.8347 18.8058V19.3058H19.9495C20.1035 19.3058 20.0657 19.1058 20.0657 19.1058L20.2966 18.9398L20.6438 19.3468V19.3368ZM19.8347 18.0988C19.2047 18.5207 18.5339 18.8798 17.8338 19.1708V19.4108L18.0457 19.8348C18.0537 19.8681 18.0554 19.9025 18.0501 19.9363C18.0448 19.9701 18.0327 20.0025 18.0149 20.0316C17.9971 20.0608 17.9737 20.0862 17.9461 20.1063C17.9184 20.1264 17.887 20.1408 17.8538 20.1488L17.8338 20.1678V20.4628C17.9157 20.4693 17.9977 20.4543 18.072 20.4192C18.1464 20.3841 18.2105 20.3302 18.2576 20.2628L18.4304 20.5768L18.7014 20.4658L18.1428 19.2658C18.3738 19.1738 18.5856 19.0658 18.7786 18.9658L18.8167 19.0208C18.8167 19.0208 18.7168 19.0948 18.6048 19.1688C18.5489 19.1976 18.5036 19.2435 18.4758 19.2999C18.4481 19.3562 18.4392 19.42 18.4505 19.4818C18.4505 19.6488 18.7195 19.7598 18.7195 19.7598C18.7001 19.886 18.7208 20.015 18.7786 20.1288C18.9516 20.4428 19.4529 20.3138 19.4529 20.3138L19.3958 20.0918L19.2796 20.1108C19.2453 20.1132 19.211 20.108 19.179 20.0957C19.1469 20.0834 19.1179 20.0643 19.094 20.0396C19.0701 20.0149 19.0521 19.9854 19.0408 19.9529C19.0295 19.9205 19.0252 19.886 19.0286 19.8518C19.0476 19.7968 19.1056 19.5938 19.2986 19.6118C19.4916 19.6298 19.4138 19.8698 19.4138 19.8698L19.6067 19.9628C19.646 19.9248 19.6798 19.8813 19.7068 19.8338C19.7448 19.3908 19.5136 19.3528 19.3206 19.3168C19.2551 19.3052 19.1879 19.3092 19.1243 19.3285C19.0607 19.3478 19.0028 19.3818 18.9548 19.4278C18.9548 19.4278 18.8546 19.4818 18.8386 19.4458C18.8226 19.4098 18.8587 19.3718 18.8587 19.3718L19.2586 19.0948L19.0667 18.7808C19.1481 18.7462 19.2255 18.703 19.2976 18.6518C19.3956 18.7688 19.4858 18.8921 19.5676 19.0208C19.5676 19.0578 19.5096 19.0768 19.5296 19.1688C19.5676 19.2788 19.7027 19.2978 19.8377 19.2978V18.7978L19.5877 18.4648C19.6607 18.4257 19.7313 18.3827 19.7996 18.3358L19.8377 18.3728V18.0958L19.8347 18.0988ZM17.8338 19.1698L17.2556 19.3918C16.2767 19.6755 15.2665 19.8368 14.2478 19.8718V20.0568H14.3836V20.1858C14.352 20.1993 14.3177 20.2054 14.2835 20.2038H14.2449V20.4818H14.2835C14.3291 20.479 14.3752 20.4848 14.4187 20.4988L14.4378 20.8128C14.3897 20.8361 14.3369 20.8487 14.2835 20.8498H14.2449V21.1268H14.2835C14.3491 21.1236 14.4144 21.1114 14.4768 21.0908L14.4959 21.3308L14.8045 21.3118L14.7048 20.0378C14.9358 20.0198 15.1858 20.0008 15.4558 19.9638L15.4949 20.0748C15.4949 20.0748 15.3408 20.0928 15.2058 20.1118C15.1455 20.1239 15.0896 20.1528 15.0452 20.1953C15.0007 20.2378 14.9696 20.2921 14.9548 20.3518C14.8968 20.4988 15.1096 20.7028 15.1096 20.7028C15.0365 20.8109 15.0083 20.9434 15.0315 21.0718C15.0705 21.4228 15.5906 21.4788 15.5906 21.4788L15.6297 21.2568L15.4949 21.2198C15.2639 21.1088 15.3406 20.9428 15.3596 20.9058C15.3976 20.8498 15.5328 20.6838 15.7068 20.7578C15.8798 20.8498 15.7068 21.0348 15.7068 21.0348L15.8606 21.2008C15.91 21.1767 15.956 21.1457 15.9968 21.1088C16.2088 20.7028 15.9965 20.5908 15.8225 20.4808C15.7646 20.4556 15.7021 20.4425 15.6389 20.4425C15.5758 20.4425 15.5137 20.4556 15.4558 20.4808C15.4558 20.4808 15.3405 20.4988 15.3215 20.4628C15.3215 20.4258 15.3787 20.3888 15.3787 20.3888L15.8425 20.2958L15.7835 19.9258C15.8425 19.9078 15.9188 19.9078 15.9768 19.8898L16.3235 21.1268L16.6316 21.0718L16.3045 19.8338C16.4045 19.8158 16.4775 19.7978 16.5745 19.7788C16.6125 19.8898 16.7478 20.2588 16.7478 20.2588L16.6316 20.3328C16.6158 20.3495 16.6046 20.3699 16.5989 20.3922C16.5932 20.4144 16.5931 20.4377 16.5989 20.46C16.6047 20.4822 16.6162 20.5026 16.6321 20.5192C16.648 20.5358 16.6678 20.548 16.6897 20.5548C16.792 20.6185 16.9024 20.6683 17.0178 20.7028C17.0378 20.7028 17.1526 20.6658 17.1526 20.5028L17.3455 20.4298L17.1526 20.1518L17.0379 20.1898L16.8826 19.7088C16.9986 19.6728 17.1137 19.6538 17.2107 19.6168C17.2687 19.6348 17.3836 19.6908 17.3836 19.8008C17.3841 19.848 17.3665 19.8936 17.3342 19.9281C17.302 19.9626 17.2578 19.9833 17.2107 19.9858L17.1336 20.0778C17.244 20.2553 17.4153 20.3865 17.6155 20.4468C17.6925 20.4468 17.7509 20.4658 17.8279 20.4658V20.1708C17.7805 20.1774 17.7319 20.1682 17.6902 20.1447C17.6485 20.1212 17.6155 20.0848 17.5964 20.0408C17.6345 20.0125 17.6665 19.9765 17.6897 19.9351C17.713 19.8938 17.7272 19.848 17.7317 19.8008C17.7205 19.6903 17.6864 19.5834 17.6316 19.4868C17.6907 19.4511 17.7556 19.4263 17.8235 19.4138V19.1738L17.8338 19.1698ZM14.2478 19.8698C13.9978 19.8878 13.8479 19.8878 13.8479 19.8878L13.8674 20.0728C13.8674 20.0728 14.0017 20.0728 14.2527 20.0548L14.2478 19.8698ZM14.2478 20.2028C14.1824 20.1948 14.1159 20.2006 14.053 20.2202C13.9901 20.2397 13.9319 20.2723 13.8826 20.316C13.8332 20.3596 13.7939 20.4132 13.7669 20.4733C13.7398 20.5333 13.7258 20.5984 13.7258 20.6643C13.7258 20.7302 13.7398 20.7953 13.7669 20.8553C13.7939 20.9154 13.8332 20.9691 13.8826 21.0127C13.9319 21.0563 13.9901 21.089 14.053 21.1085C14.1159 21.128 14.1824 21.1339 14.2478 21.1258V20.8488C14.1328 20.8298 14.0359 20.7568 14.0359 20.6638C14.0359 20.5708 14.1358 20.4978 14.2478 20.4798V20.2028ZM20.7835 19.3348L21.0725 19.1688C21.0725 19.1688 21.1306 19.1318 21.1726 19.1688C21.2126 19.2238 21.1536 19.2418 21.1536 19.2418C21.1536 19.2418 20.9415 19.4418 20.8845 19.4418C20.8521 19.453 20.8168 19.453 20.7844 19.4418C20.7844 19.4418 20.7464 19.3688 20.7844 19.3318" fill="white"/>
</g>
</svg>
