<svg width="32" height="32" viewBox="0 0 32 32" fill="none" xmlns="http://www.w3.org/2000/svg">
<g id="Group 323">
<g id="Group 320">
<path id="Path 479" d="M16.8079 13.7734C17.3629 13.2814 17.9029 12.8194 18.4249 12.3384C19.8546 10.9365 21.7294 10.0787 23.7249 9.91337C24.6414 9.81958 25.5674 9.91382 26.4462 10.1903C27.325 10.4668 28.1382 10.9197 28.8359 11.5214C29.5022 12.0718 30.0526 12.749 30.4551 13.5137C30.8577 14.2785 31.1044 15.1156 31.1809 15.9764C31.5029 19.1124 31.2559 22.2524 31.3269 25.3894C31.3659 27.1314 31.3269 28.8754 31.3419 30.6184C31.3419 31.0354 31.2419 31.1904 30.7949 31.1854C28.8729 31.164 26.9509 31.164 25.0289 31.1854C24.5929 31.1854 24.4769 31.0474 24.4779 30.6244C24.4919 26.5034 24.4669 22.3814 24.4989 18.2604C24.5275 17.7715 24.4241 17.2839 24.1996 16.8487C23.9751 16.4134 23.6378 16.0465 23.2229 15.7864C22.7966 15.537 22.3067 15.4177 21.8135 15.4431C21.3203 15.4685 20.8453 15.6375 20.4469 15.9294C19.0653 16.7689 17.8734 17.8865 16.9469 19.2114C16.8207 19.4351 16.7636 19.6912 16.7829 19.9474C16.7729 23.4824 16.7669 27.0174 16.7829 30.5474C16.7829 31.0394 16.6559 31.1904 16.1549 31.1824C14.2979 31.1534 12.4409 31.1604 10.5839 31.1824C10.1529 31.1824 9.98389 31.0824 9.98389 30.6134C9.99722 23.886 9.99722 17.1584 9.98389 10.4304C9.98389 10.0054 10.0839 9.81736 10.5549 9.82236C12.4442 9.84436 14.3339 9.84436 16.2239 9.82236C16.6539 9.82236 16.7919 9.95738 16.7809 10.3854C16.7539 11.3624 16.7709 12.3404 16.7749 13.3174C16.7739 13.4904 16.7989 13.6644 16.8079 13.7734Z" fill="#1976D2"/>
<path id="Path 480" d="M6.99708 20.5513C6.99708 23.8733 6.99708 27.1956 6.99708 30.5183C6.99708 31.1753 6.99709 31.1763 6.36609 31.1763C4.47709 31.1763 2.58807 31.1653 0.699072 31.1853C0.271072 31.1853 0.141096 31.0593 0.142096 30.6293C0.154096 23.8873 0.154096 17.1453 0.142096 10.4033C0.142096 9.99327 0.242095 9.82128 0.685095 9.82628C2.60643 9.84628 4.52808 9.84628 6.45008 9.82628C6.88008 9.82628 7.00707 9.96327 7.00507 10.3893C6.99007 13.7763 6.99708 17.1643 6.99708 20.5513Z" fill="#1976D2"/>
<path id="Path 481" d="M3.53229 6.65692C3.09802 6.66932 2.66576 6.59339 2.2617 6.43378C1.85763 6.27416 1.49018 6.03415 1.18162 5.7283C0.873059 5.42245 0.6298 5.05715 0.466621 4.65451C0.303441 4.25186 0.223736 3.82029 0.232307 3.38592C0.206765 2.94524 0.274515 2.5041 0.431129 2.0914C0.587743 1.67869 0.829679 1.3037 1.14115 0.990904C1.45262 0.678111 1.82662 0.434573 2.23865 0.276213C2.65069 0.117853 3.09151 0.0482218 3.53229 0.0718979C3.96722 0.057814 4.4004 0.133214 4.805 0.293395C5.20959 0.453575 5.57699 0.695133 5.88441 1.00311C6.19182 1.31109 6.4327 1.67891 6.59214 2.0838C6.75158 2.48869 6.82617 2.92201 6.81129 3.3569C6.813 3.78898 6.72951 4.21716 6.56559 4.61694C6.40167 5.01672 6.16054 5.38024 5.85599 5.68674C5.55145 5.99324 5.18944 6.2367 4.79072 6.40317C4.39199 6.56964 3.96437 6.65587 3.53229 6.65692Z" fill="#1976D2"/>
</g>
</g>
</svg>
