<svg width="60" height="59" viewBox="0 0 60 59" fill="none" xmlns="http://www.w3.org/2000/svg">
<g id="Layer 2">
<path id="Vector" d="M57.0304 2.12109H3.08701C2.55247 2.12109 2.11914 2.55442 2.11914 3.08896V56.0161C2.11914 56.5506 2.55247 56.9839 3.08701 56.9839H57.0304C57.5649 56.9839 57.9983 56.5506 57.9983 56.0161V3.08896C57.9983 2.55442 57.5649 2.12109 57.0304 2.12109Z" fill="#FFC309" stroke="#141414" stroke-width="3" stroke-miterlimit="10"/>
<g id="Clip path group">
<mask id="mask0_154_374" style="mask-type:luminance" maskUnits="userSpaceOnUse" x="2" y="2" width="56" height="55">
<g id="clippath">
<path id="Vector_2" d="M57.0322 2H2.84689C2.37916 2 2 2.37916 2 2.84689V56.016C2 56.4837 2.37916 56.8629 2.84689 56.8629H57.0322C57.5 56.8629 57.8791 56.4837 57.8791 56.016V2.84689C57.8791 2.37916 57.5 2 57.0322 2Z" fill="white"/>
</g>
</mask>
<g mask="url(#mask0_154_374)">
<g id="Group">
<path id="Vector_3" d="M28.9886 56.9043L56.6681 56.9834C57.5456 56.9834 58.2538 56.1889 58.2457 55.3904L58.0328 33.9166L49.3695 28.2756L44.8157 22.5869H13.1172V44.8544L28.9886 56.9043Z" fill="black"/>
<g id="Group_2">
<g id="Group_3">
<path id="Vector_4" d="M18.4982 26.9424L37.4853 34.9951L37.4071 39.7408L18.4199 31.689L18.4982 26.9424Z" fill="black"/>
<path id="Vector_5" d="M18.4255 31.6895L37.4126 39.7413L29.9286 40.1406L10.9414 32.0887L18.4255 31.6895Z" fill="#3A3A3A"/>
<path id="Vector_6" d="M40.1949 25.7852L58.0319 33.837L37.4833 34.9952L18.4961 26.9426L40.1949 25.7852Z" fill="#3A3A3A"/>
<path id="Vector_7" d="M40.3141 18.9453L58.1519 26.998L58.0382 33.8368L40.2012 25.7849L40.3141 18.9453Z" fill="black"/>
<g id="Group_4">
<path id="Vector_8" d="M11.2149 20.5798L40.2349 19.0312L40.1244 25.7071L18.4256 26.8653L18.3473 31.6111L11.0254 32.0023L11.2149 20.5798Z" fill="white"/>
<path id="Vector_9" d="M40.1478 19.1169L40.0397 25.6299L18.4925 26.7792L18.3409 26.7873L18.3385 26.9389L18.2627 31.5339L11.1037 31.9162L11.29 20.6567L40.147 19.1169M40.3123 18.9451L11.1295 20.5018L10.9375 32.0872L18.4215 31.6879L18.4998 26.9414L40.1986 25.7839L40.3115 18.9443L40.3123 18.9451Z" fill="black"/>
</g>
</g>
<g id="Group_5">
<path id="Vector_10" d="M18.278 40.1572L37.2652 48.2091L37.12 56.9731L18.1328 48.9213L18.278 40.1572Z" fill="black"/>
<path id="Vector_11" d="M18.1305 48.9209L37.1177 56.9728L29.6337 57.372L10.6465 49.3201L18.1305 48.9209Z" fill="#3A3A3A"/>
<path id="Vector_12" d="M39.2686 39.0371L58.2558 47.089L37.2587 48.2093L18.2715 40.1574L39.2686 39.0371Z" fill="#3A3A3A"/>
<path id="Vector_13" d="M39.3794 32.7461L58.3666 40.798L58.2626 47.0891L39.2754 39.0372L39.3794 32.7461Z" fill="black"/>
<g id="Group_6">
<path id="Vector_14" d="M10.9745 34.3443L19.7087 33.8781L39.2927 32.832L39.1911 38.9603L18.1948 40.0806L18.0496 48.8446L10.7285 49.235L10.9745 34.3443Z" fill="white"/>
<path id="Vector_15" d="M39.2107 32.9169L39.1123 38.8822L18.2668 39.9945L18.1152 40.0025L18.1128 40.1542L17.97 48.7666L10.811 49.1489L11.0546 34.4211L19.713 33.959L39.2107 32.9169ZM39.3761 32.7451L19.7049 33.7961L10.8957 34.2663L10.6465 49.3199L18.1305 48.9206L18.2757 40.1566L39.272 39.0363L39.3761 32.7451Z" fill="black"/>
</g>
</g>
</g>
</g>
</g>
</g>
</g>
</svg>
