<svg xmlns="http://www.w3.org/2000/svg" xmlns:xlink="http://www.w3.org/1999/xlink" viewBox="0 0 296.28 58.55"><defs><style>.cls-1{fill:#fff;}.cls-2{fill:#ffc309;stroke:#141414;stroke-miterlimit:10;stroke-width:2.8px;}.cls-3{mask:url(#mask);}.cls-4{fill:#3a3a3a;}</style><mask id="mask" x="1.28" y="1.28" width="57.12" height="56.27" maskUnits="userSpaceOnUse"><g id="mask0_53_33803" data-name="mask0 53 33803"><path class="cls-1" d="M57,1.28H2.14a.85.85,0,0,0-.86.86v54a.85.85,0,0,0,.86.86H57a.86.86,0,0,0,.86-.86v-54A.86.86,0,0,0,57,1.28Z"/></g></mask></defs><g id="Layer_2" data-name="Layer 2"><g id="Layer_1-2" data-name="Layer 1"><path class="cls-2" d="M57,1.4H2.38a1,1,0,0,0-1,1V56.17a1,1,0,0,0,1,1H57a1,1,0,0,0,1-1V2.38A1,1,0,0,0,57,1.4Z"/><g class="cls-3"><path d="M28.62,57.07l28.05.08a1.65,1.65,0,0,0,1.6-1.62l-.22-21.82L49.28,28,44.66,22.2H12.54V44.83L28.62,57.07Z"/><path d="M18,26.63l19.24,8.18-.08,4.82L17.91,31.45Z"/><path class="cls-4" d="M17.91,31.45l19.24,8.18L29.57,40,10.33,31.86Z"/><path class="cls-4" d="M40,25.45l18.07,8.18L37.23,34.81,18,26.63Z"/><path d="M40.09,18.5l18.08,8.18-.12,7L40,25.45Z"/><path class="cls-1" d="M10.6,20.16,40,18.59l-.11,6.78-22,1.18-.08,4.82-7.42.4Z"/><path d="M39.93,18.67l-.11,6.62L18,26.46h-.15v.15l-.08,4.67-7.25.39.19-11.44,29.24-1.57m.17-.17L10.52,20.08l-.19,11.77,7.58-.4L18,26.63l22-1.18Z"/><path d="M17.77,40.06,37,48.24l-.15,8.9L17.62,49Z"/><path class="cls-4" d="M17.62,49l19.24,8.18-7.58.41L10,49.37Z"/><path class="cls-4" d="M39.05,38.92,58.29,47.1,37,48.24,17.77,40.06Z"/><path d="M39.15,32.52l19.24,8.19-.1,6.39L39.05,38.92Z"/><path class="cls-1" d="M10.37,34.15l8.85-.48,19.85-1.06L39,38.84,17.69,40l-.15,8.9-7.42.4Z"/><path d="M39,32.7l-.1,6.06L17.76,39.89h-.15v.15l-.15,8.76-7.25.38.25-15,8.77-.47Zm.17-.18L19.22,33.59l-8.93.48L10,49.37,17.62,49l.15-8.9,21.28-1.14.1-6.4Z"/></g><path class="cls-1" d="M62.42,52.53v-27h8v27Z"/><path class="cls-1" d="M74.71,52.53v-27h9.16L107,43.77V25.5h8v27h-9L82.73,33.94V52.53Z"/><path class="cls-1" d="M120.27,52.53v-27h23.2c10.71,0,15.88,3.76,15.88,13.47s-5.21,13.56-15.88,13.56Zm3.56-3.13h19.36c9.13,0,12.49-3,12.49-10.43s-3.36-10.38-12.49-10.38H123.83Z"/><path class="cls-1" d="M164.68,52.53v-27h34.46v2.89h-30.9v9h30.15V40H168.24v9.63h30.9v2.94Z"/><path class="cls-1" d="M204.91,52.53v-27h4.35l19.84,24,19.8-24h4.31v27h-3.56V29.74L230.84,52.53h-3.56L208.47,29.74V52.53Z"/><path class="cls-1" d="M256.44,25.5h4.7l15.22,13.27L291.61,25.5h4.67L278.14,41.59V52.53h-3.56V41.59L256.44,25.5Z"/></g></g></svg>