<svg width="25" height="25" viewBox="0 0 25 25" fill="none" xmlns="http://www.w3.org/2000/svg">
<g id="Group 427">
<g id="Group 424">
<path id="Path 800" d="M23.9203 24.7042H16.5986V11.6415C16.5992 11.143 16.7975 10.6649 17.15 10.3124C17.5025 9.95979 17.9805 9.76142 18.479 9.76074H22.0396C22.5382 9.76132 23.0162 9.95969 23.3688 10.3123C23.7214 10.6648 23.9198 11.1429 23.9203 11.6415V24.7042ZM17.2469 24.0556H23.2717V11.6415C23.2714 11.3148 23.1415 11.0016 22.9105 10.7706C22.6795 10.5396 22.3663 10.4097 22.0396 10.4094H18.479C18.1524 10.4098 17.8392 10.5397 17.6082 10.7707C17.3773 11.0017 17.2473 11.3148 17.2469 11.6415V24.0556Z" fill="white"/>
</g>
<g id="Group 425">
<path id="Path 801" d="M15.6187 24.7047H8.29883V16.5413C8.29941 16.0428 8.49775 15.5648 8.85026 15.2123C9.20277 14.8598 9.68072 14.6615 10.1792 14.6609H13.7398C14.2384 14.6614 14.7164 14.8596 15.069 15.2121C15.4216 15.5647 15.62 16.0427 15.6205 16.5413L15.6187 24.7047ZM8.94529 24.0561H14.9701V16.5413C14.9697 16.2146 14.8398 15.9015 14.6088 15.6705C14.3778 15.4395 14.0647 15.3096 13.738 15.3092H10.1774C9.85072 15.3096 9.53755 15.4395 9.30657 15.6705C9.07559 15.9015 8.94567 16.2146 8.94529 16.5413V24.0561Z" fill="white"/>
</g>
<g id="Group 426">
<path id="Path 802" d="M7.32171 24.7021H0V19.8818C0.000577659 19.3833 0.198924 18.9053 0.551431 18.5528C0.903937 18.2003 1.38189 18.002 1.88041 18.0015H5.44095C5.93953 18.0019 6.4176 18.2002 6.77019 18.5527C7.12278 18.9052 7.32113 19.3832 7.32171 19.8818V24.7021ZM0.648324 24.0535H6.67312V19.8818C6.67273 19.5551 6.54272 19.242 6.31175 19.011C6.08077 18.78 5.7676 18.6501 5.44095 18.6497H1.88041C1.55375 18.6501 1.24059 18.78 1.00961 19.011C0.77863 19.242 0.648709 19.5551 0.648324 19.8818V24.0535Z" fill="white"/>
</g>
<path id="Path 803" d="M24.0348 0.510354V0.56888C24.0362 1.84257 24.0362 3.11698 24.0348 4.39213C24.0419 4.48186 24.0226 4.57173 23.9792 4.65057C23.9357 4.7294 23.8701 4.79373 23.7904 4.83556C23.711 4.88184 23.6203 4.90529 23.5285 4.90324C23.4366 4.90118 23.3471 4.87371 23.2698 4.82393C23.1947 4.77933 23.1337 4.71438 23.094 4.63654C23.0543 4.5587 23.0373 4.47116 23.0453 4.38413C23.0453 3.4245 23.0453 2.46494 23.0453 1.50531L11.8775 12.0827L8.25004 8.65881L0.647149 15.7218L0.0556641 15.1718L8.25297 7.55515L11.8761 10.9724L22.4953 0.916311C21.7314 0.916311 20.9934 0.91634 20.2534 0.918886C19.9395 0.918886 19.6241 0.918886 19.3076 0.918886C18.9769 0.91634 18.762 0.736958 18.7576 0.465948C18.7532 0.194938 18.9758 0.00181886 19.313 0.00181886C20.6954 -0.000606287 22.0777 -0.000606287 23.4601 0.00181886H23.471C23.8366 0.000727544 24.0348 0.180049 24.0348 0.510354Z" fill="white"/>
</g>
</svg>
