<svg width="23" height="24" viewBox="0 0 23 24" fill="none" xmlns="http://www.w3.org/2000/svg">
<g id="Group 55">
<g id="Group 54">
<path id="Path 125" d="M11.7694 2.41065C11.4137 3.28562 11.2274 4.22017 11.2204 5.16465C11.2262 6.70727 11.7577 8.20183 12.7273 9.4017C13.6968 10.6016 15.0464 11.4351 16.5534 11.7646C16.9434 11.8466 17.0693 11.9787 17.1093 12.3886C17.2533 14.0458 18.0388 15.5812 19.2984 16.6676C19.5627 16.8645 19.7637 17.1341 19.877 17.4436C19.9904 17.753 20.011 18.0887 19.9364 18.4097C19.8625 18.7869 19.6584 19.1263 19.3597 19.3683C19.061 19.6103 18.6867 19.7396 18.3023 19.7337C17.0543 19.749 15.8064 19.749 14.5584 19.7337C14.2514 19.7337 14.1584 19.8146 14.1204 20.1266C14.0318 21.0484 13.6179 21.9086 12.9531 22.5532C12.2882 23.1978 11.4156 23.5848 10.4915 23.6449C9.56745 23.7051 8.65218 23.4344 7.90938 22.8814C7.16659 22.3284 6.64474 21.5292 6.43734 20.6266C6.36734 20.3466 6.48539 19.9606 6.26339 19.8036C6.00139 19.6187 5.61538 19.7436 5.28438 19.7406C4.29538 19.7326 3.30536 19.7406 2.31636 19.7406C1.9518 19.7678 1.5882 19.6767 1.2795 19.4808C0.970802 19.285 0.733523 18.9949 0.602741 18.6535C0.471959 18.3121 0.454708 17.9377 0.553546 17.5857C0.652385 17.2338 0.861943 16.923 1.15132 16.6996C1.8891 16.059 2.47523 15.2624 2.86715 14.3673C3.25906 13.4723 3.44706 12.5013 3.41744 11.5247C3.34247 10.2479 3.38831 8.96682 3.5544 7.69865C3.73112 6.81719 4.08042 5.97939 4.58223 5.23348C5.08405 4.48757 5.72847 3.84829 6.47835 3.35243C7.22823 2.85656 8.06878 2.51393 8.95162 2.34423C9.83445 2.17453 10.7421 2.18113 11.6224 2.36365C11.6644 2.36565 11.7044 2.38665 11.7694 2.41065Z" fill="#FEC008"/>
<path id="Path 126" d="M18.0232 0.253924C18.9877 0.251354 19.9313 0.534892 20.7346 1.06867C21.538 1.60244 22.1649 2.36247 22.5363 3.25263C22.9076 4.14279 23.0067 5.12309 22.8208 6.06952C22.6349 7.01595 22.1725 7.886 21.4921 8.56962C20.8117 9.25324 19.9438 9.71971 18.9983 9.91004C18.0527 10.1004 17.0721 10.006 16.1802 9.63885C15.2883 9.27172 14.5252 8.64831 13.9877 7.8475C13.4501 7.04668 13.1621 6.10443 13.1602 5.13993C13.1599 3.84797 13.6714 2.60852 14.5828 1.69282C15.4942 0.777118 16.7313 0.259742 18.0232 0.253924Z" fill="#F34437"/>
</g>
</g>
</svg>
