<svg width="26" height="27" viewBox="0 0 26 27" fill="none" xmlns="http://www.w3.org/2000/svg">
<g id="Group 1112">
<path id="Path 1513" d="M25.5401 13.5602C25.5399 16.0542 24.8003 18.4922 23.4146 20.5657C22.0289 22.6393 20.0596 24.2554 17.7554 25.2097C15.4512 26.1639 12.9158 26.4135 10.4698 25.9268C8.02373 25.4401 5.77666 24.2391 4.01322 22.4755C2.24978 20.7119 1.04902 18.4651 0.562537 16.019C0.0760581 13.5729 0.32586 11.0375 1.28031 8.7334C2.23476 6.42928 3.85116 4.4599 5.92484 3.07434C7.99852 1.68878 10.4362 0.949219 12.9302 0.949219C14.5863 0.949087 16.2263 1.27521 17.7564 1.90894C19.2864 2.54266 20.6767 3.47162 21.8477 4.6427C23.0187 5.81378 23.9475 7.20404 24.5811 8.73413C25.2147 10.2642 25.5403 11.9042 25.5401 13.5602Z" fill="white"/>
<g id="Group 1089">
<path id="Path 1514" d="M12.8317 23.0015C14.0218 23.005 15.189 22.673 16.1989 22.0435C16.7989 21.6842 17.3343 21.2269 17.7829 20.6905C18.0549 20.3598 18.2981 20.0065 18.51 19.6345C18.899 18.9065 19.1455 18.1109 19.236 17.2905C19.3413 16.3709 19.2629 15.4395 19.0051 14.5505C18.5264 12.9495 17.4823 11.577 16.0671 10.6885C15.8671 10.5565 15.7368 10.4575 15.5388 10.3255C15.2748 10.1255 14.8121 9.89549 14.4821 10.1595C14.2146 10.5333 14.0859 10.989 14.1188 11.4475C14.1188 14.5835 14.0858 17.6865 14.1188 20.8225C14.0858 21.0865 14.1851 21.4165 13.9191 21.5485C13.633 21.712 13.3198 21.8237 12.9948 21.8785C12.7266 21.9106 12.4546 21.8763 12.2028 21.7785C11.9692 21.7226 11.7534 21.6092 11.5749 21.4485C11.3439 21.2485 11.4751 20.8875 11.4431 20.5905V11.0175C11.4474 10.8386 11.4138 10.6609 11.3449 10.4959C11.276 10.3308 11.1734 10.1821 11.0432 10.0595C10.9706 10.0268 10.8914 10.0098 10.8117 10.0098C10.7321 10.0098 10.6534 10.0268 10.5808 10.0595C10.2326 10.2258 9.9013 10.425 9.59102 10.6545C9.0493 10.9746 8.55925 11.3752 8.13789 11.8425C7.77563 12.2176 7.46508 12.6394 7.21406 13.0965C6.80919 13.7905 6.52972 14.5505 6.38887 15.3415C6.26249 16.0726 6.25164 16.8189 6.35615 17.5535C6.53606 18.676 7.00205 19.7333 7.70918 20.6235C8.42622 21.4911 9.34391 22.1708 10.383 22.6035C11.1763 22.8516 12.0007 22.9857 12.8317 23.0015ZM12.8317 8.37751H13.0959C13.1619 8.37751 13.1959 8.34449 13.2609 8.34449L13.3928 8.27851C13.4258 8.24551 13.4931 8.24547 13.5251 8.21247L13.6569 8.14649L13.757 8.04651C13.823 8.01351 13.8229 7.9465 13.8889 7.9145L13.989 7.81446C14.022 7.74846 14.0551 7.71448 14.0891 7.64948L14.155 7.51746L14.2209 7.3855L14.2541 7.25348C14.2871 7.18748 14.2538 7.12047 14.2868 7.08747V6.68751C14.2597 6.62451 14.2487 6.55585 14.2541 6.48749L14.2209 6.35547C14.186 6.2365 14.1301 6.12472 14.0559 6.02546L13.9558 5.92548C13.9228 5.85948 13.8559 5.8255 13.8239 5.7605C13.7579 5.7605 13.7241 5.69447 13.6921 5.66047L13.592 5.59449C13.559 5.56149 13.5259 5.52851 13.4919 5.52851C13.4176 5.48916 13.3404 5.45569 13.2609 5.42847C13.2279 5.39547 13.1951 5.36251 13.1291 5.39551H12.6672C12.6012 5.42851 12.535 5.39547 12.467 5.42847C12.399 5.46147 12.3348 5.46151 12.2668 5.49451L12.135 5.56049C12.069 5.56049 12.0351 5.62647 12.0031 5.62647L11.8698 5.72651C11.8038 5.72651 11.8037 5.79248 11.7697 5.82648L11.6701 5.92646C11.5966 6.00141 11.5402 6.09154 11.5051 6.1905C11.5051 6.2235 11.4722 6.25652 11.4392 6.32252L11.3728 6.45447C11.3777 6.5115 11.3666 6.56879 11.34 6.61951C11.3237 6.73996 11.3237 6.86204 11.34 6.98249C11.3313 7.03966 11.3427 7.09806 11.3728 7.14747C11.3792 7.2183 11.4022 7.28672 11.4392 7.34748C11.4392 7.41348 11.4721 7.4135 11.5051 7.4795L11.571 7.61152C11.604 7.67752 11.6708 7.74347 11.7028 7.81147L11.8029 7.9115L11.903 8.01148L12.0358 8.11152C12.1018 8.14452 12.1679 8.14449 12.2009 8.21149L12.3327 8.24451L12.465 8.27747C12.531 8.27747 12.5651 8.31049 12.6301 8.31049C12.6631 8.37649 12.7618 8.34347 12.8298 8.37647L12.8317 8.37751Z" fill="#F58220"/>
<path id="Path 1515" d="M16.0061 5.73637C16.036 5.64268 16.0868 5.5569 16.1545 5.48552C16.2222 5.41414 16.3052 5.35897 16.3972 5.32408C16.4892 5.28919 16.5878 5.27551 16.6858 5.28404C16.7838 5.29257 16.8785 5.32308 16.9631 5.37334C17.6554 5.89437 18.2967 6.48003 18.8782 7.12236C19.7155 7.90404 20.4176 8.81866 20.9568 9.82933C21.4987 10.884 21.8032 12.0445 21.8489 13.2294C21.9553 14.4241 21.8095 15.6279 21.4201 16.7624C20.692 18.9313 19.1865 20.7538 17.1941 21.8783C15.841 22.6189 14.321 23.0017 12.7785 22.9904C11.2361 22.9791 9.72219 22.574 8.38011 21.8136C7.03802 21.0533 5.91216 19.9627 5.1096 18.6454C4.30704 17.3281 3.8544 15.8277 3.79417 14.2864C3.70927 12.9191 3.94651 11.5511 4.48704 10.2923C5.05309 9.04622 5.87423 7.93263 6.8972 7.02336C7.42301 6.42562 8.00914 5.88375 8.64622 5.40636C8.71234 5.34993 8.7898 5.30898 8.87376 5.28648C8.95772 5.26399 9.04561 5.26054 9.13108 5.27635C9.21655 5.29216 9.29754 5.32681 9.3679 5.37785C9.43826 5.42889 9.49626 5.49499 9.53782 5.57133C9.89078 6.11056 10.075 6.74296 10.0661 7.38737C10.0001 8.44337 9.04314 9.10333 8.31614 9.73033C7.47208 10.4824 6.79724 11.4051 6.33616 12.4374C5.86855 13.4266 5.6419 14.5126 5.67503 15.6064C5.68053 16.7876 5.96056 17.9512 6.49339 19.0054C7.02621 20.0596 7.79705 20.9754 8.74485 21.6803C9.99026 22.5828 11.4995 23.0473 13.0368 23.0013C14.0808 22.965 15.1041 22.6978 16.0324 22.2188C16.9608 21.7398 17.7713 21.0611 18.406 20.2314C19.5455 18.7532 20.1084 16.911 19.99 15.0483C19.916 13.9276 19.6009 12.8361 19.0661 11.8484C18.5763 10.9662 17.927 10.1825 17.1511 9.53734C16.4823 9.08384 15.9646 8.44005 15.6658 7.68931C15.5614 7.02137 15.6773 6.33761 15.9958 5.74132L16.0061 5.73637Z" fill="#F58220"/>
</g>
</g>
</svg>
