<svg width="26" height="25" viewBox="0 0 26 25" fill="none" xmlns="http://www.w3.org/2000/svg">
<path id="Union 4" d="M11.234 22.4835C11.1807 22.4281 11.1159 22.3844 11.0437 22.3552C10.9716 22.326 10.8938 22.312 10.8156 22.3142C8.90343 22.3201 6.99046 22.3264 5.07786 22.3142C4.70731 22.3158 4.34169 22.2314 4.01173 22.0682C3.68177 21.905 3.39705 21.6678 3.1813 21.3762C2.96555 21.0847 2.82508 20.7474 2.77166 20.3925C2.71824 20.0377 2.75345 19.6756 2.87428 19.3366C3.06261 18.9408 3.28971 18.5634 3.5525 18.2095C3.29438 17.997 3.08801 17.7318 2.9482 17.4331C2.80839 17.1344 2.7386 16.8094 2.7438 16.4815C3.01677 16.2669 3.23677 15.9961 3.38793 15.6888C3.53909 15.3815 3.6176 15.0454 3.6176 14.7051C3.6176 14.3647 3.53909 14.0287 3.38793 13.7213C3.23677 13.414 3.01677 13.1431 2.7438 12.9285C2.74575 12.587 2.82608 12.2503 2.97903 11.9425C3.13199 11.6348 3.35373 11.3637 3.62818 11.1491C3.55933 11.0931 3.50457 11.0552 3.4574 11.01C3.01985 10.6093 2.76394 10.0573 2.74565 9.47461C2.73183 9.17031 2.78161 8.86644 2.89202 8.58121C3.00242 8.29597 3.1712 8.03515 3.38821 7.81452C3.60522 7.5939 3.86598 7.418 4.15493 7.29723C4.44389 7.17645 4.75512 7.11328 5.06987 7.11164C5.49743 7.10575 5.92535 7.11164 6.39018 7.11164C6.1323 6.73004 5.99473 6.28408 5.99419 5.82811C5.99365 5.37215 6.13014 4.92595 6.38712 4.54378H6.07257C4.82832 4.54378 3.58406 4.5526 2.34019 4.54045C1.93451 4.54974 1.53388 4.45145 1.18175 4.25628C0.829616 4.06111 0.539399 3.77648 0.342406 3.43316C0.202906 3.15495 0.0883123 2.8657 0 2.56851V1.97546C0.0146119 1.94695 0.0273548 1.91756 0.0380761 1.88748C0.380426 0.614922 1.19594 0.000555672 2.54404 0.000555672H14.4016C14.5625 0.000555672 14.7233 -0.00200887 14.8838 0.00388088C15.2147 0.0189867 15.5385 0.102141 15.8335 0.247879C16.1285 0.393617 16.3881 0.598563 16.5948 0.849023C16.8016 1.09948 16.9507 1.38971 17.0323 1.70037C17.114 2.01102 17.1264 2.33495 17.0685 2.65057C16.9886 2.95771 16.8881 3.2595 16.7676 3.55394H17.04H18.2073C19.0792 3.55394 19.9514 3.55096 20.8229 3.55943C21.2902 3.57135 21.7432 3.71829 22.1235 3.98137C22.5038 4.24445 22.7941 4.6116 22.9571 5.03564C23.12 5.45968 23.1481 5.92124 23.0378 6.36087C22.9275 6.80049 22.6838 7.19809 22.338 7.50258C21.9119 7.88692 21.3502 8.09932 20.7677 8.09635C20.342 8.10077 19.9168 8.09635 19.4817 8.09635C19.5122 8.21888 19.5769 8.33103 19.6686 8.42052C19.7603 8.51 19.8756 8.57347 20.002 8.60403C21.4174 9.03636 22.6919 9.81823 23.6997 10.8726C24.7076 11.927 25.4141 13.2175 25.7493 14.6167C25.8676 15.0511 25.9178 15.5031 26 15.9471V17.1814C25.9323 17.5863 25.8938 17.9952 25.7919 18.3902C24.9733 21.5825 22.9603 23.7444 19.7103 24.6444C18.8964 24.8754 18.0531 24.9951 17.205 25C14.9991 25.0018 12.9983 24.1308 11.234 22.4835ZM9.74858 16.5662C9.75062 18.0224 10.1984 19.4454 11.0353 20.6557C11.8722 21.8659 13.0607 22.8092 14.451 23.3665C15.8412 23.9238 17.3709 24.0701 18.847 23.7869C20.3231 23.5038 21.6794 22.8039 22.7449 21.7755C23.8104 20.7472 24.5373 19.4366 24.8339 18.0089C25.1304 16.5812 24.9833 15.1006 24.4112 13.7537C23.8391 12.4068 22.8676 11.2541 21.6192 10.441C20.3708 9.62787 18.9016 9.19076 17.3968 9.18487H17.3632C15.3442 9.19283 13.4104 9.97329 11.9838 11.356C10.5573 12.7386 9.75369 14.6113 9.74858 16.5651V16.5662ZM5.12838 18.7638C4.95004 18.7581 4.77242 18.7873 4.60599 18.8495C4.43957 18.9118 4.28783 19.0059 4.15985 19.1262C4.03188 19.2466 3.93029 19.3907 3.86119 19.5499C3.79209 19.7091 3.75685 19.8801 3.75764 20.0528C3.75844 20.2255 3.79527 20.3962 3.86583 20.5548C3.93639 20.7134 4.03923 20.8566 4.16831 20.9759C4.29738 21.0951 4.44996 21.1879 4.61695 21.2487C4.78395 21.3096 4.9619 21.3371 5.14017 21.3299C6.76469 21.3323 8.38897 21.3323 10.013 21.3299C10.0569 21.3291 10.1008 21.3253 10.1442 21.3185L8.93951 18.7634H6.67622C6.16307 18.7623 5.64609 18.7627 5.12838 18.7638ZM5.15578 15.2086C4.97533 15.1992 4.7948 15.2255 4.62522 15.2859C4.45564 15.3463 4.30065 15.4396 4.16961 15.56C4.03856 15.6804 3.93427 15.8254 3.86314 15.9862C3.79201 16.1469 3.75549 16.3201 3.75588 16.4949C3.75627 16.6698 3.79352 16.8428 3.86537 17.0032C3.93721 17.1637 4.04211 17.3083 4.17369 17.4281C4.30527 17.548 4.46076 17.6406 4.63061 17.7004C4.80045 17.7601 4.98113 17.7856 5.16153 17.7754C6.3027 17.7774 7.44387 17.7774 8.58504 17.7754C8.63462 17.7748 8.68409 17.7718 8.73335 17.7662C8.73335 17.3245 8.72158 16.9041 8.73641 16.487C8.75125 16.07 8.79122 15.6533 8.82203 15.2083H6.55985L5.15578 15.2086ZM4.96029 11.6656C4.62502 11.6865 4.31144 11.8332 4.0863 12.0746C3.86116 12.3159 3.74226 12.6327 3.75486 12.9576C3.75607 13.2816 3.886 13.5926 4.11769 13.8264C4.34938 14.0602 4.66508 14.1989 4.99948 14.2137C6.30916 14.2321 7.6196 14.2221 8.93004 14.2165C8.96743 14.2136 9.00352 14.202 9.03535 14.1828C9.06718 14.1636 9.09381 14.1374 9.11299 14.1062C9.40057 13.2305 9.82826 12.4039 10.3805 11.6564C9.32108 11.6564 8.27878 11.6512 7.24374 11.6512C6.48106 11.6523 5.72031 11.6553 4.95992 11.6652L4.96029 11.6656ZM10.9834 10.6698C11.07 10.673 11.1563 10.6587 11.2369 10.6277C11.3175 10.5968 11.3904 10.55 11.4512 10.4902C12.8473 9.18688 14.667 8.39192 16.6006 8.24069C17.0312 8.20388 17.4682 8.23556 17.9015 8.23556L17.9046 8.13868C17.7243 8.1258 17.5439 8.10193 17.364 8.10193C13.9618 8.09923 10.5597 8.09923 7.15746 8.10193C6.46401 8.10193 5.76936 8.09714 5.07591 8.10193C4.72452 8.10734 4.38978 8.2476 4.14527 8.49187C3.90077 8.73615 3.76653 9.06438 3.77213 9.40442C3.77773 9.74446 3.92266 10.0685 4.17509 10.3051C4.42751 10.5417 4.76678 10.6715 5.11816 10.6661C6.01259 10.6681 6.90711 10.6687 7.80178 10.668H8.33206C9.21558 10.6668 10.099 10.6672 10.9822 10.6694L10.9834 10.6698ZM8.32863 4.54521C8.15359 4.54612 7.98045 4.58058 7.81924 4.64659C7.65804 4.7126 7.51199 4.80891 7.38945 4.92986C7.2669 5.05081 7.17029 5.19399 7.10527 5.35126C7.04025 5.50853 7.00803 5.67672 7.01054 5.84609C7.01306 6.01546 7.05028 6.18273 7.11994 6.33813C7.1896 6.49353 7.29039 6.63404 7.41647 6.75153C7.54256 6.86903 7.69144 6.96117 7.85453 7.02267C8.01763 7.08418 8.19171 7.1138 8.3667 7.10985C10.4231 7.11426 12.4799 7.10985 14.5355 7.10985C16.6002 7.10985 18.665 7.10985 20.7297 7.10985C20.9082 7.11409 21.0858 7.08337 21.2518 7.01962C21.4178 6.95586 21.5687 6.86035 21.6956 6.73877C21.8226 6.6172 21.9228 6.47212 21.9904 6.31216C22.058 6.15219 22.0915 5.9806 22.0889 5.8078C22.0864 5.635 22.0478 5.46453 21.9755 5.30651C21.9033 5.14848 21.7987 5.00616 21.6682 4.88816C21.5378 4.77016 21.3841 4.67893 21.2163 4.61981C21.0484 4.56068 20.87 4.53493 20.6916 4.54414C17.3916 4.54266 14.0914 4.54266 10.7909 4.54414C10.3033 4.54414 9.81519 4.54414 9.32715 4.54414C8.99367 4.54266 8.6606 4.54289 8.32788 4.54485L8.32863 4.54521ZM14.6747 3.55799C15.0248 3.57338 15.3681 3.46084 15.6366 3.24281C15.8411 3.0711 15.9865 2.84299 16.053 2.589C16.1196 2.33502 16.1041 2.0674 16.0088 1.82214C15.9136 1.57687 15.743 1.36564 15.5201 1.21695C15.2971 1.06827 15.0326 0.98923 14.7618 0.990389C12.6971 0.987444 10.6324 0.987444 8.56785 0.990389C6.51172 0.990389 4.45555 0.990389 2.39916 0.990389C2.22226 0.983616 2.04574 1.01124 1.88003 1.07154C1.71431 1.13184 1.56272 1.22362 1.43426 1.34151C1.3058 1.45941 1.20298 1.60103 1.13197 1.75797C1.06096 1.91492 1.0232 2.084 1.02081 2.25532C1.01842 2.42663 1.05153 2.5967 1.11814 2.75544C1.18475 2.91419 1.2835 3.05834 1.40863 3.17954C1.53376 3.30075 1.68271 3.3965 1.84669 3.46111C2.01066 3.52571 2.18638 3.55789 2.36341 3.55574C3.98805 3.56126 5.61269 3.55574 7.23733 3.55574H10.7369C12.049 3.5555 13.3613 3.55616 14.6739 3.55763L14.6747 3.55799ZM16.5808 23.0092C16.4433 23.0082 16.3117 22.9545 16.215 22.8598C16.1183 22.7652 16.0643 22.6372 16.0648 22.5041C16.0654 22.371 16.1203 22.2434 16.2178 22.1495C16.3153 22.0555 16.4472 22.0028 16.5848 22.0028C16.7224 22.0028 16.8543 22.0555 16.9517 22.1495C17.0492 22.2434 17.1043 22.371 17.1048 22.5041C17.1053 22.6372 17.0513 22.7652 16.9546 22.8598C16.8579 22.9545 16.7264 23.0082 16.5888 23.0092H16.5808ZM14.5126 22.3687C14.035 22.1238 13.58 21.8396 13.1528 21.5191C12.421 20.945 11.8277 20.223 11.4145 19.4037C11.0014 18.5843 10.7785 17.6875 10.7612 16.776C10.743 15.6798 11.0023 14.5958 11.5163 13.6187C11.5606 13.5152 11.641 13.43 11.7435 13.378C11.846 13.3259 11.9642 13.3102 12.0774 13.3338C12.1846 13.3449 12.2842 13.3932 12.3576 13.4697C12.4311 13.5462 12.4735 13.6458 12.4771 13.7502C12.4748 13.8964 12.4365 14.04 12.3653 14.1691C11.7226 15.4355 11.6108 16.8934 12.0534 18.2377C12.496 19.582 13.4587 20.7087 14.7401 21.3818C14.8222 21.4249 14.9067 21.4624 14.9843 21.5121C15.0998 21.5767 15.1839 21.683 15.2185 21.8076C15.2531 21.9322 15.2352 22.065 15.1688 22.1769C15.1276 22.252 15.0665 22.3151 14.9917 22.3597C14.917 22.4043 14.8313 22.429 14.7435 22.431C14.662 22.4305 14.5822 22.4088 14.5123 22.3683L14.5126 22.3687ZM17.6908 19.8814L15.7458 17.9087C15.7375 17.9004 15.7276 17.8938 15.7167 17.8893C15.7057 17.8847 15.6939 17.8823 15.6819 17.8822H15.4879C15.3517 17.8822 15.2211 17.8299 15.1248 17.7367C15.0285 17.6435 14.9744 17.5171 14.9744 17.3853C14.9744 17.2535 15.0285 17.1271 15.1248 17.0339C15.2211 16.9407 15.3517 16.8883 15.4879 16.8883H17.0186C17.1968 16.9129 17.3786 16.8813 17.5367 16.7981C17.6949 16.7148 17.8211 16.5845 17.8966 16.4264C17.903 16.4132 17.9059 16.3986 17.905 16.384C17.9041 16.3695 17.8995 16.3553 17.8915 16.343C17.8835 16.3306 17.8725 16.3203 17.8593 16.3131C17.8462 16.306 17.8314 16.3021 17.8163 16.3019H15.4876C15.3517 16.3019 15.2213 16.2496 15.1252 16.1567C15.0291 16.0637 14.9752 15.9376 14.9752 15.8061C14.9752 15.6746 15.0291 15.5485 15.1252 15.4555C15.2213 15.3625 15.3517 15.3103 15.4876 15.3103H17.8163C17.8314 15.31 17.8462 15.3061 17.8593 15.2989C17.8725 15.2918 17.8835 15.2816 17.8915 15.2692C17.8995 15.2568 17.9041 15.2427 17.905 15.2281C17.9059 15.2135 17.903 15.199 17.8966 15.1858C17.8211 15.0276 17.6949 14.8973 17.5367 14.8141C17.3786 14.7309 17.1968 14.6992 17.0186 14.7239H15.4879C15.3517 14.7239 15.2211 14.6715 15.1248 14.5783C15.0285 14.4851 14.9744 14.3587 14.9744 14.2269C14.9744 14.0951 15.0285 13.9687 15.1248 13.8755C15.2211 13.7823 15.3517 13.7299 15.4879 13.7299H19.2454C19.3816 13.7299 19.5122 13.7823 19.6085 13.8755C19.7048 13.9687 19.759 14.0951 19.759 14.2269C19.759 14.3587 19.7048 14.4851 19.6085 14.5783C19.5122 14.6715 19.3816 14.7239 19.2454 14.7239H19.083C19.0678 14.7238 19.0529 14.7276 19.0396 14.7347C19.0263 14.7419 19.0152 14.7522 19.0073 14.7647C18.9993 14.7773 18.9948 14.7916 18.9942 14.8063C18.9936 14.821 18.9969 14.8355 19.0038 14.8486C19.0629 14.9745 19.1078 15.1062 19.1378 15.2414C19.1421 15.2605 19.1531 15.2776 19.1689 15.2899C19.1847 15.3021 19.2043 15.3088 19.2245 15.3087H19.245C19.3812 15.3087 19.5118 15.3611 19.6081 15.4543C19.7044 15.5475 19.7586 15.6739 19.7586 15.8057C19.7586 15.9375 19.7044 16.0639 19.6081 16.1571C19.5118 16.2503 19.3812 16.3026 19.245 16.3026H19.2256C19.205 16.3027 19.1851 16.3097 19.1692 16.3224C19.1532 16.335 19.1422 16.3526 19.1381 16.3722C18.9457 17.2696 18.331 17.69 17.3804 17.8163C17.3641 17.8183 17.3486 17.8247 17.3357 17.8347C17.3229 17.8447 17.3133 17.8581 17.3078 17.8731C17.3023 17.8881 17.3013 17.9043 17.3047 17.9199C17.3082 17.9355 17.3161 17.9498 17.3275 17.9613L18.4877 19.1375C18.5629 19.2133 18.6134 19.3088 18.633 19.4122C18.6526 19.5156 18.6405 19.6224 18.598 19.7191C18.5556 19.8159 18.4847 19.8984 18.3943 19.9566C18.3038 20.0147 18.1976 20.046 18.089 20.0463C18.0144 20.0464 17.9406 20.0318 17.872 20.0034C17.8034 19.975 17.7415 19.9334 17.69 19.8811L17.6908 19.8814ZM22.629 19.8465C22.5202 19.8232 22.423 19.7644 22.3537 19.6799C22.2844 19.5955 22.2473 19.4905 22.2486 19.3826C22.2639 19.2532 22.3037 19.1275 22.3658 19.0119C22.7321 18.3085 22.9332 17.5353 22.9548 16.7479C22.9763 15.9605 22.8178 15.1782 22.4905 14.4569C21.9997 13.3082 21.1066 12.3633 19.9678 11.7881C19.9157 11.7609 19.8632 11.7344 19.8118 11.7061C19.7469 11.6799 19.6884 11.641 19.6397 11.592C19.5911 11.5429 19.5534 11.4846 19.529 11.4208C19.5047 11.357 19.4942 11.2891 19.4982 11.2212C19.5022 11.1532 19.5207 11.0868 19.5524 11.0261C19.5818 10.9639 19.6249 10.9087 19.6785 10.8642C19.7322 10.8197 19.7952 10.787 19.8633 10.7685C19.9313 10.7499 20.0028 10.7459 20.0726 10.7567C20.1424 10.7675 20.2089 10.7928 20.2675 10.831C20.7422 11.0814 21.1943 11.3701 21.619 11.6939C22.3401 12.2696 22.9237 12.9898 23.3296 13.8047C23.7355 14.6197 23.9541 15.5101 23.9703 16.4146C23.9875 17.5083 23.7278 18.5895 23.2137 19.5637C23.1754 19.6506 23.1118 19.7249 23.0308 19.7775C22.9498 19.8302 22.8547 19.8589 22.7571 19.8604C22.7137 19.8602 22.6705 19.8553 22.6282 19.846L22.629 19.8465ZM18.1332 11.159C17.9949 11.1577 17.8628 11.1035 17.7657 11.0082C17.6687 10.9128 17.6146 10.7843 17.6153 10.6505C17.616 10.5167 17.6713 10.3885 17.7694 10.2941C17.8674 10.1998 18 10.1467 18.1383 10.1467C18.2766 10.1467 18.4092 10.1998 18.5072 10.2941C18.6052 10.3885 18.6607 10.5167 18.6614 10.6505C18.662 10.7843 18.6079 10.9128 18.5108 11.0082C18.4138 11.1035 18.2817 11.1577 18.1434 11.159H18.1332Z" fill="white"/>
</svg>
