<svg width="32" height="27" viewBox="0 0 32 27" fill="none" xmlns="http://www.w3.org/2000/svg">
<path fill-rule="evenodd" clip-rule="evenodd" d="M15.9849 26.5168C7.70686 26.5168 0.960938 20.7169 0.960938 13.5909C0.960938 6.46488 7.70686 0.671875 15.9849 0.671875C24.2629 0.671875 31.0039 6.47188 31.0039 13.5909C31.0039 20.7099 24.2579 26.5168 15.9849 26.5168Z" fill="#004A8F"/>
<path fill-rule="evenodd" clip-rule="evenodd" d="M25.6245 14.9019L27.2983 14.9759C26.2983 21.9379 19.6982 22.4478 16.3672 15.7018L16.8042 14.9759C20.2512 17.1609 24.2825 17.9859 25.6245 14.9019Z" fill="white"/>
<path fill-rule="evenodd" clip-rule="evenodd" d="M14.2554 4.77087L17.6035 3.6709L17.7515 22.6229L14.1074 23.8599L14.2554 4.76685" fill="#ED1C24"/>
<path fill-rule="evenodd" clip-rule="evenodd" d="M25.6971 12.3478H27.223C26.633 9.16584 25.0231 7.15884 21.9051 6.88184C19.3051 6.9305 17.0937 8.43645 15.2704 11.3998C14.0704 13.2278 12.1431 16.0998 9.80406 16.4348C6.98506 16.8408 5.34825 14.3608 6.56725 12.2248C7.30525 10.9248 9.30599 10.3778 10.703 10.5078C10.709 10.5078 10.7224 10.5138 10.7284 10.5138C11.9511 10.6056 13.1372 10.9717 14.1991 11.5848L14.2181 8.90082C13.6496 8.33715 13.0111 7.84882 12.3182 7.44781C11.4143 6.96284 10.3755 6.78988 9.36315 6.95581C5.11615 7.89181 4.33498 11.3628 5.14098 15.9918C6.79098 21.3648 11.9412 21.7778 14.9032 18.3248C16.9342 15.8988 21.9752 7.69484 25.6932 12.3478" fill="white"/>
</svg>
