<svg width="28" height="28" viewBox="0 0 28 28" fill="none" xmlns="http://www.w3.org/2000/svg">
<g id="Group 1107">
<path id="Path 1500" d="M27.4829 14.011C27.4837 17.583 26.0657 21.0089 23.5405 23.5352C21.0154 26.0615 17.59 27.4813 14.0181 27.4821C10.4461 27.4829 7.01996 26.0647 4.49365 23.5395C1.96735 21.0143 0.547671 17.589 0.546875 14.017V14.011C0.546416 12.2424 0.894396 10.491 1.5708 8.85681C2.24721 7.22262 3.23896 5.73764 4.48926 4.48669C5.73955 3.23575 7.22358 2.24336 8.85742 1.5661C10.4913 0.888847 12.2426 0.540011 14.0112 0.539551C15.7799 0.539092 17.5313 0.88701 19.1655 1.56342C20.7997 2.23982 22.2847 3.23146 23.5356 4.48175C24.7866 5.73205 25.7793 7.2165 26.4565 8.85034C27.1338 10.4842 27.4825 12.2354 27.4829 14.004V14.011Z" fill="#156DD1"/>
<path id="Path 1501" d="M16.4391 14.0109C16.4389 14.4903 16.2964 14.9589 16.0299 15.3574C15.7634 15.7559 15.3849 16.0664 14.942 16.2497C14.499 16.433 14.0117 16.4809 13.5416 16.3872C13.0715 16.2936 12.6393 16.0627 12.3004 15.7236C11.9615 15.3846 11.7308 14.9527 11.6373 14.4825C11.5439 14.0123 11.592 13.525 11.7755 13.0821C11.959 12.6392 12.27 12.2607 12.6686 11.9944C13.0672 11.7281 13.5354 11.5859 14.0147 11.5859C14.3332 11.5859 14.6488 11.6487 14.943 11.7706C15.2371 11.8924 15.504 12.0711 15.7291 12.2963C15.9542 12.5215 16.1327 12.7888 16.2545 13.083C16.3763 13.3772 16.4392 13.6925 16.4391 14.0109Z" fill="white"/>
<path id="Path 1502" d="M13.1787 15.7749H14.8511V27.4749H13.1787V15.7749Z" fill="white"/>
</g>
</svg>
