<svg width="20" height="20" viewBox="0 0 20 20" fill="none" xmlns="http://www.w3.org/2000/svg">
<g id="Group 671">
<path id="Path 1080" d="M13.5362 14.3805C11.8126 15.7677 9.61006 16.4164 7.40972 16.1848C5.20937 15.9533 3.19009 14.8602 1.79314 13.1444C0.529768 11.593 -0.105052 9.62374 0.0142088 7.6265C0.133469 5.62926 0.998161 3.74958 2.43718 2.35947C3.91403 0.929751 5.86476 0.0926013 7.91851 0.00723597C9.97225 -0.0781294 11.9858 0.59423 13.5762 1.89646C14.4174 2.59455 15.1083 3.45583 15.6075 4.42829C16.1066 5.40075 16.4036 6.46425 16.4805 7.55463C16.5574 8.64501 16.4127 9.73969 16.055 10.7726C15.6973 11.8055 15.134 12.7552 14.3992 13.5645C14.4922 13.6645 14.5832 13.7644 14.6812 13.8644L19.2122 18.3235C19.3176 18.4166 19.414 18.5194 19.5002 18.6305C19.5893 18.7422 19.6333 18.8832 19.6235 19.0258C19.6136 19.1683 19.5508 19.302 19.4472 19.4005C19.3568 19.5114 19.2288 19.5852 19.0876 19.6079C18.9463 19.6305 18.8017 19.6005 18.6812 19.5235C18.5635 19.4478 18.4562 19.357 18.3621 19.2535C16.8321 17.7508 15.3041 16.2458 13.7781 14.7385C13.6855 14.6277 13.6044 14.5077 13.5362 14.3805ZM8.26921 14.9805C9.62456 14.9588 10.9432 14.5368 12.0594 13.7676C13.1755 12.9983 14.0392 11.9163 14.5419 10.6574C15.0447 9.39857 15.164 8.01918 14.8848 6.69272C14.6056 5.36626 13.9404 4.15199 12.9728 3.20261C12.0053 2.25323 10.7787 1.61115 9.44719 1.35712C8.11569 1.10309 6.73877 1.24845 5.48967 1.77494C4.24057 2.30142 3.17499 3.18551 2.42705 4.31601C1.67911 5.44651 1.28221 6.77293 1.28618 8.12845C1.31121 9.9611 2.05888 11.7097 3.36663 12.9939C4.67437 14.278 6.43641 14.9938 8.26921 14.9854V14.9805Z" fill="white"/>
</g>
</svg>
