<svg width="29" height="30" viewBox="0 0 29 30" fill="none" xmlns="http://www.w3.org/2000/svg">
<g id="Group 763" opacity="0.5">
<g id="Group 649">
<path id="Path 834" d="M15.1822 2.28387V6.46387C15.6612 6.55287 16.1392 6.60391 16.5952 6.73291C18.162 7.09388 19.5905 7.9014 20.7076 9.05774C21.8247 10.2141 22.5825 11.6696 22.8892 13.2479C23.3295 15.1622 23.0901 17.1701 22.2122 18.9272C21.3342 20.6844 19.8724 22.0815 18.0772 22.8789C16.938 23.3985 15.6989 23.6627 14.4468 23.6529C13.1946 23.6431 11.9598 23.3596 10.8288 22.8223C9.69783 22.2849 8.69803 21.5067 7.89951 20.5422C7.10099 19.5777 6.52306 18.4503 6.20624 17.2389C5.76683 15.6815 5.78961 14.03 6.27182 12.4854C6.75403 10.9408 7.67486 9.56964 8.92223 8.53888C8.98589 8.474 9.0624 8.42314 9.14686 8.38953C9.23131 8.35591 9.32185 8.3403 9.41269 8.34369C9.50352 8.34708 9.59265 8.36936 9.67437 8.40918C9.75608 8.44899 9.82859 8.50544 9.88724 8.57489C9.94803 8.64473 9.99357 8.72648 10.0209 8.81494C10.0483 8.9034 10.0569 8.99659 10.0462 9.08856C10.0354 9.18053 10.0056 9.26928 9.95862 9.34906C9.91162 9.42884 9.84848 9.49791 9.77324 9.55188C8.78201 10.3978 8.03893 11.4968 7.62324 12.7319C7.1524 14.1168 7.11031 15.6116 7.50247 17.0209C7.89463 18.4301 8.70279 19.6883 9.82134 20.631C10.9399 21.5737 12.3168 22.157 13.7721 22.3047C15.2275 22.4524 16.6935 22.1577 17.9787 21.459C19.2638 20.7604 20.3083 19.6903 20.9757 18.3885C21.6431 17.0868 21.9022 15.6141 21.7193 14.1628C21.5364 12.7115 20.9199 11.3491 19.9504 10.2537C18.9809 9.15826 17.7036 8.38082 16.2852 8.02289C15.9312 7.93189 15.5662 7.8849 15.1852 7.8139C15.1782 7.9139 15.1702 7.97891 15.1702 8.04291C15.1702 9.28691 15.1702 10.5309 15.1702 11.7749C15.1648 11.8045 15.1656 11.8349 15.1725 11.8642C15.1794 11.8935 15.1922 11.9211 15.2102 11.9452C15.2283 11.9693 15.2511 11.9895 15.2772 12.0044C15.3034 12.0193 15.3323 12.0286 15.3622 12.0319C16.0961 12.2393 16.7301 12.7057 17.1467 13.3445C17.5633 13.9833 17.7344 14.7514 17.6283 15.5067C17.5223 16.2619 17.1462 16.9532 16.5697 17.4526C15.9933 17.9519 15.2555 18.2256 14.4928 18.2229C13.7301 18.2202 12.9943 17.9413 12.4214 17.4379C11.8485 16.9344 11.4773 16.2405 11.3766 15.4846C11.2759 14.7286 11.4524 13.9617 11.8736 13.3258C12.2947 12.6899 12.9319 12.2281 13.6672 12.0259C13.7242 12.0109 13.7782 11.9889 13.8482 11.9649V11.6779C13.8482 8.35786 13.8482 5.0379 13.8482 1.7179C13.8306 1.60085 13.845 1.48117 13.8899 1.37164C13.9348 1.26212 14.0085 1.16685 14.1032 1.09589C14.2642 0.998583 14.4482 0.945768 14.6362 0.942871C17.7327 0.967435 20.7351 2.00979 23.1807 3.90924C25.6263 5.80869 27.3792 8.45978 28.1692 11.4539C29.0606 14.8195 28.6776 18.3959 27.0937 21.4965C25.5098 24.597 22.8367 27.0035 19.5872 28.2539C17.7344 28.9668 15.7521 29.2812 13.7695 29.1767C11.787 29.0722 9.84873 28.5512 8.08104 27.6475C6.31334 26.7439 4.75589 25.4779 3.51019 23.9321C2.26449 22.3862 1.35849 20.5953 0.851234 18.6759C0.199261 16.3496 0.170181 13.8927 0.766914 11.5516C1.36365 9.21045 2.56523 7.06726 4.25124 5.33685C5.56526 3.91436 7.17407 2.79599 8.96523 2.05988C9.11129 1.99183 9.26927 1.95309 9.43024 1.94586C9.57161 1.95061 9.70736 2.0024 9.81602 2.09296C9.92469 2.18351 10.0001 2.30767 10.0302 2.44586C10.0657 2.5944 10.0481 2.75069 9.98051 2.88763C9.91295 3.02458 9.79966 3.13358 9.66023 3.19586C9.14023 3.45586 8.60023 3.67886 8.10123 3.97186C6.49449 4.90068 5.10895 6.1678 4.04063 7.68536C2.97231 9.20293 2.24677 10.9346 1.91431 12.7605C1.58184 14.5864 1.65039 16.4627 2.11522 18.2595C2.58004 20.0562 3.43001 21.7303 4.60623 23.1659C6.36402 25.3902 8.84158 26.9328 11.6132 27.5289C13.474 27.986 15.4153 28.0073 17.2856 27.591C19.156 27.1747 20.905 26.3321 22.3962 25.1289C24.8391 23.2809 26.501 20.5847 27.0542 17.5719C27.6873 14.3683 27.0754 11.044 25.3433 8.2757C23.6112 5.50744 20.8891 3.50346 17.7312 2.67188C16.8986 2.44844 16.0437 2.31831 15.1822 2.28387Z" fill="white"/>
</g>
</g>
</svg>
