<svg width="36" height="37" viewBox="0 0 36 37" fill="none" xmlns="http://www.w3.org/2000/svg">
<g id="Group 763" opacity="0.5">
<g id="Group 644">
<g id="Group 643">
<path id="Path 824" d="M26.2749 0.401861C24.9289 0.390861 23.5829 0.401861 22.2369 0.401861C20.8909 0.401861 19.5439 0.390861 18.1979 0.401861C17.8412 0.367026 17.4811 0.410036 17.1426 0.52793C16.8041 0.645823 16.4952 0.835808 16.2372 1.08472C15.9793 1.33364 15.7784 1.63557 15.6485 1.96967C15.5187 2.30378 15.4628 2.66209 15.4849 3.01987C15.4529 5.76487 15.4529 8.49988 15.4849 11.2449C15.4592 11.5918 15.5083 11.9402 15.629 12.2665C15.7497 12.5927 15.9392 12.8892 16.1845 13.1358C16.4299 13.3824 16.7254 13.5733 17.0511 13.6957C17.3767 13.818 17.7249 13.8689 18.0719 13.8449C20.8266 13.8869 23.5889 13.8869 26.3589 13.8449C26.7108 13.8632 27.0624 13.8054 27.3899 13.6755C27.7174 13.5455 28.013 13.3465 28.2565 13.0919C28.5001 12.8373 28.6859 12.5332 28.8012 12.2003C28.9166 11.8674 28.9588 11.5136 28.9249 11.1629C28.9363 8.47088 28.9363 5.77521 28.9249 3.07587C28.9523 2.7198 28.9027 2.36201 28.7796 2.0268C28.6564 1.69159 28.4625 1.38678 28.2112 1.13312C27.9598 0.879464 27.6568 0.682885 27.3227 0.556708C26.9886 0.43053 26.6312 0.377711 26.2749 0.401861ZM24.6129 7.98386C23.7929 7.97386 22.9829 7.98386 22.1729 7.98386C21.3849 7.98386 20.5849 7.97386 19.7969 7.98386C19.2599 7.98386 18.8709 7.75287 18.8609 7.18387C18.8499 6.58387 19.2289 6.31086 19.8069 6.31086H24.6129C25.1919 6.31086 25.5809 6.60587 25.5599 7.18387C25.5389 7.74687 25.1589 7.98887 24.6129 7.98887V7.98386Z" fill="white"/>
<path id="Path 825" d="M13.7915 2.98286C13.8096 2.6316 13.7521 2.28056 13.6229 1.95341C13.4937 1.62626 13.2959 1.33063 13.0427 1.08646C12.7896 0.8423 12.487 0.655299 12.1554 0.538062C11.8237 0.420826 11.4708 0.376079 11.1205 0.406867C9.77446 0.395867 8.42846 0.406867 7.08246 0.406867C5.75746 0.406867 4.43246 0.395867 3.10646 0.406867C2.73926 0.370361 2.36853 0.41512 2.02056 0.53794C1.67259 0.660761 1.35591 0.858644 1.09299 1.11756C0.830064 1.37648 0.627337 1.69007 0.499186 2.03611C0.371035 2.38215 0.320604 2.75216 0.351465 3.11988V11.1339C0.316787 11.4907 0.35994 11.8508 0.477953 12.1893C0.595967 12.5278 0.786031 12.8367 1.03502 13.0946C1.28401 13.3525 1.586 13.5534 1.92015 13.6833C2.25429 13.8131 2.61264 13.8689 2.97046 13.8469C5.70446 13.8889 8.44947 13.8789 11.1835 13.8469C11.5296 13.8757 11.878 13.8295 12.2046 13.7113C12.5313 13.5932 12.8286 13.4059 13.0762 13.1622C13.3238 12.9186 13.5159 12.6244 13.6394 12.2997C13.7628 11.975 13.8147 11.6275 13.7915 11.2809C13.8368 8.51486 13.8368 5.74886 13.7915 2.98286ZM9.33246 7.98887H7.93247V9.57688C7.92147 10.1239 7.65847 10.4769 7.10147 10.4769C6.98333 10.4814 6.86562 10.4601 6.75648 10.4147C6.64734 10.3693 6.54936 10.3007 6.4693 10.2137C6.38925 10.1267 6.32903 10.0234 6.2928 9.91083C6.25657 9.7983 6.2452 9.67922 6.25946 9.56187V7.98386C5.71346 7.98386 5.21847 7.97386 4.72447 7.98386C4.17747 7.98386 3.79846 7.74188 3.78846 7.18388C3.77746 6.58388 4.15646 6.31086 4.73546 6.31086H6.25946V5.06986C6.27046 4.21786 6.54346 3.80785 7.12246 3.81885C7.67946 3.82885 7.92247 4.19686 7.93247 5.03886V6.31086C8.45847 6.31086 8.87846 6.30086 9.28846 6.31086C10.0355 6.32186 10.4245 6.59487 10.4355 7.13087C10.4465 7.66687 10.0795 7.97887 9.33246 7.98887Z" fill="white"/>
<path id="Path 826" d="M13.7926 18.117C13.8168 17.7766 13.7681 17.4349 13.6497 17.1148C13.5314 16.7946 13.3461 16.5034 13.1063 16.2606C12.8665 16.0177 12.5776 15.8288 12.259 15.7065C11.9404 15.5841 11.5993 15.5311 11.2586 15.551C8.47126 15.509 5.68426 15.509 2.89759 15.551C2.55149 15.5372 2.20637 15.5967 1.88494 15.7258C1.56351 15.8549 1.27304 16.0505 1.03265 16.2999C0.792247 16.5493 0.60736 16.8467 0.49015 17.1726C0.372939 17.4986 0.326061 17.8457 0.352592 18.191C0.341592 19.558 0.352592 20.925 0.352592 22.303C0.352592 23.628 0.341592 24.943 0.352592 26.268C0.322199 26.6298 0.370372 26.9939 0.493812 27.3353C0.617252 27.6768 0.81304 27.9875 1.06776 28.2462C1.32249 28.5049 1.63013 28.7055 1.9696 28.8342C2.30908 28.963 2.67237 29.0168 3.03459 28.992C5.72659 29.002 8.42959 29.002 11.1216 28.992C11.472 29.0225 11.8248 28.9775 12.1564 28.8601C12.4879 28.7427 12.7904 28.5556 13.0435 28.3113C13.2966 28.0671 13.4945 27.7715 13.6237 27.4444C13.7529 27.1173 13.8105 26.7663 13.7926 26.415C13.8379 23.649 13.8379 20.883 13.7926 18.117ZM9.21859 23.165C9.77559 23.712 9.84959 24.227 9.46059 24.606C9.09159 24.964 8.57659 24.89 8.07159 24.364C7.76659 24.064 7.50359 23.701 7.12559 23.239C6.66259 23.765 6.34659 24.164 5.98959 24.522C5.9201 24.617 5.83052 24.6955 5.72722 24.7519C5.62392 24.8082 5.50946 24.8411 5.39199 24.8482C5.27452 24.8553 5.15693 24.8363 5.04762 24.7927C4.93831 24.7491 4.83996 24.682 4.75959 24.596C4.67223 24.5172 4.60333 24.4201 4.55781 24.3116C4.51228 24.2031 4.49126 24.0859 4.49622 23.9683C4.50119 23.8507 4.53203 23.7357 4.58654 23.6314C4.64105 23.5272 4.71789 23.4362 4.81159 23.365C5.16959 23.007 5.56859 22.681 6.09459 22.208C5.60059 21.787 5.20059 21.483 4.83259 21.135C4.73626 21.0671 4.65613 20.9787 4.59793 20.8763C4.53973 20.7738 4.50489 20.6597 4.49591 20.5422C4.48693 20.4246 4.50403 20.3066 4.54598 20.1964C4.58793 20.0863 4.65371 19.9868 4.73859 19.905C4.81982 19.8118 4.92112 19.7382 5.03487 19.6898C5.14863 19.6414 5.27188 19.6194 5.39536 19.6255C5.51885 19.6315 5.63935 19.6655 5.74781 19.7248C5.85627 19.7842 5.94988 19.8673 6.02159 19.968C6.36759 20.305 6.68359 20.668 7.10459 21.125C7.50459 20.694 7.84059 20.325 8.19859 19.968C8.27085 19.8736 8.36235 19.7957 8.46702 19.7393C8.57168 19.683 8.68713 19.6495 8.80571 19.6411C8.92429 19.6327 9.0433 19.6497 9.15485 19.6908C9.26639 19.7319 9.36793 19.7962 9.45273 19.8795C9.53754 19.9628 9.60367 20.0632 9.64675 20.174C9.68983 20.2848 9.70887 20.4035 9.70262 20.5222C9.69637 20.6409 9.66496 20.7569 9.61047 20.8626C9.55599 20.9682 9.47968 21.0611 9.38659 21.135C9.03959 21.483 8.68659 21.809 8.18659 22.271C8.58759 22.618 8.92359 22.881 9.21859 23.165Z" fill="white"/>
<path id="Path 827" d="M26.3393 15.551C23.5733 15.509 20.811 15.509 18.0523 15.551C17.7117 15.5282 17.3701 15.5782 17.0504 15.6979C16.7307 15.8175 16.4402 16.004 16.1982 16.2449C15.9563 16.4858 15.7686 16.7755 15.6475 17.0947C15.5265 17.4139 15.475 17.7553 15.4963 18.096C15.4543 20.8833 15.4543 23.6703 15.4963 26.457C15.4831 26.8035 15.5436 27.1488 15.6737 27.4701C15.8039 27.7915 16.0008 28.0815 16.2513 28.3211C16.5019 28.5608 16.8005 28.7445 17.1273 28.8601C17.4542 28.9758 17.8018 29.0207 18.1473 28.992H18.7673C18.7681 27.5133 19.1328 26.0575 19.8293 24.753H19.8083C19.2303 24.753 18.8513 24.48 18.8623 23.88C18.8723 23.312 19.2623 23.08 19.8083 23.08C20.1973 23.08 20.5863 23.091 20.9763 23.08C21.1023 22.933 21.2283 22.796 21.3653 22.659C21.8435 22.1777 22.3765 21.7541 22.9533 21.397H19.8603C19.2923 21.408 18.8713 21.187 18.8603 20.577C18.8493 19.967 19.2493 19.725 19.8273 19.736C21.4053 19.736 22.9823 19.736 24.5603 19.725C24.7607 19.6963 24.9649 19.737 25.139 19.8403C25.3131 19.9436 25.4466 20.1033 25.5173 20.293C26.2505 20.1055 27.0036 20.0077 27.7603 20.002C28.1506 19.9997 28.5405 20.0241 28.9273 20.075V18.212C28.9575 17.8612 28.9118 17.5081 28.7934 17.1765C28.6751 16.8449 28.4867 16.5427 28.2413 16.2903C27.9958 16.0379 27.6989 15.8412 27.3708 15.7137C27.0426 15.5861 26.6908 15.5307 26.3393 15.551Z" fill="white"/>
</g>
</g>
<g id="Group 646">
<g id="Group 645">
<path id="Path 828" d="M27.7586 21.0488C29.3274 21.0471 30.8617 21.5098 32.168 22.3785C33.4743 23.2473 34.4943 24.4832 35.0993 25.9307C35.7044 27.3781 35.8676 28.9722 35.5682 30.5122C35.2689 32.0522 34.5204 33.4692 33.4172 34.5845C32.3139 35.6999 30.9052 36.4637 29.3686 36.7798C27.832 37.0959 26.2361 36.9502 24.7822 36.3609C23.3283 35.7716 22.0813 34.7652 21.1983 33.4684C20.3154 32.1717 19.836 30.6426 19.8206 29.0738C19.8111 28.0246 20.0093 26.984 20.4038 26.0117C20.7983 25.0395 21.3813 24.1549 22.1191 23.4089C22.857 22.663 23.7352 22.0704 24.703 21.6653C25.6709 21.2603 26.7094 21.0508 27.7586 21.0488ZM26.8346 30.0158C27.4843 30.0434 28.1203 29.8242 28.615 29.4022C29.1097 28.9802 29.4265 28.3867 29.5016 27.7408C29.6151 27.7367 29.7282 27.7267 29.8406 27.7109C29.9658 27.6856 30.0774 27.6156 30.1546 27.5138C30.2318 27.4121 30.2691 27.2857 30.2597 27.1584C30.2502 27.031 30.1946 26.9115 30.1033 26.8223C30.0119 26.7331 29.8912 26.6803 29.7636 26.6738C29.6636 26.6688 29.5536 26.6738 29.4496 26.6688C29.4271 26.6669 29.4053 26.6603 29.3855 26.6495C29.3657 26.6386 29.3484 26.6238 29.3346 26.6058C29.2406 26.4268 29.1566 26.2428 29.0606 26.0428C29.2816 26.0428 29.4946 26.0428 29.7076 26.0428C29.8297 26.0468 29.9495 26.0096 30.0477 25.937C30.1459 25.8644 30.2167 25.7607 30.2486 25.6428C30.2692 25.5636 30.2709 25.4808 30.2536 25.4008C30.2363 25.3208 30.2005 25.246 30.1491 25.1824C30.0976 25.1188 30.032 25.0682 29.9574 25.0346C29.8828 25.0009 29.8014 24.9853 29.7196 24.9888C28.7543 24.9848 27.7876 24.9828 26.8196 24.9828C26.4106 24.9828 26.0026 24.9828 25.5946 24.9828C25.4834 24.9781 25.3735 25.0091 25.2812 25.0714C25.1889 25.1337 25.1189 25.2239 25.0816 25.3288C25.0522 25.4111 25.0436 25.4994 25.0565 25.5858C25.0694 25.6722 25.1034 25.7542 25.1555 25.8243C25.2076 25.8944 25.2763 25.9506 25.3553 25.9879C25.4344 26.0251 25.5214 26.0423 25.6086 26.0378C26.0936 26.0448 26.5796 26.0378 27.0646 26.0468C27.2613 26.0524 27.4544 26.1005 27.6306 26.1878C27.8069 26.2752 27.9621 26.3997 28.0856 26.5528C28.1133 26.5909 28.138 26.631 28.1596 26.6728H27.9586C27.1806 26.6728 26.4026 26.6728 25.6246 26.6728C25.5498 26.6686 25.475 26.6808 25.4054 26.7084C25.3357 26.736 25.2729 26.7784 25.2214 26.8328C25.1698 26.8871 25.1307 26.952 25.1067 27.023C25.0827 27.094 25.0745 27.1694 25.0826 27.2438C25.089 27.3142 25.1093 27.3826 25.1421 27.4451C25.175 27.5077 25.2199 27.5631 25.2743 27.6083C25.3286 27.6534 25.3913 27.6874 25.4588 27.7082C25.5263 27.7291 25.5973 27.7364 25.6676 27.7298C26.5116 27.7298 27.3556 27.7298 28.1996 27.7298H28.3996C28.3906 27.7918 28.3886 27.8298 28.3796 27.8668C28.3008 28.1652 28.1279 28.4302 27.8864 28.6224C27.645 28.8146 27.3481 28.9238 27.0396 28.9338C26.5816 28.9438 26.1236 28.9398 25.6656 28.9338C25.5495 28.9205 25.432 28.9444 25.3303 29.0021C25.2286 29.0598 25.1478 29.1483 25.0996 29.2548C25.0527 29.3619 25.0418 29.4814 25.0687 29.5953C25.0955 29.7091 25.1587 29.8111 25.2486 29.8858C25.7146 30.3718 26.1756 30.8618 26.6386 31.3508C27.1016 31.8398 27.5876 32.3508 28.0636 32.8508C28.1308 32.9246 28.2174 32.978 28.3135 33.0047C28.4096 33.0314 28.5114 33.0303 28.6069 33.0017C28.7025 32.973 28.788 32.9179 28.8536 32.8427C28.9192 32.7676 28.9622 32.6754 28.9776 32.5768C28.9903 32.4862 28.9803 32.3938 28.9486 32.3079C28.9168 32.2221 28.8643 32.1454 28.7956 32.0848C28.1836 31.4415 27.5723 30.7972 26.9616 30.1518C26.9246 30.1138 26.8856 30.0708 26.8366 30.0158H26.8346Z" fill="white"/>
</g>
</g>
</g>
</svg>
