<svg width="98" height="137" viewBox="0 0 98 137" fill="none" xmlns="http://www.w3.org/2000/svg">
<g id="Group 1093">
<g id="Group 1092">
<g id="Group 1086">
<path id="Path 1015" d="M9.3457 78.9773L-6.7002 76.5273L-8.72266 124.061L7.32422 126.511L9.3457 78.9773Z" fill="#FFF09C"/>
<path id="Path 1016" d="M9.3457 78.9758L-6.7002 76.5259L3.9248 69.7148L19.9707 72.1649L9.3457 78.9758Z" fill="url(#paint0_linear_1_74729)"/>
<path id="Path 1017" d="M9.3457 78.9774L21.877 70.9414L19.8535 118.475L7.32422 126.511L9.3457 78.9774Z" fill="url(#paint1_linear_1_74729)"/>
</g>
<g id="Group 1087">
<path id="Path 1018" d="M35.0742 70.243L19.0273 67.793L16.4473 128.441L32.4932 130.891L35.0742 70.243Z" fill="#FFF09C"/>
<path id="Path 1019" d="M35.0742 70.2415L19.0273 67.7914L29.751 60.9805L45.7969 63.4305L35.0742 70.2415Z" fill="url(#paint2_linear_1_74729)"/>
<path id="Path 1020" d="M35.0742 70.243L47.6035 62.207L45.0244 122.855L32.4932 130.891L35.0742 70.243Z" fill="url(#paint3_linear_1_74729)"/>
</g>
<g id="Group 1088">
<path id="Path 1021" d="M59.5674 78.8328L43.5195 76.3828L41.1357 132.421L57.1816 134.871L59.5674 78.8328Z" fill="#FFF09C"/>
<path id="Path 1022" d="M59.5674 78.8318L43.5195 76.3818L54.0107 69.7148L70.0566 72.1649L59.5674 78.8318Z" fill="url(#paint4_linear_1_74729)"/>
<path id="Path 1023" d="M59.5674 78.8329L72.0967 70.7969L69.7119 126.835L57.1816 134.871L59.5674 78.8329Z" fill="url(#paint5_linear_1_74729)"/>
</g>
<g id="Group 1089">
<path id="Path 1024" d="M85.3115 69.7156L69.2656 67.2656L66.3066 136.799L82.3525 139.249L85.3115 69.7156Z" fill="#FFF09C"/>
<path id="Path 1025" d="M85.3115 69.7145L69.2656 67.2645L79.2959 60.7266L95.3418 63.1765L85.3115 69.7145Z" fill="url(#paint6_linear_1_74729)"/>
<path id="Path 1026" d="M85.3115 69.7138L95.3418 63.1758L92.2422 132.904L82.3496 139.248L85.3115 69.7138Z" fill="url(#paint7_linear_1_74729)"/>
</g>
<g id="Group 1091">
<path id="Path 1027" d="M85.0469 4.67773L66.9014 8.64575C64.5474 9.16075 63.5742 12.9857 65.2442 15.1617L66.2374 16.4567C66.785 17.2518 67.076 18.1955 67.0714 19.1608C67.0667 20.1262 66.7662 21.067 66.211 21.8567L50.4424 43.0407C50.2317 43.3891 49.9361 43.6788 49.584 43.8834C49.232 44.0879 48.8348 44.2006 48.4278 44.2112C48.0208 44.2217 47.6171 44.1298 47.2549 43.9438C46.8928 43.7578 46.583 43.4837 46.3545 43.1467L27.0811 18.0258C26.8527 17.6888 26.5428 17.4147 26.1807 17.2286C25.8186 17.0426 25.4158 16.9506 25.0088 16.9612C24.6019 16.9717 24.2045 17.0845 23.8526 17.2891C23.5007 17.4936 23.2058 17.7834 22.9952 18.1317L-3.51557 53.1978C-4.07135 53.9872 -4.37207 54.928 -4.37689 55.8935C-4.38172 56.859 -4.09077 57.8027 -3.54291 58.5977L1.72955 65.4717C1.95833 65.8085 2.26871 66.0823 2.63092 66.2681C2.99312 66.454 3.39583 66.5458 3.80279 66.5353C4.20975 66.5247 4.60793 66.4121 4.96002 66.2078C5.31211 66.0034 5.60739 65.7139 5.81842 65.3657L22.8731 42.9497C23.0837 42.6013 23.3786 42.3116 23.7305 42.1071C24.0825 41.9025 24.4798 41.7897 24.8868 41.7792C25.2937 41.7686 25.6966 41.8606 26.0587 42.0466C26.4207 42.2327 26.7307 42.5068 26.959 42.8438L46.2344 67.9647C46.4628 68.3017 46.7718 68.5758 47.1338 68.7618C47.4959 68.9479 47.8988 69.0399 48.3057 69.0293C48.7127 69.0187 49.111 68.906 49.4629 68.7014C49.8149 68.4969 50.1098 68.2071 50.3204 67.8587L75.545 34.0237C75.7563 33.6759 76.0512 33.3868 76.4034 33.183C76.7556 32.9791 77.1538 32.8671 77.5606 32.8571C77.9674 32.8472 78.3707 32.9396 78.7325 33.126C79.0942 33.3124 79.4029 33.5867 79.6309 33.9237L80.6241 35.2187C82.2941 37.3937 85.1782 36.0598 85.5372 32.9448L88.3038 8.93274C88.5948 6.38674 86.9629 4.25973 85.0469 4.67773Z" fill="#F1CA00"/>
<g id="Group 1090">
<path id="Path 1028" d="M4.64062 66.3127V66.3197L4.7627 66.2617C4.7227 66.2817 4.68062 66.2947 4.64062 66.3127Z" fill="url(#paint8_linear_1_74729)"/>
<path id="Path 1029" d="M26.958 42.8388C26.7296 42.5019 26.4197 42.2277 26.0576 42.0417C25.6955 41.8557 25.2927 41.7637 24.8857 41.7743C24.4788 41.7848 24.0814 41.8976 23.7295 42.1021C23.3775 42.3067 23.0827 42.5965 22.8721 42.9448L5.81738 65.3608C5.566 65.7035 5.24662 65.9911 4.87988 66.2058C6.16788 65.5888 12.6359 62.4899 13.5439 62.0669C13.9932 61.8486 14.381 61.5222 14.6729 61.1168L27.7725 43.9008L26.958 42.8388Z" fill="url(#paint9_linear_1_74729)"/>
<path id="Path 1030" d="M27.0801 18.0241L46.3535 43.1451C46.582 43.4821 46.8918 43.7562 47.2539 43.9422C47.6161 44.1282 48.0198 44.2201 48.4268 44.2096C48.8338 44.199 49.231 44.0863 49.583 43.8818C49.935 43.6772 50.2307 43.3875 50.4414 43.0391L54.3535 37.7821L35.9365 13.7821C35.6076 13.2842 35.1024 12.9294 34.5225 12.789C33.9425 12.6486 33.3308 12.7329 32.8105 13.0251C32.4615 13.2251 24.1426 17.1721 24.1426 17.1721L24.1299 17.1951C24.6398 16.9597 25.2171 16.9138 25.7578 17.0657C26.2985 17.2177 26.7674 17.5575 27.0801 18.0241Z" fill="url(#paint10_linear_1_74729)"/>
<path id="Path 1031" d="M79.6299 33.915C79.4018 33.578 79.0932 33.3037 78.7314 33.1173C78.3697 32.9309 77.9664 32.8384 77.5596 32.8484C77.1527 32.8583 76.7546 32.9704 76.4023 33.1742C76.0501 33.3781 75.7552 33.6672 75.5439 34.015L50.3193 67.855C50.0077 68.2832 49.585 68.6188 49.0977 68.826L49.1035 68.839C49.1035 68.839 56.7686 65.308 57.6396 64.856C58.2372 64.5594 58.7619 64.1342 59.1758 63.611L80.4854 35.03L79.6299 33.915Z" fill="url(#paint11_linear_1_74729)"/>
<path id="Path 1032" d="M93.9033 0.435552L75.7559 4.40357C75.2586 4.5279 74.774 4.69969 74.3096 4.91657C72.3096 5.92657 66.21 8.91657 66.21 8.91657L66.2354 8.92658C66.4428 8.80191 66.6676 8.70853 66.9023 8.64954L85.0479 4.68158C86.9639 4.26358 88.5957 6.39057 88.3037 8.92457L85.5371 32.9366C85.5007 33.5702 85.3061 34.1846 84.9717 34.7239C84.6372 35.2632 84.1734 35.7103 83.6221 36.0245C84.6641 35.5245 91.5297 32.2305 92.4297 31.8135C92.9956 31.5034 93.4735 31.054 93.8174 30.5079C94.1612 29.9618 94.3595 29.337 94.3945 28.6926L97.1631 4.68055C97.4531 2.14455 95.8213 0.0175517 93.9033 0.435552Z" fill="url(#paint12_linear_1_74729)"/>
<path id="Path 1033" d="M83.4775 36.0833V36.0944L83.5303 36.0703C83.5103 36.0763 83.4935 36.0763 83.4775 36.0833Z" fill="url(#paint13_linear_1_74729)"/>
</g>
</g>
</g>
</g>
<defs>
<linearGradient id="paint0_linear_1_74729" x1="-1.57938" y1="82.0134" x2="0.638584" y2="64.8417" gradientUnits="userSpaceOnUse">
<stop stop-color="#FFFADD"/>
<stop offset="0.172" stop-color="#FFF7D7"/>
<stop offset="0.401" stop-color="#FFF1C6"/>
<stop offset="0.663" stop-color="#FFE6AA"/>
<stop offset="0.946" stop-color="#FFD784"/>
<stop offset="0.999" stop-color="#FFD47C"/>
</linearGradient>
<linearGradient id="paint1_linear_1_74729" x1="7.32422" y1="98.7264" x2="21.877" y2="98.7264" gradientUnits="userSpaceOnUse">
<stop stop-color="#FF9B2F"/>
<stop offset="0.441" stop-color="#FF9B2F"/>
<stop offset="1" stop-color="#CA6D00"/>
</linearGradient>
<linearGradient id="paint2_linear_1_74729" x1="24.1671" y1="73.2976" x2="26.376" y2="56.091" gradientUnits="userSpaceOnUse">
<stop stop-color="#FFFADD"/>
<stop offset="0.172" stop-color="#FFF7D7"/>
<stop offset="0.401" stop-color="#FFF1C6"/>
<stop offset="0.663" stop-color="#FFE6AA"/>
<stop offset="0.946" stop-color="#FFD784"/>
<stop offset="0.999" stop-color="#FFD47C"/>
</linearGradient>
<linearGradient id="paint3_linear_1_74729" x1="32.4932" y1="96.549" x2="47.6035" y2="96.549" gradientUnits="userSpaceOnUse">
<stop stop-color="#FF9B2F"/>
<stop offset="0.441" stop-color="#FF9B2F"/>
<stop offset="1" stop-color="#CA6D00"/>
</linearGradient>
<linearGradient id="paint4_linear_1_74729" x1="48.6412" y1="81.8678" x2="50.7911" y2="64.888" gradientUnits="userSpaceOnUse">
<stop stop-color="#FFFADD"/>
<stop offset="0.172" stop-color="#FFF7D7"/>
<stop offset="0.401" stop-color="#FFF1C6"/>
<stop offset="0.663" stop-color="#FFE6AA"/>
<stop offset="0.946" stop-color="#FFD784"/>
<stop offset="0.999" stop-color="#FFD47C"/>
</linearGradient>
<linearGradient id="paint5_linear_1_74729" x1="57.7484" y1="102.706" x2="71.5302" y2="102.72" gradientUnits="userSpaceOnUse">
<stop offset="0.001" stop-color="#F28000"/>
<stop offset="0.321" stop-color="#E67B00"/>
<stop offset="0.507" stop-color="#CA6C00"/>
<stop offset="1" stop-color="#CA6D00"/>
</linearGradient>
<linearGradient id="paint6_linear_1_74729" x1="74.2983" y1="72.6716" x2="76.4267" y2="55.9975" gradientUnits="userSpaceOnUse">
<stop stop-color="#FFFADD"/>
<stop offset="0.172" stop-color="#FFF7D7"/>
<stop offset="0.401" stop-color="#FFF1C6"/>
<stop offset="0.663" stop-color="#FFE6AA"/>
<stop offset="0.946" stop-color="#FFD784"/>
<stop offset="0.999" stop-color="#FFD47C"/>
</linearGradient>
<linearGradient id="paint7_linear_1_74729" x1="83.0122" y1="101.136" x2="94.6793" y2="101.14" gradientUnits="userSpaceOnUse">
<stop offset="0.507" stop-color="#CA6C00"/>
<stop offset="1" stop-color="#CA6D00"/>
</linearGradient>
<linearGradient id="paint8_linear_1_74729" x1="389.843" y1="125.459" x2="389.844" y2="125.489" gradientUnits="userSpaceOnUse">
<stop stop-color="#FFDD00"/>
<stop offset="0.057" stop-color="#FCDA00"/>
<stop offset="0.098" stop-color="#F5D000"/>
<stop offset="0.116" stop-color="#F1CA00"/>
<stop offset="0.893" stop-color="#E3CC00"/>
<stop offset="1" stop-color="#FFF200"/>
</linearGradient>
<linearGradient id="paint9_linear_1_74729" x1="399.021" y1="105.786" x2="405.221" y2="119.173" gradientUnits="userSpaceOnUse">
<stop offset="0.003" stop-color="#CD8F01"/>
<stop offset="0.094" stop-color="#C88B00"/>
<stop offset="0.399" stop-color="#C08500"/>
<stop offset="0.919" stop-color="#BE8400"/>
<stop offset="0.925" stop-color="#C28F08"/>
<stop offset="0.94" stop-color="#CCA519"/>
<stop offset="0.956" stop-color="#D3B525"/>
<stop offset="0.975" stop-color="#D7BF2C"/>
<stop offset="1" stop-color="#D9C22F"/>
</linearGradient>
<linearGradient id="paint10_linear_1_74729" x1="421.027" y1="71.0695" x2="435.764" y2="104.708" gradientUnits="userSpaceOnUse">
<stop stop-color="#FFEA40"/>
<stop offset="0.025" stop-color="#FFE93D"/>
<stop offset="0.043" stop-color="#FFE733"/>
<stop offset="0.059" stop-color="#FFE323"/>
<stop offset="0.074" stop-color="#FFDE0D"/>
<stop offset="0.081" stop-color="#FFDB00"/>
<stop offset="0.509" stop-color="#FCD900"/>
<stop offset="0.76" stop-color="#F4D500"/>
<stop offset="0.966" stop-color="#E6CD00"/>
<stop offset="1" stop-color="#E3CC00"/>
</linearGradient>
<linearGradient id="paint11_linear_1_74729" x1="450.358" y1="100.439" x2="460.749" y2="119.824" gradientUnits="userSpaceOnUse">
<stop offset="0.003" stop-color="#CD8F01"/>
<stop offset="0.094" stop-color="#C88B00"/>
<stop offset="0.399" stop-color="#C08500"/>
<stop offset="0.919" stop-color="#BE8400"/>
<stop offset="0.925" stop-color="#C28F08"/>
<stop offset="0.94" stop-color="#CCA519"/>
<stop offset="0.956" stop-color="#D3B525"/>
<stop offset="0.975" stop-color="#D7BF2C"/>
<stop offset="1" stop-color="#D9C22F"/>
</linearGradient>
<linearGradient id="paint12_linear_1_74729" x1="472.043" y1="61.8648" x2="486.024" y2="92.5259" gradientUnits="userSpaceOnUse">
<stop stop-color="#FFDD00"/>
<stop offset="0.061" stop-color="#FDDA00"/>
<stop offset="0.107" stop-color="#F7D000"/>
<stop offset="0.147" stop-color="#EEC000"/>
<stop offset="0.184" stop-color="#E1AA00"/>
<stop offset="0.218" stop-color="#D18E00"/>
<stop offset="0.901" stop-color="#CD8C00"/>
<stop offset="1" stop-color="#FFF200"/>
</linearGradient>
<linearGradient id="paint13_linear_1_74729" x1="482.873" y1="96.4944" x2="482.874" y2="96.5068" gradientUnits="userSpaceOnUse">
<stop stop-color="#FFDD00"/>
<stop offset="0.057" stop-color="#FCDA00"/>
<stop offset="0.098" stop-color="#F5D000"/>
<stop offset="0.116" stop-color="#F1CA00"/>
<stop offset="0.893" stop-color="#E3CC00"/>
<stop offset="1" stop-color="#FFF200"/>
</linearGradient>
</defs>
</svg>
