<svg width="51" height="30" viewBox="0 0 51 30" fill="none" xmlns="http://www.w3.org/2000/svg">
<g id="Group 763" opacity="0.5">
<g id="Group 654">
<path id="Path 841" d="M50.8365 2.8277C50.8567 2.4717 50.8014 2.11545 50.6741 1.78235C50.5469 1.44926 50.3505 1.14683 50.0981 0.895025C49.8456 0.643215 49.5427 0.447686 49.2093 0.321294C48.8758 0.194902 48.5194 0.14051 48.1635 0.161687C45.4162 0.161687 42.6688 0.161687 39.9215 0.161687C39.5657 0.143435 39.21 0.200121 38.8775 0.328008C38.545 0.455895 38.243 0.652157 37.9912 0.904119C37.7393 1.15608 37.5431 1.45809 37.4154 1.79065C37.2876 2.12322 37.2311 2.47894 37.2495 2.83472C37.2495 4.19739 37.2495 5.56007 37.2495 6.92273C37.2495 8.30674 37.2495 9.69169 37.2495 11.0757C37.2327 11.4316 37.2906 11.7871 37.4194 12.1193C37.5482 12.4515 37.7451 12.753 37.9974 13.0046C38.2497 13.2561 38.5519 13.4521 38.8844 13.5799C39.217 13.7077 39.5726 13.7645 39.9285 13.7467C42.6758 13.7467 45.4231 13.7467 48.1705 13.7467C48.5263 13.7643 48.8818 13.707 49.214 13.5785C49.5462 13.45 49.8478 13.2531 50.0991 13.0007C50.3504 12.7482 50.5459 12.4458 50.6729 12.113C50.8 11.7802 50.8557 11.4244 50.8365 11.0687C50.8391 8.32206 50.8391 5.57504 50.8365 2.8277ZM46.5065 7.8277C44.8652 7.8277 43.2248 7.8277 41.5855 7.8277C41.4677 7.84058 41.3485 7.82861 41.2357 7.79255C41.1228 7.75648 41.0187 7.69714 40.9302 7.61835C40.8418 7.53956 40.7708 7.44309 40.7219 7.33515C40.673 7.22721 40.6473 7.11019 40.6465 6.9917C40.6434 6.87306 40.6658 6.75515 40.7123 6.64594C40.7588 6.53673 40.8282 6.43875 40.9158 6.35871C41.0034 6.27867 41.1072 6.21842 41.2202 6.18201C41.3331 6.1456 41.4526 6.13391 41.5705 6.14771C42.3965 6.14771 43.2225 6.14771 44.0475 6.14771H46.4925C46.6115 6.13191 46.7325 6.14158 46.8475 6.17609C46.9625 6.21061 47.0688 6.26918 47.1594 6.34791C47.2501 6.42663 47.3229 6.52373 47.3732 6.63276C47.4234 6.74178 47.4499 6.86024 47.4509 6.98029C47.4519 7.10034 47.4274 7.2192 47.379 7.32905C47.3305 7.43889 47.2593 7.53721 47.17 7.61744C47.0807 7.69766 46.9754 7.75802 46.861 7.79444C46.7466 7.83086 46.6257 7.8425 46.5065 7.82868V7.8277Z" fill="white"/>
<path id="Path 842" d="M35.5714 2.83459C35.59 2.4789 35.5338 2.12327 35.4063 1.7907C35.2787 1.45814 35.0828 1.15604 34.831 0.904046C34.5793 0.652049 34.2775 0.455779 33.9451 0.327874C33.6127 0.199968 33.2571 0.143275 32.9014 0.161553C30.1534 0.161553 27.4057 0.161553 24.6584 0.161553C24.3024 0.140712 23.9461 0.195334 23.6128 0.321831C23.2795 0.448328 22.9767 0.643838 22.7242 0.895562C22.4717 1.14729 22.2753 1.44957 22.1478 1.78252C22.0203 2.11547 21.9646 2.47159 21.9844 2.82757C21.9844 5.57357 21.9844 8.3206 21.9844 11.0686C21.9655 11.4242 22.0214 11.7798 22.1485 12.1125C22.2757 12.4451 22.4712 12.7474 22.7224 12.9998C22.9737 13.2522 23.2751 13.4491 23.6072 13.5777C23.9393 13.7063 24.2947 13.7639 24.6504 13.7466C27.3977 13.7466 30.145 13.7466 32.8924 13.7466C33.2482 13.7646 33.6038 13.7079 33.9363 13.5802C34.2689 13.4525 34.5711 13.2566 34.8234 13.0051C35.0757 12.7536 35.2726 12.4521 35.4014 12.12C35.5303 11.7878 35.5881 11.4324 35.5714 11.0766C35.5714 9.70259 35.5714 8.32956 35.5714 6.95556C35.5714 5.58156 35.5714 4.20559 35.5714 2.83459ZM31.3124 7.82256C30.7754 7.83456 30.2384 7.83059 29.7024 7.83459C29.6944 7.83459 29.6864 7.84855 29.6474 7.88555C29.6474 8.36755 29.6474 8.87959 29.6474 9.39159C29.6626 9.51209 29.6519 9.63445 29.6161 9.75048C29.5802 9.86652 29.52 9.97356 29.4394 10.0644C29.3588 10.1553 29.2598 10.2279 29.1489 10.2775C29.038 10.327 28.9178 10.3522 28.7964 10.3516C28.6775 10.3518 28.56 10.3267 28.4516 10.2779C28.3432 10.2291 28.2465 10.1578 28.168 10.0686C28.0894 9.97942 28.0308 9.87451 27.996 9.76086C27.9612 9.64721 27.9511 9.52747 27.9664 9.4096C27.9664 8.8966 27.9664 8.38258 27.9664 7.82458H26.6364C26.4974 7.82458 26.3574 7.83157 26.2174 7.81957C26.0007 7.80442 25.7978 7.70785 25.6494 7.54925C25.501 7.39065 25.4181 7.18179 25.4174 6.96459C25.4225 6.7472 25.512 6.54033 25.6669 6.38769C25.8218 6.23505 26.0299 6.14861 26.2474 6.1466C26.8034 6.1336 27.3604 6.1466 27.9654 6.1466V4.84655C27.9654 4.71755 27.9654 4.58859 27.9654 4.45959C27.9615 4.34704 27.9803 4.23482 28.0207 4.12969C28.0611 4.02457 28.1222 3.92864 28.2005 3.84765C28.2787 3.76665 28.3724 3.70225 28.4761 3.65826C28.5798 3.61426 28.6912 3.59161 28.8039 3.59161C28.9165 3.59161 29.0279 3.61426 29.1316 3.65826C29.2353 3.70225 29.329 3.76665 29.4073 3.84765C29.4855 3.92864 29.5467 4.02457 29.587 4.12969C29.6274 4.23482 29.6462 4.34704 29.6424 4.45959C29.6534 5.00559 29.6424 5.55157 29.6424 6.14257C30.2074 6.14257 30.7504 6.14257 31.2944 6.14257C31.4726 6.13093 31.6498 6.17776 31.7991 6.27593C31.9483 6.37411 32.0615 6.51827 32.1214 6.68658C32.17 6.8156 32.1861 6.95463 32.1683 7.09136C32.1505 7.2281 32.0994 7.3583 32.0193 7.47057C31.9393 7.58284 31.8328 7.67371 31.7093 7.7351C31.5859 7.79649 31.4492 7.8265 31.3114 7.82256H31.3124Z" fill="white"/>
<path id="Path 843" d="M50.8726 18.1058C50.8909 17.7499 50.8344 17.3942 50.7067 17.0614C50.5791 16.7287 50.3831 16.4264 50.1314 16.174C49.8798 15.9217 49.578 15.7249 49.2456 15.5964C48.9132 15.4679 48.5575 15.4104 48.2016 15.4278C45.4542 15.4278 42.7069 15.4278 39.9596 15.4278C39.6038 15.4091 39.2482 15.4654 38.9156 15.593C38.5829 15.7205 38.2808 15.9164 38.0287 16.1681C37.7767 16.4198 37.5803 16.7216 37.4522 17.054C37.3242 17.3864 37.2674 17.7421 37.2856 18.0979C37.2856 19.4609 37.2856 20.8238 37.2856 22.1868C37.2856 23.5708 37.2856 24.9548 37.2856 26.3388C37.2647 26.6947 37.3194 27.0511 37.4458 27.3844C37.5723 27.7177 37.7679 28.0205 38.0196 28.273C38.2713 28.5255 38.5736 28.7219 38.9065 28.8494C39.2395 28.9769 39.5956 29.0326 39.9516 29.0128C42.6996 29.0128 45.4469 29.0128 48.1936 29.0128C48.5494 29.0322 48.9052 28.9766 49.2382 28.8496C49.5711 28.7227 49.8736 28.5272 50.1262 28.2758C50.3787 28.0245 50.5757 27.7229 50.7043 27.3906C50.8328 27.0583 50.8902 26.7027 50.8726 26.3468C50.8779 23.5995 50.8779 20.8525 50.8726 18.1058ZM46.6876 24.2628C46.6423 24.4075 46.5565 24.5361 46.4405 24.6336C46.3244 24.731 46.1829 24.7932 46.0326 24.8128C45.8889 24.8369 45.7414 24.8241 45.6041 24.7755C45.4667 24.7268 45.3441 24.644 45.2476 24.5349C44.8806 24.1589 44.5116 23.7869 44.0856 23.3529C43.6856 23.7739 43.3086 24.1798 42.9176 24.5708C42.8062 24.6892 42.6618 24.7716 42.5032 24.8072C42.3446 24.8428 42.1789 24.8302 42.0276 24.7708C41.8827 24.726 41.7542 24.6397 41.6579 24.5225C41.5615 24.4054 41.5016 24.2626 41.4856 24.1118C41.4628 23.9679 41.4772 23.8206 41.5272 23.6838C41.5773 23.547 41.6614 23.4251 41.7716 23.3298C42.1466 22.9638 42.5176 22.5929 42.9316 22.1809C42.5226 21.7809 42.1316 21.4089 41.7436 21.0249C41.6237 20.9153 41.5383 20.773 41.498 20.6157C41.4577 20.4583 41.4641 20.2926 41.5166 20.1388C41.559 19.9933 41.6422 19.863 41.7563 19.7632C41.8704 19.6634 42.0107 19.5984 42.1606 19.5758C42.3092 19.5481 42.4626 19.5602 42.6051 19.611C42.7475 19.6617 42.874 19.7493 42.9716 19.8648C43.3396 20.2368 43.7056 20.6108 44.1176 21.0278C44.5176 20.6088 44.8916 20.2098 45.2786 19.8278C45.3857 19.7144 45.5222 19.6328 45.6729 19.5922C45.8235 19.5517 45.9825 19.5537 46.1321 19.598C46.2817 19.6424 46.4161 19.7273 46.5203 19.8435C46.6246 19.9596 46.6946 20.1023 46.7226 20.2558C46.7485 20.4047 46.735 20.5578 46.6832 20.6998C46.6314 20.8418 46.5433 20.9676 46.4276 21.0648C46.0636 21.4278 45.6966 21.7888 45.2756 22.2048C45.6946 22.6118 46.0926 22.9848 46.4756 23.3728C46.5969 23.4818 46.6824 23.6249 46.721 23.7834C46.7595 23.9419 46.7493 24.1083 46.6916 24.2608L46.6876 24.2628Z" fill="white"/>
<g id="Group 653">
<path id="Path 844" d="M10.795 18.8969H6.642V28.2688H4.154V18.8969H0V16.7148H10.795V18.8969Z" fill="white"/>
<path id="Path 845" d="M19.2651 26.4708H13.8861L13.2641 28.2708H10.7031L14.7281 16.7168H18.4421L22.4721 28.2688H19.9061L19.2651 26.4708ZM18.5521 24.4168L16.5521 18.7688L14.5951 24.4168H18.5521Z" fill="white"/>
<path id="Path 846" d="M34.9473 28.2688H31.8553L28.7993 24.2568L25.7263 28.2688H22.6523L27.3723 22.4278L22.7623 16.7148H25.8173L28.7993 20.5978L31.7633 16.7148H34.8193L30.2263 22.4278L34.9473 28.2688Z" fill="white"/>
</g>
</g>
</g>
</svg>
