<svg width="41" height="8" viewBox="0 0 41 8" fill="none" xmlns="http://www.w3.org/2000/svg">
<g id="Group 1489">
<g id="Group 1488">
<g id="Group 1487">
<path id="Path 2502" d="M20.4472 5.08789H0.92132C0.87232 5.08789 0.821394 5.08789 0.772394 5.08789C0.685394 5.08789 0.621422 5.08109 0.625422 4.96509C0.629422 4.84909 0.702394 4.86499 0.772394 4.86499H2.84222H39.9511H40.1855C40.2515 4.86499 40.267 4.90709 40.266 4.96509C40.265 5.02309 40.2665 5.08489 40.1855 5.08789C40.1045 5.09089 40.0431 5.08789 39.9721 5.08789H20.4472Z" fill="white"/>
<path id="Path 2503" d="M1.82583 0.438965C1.86424 0.480228 1.89376 0.52895 1.91275 0.582031C2.25275 1.43003 2.59697 2.27612 2.94497 3.12012C2.96597 3.17012 2.96707 3.23389 3.04507 3.26489C3.3544 2.51623 3.66409 1.76709 3.97476 1.01709C3.99376 0.97109 4.01182 0.925104 4.03482 0.881104C4.10682 0.740104 4.06709 0.519125 4.21109 0.453125C4.22342 0.447608 4.2362 0.44277 4.24917 0.438965H5.06997C5.09697 0.444965 5.11394 0.462057 5.11294 0.508057C5.11588 0.5309 5.10992 0.553907 5.09634 0.57251C5.08276 0.591112 5.06284 0.603748 5.04019 0.60791C4.74019 0.70791 4.66697 0.82609 4.69497 1.14209C4.74597 1.74209 4.80118 2.34189 4.85318 2.94189C4.85318 2.95589 4.85318 2.96989 4.85318 2.98389C4.85318 3.02489 4.85318 3.06593 4.85318 3.10693C4.84777 3.2769 4.86344 3.44698 4.90005 3.61304C4.90592 3.70953 4.94504 3.80105 5.01089 3.87183C5.07674 3.9426 5.16507 3.98817 5.26089 4.00098C5.32089 4.01198 5.39784 4.00107 5.38784 4.10107C5.37784 4.20107 5.29787 4.17407 5.24087 4.17407C4.82987 4.17407 4.41996 4.17407 4.00796 4.17407C3.95396 4.17407 3.89098 4.18607 3.88198 4.10107C3.87298 4.01607 3.92608 4.01198 3.98208 4.00098C4.03163 3.99448 4.07926 3.97793 4.12222 3.95239C4.16517 3.92686 4.20221 3.89296 4.23159 3.85254C4.26097 3.81212 4.28209 3.76602 4.29312 3.71729C4.30415 3.66855 4.30516 3.61822 4.29605 3.56909C4.29605 3.41309 4.28305 3.258 4.27505 3.104C4.23205 2.504 4.19014 1.90391 4.14614 1.28491C4.11114 1.30891 4.09399 1.31493 4.08999 1.32593C3.86799 1.87593 3.64691 2.42607 3.42691 2.97607C3.28757 3.30941 3.14734 3.64274 3.00601 3.97607C2.97401 4.04907 2.96783 4.14907 2.84683 4.14307C2.72583 4.13707 2.73418 4.04296 2.70718 3.98096C2.35918 3.13629 2.01216 2.29107 1.66616 1.44507C1.64916 1.40307 1.64607 1.34509 1.56607 1.31909C1.51807 1.86309 1.46591 2.39596 1.42691 2.92896C1.389 3.16046 1.38493 3.39616 1.41421 3.62891C1.42233 3.72872 1.46559 3.82238 1.53677 3.89282C1.60795 3.96326 1.70202 4.00586 1.80191 4.01294C1.86491 4.01994 1.93786 4.00596 1.92886 4.10596C1.91986 4.20596 1.84084 4.17893 1.78384 4.17993C1.42884 4.17993 1.0739 4.17993 0.718898 4.17993C0.662898 4.17993 0.584902 4.20991 0.572902 4.10791C0.560902 4.00591 0.629996 4.01706 0.693996 4.00806C0.810937 3.98505 0.916612 3.92308 0.993801 3.83228C1.07099 3.74147 1.11494 3.62718 1.1188 3.50806C1.1628 3.19406 1.17509 2.87408 1.21109 2.55908C1.25009 2.22608 1.26902 1.88908 1.31802 1.55908C1.34702 1.36708 1.36212 1.17203 1.37612 0.978027C1.38712 0.825027 1.22075 0.66899 1.01675 0.61499C0.94975 0.59799 0.817133 0.659893 0.834133 0.514893C0.833593 0.50108 0.836321 0.487497 0.842433 0.475098C0.848546 0.462699 0.857516 0.452076 0.868801 0.444092L1.82583 0.438965Z" fill="white"/>
<path id="Path 2504" d="M26.1729 4.27096C25.784 4.27631 25.4023 4.16586 25.0762 3.95382C24.7502 3.74178 24.4947 3.4377 24.3418 3.08004C24.189 2.72239 24.1457 2.32746 24.2178 1.94528C24.29 1.56309 24.4739 1.21089 24.7466 0.933558C25.0193 0.656226 25.3687 0.466255 25.7496 0.38766C26.1305 0.309065 26.5261 0.345402 26.8863 0.492152C27.2465 0.638902 27.555 0.889464 27.7725 1.21188C27.99 1.53429 28.1067 1.91401 28.108 2.30294C28.1121 2.55974 28.0652 2.81472 27.9698 3.05319C27.8744 3.29165 27.7324 3.50897 27.5523 3.6921C27.3722 3.87524 27.1578 4.02069 26.9209 4.12008C26.6841 4.21948 26.4297 4.27073 26.1729 4.27096ZM27.4727 2.31491C27.4784 2.04396 27.4408 1.77381 27.3609 1.51486C27.2971 1.25374 27.1491 1.02108 26.9395 0.852748C26.7299 0.684418 26.4704 0.589923 26.2017 0.583949C25.9362 0.571217 25.6743 0.648347 25.4581 0.802943C25.2418 0.957539 25.0837 1.18062 25.0098 1.436C24.7969 2.0153 24.8057 2.65291 25.0347 3.22604C25.1166 3.46031 25.269 3.66353 25.4708 3.80807C25.6725 3.95261 25.9135 4.03147 26.1617 4.03366C26.4098 4.03584 26.6528 3.96124 26.857 3.82028C27.0612 3.67931 27.2168 3.47885 27.3028 3.24606C27.423 2.95079 27.4815 2.6336 27.4727 2.31491Z" fill="white"/>
<path id="Path 2505" d="M33.0281 2.37893C32.8281 2.92393 32.6283 3.45511 32.4373 3.98611C32.4282 4.02029 32.4163 4.05358 32.4021 4.08596C32.3701 4.14196 32.3772 4.23698 32.2742 4.23098C32.1712 4.22498 32.1931 4.14191 32.1741 4.08791C31.9501 3.47491 31.7361 2.85807 31.5061 2.24807C31.4121 2.00007 31.3942 1.68394 31.0432 1.61794C31.0292 1.61794 31.0159 1.57312 31.0139 1.54812C31.0139 1.50512 31.0388 1.48391 31.0798 1.48391H31.9539C31.9909 1.48391 32.027 1.49013 32.032 1.53713C32.037 1.58413 32.024 1.62198 31.969 1.62698C31.793 1.64398 31.7809 1.75796 31.8259 1.88796C32.0079 2.41696 32.1962 2.94492 32.3972 3.51492C32.5792 3.01492 32.7519 2.56305 32.9109 2.10305C32.9619 1.95405 32.811 1.72102 32.635 1.64602C32.582 1.62302 32.4889 1.63513 32.5129 1.53713C32.5369 1.43913 32.613 1.48611 32.675 1.48611C32.916 1.48111 33.1581 1.48611 33.4001 1.48611C33.4511 1.48611 33.522 1.45907 33.53 1.55007C33.537 1.62207 33.4839 1.62506 33.4299 1.63406C33.2759 1.66106 33.2802 1.77493 33.3152 1.87893C33.4982 2.41293 33.6888 2.94404 33.8918 3.52004C34.0918 2.95904 34.292 2.43994 34.47 1.91994C34.521 1.77394 34.4979 1.64813 34.3049 1.63113C34.2499 1.62613 34.2051 1.61692 34.2131 1.54592C34.2211 1.47492 34.2639 1.48611 34.3059 1.48611H34.968C35.01 1.48611 35.0561 1.48599 35.0681 1.54299C35.0706 1.55326 35.0709 1.56384 35.0691 1.57424C35.0673 1.58465 35.0632 1.59472 35.0574 1.60354C35.0516 1.61235 35.0442 1.61974 35.0354 1.62551C35.0266 1.63128 35.0165 1.63522 35.0061 1.63699C34.7831 1.69699 34.7059 1.88007 34.6379 2.07107C34.3979 2.73107 34.1579 3.39109 33.9109 4.04909C33.8859 4.11809 33.8962 4.24098 33.7722 4.23098C33.6722 4.22198 33.683 4.11314 33.658 4.04714C33.482 3.56714 33.3129 3.086 33.1409 2.605C33.122 2.52163 33.0835 2.44401 33.0281 2.37893Z" fill="white"/>
<path id="Path 2506" d="M6.04126 2.75906C6.05766 2.52983 6.12693 2.30748 6.2439 2.10965C6.36086 1.91182 6.52214 1.74378 6.71509 1.61892C6.89493 1.50958 7.09692 1.44233 7.3064 1.4219C7.51588 1.40148 7.72748 1.42845 7.92505 1.501C8.12262 1.57356 8.30103 1.68971 8.44751 1.84085C8.59399 1.99199 8.70491 2.1743 8.77124 2.37405C8.88736 2.73222 8.85895 3.12146 8.69214 3.45901C8.52532 3.79656 8.23323 4.05562 7.87817 4.18094C7.69863 4.23901 7.50893 4.25999 7.32104 4.24246C7.13316 4.22493 6.9511 4.16942 6.7854 4.07913C6.6197 3.98884 6.47377 3.86569 6.35718 3.71731C6.24059 3.56894 6.15572 3.39844 6.10718 3.21609C6.07342 3.06569 6.05144 2.91287 6.04126 2.75906ZM8.36206 2.87112C8.37645 2.58361 8.31382 2.29736 8.18091 2.04202C8.11101 1.91327 8.00853 1.80521 7.88354 1.72879C7.75856 1.65236 7.61545 1.61027 7.46899 1.60672C7.32254 1.60317 7.1781 1.63824 7.04956 1.70852C6.92102 1.7788 6.81312 1.8819 6.73706 2.00711C6.60856 2.22392 6.53275 2.46783 6.51538 2.71927C6.49802 2.9707 6.53949 3.22268 6.63696 3.45511C6.68676 3.63579 6.79714 3.79391 6.94946 3.9031C7.10179 4.0123 7.28677 4.06582 7.47388 4.05496C7.65659 4.05024 7.83327 3.98706 7.97729 3.87454C8.12132 3.76202 8.22538 3.6061 8.27417 3.42996C8.32937 3.24863 8.35888 3.06064 8.36206 2.87112Z" fill="white"/>
<path id="Path 2507" d="M37.1569 4.18407H36.7731C36.7301 4.18407 36.684 4.18409 36.673 4.13109C36.6698 4.11953 36.6693 4.10723 36.6715 4.09544C36.6737 4.08366 36.6786 4.07261 36.6857 4.06297C36.6928 4.05334 36.7019 4.04556 36.7126 4.04002C36.7232 4.03448 36.7352 4.03132 36.7472 4.03099C36.9282 4.00399 36.9108 3.88799 36.8698 3.75999C36.8578 3.71999 36.8481 3.67792 36.8341 3.63792C36.6261 3.01692 36.6261 3.01898 35.9611 3.07298C35.9266 3.07116 35.8926 3.08193 35.8654 3.10326C35.8382 3.12458 35.8196 3.15499 35.8131 3.18895C35.7531 3.37795 35.6801 3.56387 35.6271 3.75487C35.5941 3.87487 35.5839 4.00501 35.7619 4.03001C35.7743 4.02967 35.7867 4.03214 35.798 4.03734C35.8093 4.04254 35.8195 4.05037 35.8273 4.06004C35.8351 4.06972 35.8407 4.0811 35.8434 4.09325C35.8461 4.10539 35.8458 4.11777 35.8429 4.12987C35.8369 4.18887 35.7922 4.18797 35.7482 4.18797H35.1481C35.1051 4.18797 35.059 4.18802 35.048 4.13402C35.037 4.08002 35.0482 4.04392 35.1032 4.03392C35.3302 3.99892 35.382 3.81302 35.442 3.63402C35.677 2.95002 35.9108 2.26609 36.1418 1.57909C36.1798 1.46309 36.227 1.40501 36.362 1.40501C36.4138 1.39873 36.466 1.41304 36.5075 1.44481C36.549 1.47658 36.5767 1.52321 36.5841 1.57494C36.8095 2.27027 37.0391 2.96368 37.2731 3.65501C37.3291 3.82101 37.3729 4.00701 37.5959 4.03001C37.6479 4.03601 37.6649 4.07503 37.6579 4.12303C37.6509 4.17103 37.6028 4.18089 37.5578 4.18089L37.1569 4.18407ZM36.2511 1.87596C36.1761 2.09996 36.1109 2.25691 36.0709 2.41991C36.0359 2.55691 35.871 2.72505 36.006 2.82005C36.106 2.89505 36.3061 2.8369 36.4621 2.8369C36.5351 2.8369 36.5617 2.80794 36.5377 2.73094C36.4467 2.46994 36.3601 2.20289 36.2511 1.87889V1.87596Z" fill="white"/>
<path id="Path 2508" d="M19.0822 4.17896C18.9612 4.17896 18.8399 4.17896 18.7189 4.17896C18.6679 4.17896 18.5979 4.20011 18.5929 4.11011C18.5929 4.04311 18.6352 4.02802 18.6872 4.02002C18.8262 3.99802 18.8358 3.90112 18.8058 3.79712C18.7408 3.57912 18.6668 3.36495 18.5988 3.14795C18.5939 3.12358 18.5802 3.10195 18.5602 3.08716C18.5402 3.07237 18.5156 3.06565 18.4909 3.06812C18.4699 3.06812 18.4479 3.06812 18.4269 3.06812C17.7549 3.04412 17.6751 3.10894 17.5431 3.78394C17.5191 3.90394 17.5428 3.99797 17.6798 4.02197C17.7328 4.03097 17.7801 4.04504 17.7741 4.11304C17.7681 4.18104 17.7151 4.18091 17.6671 4.18091C17.4671 4.18091 17.267 4.18091 17.067 4.18091C17.025 4.18091 16.978 4.18107 16.967 4.12207C16.956 4.06307 16.977 4.03705 17.029 4.02905C17.243 3.99305 17.301 3.81912 17.359 3.65112C17.597 2.96112 17.8341 2.27113 18.0641 1.57812C18.1031 1.46113 18.1479 1.40601 18.2829 1.40601C18.4179 1.40601 18.4631 1.45693 18.5021 1.57593C18.7261 2.26993 18.9554 2.96303 19.1901 3.65503C19.2461 3.81903 19.2898 4.00703 19.5138 4.03003C19.5678 4.03003 19.5799 4.07802 19.5739 4.12402C19.5679 4.17002 19.5218 4.18311 19.4738 4.18311L19.0822 4.17896ZM18.1818 1.87891C18.1128 2.07891 18.0551 2.235 18.0031 2.396C17.8481 2.871 17.8488 2.87091 18.3498 2.83691H18.3708C18.4778 2.84491 18.4911 2.79008 18.4621 2.70508C18.3701 2.44908 18.2819 2.18803 18.1789 1.88403L18.1818 1.87891Z" fill="white"/>
<path id="Path 2509" d="M10.8572 2.77916C10.8572 3.07916 10.8572 3.37918 10.8572 3.67418C10.8572 3.84718 10.8882 4.00613 11.1062 4.03013C11.117 4.0298 11.1275 4.03163 11.1375 4.03575C11.1474 4.03987 11.1564 4.04621 11.1638 4.05406C11.1712 4.06191 11.1769 4.07122 11.1804 4.0814C11.1839 4.09159 11.1848 4.10242 11.1838 4.11314C11.1838 4.18414 11.1312 4.18712 11.0842 4.18712H10.1838C10.1328 4.18712 10.0839 4.18709 10.0779 4.11509C10.0719 4.04309 10.121 4.0342 10.178 4.0272C10.347 4.0052 10.4011 3.88512 10.4031 3.73912C10.4031 3.09312 10.4089 2.44615 10.4099 1.80015C10.4099 1.74615 10.4202 1.67518 10.3362 1.67418C10.1315 1.6449 9.92284 1.66751 9.72925 1.74009C9.69047 1.75805 9.65684 1.78597 9.63257 1.82115C9.6083 1.85632 9.59408 1.89742 9.59106 1.94005C9.58506 2.00105 9.55597 2.03003 9.49097 2.02403C9.42597 2.01803 9.42212 1.96419 9.42212 1.91319C9.42212 1.75019 9.42212 1.5862 9.42212 1.4232C9.42212 1.3012 9.51414 1.27618 9.56714 1.35118C9.60703 1.40116 9.65964 1.43924 9.71948 1.46177C9.77933 1.4843 9.84404 1.49037 9.90698 1.47911C10.39 1.48511 10.8742 1.48511 11.3572 1.47911C11.4802 1.47911 11.609 1.47922 11.697 1.34922C11.733 1.29322 11.8361 1.28423 11.8401 1.40123C11.8471 1.57923 11.8401 1.75719 11.8401 1.93419C11.8401 1.98019 11.8322 2.02005 11.7742 2.02305C11.7528 2.02597 11.7309 2.02139 11.7126 2.00987C11.6944 1.99835 11.6807 1.98064 11.6741 1.96006C11.5951 1.83374 11.4768 1.73708 11.3372 1.68516C11.1975 1.63325 11.0444 1.62914 10.9021 1.6732C10.8211 1.7102 10.8499 1.78222 10.8489 1.83922C10.8489 2.15222 10.8489 2.4642 10.8489 2.7772L10.8572 2.77916Z" fill="white"/>
<path id="Path 2510" d="M28.9282 3.82598C28.9282 3.74098 28.9282 3.6561 28.9282 3.5711C28.9282 3.5141 28.9203 3.4511 29.0043 3.4461C29.0883 3.4411 29.0812 3.50609 29.0942 3.56109C29.1111 3.70497 29.183 3.83668 29.2949 3.92876C29.4067 4.02084 29.5498 4.06604 29.6943 4.05498C29.7874 4.06129 29.8803 4.03819 29.9594 3.98882C30.0386 3.93946 30.0999 3.86644 30.1352 3.78008C30.174 3.69103 30.1819 3.59143 30.1577 3.49737C30.1334 3.40331 30.0785 3.32016 30.0014 3.26104C29.8341 3.1293 29.6577 3.00916 29.4741 2.90117C29.3427 2.83774 29.2276 2.74518 29.1372 2.63067C29.0467 2.51616 28.9833 2.38257 28.9521 2.24004C28.9356 2.11835 28.9502 1.9944 28.9941 1.87969C29.0379 1.76498 29.1096 1.66319 29.2031 1.58355C29.2966 1.50391 29.4085 1.44896 29.5288 1.42388C29.649 1.3988 29.7735 1.40437 29.8911 1.43999C30.0121 1.46699 30.132 1.56011 30.267 1.43511C30.328 1.37811 30.3764 1.45013 30.3754 1.52813C30.3754 1.67013 30.3754 1.81215 30.3754 1.95415C30.3754 2.00415 30.4042 2.07802 30.3222 2.09502C30.2402 2.11202 30.2285 2.0371 30.2065 1.9771C30.1879 1.90675 30.1544 1.84098 30.1088 1.78423C30.0633 1.72748 30.0065 1.68088 29.9418 1.64751C29.8772 1.61415 29.8065 1.59486 29.7338 1.59063C29.6612 1.5864 29.5885 1.59746 29.5205 1.6231C29.4689 1.63759 29.421 1.66347 29.3808 1.69878C29.3406 1.7341 29.309 1.77798 29.288 1.8272C29.267 1.87642 29.2574 1.92974 29.2597 1.98321C29.262 2.03667 29.2761 2.08881 29.3012 2.13604C29.3614 2.26589 29.4614 2.37348 29.5864 2.44317C29.7864 2.56817 29.9861 2.68314 30.1791 2.81914C30.3272 2.91378 30.4386 3.05621 30.4941 3.22295C30.5496 3.38969 30.5461 3.57064 30.4843 3.73516C30.4173 3.901 30.2977 4.04034 30.144 4.13189C29.9903 4.22344 29.811 4.26201 29.6332 4.242C29.5142 4.231 29.3982 4.192 29.2792 4.169C29.2322 4.16 29.1622 4.13601 29.1372 4.15801C28.8882 4.37901 28.9374 4.158 28.9374 4.023C28.9264 3.954 28.9282 3.88998 28.9282 3.82598Z" fill="white"/>
<path id="Path 2511" d="M21.0631 4.18404C20.7721 4.18404 20.4811 4.18404 20.1891 4.18404C20.1381 4.18404 20.0669 4.20703 20.0539 4.12203C20.0409 4.03703 20.1028 4.03293 20.1608 4.02193C20.2255 4.01367 20.2845 3.9804 20.3249 3.92916C20.3653 3.87791 20.3842 3.81287 20.3771 3.748C20.3831 3.13667 20.3831 2.52597 20.3771 1.91597C20.3804 1.88204 20.3769 1.84771 20.3669 1.81514C20.3568 1.78257 20.3404 1.75243 20.3185 1.72628C20.2966 1.70012 20.2697 1.67847 20.2394 1.6628C20.2091 1.64713 20.1757 1.63773 20.1418 1.63497C20.0878 1.62697 20.0419 1.6129 20.0519 1.5439C20.0619 1.4749 20.1221 1.48702 20.1691 1.48702C20.4811 1.48702 20.7941 1.48702 21.1071 1.48702C21.1601 1.48702 21.2292 1.47194 21.2272 1.56294C21.2272 1.63794 21.1668 1.62904 21.1188 1.63204C20.9188 1.64404 20.8478 1.76703 20.8468 1.94503C20.8468 2.54503 20.8468 3.15184 20.8468 3.75484C20.8468 3.90684 20.9249 3.97386 21.0719 3.97286C21.2359 3.97286 21.3992 3.97286 21.5622 3.97286C21.6698 3.98289 21.7776 3.95644 21.8683 3.89766C21.959 3.83888 22.0274 3.75121 22.0622 3.64888C22.0802 3.59688 22.098 3.53003 22.175 3.54903C22.252 3.56803 22.2071 3.64087 22.2111 3.69087C22.2099 3.70487 22.2066 3.71867 22.2018 3.73189C22.1068 4.18589 22.1068 4.18584 21.6418 4.18184H21.0661L21.0631 4.18404Z" fill="white"/>
<path id="Path 2512" d="M15.321 4.18418C15.037 4.18418 14.752 4.18418 14.468 4.18418C14.411 4.18418 14.3278 4.22005 14.3078 4.12705C14.2878 4.03405 14.3649 4.03212 14.4289 4.02012C14.486 4.01013 14.5376 3.97929 14.5734 3.93369C14.6093 3.8881 14.6271 3.8309 14.6233 3.77305C14.6563 3.14905 14.6543 2.52403 14.6233 1.89903C14.6268 1.83384 14.6047 1.76995 14.5617 1.7208C14.5187 1.67166 14.4584 1.64121 14.3933 1.63609C14.3373 1.62909 14.293 1.61522 14.301 1.54722C14.309 1.47922 14.3692 1.48816 14.4162 1.48716C14.7222 1.48716 15.0282 1.48716 15.3332 1.48716C15.3832 1.48716 15.457 1.45822 15.467 1.54722C15.477 1.63622 15.4082 1.6272 15.3542 1.6312C15.3164 1.63261 15.279 1.64161 15.2448 1.65806C15.2107 1.6745 15.1802 1.69793 15.1555 1.72666C15.1308 1.75539 15.1124 1.78884 15.1013 1.82505C15.0902 1.86126 15.0867 1.89947 15.091 1.93711C15.082 2.53711 15.091 3.14512 15.091 3.74912C15.0873 3.7796 15.0906 3.81049 15.1008 3.83946C15.111 3.86842 15.1277 3.89465 15.1496 3.91612C15.1716 3.93758 15.1981 3.9537 15.2273 3.96323C15.2564 3.97277 15.2877 3.97541 15.3181 3.97105C15.4881 3.97105 15.6588 3.97105 15.8298 3.97105C15.9337 3.97676 16.0368 3.94895 16.1237 3.8917C16.2107 3.83445 16.2774 3.75092 16.3132 3.65318C16.3392 3.59218 16.3571 3.52108 16.4431 3.55308C16.5291 3.58508 16.4672 3.65307 16.4572 3.69907C16.3572 4.18707 16.3571 4.18598 15.8571 4.18198C15.6791 4.18198 15.501 4.18198 15.323 4.18198L15.321 4.18418Z" fill="white"/>
<path id="Path 2513" d="M39.1284 4.18413C38.8514 4.18413 38.5734 4.18413 38.2964 4.18413C38.2404 4.18413 38.1562 4.22295 38.1362 4.12895C38.1162 4.03495 38.1953 4.03607 38.2563 4.02007C38.3127 4.0076 38.363 3.97545 38.3979 3.92949C38.4329 3.88353 38.4503 3.82676 38.4473 3.76909C38.4733 3.14442 38.4733 2.51942 38.4473 1.89409C38.4498 1.83271 38.4295 1.77254 38.3901 1.72539C38.3507 1.67824 38.2952 1.64737 38.2344 1.63896C38.1874 1.62896 38.1283 1.63093 38.1343 1.55693C38.1403 1.48293 38.2112 1.49004 38.2632 1.49004C38.5625 1.49004 38.8624 1.49004 39.1631 1.49004C39.2141 1.49004 39.2854 1.46107 39.2964 1.55107C39.3074 1.64107 39.2381 1.63008 39.1841 1.63408C39.1466 1.63497 39.1101 1.64359 39.0762 1.65947C39.0422 1.67535 39.0115 1.69817 38.9868 1.72637C38.9621 1.75456 38.9434 1.78753 38.9321 1.82329C38.9208 1.85904 38.9173 1.89685 38.9214 1.93413C38.9154 2.53413 38.9214 3.14214 38.9214 3.74614C38.9175 3.77639 38.9203 3.8071 38.9302 3.83598C38.94 3.86487 38.9565 3.89103 38.978 3.91264C38.9995 3.93426 39.0258 3.9508 39.0547 3.96074C39.0835 3.97068 39.1142 3.97378 39.1445 3.97002C39.3215 3.97002 39.4992 3.97002 39.6772 3.97002C39.7778 3.9745 39.8773 3.94626 39.9604 3.88945C40.0436 3.83265 40.1058 3.75041 40.1382 3.65508C40.1622 3.59108 40.1831 3.52398 40.2671 3.55498C40.3511 3.58598 40.2922 3.65502 40.2842 3.69902C40.1982 4.18902 40.1974 4.18811 39.7124 4.18511H39.1362L39.1284 4.18413Z" fill="white"/>
<path id="Path 2514" d="M13.0032 1.48714C13.1452 1.48714 13.2879 1.48714 13.4299 1.48714C13.4819 1.48714 13.5518 1.46801 13.5588 1.55501C13.5658 1.64201 13.5062 1.62706 13.4592 1.63606C13.3985 1.64441 13.3431 1.67484 13.3035 1.72151C13.2638 1.76819 13.2423 1.82776 13.2439 1.88899C13.2109 2.51299 13.2139 3.13706 13.2439 3.76106C13.2392 3.82628 13.2607 3.89077 13.3035 3.94026C13.3462 3.98975 13.4067 4.02012 13.4719 4.02498C13.5279 4.03098 13.5723 4.05297 13.5613 4.11897C13.5503 4.18497 13.497 4.18196 13.449 4.18196H12.575C12.523 4.18196 12.454 4.20018 12.45 4.11018C12.45 4.04218 12.495 4.03002 12.55 4.02302C12.731 3.99802 12.78 3.86416 12.781 3.71516C12.787 3.12616 12.781 2.5361 12.781 1.9471C12.7909 1.87527 12.7722 1.8024 12.7292 1.74397C12.6863 1.68555 12.6225 1.64617 12.551 1.63411C12.503 1.62611 12.4509 1.62903 12.4509 1.55403C12.4509 1.47903 12.5303 1.48814 12.5813 1.48714C12.7193 1.48514 12.8612 1.48714 13.0032 1.48714Z" fill="white"/>
<path id="Path 2515" d="M6.51205 6.68902C6.51205 6.54702 6.51205 6.40497 6.51205 6.26397C6.51205 6.22397 6.50297 6.17204 6.55697 6.15704C6.61097 6.14204 6.67027 6.13016 6.69027 6.18316C6.72827 6.28316 6.76206 6.24711 6.82406 6.20611C6.85892 6.17441 6.90003 6.15016 6.94467 6.13507C6.9893 6.11997 7.03639 6.11443 7.08334 6.11846C7.13028 6.1225 7.17621 6.13601 7.21762 6.1585C7.25902 6.181 7.29512 6.21189 7.32406 6.24908C7.38206 6.31608 7.4111 6.31108 7.4681 6.24908C7.52221 6.18617 7.59569 6.14314 7.67709 6.12701C7.75848 6.11087 7.84331 6.12245 7.91732 6.15997C7.98349 6.19593 8.03669 6.25143 8.07015 6.3189C8.10362 6.38637 8.11574 6.46272 8.10433 6.53716C8.10433 6.72116 8.10433 6.90614 8.10433 7.09014C8.10433 7.15614 8.12803 7.24098 8.01303 7.24298C7.89803 7.24498 7.91293 7.16796 7.91293 7.09796C7.91293 6.92696 7.91909 6.75697 7.90609 6.58697C7.89609 6.46297 7.88639 6.32107 7.70639 6.31207C7.52639 6.30307 7.44704 6.42405 7.42904 6.57305C7.41484 6.74967 7.41049 6.92694 7.41537 7.10406C7.41537 7.17806 7.41492 7.24995 7.30892 7.24395C7.21692 7.23895 7.2142 7.17814 7.2142 7.11114C7.2142 6.93314 7.21431 6.75616 7.20932 6.57916C7.20932 6.44416 7.18212 6.31707 7.00912 6.31207C6.97501 6.30925 6.94083 6.31369 6.90853 6.32501C6.87623 6.33632 6.84652 6.35426 6.82162 6.37774C6.79672 6.40122 6.77718 6.42965 6.764 6.46124C6.75082 6.49282 6.74414 6.52688 6.74496 6.56109C6.72696 6.73709 6.73822 6.9151 6.73422 7.0921C6.73422 7.1601 6.752 7.23895 6.639 7.24395C6.526 7.24895 6.52033 7.1751 6.52133 7.0921C6.51333 6.9591 6.51205 6.82402 6.51205 6.68902Z" fill="white"/>
<path id="Path 2516" d="M12.7261 5.71999C12.7543 5.71595 12.7828 5.71595 12.811 5.71999C12.896 5.74699 13.047 5.70791 13.022 5.85891C12.997 6.00991 12.886 5.88806 12.814 5.89406C12.7503 5.89051 12.6867 5.89051 12.623 5.89406C12.5818 5.89468 12.5416 5.9089 12.5093 5.93459C12.477 5.96027 12.4543 5.99583 12.4443 6.03591C12.4344 6.07598 12.438 6.11822 12.4546 6.15602C12.4712 6.19383 12.4994 6.22531 12.5356 6.24514C12.6436 6.31414 12.7528 6.38109 12.8618 6.44509C12.9502 6.48636 13.0207 6.55793 13.0605 6.64699C13.1004 6.73606 13.1068 6.83652 13.0786 6.92995C13.0499 7.01883 12.9945 7.09666 12.9199 7.15285C12.8453 7.20904 12.755 7.24084 12.6616 7.24391C12.5338 7.25648 12.4049 7.2412 12.2837 7.19899C12.1927 7.17499 12.2106 7.09899 12.2246 7.04299C12.2446 6.95499 12.3008 7.01497 12.3418 7.02297C12.4488 7.0623 12.5641 7.07361 12.6768 7.05593C12.8768 6.99993 12.9317 6.83594 12.7827 6.69094C12.6981 6.61463 12.6057 6.54763 12.5068 6.49099C12.2688 6.34099 12.178 6.18299 12.228 5.99099C12.2697 5.89733 12.3406 5.82001 12.4307 5.77101C12.5207 5.72202 12.6248 5.70411 12.7261 5.71999Z" fill="white"/>
<path id="Path 2517" d="M1.3753 6.67889C1.3753 6.53689 1.3753 6.39484 1.3753 6.25384C1.3753 6.13084 1.50028 6.11182 1.52228 6.16082C1.60128 6.33882 1.66526 6.1999 1.73126 6.1679C1.78673 6.13199 1.8508 6.11147 1.91681 6.10833C1.98282 6.10519 2.04811 6.1196 2.10675 6.15008C2.16538 6.18057 2.21496 6.22608 2.2503 6.28192C2.28565 6.33776 2.30546 6.40191 2.30792 6.46795C2.32992 6.68595 2.31715 6.90689 2.31915 7.12689C2.31915 7.18989 2.30438 7.23595 2.22638 7.23895C2.14838 7.24195 2.11307 7.20393 2.11407 7.12493C2.11407 6.94693 2.11407 6.76995 2.11407 6.59295C2.10807 6.44295 2.07416 6.30198 1.88116 6.29998C1.84357 6.2966 1.80589 6.30129 1.77032 6.3139C1.73475 6.32651 1.70217 6.34668 1.67511 6.37298C1.64804 6.39929 1.62671 6.43105 1.6131 6.46624C1.59948 6.50144 1.59369 6.53917 1.59601 6.57684C1.58501 6.75284 1.58731 6.93084 1.58331 7.10784C1.58331 7.17484 1.58321 7.23495 1.48321 7.23895C1.38321 7.24295 1.37235 7.17801 1.37335 7.10101L1.3753 6.67889Z" fill="white"/>
<path id="Path 2518" d="M9.55114 6.679C9.55114 6.537 9.55114 6.39497 9.55114 6.25297C9.55114 6.11097 9.69109 6.11594 9.72009 6.17094C9.78109 6.28794 9.80929 6.23394 9.87829 6.19194C9.93591 6.14564 10.0058 6.11752 10.0795 6.11088C10.1531 6.10425 10.2269 6.11957 10.2919 6.15483C10.3568 6.19009 10.4101 6.24378 10.4447 6.30913C10.4793 6.37447 10.4936 6.44847 10.4862 6.52202C10.4942 6.71302 10.4862 6.90497 10.4862 7.09697C10.4862 7.16697 10.5001 7.24596 10.3861 7.24296C10.2721 7.23996 10.2983 7.15416 10.2963 7.08916C10.2963 6.91916 10.296 6.74817 10.288 6.57817C10.278 6.43817 10.238 6.308 10.055 6.304C10.0192 6.301 9.98322 6.30529 9.94909 6.3167C9.91496 6.3281 9.88366 6.34645 9.85681 6.37041C9.82995 6.39436 9.80805 6.42349 9.79284 6.4561C9.77763 6.48871 9.76952 6.52414 9.76843 6.5601C9.75438 6.73673 9.74924 6.91397 9.75329 7.09111C9.75329 7.15811 9.77319 7.24094 9.65319 7.24394C9.53319 7.24694 9.54138 7.16303 9.54138 7.08403C9.54671 6.94736 9.54981 6.81233 9.55114 6.679Z" fill="white"/>
<path id="Path 2519" d="M13.9372 7.26185C13.6372 7.27385 13.4519 7.1838 13.3639 6.9618C13.3109 6.85212 13.291 6.72934 13.3068 6.60853C13.3226 6.48771 13.3733 6.3742 13.4528 6.28187C13.5166 6.20893 13.6014 6.15741 13.6955 6.13416C13.7895 6.11091 13.8887 6.11716 13.9792 6.15198C14.0769 6.194 14.1586 6.26607 14.2126 6.3578C14.2665 6.44952 14.2897 6.55613 14.279 6.66199C14.264 6.74299 14.2149 6.74281 14.1579 6.74281C13.9869 6.74281 13.8162 6.74981 13.6462 6.74281C13.4952 6.73581 13.4991 6.80184 13.5461 6.90784C13.5887 6.99058 13.6592 7.05559 13.7453 7.09095C13.8314 7.12631 13.9273 7.12984 14.0158 7.10096C14.0678 7.09096 14.1542 6.98985 14.1862 7.11585C14.2132 7.22285 14.1108 7.23799 14.0378 7.25599C14.0045 7.26257 13.9709 7.26444 13.9372 7.26185ZM13.7809 6.62489C13.8689 6.55089 14.0491 6.71278 14.0631 6.51478C14.0654 6.48234 14.0604 6.45 14.049 6.41956C14.0375 6.38912 14.0198 6.36146 13.9967 6.33851C13.9737 6.31556 13.9462 6.29782 13.9157 6.28651C13.8852 6.2752 13.8524 6.27047 13.82 6.27283C13.784 6.26886 13.7479 6.27267 13.7135 6.28382C13.6791 6.29497 13.6475 6.31323 13.6208 6.33753C13.594 6.36183 13.5727 6.39153 13.5583 6.42469C13.5439 6.45785 13.5363 6.49377 13.5368 6.52991C13.5358 6.70591 13.7029 6.55389 13.7809 6.62489Z" fill="white"/>
<path id="Path 2520" d="M4.2093 7.26284C4.10129 7.28189 3.9898 7.26492 3.8924 7.2145C3.795 7.16409 3.71704 7.08297 3.67023 6.98379C3.61343 6.87584 3.5891 6.75397 3.59992 6.63247C3.61074 6.51097 3.65628 6.39519 3.73127 6.29898C3.79045 6.22207 3.87223 6.16558 3.96515 6.1376C4.05807 6.10962 4.15752 6.11154 4.24933 6.14297C4.3538 6.17934 4.44329 6.2493 4.50373 6.34194C4.56417 6.43459 4.59212 6.54467 4.58332 6.65493C4.57132 6.75493 4.50516 6.73889 4.44416 6.73989C4.28116 6.73989 4.11692 6.74589 3.95392 6.73989C3.79092 6.73389 3.79431 6.817 3.85431 6.923C3.89953 7.00049 3.97008 7.06002 4.05402 7.0917C4.13796 7.12338 4.23011 7.12512 4.31525 7.09683C4.36925 7.08683 4.4581 6.98981 4.4881 7.10781C4.5181 7.22581 4.40504 7.23681 4.32404 7.25381C4.28615 7.26098 4.24784 7.26403 4.2093 7.26284ZM4.1092 6.62295C4.1872 6.55395 4.36503 6.71584 4.36603 6.51284C4.36646 6.48056 4.36031 6.44868 4.34797 6.41885C4.33563 6.38902 4.31736 6.36205 4.29426 6.3395C4.27115 6.31696 4.24381 6.29935 4.21369 6.28775C4.18357 6.27614 4.15122 6.27065 4.11896 6.27188C3.97996 6.26388 3.81037 6.40103 3.83137 6.52603C3.85937 6.71003 4.01834 6.55695 4.10334 6.62295H4.1092Z" fill="white"/>
<path id="Path 2521" d="M8.96328 7.26283C8.85331 7.28236 8.73999 7.26502 8.64101 7.21327C8.54203 7.16152 8.46311 7.07839 8.4164 6.97694C8.3602 6.86896 8.33645 6.747 8.34853 6.62587C8.36061 6.50474 8.40785 6.38957 8.48427 6.29481C8.54426 6.2187 8.62657 6.16319 8.71962 6.13612C8.81267 6.10905 8.91186 6.11188 9.00331 6.14393C9.10793 6.18041 9.1972 6.25136 9.25624 6.34511C9.31529 6.43885 9.34031 6.5497 9.32802 6.6598C9.31302 6.7418 9.26344 6.73988 9.20644 6.73988C9.03544 6.73988 8.86521 6.74588 8.69521 6.73988C8.54621 6.73388 8.54511 6.80085 8.59511 6.90785C8.63971 6.9894 8.71143 7.0528 8.79775 7.08729C8.88407 7.12178 8.97974 7.12518 9.06826 7.09681C9.11926 7.08781 9.20625 6.9869 9.23525 7.1139C9.26025 7.2219 9.15932 7.23482 9.08632 7.25282C9.04579 7.26045 9.00451 7.26381 8.96328 7.26283ZM8.86318 6.62684C8.92418 6.53584 9.10513 6.71693 9.11513 6.51893C9.11675 6.48485 9.11127 6.45073 9.09853 6.41908C9.08579 6.38743 9.06618 6.35904 9.0414 6.33558C9.01662 6.31213 8.98728 6.29432 8.95497 6.28334C8.92267 6.27236 8.88833 6.26837 8.85439 6.27186C8.72239 6.27186 8.54697 6.42993 8.57997 6.53993C8.61797 6.68393 8.75627 6.57184 8.85927 6.62684H8.86318Z" fill="white"/>
<path id="Path 2522" d="M18.403 7.26285C18.2927 7.28327 18.1786 7.26568 18.0797 7.2128C17.9809 7.15991 17.9032 7.07487 17.859 6.97183C17.8087 6.86529 17.7881 6.74736 17.799 6.63003C17.8099 6.5127 17.8519 6.40028 17.9211 6.30484C17.9786 6.22718 18.059 6.16972 18.151 6.14029C18.2431 6.11086 18.3418 6.11113 18.4337 6.14102C18.5392 6.17245 18.6309 6.23931 18.6925 6.33047C18.7542 6.42163 18.7823 6.53145 18.7721 6.64102C18.7631 6.73202 18.7152 6.74087 18.6442 6.74087C18.4742 6.74087 18.3039 6.74087 18.1339 6.74087C17.9989 6.74087 17.9968 6.80281 18.0338 6.89981C18.1018 7.07081 18.2871 7.139 18.5211 7.1C18.5671 7.091 18.641 6.99982 18.675 7.10782C18.709 7.21582 18.6201 7.24001 18.5431 7.25601C18.4968 7.26269 18.4498 7.26487 18.403 7.26285ZM18.2878 6.621C18.3708 6.555 18.5428 6.71198 18.5578 6.52798C18.5603 6.49371 18.5556 6.45912 18.5436 6.42691C18.5316 6.3947 18.5127 6.36551 18.4884 6.34121C18.4641 6.31692 18.4352 6.29825 18.403 6.28628C18.3708 6.27432 18.3362 6.26934 18.3019 6.27188C18.1639 6.27188 17.9941 6.41602 18.0221 6.53702C18.0621 6.69002 18.2031 6.568 18.2921 6.621H18.2878Z" fill="white"/>
<path id="Path 2523" d="M6.12094 7.2599C6.08256 7.26523 6.04379 7.26228 6.00669 7.25111C5.96958 7.23993 5.93516 7.22084 5.9061 7.1952C5.87704 7.16956 5.85394 7.13785 5.83823 7.10243C5.82252 7.067 5.81477 7.02863 5.81528 6.98988C5.80328 6.82788 5.80503 6.66386 5.80503 6.50086C5.80503 6.40086 5.81898 6.29377 5.66098 6.30677C5.61298 6.30677 5.5833 6.27994 5.5853 6.22694C5.5873 6.17394 5.61738 6.14601 5.66538 6.15101C5.81838 6.16801 5.8203 6.07 5.8143 5.964C5.8083 5.858 5.87602 5.83797 5.95102 5.83997C6.04102 5.83997 6.00915 5.92188 6.00815 5.96888C6.00815 6.07988 6.01394 6.16881 6.16294 6.14881C6.21494 6.14181 6.26303 6.14881 6.26303 6.22181C6.26303 6.29481 6.23224 6.31597 6.17124 6.30897C6.01424 6.28797 6.00022 6.38184 6.00522 6.50184C6.01222 6.63684 6.00506 6.77199 6.01206 6.90199C6.01206 6.98799 6.03334 7.07597 6.14634 7.08997C6.20534 7.09697 6.28927 7.07387 6.27427 7.17787C6.25927 7.28187 6.16894 7.2429 6.12094 7.2599Z" fill="white"/>
<path id="Path 2524" d="M3.00325 6.99512C3.10165 6.76711 3.18606 6.53315 3.25618 6.29492C3.26813 6.24795 3.28921 6.20389 3.31819 6.16504C3.33808 6.14977 3.36199 6.14097 3.38704 6.13989C3.41209 6.13882 3.4372 6.14543 3.45833 6.15894C3.49933 6.18094 3.48009 6.21995 3.46809 6.25195C3.36109 6.55195 3.25227 6.8521 3.14827 7.1521C3.12227 7.2281 3.0713 7.24092 3.0013 7.24292C2.96638 7.24853 2.93027 7.24059 2.9012 7.22046C2.87212 7.20033 2.85208 7.16967 2.84505 7.13501C2.75105 6.85301 2.64498 6.57399 2.55598 6.29199C2.54198 6.24999 2.48207 6.1791 2.57307 6.1521C2.59076 6.14346 2.61003 6.13889 2.62971 6.13892C2.6494 6.13894 2.66918 6.14341 2.68684 6.1521C2.70451 6.16079 2.71973 6.17339 2.73177 6.18896C2.7438 6.20454 2.75223 6.22266 2.75618 6.24194C2.81918 6.45194 2.88637 6.6599 2.95637 6.8689C2.96037 6.9029 2.97425 6.93312 3.00325 6.99512Z" fill="white"/>
<path id="Path 2525" d="M15.6549 7.03495C15.7549 6.74495 15.827 6.51614 15.899 6.28714C15.927 6.19914 15.9639 6.11306 16.0719 6.15506C16.1799 6.19706 16.0987 6.27607 16.0797 6.33207C15.9937 6.58807 15.9012 6.84003 15.8102 7.09403C15.7822 7.17403 15.7631 7.25106 15.6441 7.24906C15.5251 7.24706 15.4998 7.18616 15.4718 7.09916C15.3828 6.83016 15.2898 6.56298 15.1988 6.29398C15.1828 6.24598 15.128 6.18104 15.211 6.15604C15.294 6.13104 15.3641 6.128 15.3941 6.241C15.4391 6.412 15.4938 6.57911 15.5538 6.74711C15.5788 6.82611 15.6079 6.90295 15.6549 7.03495Z" fill="white"/>
<path id="Path 2526" d="M19.3649 6.14111C19.4019 6.14111 19.4521 6.14112 19.5011 6.15112C19.5501 6.16112 19.6162 6.17698 19.6012 6.25098C19.5862 6.32498 19.5228 6.31005 19.4698 6.30005C19.4371 6.29007 19.4036 6.28243 19.3697 6.2771C19.2807 6.2701 19.1869 6.27695 19.1559 6.37695C19.1249 6.47695 19.2129 6.51105 19.2789 6.55005C19.3449 6.58905 19.432 6.6249 19.503 6.6709C19.5538 6.69743 19.5956 6.73861 19.6227 6.78906C19.6498 6.83952 19.6608 6.89713 19.6549 6.9541C19.6489 7.0142 19.6249 7.07098 19.5861 7.11719C19.5472 7.1634 19.4953 7.19668 19.4371 7.21289C19.2972 7.2673 19.142 7.2673 19.0021 7.21289C18.99 7.21035 18.9785 7.20541 18.9684 7.19824C18.9583 7.19107 18.9499 7.18199 18.9435 7.17139C18.9371 7.16078 18.9329 7.14899 18.9313 7.13672C18.9297 7.12445 18.9303 7.11199 18.9337 7.1001C18.9497 7.0171 19.003 7.05712 19.048 7.06812C19.0889 7.0791 19.1307 7.08613 19.173 7.08911C19.273 7.09611 19.385 7.096 19.423 6.979C19.461 6.862 19.3571 6.80801 19.2701 6.76001C19.2451 6.74601 19.2189 6.73397 19.1949 6.71997C19.0489 6.63797 18.8947 6.55312 18.9547 6.34912C19.0147 6.14512 19.1829 6.14311 19.3649 6.14111Z" fill="white"/>
<path id="Path 2527" d="M5.177 6.13989C5.224 6.14489 5.27716 6.14698 5.33716 6.15698C5.39716 6.16698 5.41308 6.21207 5.40308 6.26807C5.39308 6.32407 5.34498 6.31611 5.30298 6.30811C5.26098 6.30011 5.24892 6.28989 5.22192 6.28589C5.12192 6.27089 5.00511 6.26005 4.96411 6.37305C4.92311 6.48605 5.03799 6.523 5.11499 6.573C5.13899 6.587 5.16519 6.59906 5.19019 6.61206C5.44219 6.74506 5.52014 6.90093 5.42114 7.07593C5.34412 7.16369 5.24118 7.22465 5.1272 7.25C5.01321 7.27535 4.89383 7.26388 4.78687 7.21704C4.7755 7.21254 4.76533 7.20582 4.75659 7.19727C4.74785 7.18872 4.74083 7.1785 4.73608 7.16724C4.73134 7.15597 4.72878 7.14382 4.72876 7.13159C4.72874 7.11937 4.73137 7.10723 4.73608 7.09595C4.75708 7.03495 4.80218 7.06295 4.83618 7.07495C4.85636 7.08157 4.87713 7.08642 4.89819 7.08911C5.01719 7.10311 5.15909 7.13905 5.21509 6.99805C5.27709 6.83805 5.11524 6.8059 5.02124 6.7439C4.98024 6.7169 4.93729 6.69297 4.89429 6.66797C4.83949 6.6422 4.79519 6.59819 4.76929 6.54346C4.74338 6.48873 4.73739 6.42663 4.7522 6.36792C4.7812 6.22792 4.88994 6.17903 5.01294 6.15503C5.06716 6.14599 5.12204 6.14084 5.177 6.13989Z" fill="white"/>
<path id="Path 2528" d="M11.2239 7.2599C11.1881 7.26485 11.152 7.26222 11.1174 7.25209C11.0828 7.24195 11.0506 7.2245 11.0232 7.20106C10.9958 7.17762 10.9736 7.14872 10.9582 7.1161C10.9429 7.08348 10.9345 7.04791 10.9338 7.01185C10.9198 6.84285 10.9202 6.67184 10.9162 6.50184C10.9162 6.40184 10.9391 6.29189 10.7771 6.30189C10.7281 6.30189 10.7009 6.27284 10.7019 6.22084C10.7006 6.21013 10.7021 6.19923 10.7058 6.1891C10.7095 6.17897 10.7155 6.17006 10.7234 6.16273C10.7313 6.1554 10.7408 6.15002 10.7512 6.1471C10.7616 6.14419 10.7724 6.14374 10.7829 6.14588C10.9179 6.15988 10.934 6.07996 10.926 5.97596C10.9224 5.95832 10.9228 5.9399 10.9275 5.9225C10.9321 5.90509 10.9409 5.88911 10.9529 5.87562C10.9648 5.86213 10.9796 5.85158 10.9963 5.84486C11.013 5.83813 11.0311 5.83535 11.0491 5.8368C11.1681 5.8308 11.1179 5.92779 11.1159 5.97279C11.1089 6.09779 11.141 6.16391 11.279 6.14491C11.333 6.13791 11.3791 6.15501 11.3791 6.22401C11.3791 6.29301 11.333 6.30987 11.279 6.30287C11.114 6.27987 11.1139 6.38194 11.1189 6.49793C11.1189 6.63293 11.1189 6.76796 11.1189 6.90296C11.1189 6.99496 11.1521 7.07178 11.2571 7.08778C11.3161 7.09678 11.398 7.06796 11.386 7.17396C11.374 7.27996 11.2839 7.2449 11.2239 7.2599Z" fill="white"/>
<path id="Path 2529" d="M17.4141 6.31195C17.3432 6.29991 17.2702 6.31109 17.2061 6.34369C17.142 6.37629 17.0897 6.42847 17.0577 6.49286C17.0196 6.56199 17.0021 6.64065 17.0069 6.71942C17.0117 6.7982 17.0389 6.87391 17.085 6.93793C17.1295 6.99911 17.1917 7.04501 17.2633 7.06952C17.3348 7.09404 17.4123 7.09594 17.4849 7.07489C17.5399 7.06589 17.6118 6.99885 17.6368 7.10785C17.6618 7.21685 17.5739 7.22191 17.5089 7.24091C17.3952 7.27132 17.2751 7.2668 17.1641 7.22772C17.0532 7.18865 16.9563 7.11683 16.8868 7.02191C16.8239 6.91837 16.7926 6.79878 16.7965 6.67768C16.8004 6.55657 16.8393 6.4393 16.9088 6.34003C16.9888 6.25367 17.0909 6.19098 17.2042 6.15888C17.3174 6.12677 17.4375 6.12637 17.5509 6.1579C17.6029 6.1759 17.641 6.199 17.629 6.258C17.617 6.317 17.6161 6.31995 17.4141 6.31195Z" fill="white"/>
<path id="Path 2530" d="M14.5108 6.69791C14.5108 6.54991 14.5108 6.39784 14.5108 6.25284C14.5108 6.15284 14.6171 6.11183 14.6431 6.15983C14.7431 6.34183 14.8087 6.16983 14.8887 6.15983C14.9687 6.14983 15.0499 6.08794 15.0889 6.19694C15.1279 6.30594 15.05 6.31699 14.96 6.32999C14.775 6.35599 14.7337 6.50485 14.7227 6.65885C14.7117 6.81285 14.7227 6.96992 14.7227 7.12492C14.7227 7.19492 14.7161 7.24992 14.6231 7.24992C14.5301 7.24992 14.523 7.19589 14.523 7.12589C14.511 6.97889 14.5098 6.83991 14.5108 6.69791Z" fill="white"/>
<path id="Path 2531" d="M1.01003 6.495C1.01003 6.701 1.01003 6.90692 1.01003 7.11292C1.01003 7.17692 1.01026 7.242 0.91726 7.245C0.82426 7.248 0.79419 7.20285 0.79519 7.11585C0.79519 6.69685 0.79519 6.27679 0.79519 5.85779C0.79519 5.77479 0.813866 5.72295 0.912866 5.72595C1.01187 5.72895 1.01296 5.78786 1.01296 5.85486L1.01003 6.495Z" fill="white"/>
<path id="Path 2532" d="M16.5281 6.71901C16.5281 6.85301 16.5281 6.98691 16.5281 7.11891C16.5281 7.19091 16.513 7.24293 16.428 7.24293C16.343 7.24293 16.3279 7.184 16.3279 7.115C16.3279 6.833 16.3279 6.55008 16.3279 6.26808C16.3279 6.19708 16.34 6.14501 16.428 6.14601C16.516 6.14701 16.5281 6.20299 16.5281 6.27199C16.5281 6.42199 16.5281 6.57101 16.5281 6.71901Z" fill="white"/>
<path id="Path 2533" d="M16.4202 5.64412C16.4892 5.63812 16.5201 5.66514 16.5291 5.73714C16.5381 5.80914 16.5061 5.85315 16.4221 5.85115C16.3381 5.84915 16.322 5.81905 16.322 5.75105C16.322 5.68305 16.3452 5.63912 16.4202 5.64412Z" fill="white"/>
</g>
</g>
</g>
</svg>
