<svg width="138" height="55" viewBox="0 0 138 55" fill="none" xmlns="http://www.w3.org/2000/svg">
<g opacity="0.31">
<path d="M12.991 8.25195L0.1521 21.0909L12.991 33.9299L25.8301 21.0909L38.6691 8.25195H12.991Z" fill="#A5A5A5"/>
<path d="M12.991 33.929L25.8301 21.09L38.6691 33.929H12.991Z" fill="#A5A5A5"/>
<path d="M49.6561 36.204V12.0933H52.6364V23.4119L63.1849 12.0933H66.9354L55.9851 23.797L67.7893 36.204H63.9383L52.6364 24.4166V36.204H49.6561ZM70.4625 36.204V12.0933H73.4429V36.204H70.4625ZM84.6785 36.204V14.923H76.4575V12.0933H95.8799V14.923H87.6589V36.204H84.6785ZM98.5458 36.204V12.0933H113.782V14.923H101.526V22.4743H111.773V25.304H101.526V33.3743H113.782V36.204H98.5458Z" fill="#A5A5A5"/>
<path d="M49.9569 51.415V44.7421H52.5565C52.9551 44.7421 53.2949 44.8239 53.576 44.9877C53.8602 45.1514 54.0765 45.3677 54.2248 45.6364C54.3762 45.9021 54.4518 46.1894 54.4518 46.4984C54.4518 46.8598 54.3592 47.1765 54.1738 47.4483C53.9884 47.7202 53.7382 47.9071 53.4231 48.009L53.4138 47.782C53.8432 47.8963 54.1769 48.1064 54.4148 48.4122C54.6527 48.7181 54.7716 49.0826 54.7716 49.5058C54.7716 49.8951 54.6913 50.2318 54.5306 50.516C54.3731 50.8003 54.1445 51.0211 53.8448 51.1787C53.5482 51.3363 53.196 51.415 52.7882 51.415H49.9569ZM50.791 50.6273H52.6307C52.8778 50.6273 53.0987 50.5825 53.2933 50.4929C53.488 50.4002 53.6409 50.2704 53.7521 50.1036C53.8664 49.9368 53.9236 49.736 53.9236 49.5012C53.9236 49.2757 53.8726 49.0733 53.7706 48.8941C53.6718 48.715 53.5312 48.5729 53.349 48.4678C53.1698 48.3597 52.9612 48.3056 52.7234 48.3056H50.791V50.6273ZM50.791 47.5271H52.5473C52.745 47.5271 52.9226 47.4854 53.0802 47.402C53.2408 47.3155 53.3675 47.195 53.4602 47.0405C53.5559 46.8861 53.6038 46.7054 53.6038 46.4984C53.6038 46.2111 53.5065 45.9763 53.3119 45.794C53.1173 45.6117 52.8624 45.5206 52.5473 45.5206H50.791V47.5271ZM56.3902 53.6394L57.3587 51.0072L57.3726 51.7858L55.1853 46.4103H56.0519L57.7665 50.7338H57.4699L59.0779 46.4103H59.9166L57.1918 53.6394H56.3902Z" fill="#A5A5A5"/>
<path d="M74.8021 44.627C75.3201 45.3103 75.7498 46.0561 76.0812 46.8469V42.5659H72.4572C73.3742 43.0816 74.173 43.7837 74.8021 44.627Z" fill="#A5A5A5"/>
<path d="M69.5802 43.028C68.9189 43.0278 68.2649 43.1671 67.6611 43.437V50.9999H75.7262C75.6552 46.5939 72.9192 43.0239 69.5802 43.0239" fill="#A5A5A5"/>
<path d="M80.9121 49.7069L85.4242 44.254H81.0552V43.064H87.1652V44.0579L82.6532 49.512H87.1652V50.702H80.9121V49.702V49.7069Z" fill="#A5A5A5"/>
<path d="M88.8351 43.064H94.5011V44.272H90.1852V46.243H94.0221V47.451H90.1852V49.494H94.5542V50.7H88.8541V43.062L88.8351 43.064Z" fill="#A5A5A5"/>
<path d="M96.1532 43.0639H99.5641C99.9981 43.0599 100.43 43.1256 100.843 43.2588C101.188 43.3795 101.503 43.5733 101.766 43.8269C101.963 44.0402 102.119 44.2872 102.228 44.5559C102.337 44.8512 102.392 45.164 102.388 45.4789V45.4969C102.389 45.7871 102.341 46.0754 102.246 46.3498C102.165 46.5906 102.038 46.8137 101.873 47.0069C101.71 47.2011 101.518 47.3696 101.304 47.5069C101.077 47.6456 100.832 47.7533 100.576 47.8269L102.637 50.7269H101.056L99.1731 48.0619H97.4851V50.7269H96.1532V43.0709V43.0639ZM99.4531 46.8469C99.8655 46.8713 100.274 46.7523 100.608 46.5099C100.747 46.3966 100.858 46.2525 100.932 46.089C101.006 45.9256 101.041 45.7471 101.034 45.5679V45.5499C101.044 45.372 101.012 45.1944 100.941 45.0311C100.87 44.8677 100.762 44.7232 100.625 44.6089C100.28 44.3778 99.8682 44.2655 99.4531 44.2889H97.4991V46.8649H99.4531V46.8469Z" fill="#A5A5A5"/>
<path d="M107.681 50.8439C107.128 50.8471 106.58 50.7453 106.065 50.5439C105.596 50.3401 105.168 50.0509 104.804 49.6909C104.454 49.3336 104.176 48.9114 103.987 48.4479C103.787 47.9634 103.685 47.4441 103.687 46.9199V46.8999C103.685 45.8575 104.093 44.8559 104.823 44.1119C105.188 43.7522 105.615 43.4629 106.085 43.2589C106.596 43.0406 107.146 42.9317 107.701 42.9389C108.256 42.9336 108.807 43.0425 109.318 43.2589C109.787 43.4632 110.215 43.7524 110.579 44.1119C110.929 44.4698 111.206 44.8918 111.396 45.3549C111.596 45.8395 111.698 46.3588 111.696 46.8829V46.8999C111.699 47.943 111.29 48.9451 110.559 49.6889C110.195 50.0487 109.768 50.3378 109.298 50.5419C108.784 50.7472 108.235 50.8498 107.681 50.8439ZM107.717 49.5999C108.064 49.6033 108.407 49.5339 108.726 49.3961C109.044 49.2583 109.329 49.0551 109.564 48.7999C109.795 48.5522 109.976 48.2627 110.097 47.9469C110.226 47.6127 110.292 47.2573 110.292 46.8989V46.8819C110.292 46.5236 110.226 46.1682 110.097 45.8339C109.98 45.5106 109.799 45.2143 109.564 44.9629C109.335 44.7136 109.057 44.5141 108.747 44.3769C108.417 44.2334 108.06 44.1608 107.699 44.1639C107.344 44.1589 106.993 44.2316 106.669 44.3769C106.36 44.5141 106.081 44.7136 105.852 44.9629C105.622 45.2106 105.441 45.5002 105.319 45.8159C105.188 46.1497 105.12 46.5052 105.119 46.8639V46.8819C105.12 47.2407 105.188 47.5961 105.319 47.9299C105.436 48.2528 105.618 48.5487 105.852 48.7999C106.081 49.0495 106.359 49.2491 106.669 49.3859C106.999 49.5316 107.357 49.6046 107.717 49.5999Z" fill="#A5A5A5"/>
<path d="M113.312 43.064H116.154C116.712 43.0535 117.267 43.1499 117.788 43.348C118.262 43.5289 118.697 43.8006 119.067 44.148C119.426 44.4886 119.71 44.9 119.902 45.356C120.102 45.8279 120.204 46.3355 120.202 46.848V46.866C120.204 47.3843 120.102 47.8978 119.902 48.376C119.71 48.832 119.426 49.2433 119.067 49.584C118.697 49.9313 118.262 50.2031 117.788 50.384C117.267 50.5854 116.713 50.6872 116.154 50.684H113.312V43.064ZM116.154 49.494C116.525 49.4964 116.893 49.4285 117.238 49.294C117.551 49.1769 117.835 48.9957 118.073 48.762C118.306 48.5299 118.488 48.2511 118.606 47.944C118.735 47.616 118.802 47.2665 118.801 46.914V46.9C118.801 46.5416 118.735 46.1863 118.606 45.852C118.488 45.5401 118.307 45.2562 118.073 45.018C117.831 44.7844 117.548 44.5976 117.238 44.467C116.892 44.3345 116.525 44.2668 116.154 44.267H114.644V49.489L116.154 49.494Z" fill="#A5A5A5"/>
<path d="M121.856 43.064H123.188V46.2429H126.848V43.064H128.18V50.7H126.848V47.4849H123.188V50.7H121.856V43.064Z" fill="#A5A5A5"/>
<path d="M132.851 43.01H134.095L137.452 50.702H136.031L135.25 48.854H131.644L130.862 50.702H129.494L132.851 43.01ZM134.77 47.664L133.455 44.609L132.141 47.664H134.77Z" fill="#A5A5A5"/>
</g>
</svg>
