<svg width="119" height="37" viewBox="0 0 119 37" fill="none" xmlns="http://www.w3.org/2000/svg">
<path id="Path 1857" opacity="0.5" fill-rule="evenodd" clip-rule="evenodd" d="M79.45 6.36502V9.69202H73.819V19.198C73.819 21.217 74.992 22.227 76.939 22.227C77.9877 22.2088 79.0297 22.0549 80.0389 21.769L80.553 25.135C79.2039 25.5732 77.7922 25.7878 76.3739 25.77C72.3789 25.77 69.8669 23.535 69.8669 19.67V9.68701H66.4669V6.36002H69.9299V0.26001H73.766V6.36002L79.45 6.36502ZM57.8259 13.909C55.4159 13.409 54.526 12.817 54.526 11.629C54.526 10.229 55.959 9.41302 58.844 9.41302C60.833 9.41442 62.8038 9.79135 64.653 10.524L65.0709 7.12402C63.0208 6.34074 60.8415 5.95062 58.647 5.97403C53.872 5.97403 50.689 8.349 50.689 11.574C50.689 14.508 52.477 16.419 55.838 17.099L58.6599 17.67C61.1269 18.17 62.1599 18.858 62.1599 20.147C62.1599 21.614 60.822 22.325 57.96 22.325C55.7141 22.297 53.4953 21.8309 51.428 20.953L50.9519 24.344C53.2323 25.365 55.7159 25.8517 58.213 25.767C62.849 25.767 65.9879 23.925 65.9879 20.083C65.9879 16.775 63.9199 15.156 60.0399 14.362L57.8259 13.909ZM79.984 15.871C77.2918 15.8718 74.71 16.942 72.8068 18.8461C70.9035 20.7502 69.8346 23.3323 69.835 26.0245C69.8354 28.7167 70.9051 31.2985 72.809 33.2021C74.7128 35.1056 77.2947 36.175 79.9869 36.175C82.6792 36.175 85.2612 35.1056 87.165 33.2021C89.0689 31.2985 90.1385 28.7167 90.1389 26.0245C90.1393 23.3323 89.0704 20.7502 87.1671 18.8461C85.2638 16.942 82.6822 15.8718 79.99 15.871H79.984ZM83.922 15.871C82.275 15.8702 80.6957 15.2153 79.5315 14.0503C78.3673 12.8852 77.7136 11.3055 77.714 9.65851C77.7144 8.01151 78.3689 6.4321 79.5337 5.26764C80.6984 4.10318 82.2779 3.44901 83.9249 3.44901C85.5719 3.44901 87.1515 4.10318 88.3163 5.26764C89.481 6.4321 90.1356 8.01151 90.136 9.65851C90.1364 11.3055 89.4825 12.8852 88.3184 14.0503C87.1542 15.2153 85.575 15.8702 83.928 15.871H83.922ZM103.548 6.36502L108.494 13.058L113.447 6.36502H117.981L110.942 15.665L118.142 25.365H113.611L108.493 18.259L103.382 25.365H98.848L106.048 15.665L99.0089 6.36502H103.548ZM33.5 8.96503C34.3126 7.96017 35.3539 7.16434 36.5369 6.64401C37.7198 6.12368 39.0101 5.89396 40.2999 5.97403C45.7279 5.97403 49.8879 10.134 49.8879 15.974C49.8879 21.814 45.7279 25.774 40.2999 25.774C39.0101 25.8541 37.7198 25.6244 36.5369 25.104C35.3539 24.5837 34.3126 23.7879 33.5 22.783V33.298H29.562V6.371H33.5V8.96503ZM33.5249 15.976C33.5085 16.8066 33.6604 17.632 33.9716 18.4023C34.2827 19.1727 34.7465 19.8721 35.3352 20.4583C35.9239 21.0446 36.6252 21.5055 37.3969 21.8134C38.1685 22.1214 38.9944 22.2699 39.825 22.25C40.6472 22.2675 41.4642 22.1161 42.2256 21.8051C42.9869 21.4942 43.6763 21.0303 44.2512 20.4422C44.8261 19.8541 45.2742 19.1543 45.5677 18.3861C45.8613 17.6179 45.9942 16.7976 45.958 15.976C46 15.1438 45.8729 14.3117 45.5845 13.53C45.296 12.7482 44.8521 12.0331 44.2795 11.4276C43.707 10.8222 43.0177 10.3391 42.2533 10.0074C41.4889 9.6758 40.6652 9.5025 39.8319 9.49802H39.825C38.9833 9.49988 38.1506 9.66994 37.3756 9.9982C36.6006 10.3265 35.8991 10.8063 35.3121 11.4095C34.7252 12.0127 34.2648 12.7272 33.9579 13.5109C33.651 14.2945 33.5037 15.1317 33.5249 15.973V15.976ZM9.31396 16.554C10.9766 15.3809 12.3283 13.8202 13.252 12.007V17.074C13.252 20.224 14.984 22.04 17.907 22.04C20.913 22.04 23.278 20.224 23.278 17.074V6.36502H27.21V25.371H23.2529V22.977C22.5702 23.903 21.6664 24.6432 20.6241 25.1302C19.5819 25.6171 18.4343 25.8354 17.286 25.765C12.073 25.765 9.30798 22.52 9.30798 17.903L9.31396 16.554ZM0.713989 18.732V14.922C3.00484 14.9154 5.20347 14.019 6.84595 12.422C7.64565 11.6298 8.28329 10.6892 8.72302 9.65302C9.16113 8.61596 9.38746 7.5018 9.38892 6.37601H13.251C13.2521 8.00119 12.9266 9.61005 12.2939 11.107C11.663 12.6071 10.7401 13.9668 9.57898 15.107C7.21225 17.4304 4.02751 18.7312 0.710938 18.729L0.713989 18.732Z" fill="#A5A5A5"/>
</svg>
