<svg width="270" height="48" viewBox="0 0 270 48" fill="none" xmlns="http://www.w3.org/2000/svg">
<g opacity="0.31">
<path d="M134.979 32.8918H2.49093C2.15293 32.8918 1.81493 32.8788 1.47793 32.8918C0.877934 32.9168 0.452939 32.8428 0.482939 32.0538C0.510939 31.2898 0.999897 31.3707 1.4769 31.3707C6.15756 31.3707 10.8392 31.3724 15.5219 31.3757L267.322 31.3647C267.855 31.3647 268.386 31.3691 268.914 31.3777C269.361 31.3847 269.47 31.6657 269.463 32.0527C269.456 32.4397 269.463 32.8608 268.915 32.8848C268.433 32.9048 267.95 32.9028 267.467 32.9028H134.979V32.8918Z" fill="#A5A5A5"/>
<path d="M8.62895 1.34473C8.88976 1.62573 9.09076 1.95677 9.21989 2.31775C11.5249 8.06875 13.8769 13.8018 16.2199 19.5358C16.3589 19.8778 16.371 20.3118 16.863 20.5208C18.965 15.4408 21.0693 10.3557 23.1759 5.26575C23.3029 4.95875 23.425 4.64573 23.581 4.34473C24.074 3.38873 23.801 1.88876 24.774 1.44476C24.8591 1.40667 24.9462 1.37325 25.035 1.34473H30.607C30.786 1.38473 30.9069 1.50078 30.8959 1.81378C30.9217 1.97281 30.8836 2.13557 30.79 2.26666C30.6963 2.39776 30.5547 2.48654 30.3959 2.51373C28.3629 3.20273 27.871 3.98973 28.056 6.13873C28.4039 10.2157 28.774 14.2937 29.133 18.3707C29.139 18.4637 29.1449 18.5618 29.1449 18.6548C29.1569 18.9328 29.162 19.2108 29.174 19.4888C29.1358 20.642 29.2409 21.7954 29.487 22.9227C29.5283 23.5781 29.7954 24.1989 30.2431 24.6794C30.6907 25.1598 31.2911 25.4702 31.9419 25.5577C32.3479 25.6337 32.869 25.5527 32.8 26.2297C32.731 26.9067 32.191 26.7228 31.8 26.7228C29.015 26.7398 26.2289 26.7338 23.4369 26.7278C23.0669 26.7278 22.637 26.8088 22.58 26.2358C22.522 25.6918 22.8799 25.6278 23.2869 25.5468C24.9079 25.2398 25.4759 24.1468 25.4179 22.6158C25.3829 21.5618 25.325 20.5078 25.273 19.4598C24.984 15.3828 24.694 11.2987 24.399 7.11774C24.161 7.28574 24.0449 7.32573 24.0159 7.40173C22.5106 11.1311 21.0106 14.8644 19.5159 18.6017C18.5669 20.8547 17.6219 23.1077 16.6609 25.3547C16.4469 25.8547 16.4059 26.5307 15.5839 26.4897C14.8539 26.4547 14.819 25.8408 14.634 25.3898C12.2713 19.6564 9.91591 13.9207 7.56791 8.18274C7.45191 7.89874 7.43491 7.51675 6.89091 7.33075C6.56591 11.0208 6.21894 14.6308 5.94694 18.2538C5.69178 19.8229 5.66245 21.4204 5.85991 22.9977C5.91691 23.6747 6.21366 24.3091 6.6967 24.7869C7.17973 25.2646 7.81736 25.5542 8.49492 25.6038C8.91792 25.6498 9.41595 25.5517 9.35795 26.2347C9.29995 26.9347 8.75797 26.7277 8.37297 26.7347C5.9643 26.7527 3.55494 26.7568 1.14494 26.7468C0.762939 26.7408 0.235949 26.9468 0.154949 26.2548C0.0739492 25.5828 0.542966 25.6407 0.971966 25.5547C1.76276 25.4035 2.47872 24.9882 3.00267 24.3768C3.52661 23.7655 3.82752 22.9944 3.856 22.1898C4.156 20.0588 4.238 17.8898 4.481 15.7548C4.748 13.4908 4.87498 11.2087 5.21098 8.94373C5.40198 7.64373 5.51092 6.32074 5.59892 5.00574C5.67392 3.96374 4.55091 2.90574 3.16691 2.54474C2.71491 2.42274 1.81094 2.84477 1.92094 1.83777C1.91794 1.74349 1.93805 1.6499 1.97953 1.56519C2.02102 1.48047 2.0826 1.40718 2.15892 1.35175L8.62895 1.34473Z" fill="#A5A5A5"/>
<path d="M173.832 27.3459C171.194 27.3818 168.604 26.6327 166.392 25.1939C164.181 23.755 162.447 21.6913 161.41 19.2648C160.374 16.8384 160.082 14.1585 160.571 11.5658C161.061 8.97307 162.31 6.5844 164.16 4.70307C166.01 2.82175 168.378 1.53265 170.962 0.999584C173.546 0.466514 176.23 0.71348 178.674 1.70912C181.117 2.70475 183.21 4.40413 184.686 6.59144C186.161 8.77875 186.954 11.3553 186.962 13.9939C186.99 15.7362 186.67 17.4667 186.023 19.0845C185.376 20.7024 184.413 22.1754 183.191 23.4179C181.97 24.6603 180.513 25.6474 178.906 26.3218C177.299 26.9961 175.575 27.3443 173.832 27.3459ZM182.646 14.0739C182.683 12.2427 182.428 10.4174 181.889 8.66688C180.639 4.73888 177.807 2.45688 174.027 2.35188C172.225 2.2632 170.446 2.78539 168.978 3.83387C167.51 4.88235 166.439 6.39575 165.938 8.12892C164.489 12.0589 164.549 16.3863 166.105 20.2749C167.538 23.8749 170.277 25.7829 173.817 25.7509C177.573 25.7169 180.027 23.7649 181.494 20.4149C182.316 18.4047 182.709 16.2448 182.646 14.0739Z" fill="#A5A5A5"/>
<path d="M220.345 14.5268C218.988 18.2198 217.662 21.8268 216.338 25.4268C216.277 25.6598 216.198 25.8875 216.101 26.1078C215.881 26.4908 215.931 27.1348 215.235 27.0958C214.616 27.0608 214.684 26.4898 214.551 26.1248C213.033 21.9648 211.579 17.7798 210.018 13.6358C209.383 11.9518 209.262 9.81179 206.882 9.35979C206.782 9.34179 206.694 9.05979 206.682 8.88579C206.657 8.59379 206.853 8.4568 207.131 8.4558C209.109 8.4518 211.087 8.4518 213.066 8.4558C213.312 8.4558 213.56 8.49783 213.596 8.81383C213.632 9.12983 213.538 9.3908 213.164 9.4268C211.972 9.5438 211.892 10.3188 212.195 11.1978C213.432 14.7888 214.707 18.3678 216.07 22.2388C217.305 18.8688 218.48 15.7798 219.556 12.6568C219.905 11.6428 218.846 10.0568 217.686 9.55681C217.325 9.39981 216.693 9.48082 216.854 8.81682C217.003 8.19782 217.569 8.47281 217.954 8.46581C219.595 8.43881 221.236 8.44582 222.877 8.45982C223.223 8.45982 223.702 8.28281 223.758 8.89781C223.803 9.38681 223.448 9.40279 223.105 9.46379C222.065 9.64779 222.089 10.4258 222.33 11.1308C223.57 14.7538 224.863 18.3588 226.241 22.2618C227.621 18.4548 228.921 14.9388 230.163 11.4028C230.512 10.4118 230.355 9.55283 229.042 9.43883C228.674 9.40683 228.369 9.3458 228.419 8.8618C228.461 8.4478 228.767 8.45582 229.052 8.45482C230.552 8.45482 232.044 8.45482 233.54 8.45482C233.828 8.45482 234.14 8.43078 234.186 8.84178C234.204 8.91146 234.207 8.9841 234.195 9.05498C234.183 9.12586 234.156 9.19343 234.116 9.2534C234.077 9.31338 234.025 9.36443 233.964 9.40325C233.904 9.44206 233.836 9.46779 233.765 9.47881C232.255 9.87881 231.744 11.1288 231.272 12.4258C229.643 16.9048 228.012 21.3828 226.339 25.8448C226.164 26.3118 226.239 27.1448 225.395 27.0768C224.695 27.0158 224.788 26.2768 224.622 25.8298C223.428 22.5778 222.281 19.3078 221.112 16.0468C220.984 15.4852 220.72 14.9634 220.345 14.5268Z" fill="#A5A5A5"/>
<path d="M37.2329 17.0918C37.3423 15.536 37.8124 14.0269 38.6057 12.6841C39.3991 11.3412 40.494 10.2014 41.804 9.35481C43.0241 8.61343 44.3956 8.15664 45.8167 8.01832C47.2377 7.88 48.6715 8.06376 50.0117 8.55592C51.3519 9.04807 52.564 9.83595 53.5577 10.861C54.5515 11.8861 55.3016 13.122 55.752 14.4768C56.5386 16.9062 56.346 19.5467 55.2151 21.8361C54.0842 24.1256 52.1042 25.8832 49.6969 26.7348C48.479 27.1291 47.1935 27.2713 45.9188 27.1528C44.6442 27.0343 43.407 26.6575 42.2826 26.0454C41.1582 25.4334 40.1703 24.5988 39.3788 23.5927C38.5873 22.5865 38.009 21.4297 37.679 20.1928C37.45 19.1723 37.3008 18.1355 37.2329 17.0918ZM52.9779 17.8518C53.0724 15.9003 52.6498 13.9586 51.7529 12.2228C51.2772 11.3506 50.5801 10.6189 49.7319 10.1015C48.8837 9.58407 47.9143 9.29907 46.921 9.27516C45.9277 9.25124 44.9457 9.48921 44.0736 9.96522C43.2015 10.4412 42.4701 11.1385 41.9529 11.9868C41.0802 13.4572 40.5636 15.1112 40.4443 16.8168C40.325 18.5225 40.6064 20.2323 41.2659 21.8098C41.6069 23.0322 42.3564 24.1009 43.3895 24.838C44.4226 25.5751 45.677 25.9361 46.9438 25.8608C49.4938 25.7978 51.3508 24.3078 52.3608 21.6218C52.7388 20.3995 52.9465 19.1309 52.9779 17.8518Z" fill="#A5A5A5"/>
<path d="M248.365 26.7569C247.498 26.7569 246.63 26.7569 245.759 26.7569C245.47 26.7569 245.153 26.7879 245.081 26.3989C245.053 26.3185 245.045 26.2326 245.056 26.1484C245.068 26.0641 245.1 25.9839 245.149 25.9142C245.197 25.8445 245.262 25.7874 245.337 25.7476C245.412 25.7077 245.496 25.6862 245.581 25.6849C246.807 25.5039 246.69 24.7129 246.417 23.8489C246.33 23.5729 246.262 23.2919 246.17 23.0179C244.755 18.8049 244.756 18.8179 240.246 19.1839C240.011 19.1725 239.78 19.2458 239.595 19.3904C239.41 19.5351 239.283 19.7414 239.238 19.9719C238.832 21.2569 238.338 22.5159 237.981 23.8129C237.759 24.6239 237.681 25.5129 238.896 25.6769C239.31 25.7349 239.496 25.9498 239.448 26.3578C239.4 26.7658 239.097 26.7519 238.802 26.7519C237.451 26.7519 236.1 26.7519 234.749 26.7519C234.459 26.7519 234.142 26.7749 234.069 26.3879C234.008 26.0709 234.099 25.7769 234.447 25.7229C235.986 25.4819 236.337 24.2229 236.742 23.0419C238.342 18.4012 239.921 13.7532 241.478 9.0979C241.739 8.3109 242.055 7.91691 242.978 7.91791C243.33 7.87508 243.684 7.97162 243.965 8.18695C244.247 8.40228 244.432 8.71924 244.483 9.06988C246.009 13.7859 247.583 18.4869 249.161 23.1859C249.539 24.3109 249.811 25.5699 251.349 25.7299C251.702 25.7669 251.818 26.0299 251.773 26.3609C251.718 26.7559 251.4 26.7489 251.115 26.7519C250.198 26.7609 249.281 26.7549 248.365 26.7569ZM242.221 11.0979C241.707 12.6159 241.271 13.6839 240.994 14.7909C240.761 15.7199 239.654 16.8559 240.552 17.5319C241.229 18.0419 242.591 17.6469 243.647 17.6479C244.147 17.6479 244.341 17.4479 244.163 16.9269C243.549 15.1259 242.958 13.3169 242.221 11.0999V11.0979Z" fill="#A5A5A5"/>
<path d="M125.716 26.755C124.897 26.755 124.077 26.7659 123.257 26.7479C122.907 26.7399 122.436 26.8899 122.398 26.2789C122.37 25.8189 122.685 25.7199 123.038 25.6649C123.981 25.5179 124.053 24.865 123.843 24.15C123.408 22.675 122.902 21.2209 122.443 19.7499C122.411 19.5841 122.318 19.4362 122.182 19.3355C122.047 19.2348 121.878 19.1886 121.71 19.2059C121.565 19.2059 121.42 19.2059 121.276 19.1989C116.712 19.0309 116.169 19.4729 115.276 24.0579C115.117 24.8729 115.246 25.509 116.205 25.671C116.563 25.731 116.864 25.8269 116.841 26.2849C116.816 26.7909 116.441 26.7459 116.115 26.7479C114.765 26.7533 113.415 26.7533 112.064 26.7479C111.783 26.7479 111.464 26.758 111.42 26.348C111.385 26.016 111.493 25.7689 111.844 25.7109C113.296 25.4719 113.687 24.2899 114.08 23.1519C115.696 18.4689 117.305 13.7839 118.867 9.08192C119.131 8.28892 119.437 7.91695 120.35 7.91895C121.263 7.92095 121.576 8.26494 121.836 9.06794C123.357 13.7819 124.914 18.4843 126.507 23.1749C126.884 24.2889 127.163 25.566 128.707 25.721C129.075 25.758 129.153 26.048 129.116 26.361C129.07 26.753 128.764 26.7609 128.468 26.7609C127.55 26.7589 126.633 26.757 125.716 26.755ZM119.59 11.155C119.124 12.494 118.729 13.569 118.375 14.655C117.327 17.879 117.333 17.881 120.731 17.655C120.779 17.6519 120.828 17.6519 120.876 17.655C121.6 17.709 121.685 17.333 121.489 16.755C120.886 14.984 120.288 13.212 119.59 11.155Z" fill="#A5A5A5"/>
<path d="M69.9061 17.1999C69.9061 19.2239 69.8911 21.2489 69.9111 23.2729C69.9221 24.4459 70.117 25.5259 71.6 25.6929C71.6727 25.691 71.7449 25.7046 71.8119 25.7326C71.879 25.7607 71.9393 25.8027 71.989 25.8558C72.0386 25.9089 72.0763 25.972 72.0998 26.0408C72.1233 26.1095 72.1319 26.1825 72.1251 26.2549C72.1121 26.7319 71.769 26.7549 71.413 26.7549H65.3361C64.9871 26.7549 64.6361 26.7549 64.6141 26.2709C64.5961 25.8199 64.9061 25.7209 65.2691 25.6709C66.4141 25.5189 66.7821 24.7058 66.7911 23.7168C66.8301 19.3318 66.8341 14.9458 66.8431 10.5608C66.8431 10.1918 66.9081 9.71184 66.3431 9.70384C64.9541 9.68484 63.543 9.48187 62.225 10.1529C61.961 10.2768 61.7348 10.4689 61.5698 10.7093C61.4047 10.9498 61.3068 11.2299 61.2861 11.5209C61.2481 11.9349 61.0531 12.1369 60.6331 12.0909C60.1621 12.0399 60.1701 11.6849 60.1701 11.3399C60.1701 10.2319 60.1631 9.12287 60.1701 8.01487C60.1771 7.19087 60.797 7.01989 61.157 7.52989C61.4289 7.86756 61.7863 8.12611 62.1921 8.27861C62.5979 8.4311 63.0371 8.4719 63.464 8.39683C66.7427 8.43883 70.0224 8.43883 73.303 8.39683C74.135 8.38683 75.0141 8.43387 75.6031 7.51787C75.8521 7.13387 76.5481 7.07283 76.5781 7.87083C76.6251 9.07083 76.59 10.2798 76.59 11.4848C76.59 11.7958 76.5351 12.0709 76.1451 12.0909C76.0039 12.1035 75.8626 12.0675 75.7447 11.9887C75.6268 11.9099 75.5395 11.7932 75.4971 11.6579C74.961 10.802 74.1568 10.1475 73.21 9.79606C72.2632 9.44465 71.2267 9.41612 70.262 9.71489C69.711 9.96389 69.9031 10.4499 69.8991 10.8409C69.8771 12.9619 69.8891 15.0829 69.8891 17.2029L69.9061 17.1999Z" fill="#A5A5A5"/>
<path d="M192.53 24.3308C192.53 23.7528 192.53 23.1748 192.53 22.5968C192.53 22.2138 192.478 21.7849 193.051 21.7519C193.624 21.7189 193.569 22.1578 193.661 22.5288C194.235 24.8288 195.569 25.9288 197.7 25.8808C198.332 25.9258 198.962 25.7701 199.501 25.436C200.04 25.1018 200.459 24.6063 200.7 24.0199C200.963 23.4149 201.016 22.7394 200.851 22.1008C200.685 21.4622 200.311 20.8973 199.788 20.4958C198.653 19.6014 197.459 18.7843 196.215 18.0498C194.566 16.9378 192.941 15.7748 192.668 13.5678C192.214 9.90085 195.302 7.27587 199.041 8.10587C199.864 8.28887 200.678 8.91786 201.591 8.06986C202.01 7.68086 202.33 8.16988 202.327 8.70188C202.327 9.66588 202.346 10.6288 202.319 11.5918C202.309 11.9348 202.513 12.4349 201.963 12.5489C201.35 12.6759 201.321 12.1549 201.171 11.7489C200.366 9.58288 198.491 8.62185 196.517 9.34885C196.167 9.44713 195.843 9.62279 195.57 9.86283C195.297 10.1029 195.082 10.4012 194.94 10.7357C194.797 11.0702 194.732 11.4325 194.749 11.7956C194.765 12.1588 194.863 12.5136 195.035 12.8338C195.444 13.7132 196.119 14.4419 196.965 14.9168C198.311 15.7588 199.703 16.5399 200.986 17.4679C201.992 18.1074 202.748 19.0738 203.125 20.2047C203.503 21.3357 203.479 22.5621 203.059 23.6778C202.606 24.8048 201.795 25.752 200.752 26.3741C199.709 26.9962 198.49 27.2589 197.283 27.1219C196.475 26.9954 195.674 26.8285 194.883 26.6219C194.56 26.5589 194.083 26.3978 193.918 26.5478C192.225 28.0478 192.576 26.5399 192.531 25.6299C192.512 25.1999 192.53 24.7648 192.53 24.3308Z" fill="#A5A5A5"/>
<path d="M139.162 26.7589C137.185 26.7589 135.208 26.7659 133.232 26.7509C132.882 26.7509 132.399 26.9069 132.314 26.3289C132.231 25.7759 132.648 25.7289 133.042 25.6609C133.482 25.6049 133.881 25.3784 134.156 25.0303C134.43 24.6823 134.557 24.2404 134.508 23.7999C134.545 19.6566 134.546 15.5139 134.513 11.3719C134.536 11.1414 134.513 10.9085 134.445 10.687C134.377 10.4655 134.265 10.2597 134.117 10.0817C133.969 9.90374 133.786 9.75708 133.581 9.65033C133.375 9.54357 133.15 9.47887 132.919 9.45996C132.55 9.40996 132.242 9.30996 132.308 8.84796C132.38 8.34796 132.785 8.45891 133.1 8.45691C135.221 8.44824 137.343 8.44824 139.464 8.45691C139.828 8.45691 140.295 8.35691 140.282 8.96991C140.272 9.47891 139.87 9.42194 139.549 9.43994C138.203 9.51794 137.706 10.3549 137.7 11.5619C137.679 15.6619 137.686 19.7519 137.679 23.8459C137.679 24.8749 138.21 25.3309 139.209 25.3259C140.318 25.3209 141.427 25.3509 142.535 25.3259C143.264 25.3902 143.992 25.2084 144.605 24.8096C145.218 24.4107 145.68 23.8179 145.916 23.1259C146.04 22.7739 146.161 22.3259 146.685 22.4559C147.285 22.6099 146.905 23.0799 146.931 23.4149C146.924 23.5112 146.904 23.6061 146.871 23.697C146.226 26.779 146.226 26.776 143.071 26.752C141.771 26.742 140.471 26.752 139.166 26.752L139.162 26.7589Z" fill="#A5A5A5"/>
<path d="M100.2 26.7589C98.2701 26.7589 96.34 26.7719 94.409 26.7479C94.025 26.7429 93.4591 26.9979 93.3251 26.3659C93.1911 25.7339 93.711 25.7209 94.143 25.6389C94.5301 25.5706 94.8785 25.3623 95.1218 25.0535C95.3651 24.7448 95.4862 24.3573 95.462 23.9649C95.684 19.7259 95.671 15.4849 95.473 11.2469C95.4992 10.8041 95.3501 10.3687 95.0581 10.0347C94.766 9.70075 94.3544 9.49498 93.912 9.46189C93.537 9.41489 93.238 9.31892 93.292 8.86192C93.352 8.36192 93.75 8.46189 94.07 8.46189C96.145 8.45689 98.221 8.45191 100.296 8.46891C100.636 8.46891 101.132 8.27395 101.205 8.87895C101.278 9.48395 100.805 9.41893 100.436 9.44993C100.179 9.45961 99.9272 9.52213 99.6957 9.63365C99.4642 9.74516 99.2582 9.90325 99.0906 10.098C98.9229 10.2928 98.7973 10.52 98.7215 10.7655C98.6457 11.0111 98.6213 11.2696 98.65 11.5249C98.594 15.6249 98.614 19.7249 98.622 23.8249C98.5982 24.0313 98.6221 24.2403 98.6918 24.436C98.7614 24.6317 98.8749 24.8088 99.0238 24.9537C99.1726 25.0985 99.3528 25.2073 99.5503 25.2717C99.7478 25.3361 99.9573 25.3543 100.163 25.3249C101.321 25.3249 102.479 25.3339 103.636 25.3249C104.342 25.3647 105.042 25.1767 105.633 24.7885C106.224 24.4003 106.675 23.8326 106.919 23.1689C107.09 22.7539 107.219 22.2689 107.797 22.4889C108.375 22.7089 107.959 23.1629 107.897 23.4749C107.197 26.7859 107.189 26.7809 103.824 26.7519C102.618 26.7419 101.411 26.7519 100.204 26.7519L100.2 26.7589Z" fill="#A5A5A5"/>
<path d="M261.74 26.758C259.858 26.758 257.975 26.772 256.093 26.745C255.714 26.74 255.146 27.006 255.008 26.372C254.87 25.738 255.408 25.7379 255.824 25.6339C256.207 25.5481 256.548 25.3297 256.786 25.0172C257.023 24.7047 257.143 24.3182 257.124 23.926C257.301 19.6866 257.301 15.4463 257.124 11.205C257.139 10.7886 257 10.3814 256.733 10.0618C256.465 9.74215 256.089 9.53273 255.677 9.47395C255.357 9.40695 254.959 9.42493 254.999 8.92293C255.046 8.32293 255.523 8.46497 255.874 8.46297C257.901 8.45097 259.928 8.45097 261.955 8.46297C262.301 8.46297 262.781 8.27097 262.855 8.87697C262.933 9.49997 262.455 9.41596 262.094 9.44496C261.837 9.44985 261.584 9.50869 261.351 9.61769C261.118 9.72669 260.911 9.8834 260.743 10.0777C260.575 10.2719 260.449 10.4994 260.375 10.7453C260.3 10.9911 260.278 11.25 260.31 11.505C260.265 15.605 260.279 19.7049 260.282 23.8049C260.252 24.0106 260.271 24.2204 260.336 24.4176C260.402 24.6149 260.512 24.7942 260.659 24.9415C260.805 25.0889 260.984 25.2003 261.181 25.2668C261.377 25.3333 261.587 25.3532 261.793 25.325C262.999 25.319 264.206 25.3499 265.411 25.3129C266.093 25.3417 266.766 25.149 267.33 24.7634C267.894 24.3779 268.317 23.8203 268.538 23.174C268.7 22.741 268.845 22.286 269.413 22.474C270.007 22.674 269.586 23.133 269.531 23.445C268.949 26.774 268.941 26.769 265.65 26.745C264.35 26.736 263.044 26.745 261.741 26.745L261.74 26.758Z" fill="#A5A5A5"/>
<path d="M84.47 8.45674C85.434 8.45674 86.3991 8.44576 87.3631 8.46376C87.7171 8.46976 88.1911 8.33279 88.2371 8.92879C88.2761 9.42879 87.881 9.41278 87.558 9.47578C87.1448 9.53007 86.7664 9.73565 86.496 10.0528C86.2256 10.37 86.0823 10.7761 86.094 11.1928C85.872 15.4268 85.894 19.6638 86.083 23.8978C86.0675 24.1167 86.0953 24.3365 86.1647 24.5447C86.2342 24.7529 86.344 24.9453 86.4878 25.1111C86.6317 25.2769 86.8068 25.4127 87.0031 25.5108C87.1994 25.6088 87.4132 25.6673 87.6321 25.6828C88.0061 25.7278 88.2811 25.8828 88.2321 26.3218C88.1821 26.8218 87.7921 26.7488 87.4711 26.7498C85.4938 26.7571 83.5167 26.7571 81.5401 26.7498C81.1861 26.7498 80.7171 26.8718 80.6911 26.2648C80.6711 25.8028 80.9911 25.7218 81.3481 25.6738C82.5741 25.5048 82.9061 24.5917 82.9161 23.5817C82.9554 19.5817 82.9554 15.5817 82.9161 11.5817C82.9853 11.0948 82.861 10.6001 82.5697 10.2038C82.2785 9.80749 81.8435 9.54109 81.3581 9.46175C81.0351 9.40275 80.643 9.42479 80.689 8.91579C80.743 8.31579 81.219 8.46679 81.568 8.45979C82.543 8.44279 83.508 8.45674 84.47 8.45674Z" fill="#A5A5A5"/>
<path d="M40.4269 43.757C40.4269 42.794 40.4199 41.832 40.4339 40.869C40.4339 40.599 40.3709 40.249 40.7339 40.148C41.0529 40.06 41.499 39.96 41.639 40.324C41.895 40.995 42.123 40.757 42.539 40.479C42.7748 40.2696 43.0507 40.1103 43.35 40.0111C43.6494 39.9118 43.9659 39.8746 44.2801 39.9016C44.5943 39.9287 44.8997 40.0194 45.1777 40.1683C45.4556 40.3173 45.7004 40.5214 45.8969 40.768C46.2909 41.223 46.489 41.188 46.878 40.777C47.2447 40.3509 47.7438 40.0602 48.2953 39.9514C48.8469 39.8426 49.4189 39.9221 49.92 40.177C50.3688 40.4205 50.7317 40.7965 50.9592 41.2537C51.1866 41.7109 51.2676 42.2271 51.191 42.732C51.191 43.983 51.208 45.232 51.191 46.486C51.185 46.931 51.353 47.506 50.57 47.525C49.811 47.544 49.8909 47.015 49.8849 46.536C49.8729 45.382 49.929 44.222 49.837 43.074C49.769 42.232 49.701 41.265 48.478 41.205C47.237 41.144 46.721 41.969 46.597 42.979C46.4986 44.1763 46.4652 45.3781 46.497 46.579C46.49 47.079 46.5269 47.567 45.7809 47.525C45.1559 47.49 45.1319 47.081 45.1309 46.625C45.1259 45.425 45.138 44.218 45.103 43.016C45.076 42.103 44.918 41.24 43.721 41.205C43.4897 41.1863 43.257 41.2164 43.0381 41.2935C42.8193 41.3705 42.6191 41.4928 42.4506 41.6522C42.2821 41.8117 42.149 42.0048 42.06 42.2191C41.971 42.4334 41.9279 42.6641 41.9339 42.896C41.8119 44.088 41.8809 45.296 41.8539 46.496C41.8429 46.953 41.982 47.487 41.211 47.527C40.39 47.568 40.4109 47.054 40.4109 46.496C40.4299 45.586 40.4249 44.671 40.4269 43.757Z" fill="#A5A5A5"/>
<path d="M82.5919 37.182C82.7832 37.157 82.9772 37.1597 83.1678 37.19C83.7408 37.37 84.7679 37.104 84.6009 38.132C84.4419 39.109 83.6758 38.332 83.1878 38.367C82.7568 38.399 82.3129 38.3239 81.8879 38.3939C81.6062 38.3964 81.3333 38.4926 81.1124 38.6674C80.8914 38.8421 80.735 39.0854 80.6677 39.359C80.6004 39.6325 80.6261 39.9207 80.7408 40.178C80.8554 40.4353 81.0525 40.6471 81.3008 40.78C82.0298 41.248 82.7708 41.699 83.5108 42.151C84.1101 42.4307 84.5889 42.9167 84.8596 43.5202C85.1302 44.1237 85.1746 44.8044 84.9848 45.4379C84.7869 46.0401 84.4095 46.5673 83.9033 46.9488C83.397 47.3303 82.7863 47.5477 82.1529 47.572C81.2851 47.6547 80.4097 47.55 79.5859 47.265C78.9719 47.1 79.0959 46.609 79.1859 46.203C79.3209 45.611 79.7008 46.012 79.9788 46.072C80.706 46.3364 81.4882 46.413 82.2529 46.2949C83.6209 45.9109 83.9818 44.795 82.9738 43.814C82.3976 43.3035 81.7695 42.8547 81.0998 42.4749C79.4828 41.4559 78.8669 40.386 79.1999 39.096C79.5149 37.919 80.8399 37.163 82.5919 37.182Z" fill="#A5A5A5"/>
<path d="M5.56993 43.708C5.56993 42.746 5.58193 41.783 5.56993 40.821C5.55893 39.992 6.42093 39.864 6.56993 40.192C7.10493 41.401 7.54182 40.461 7.98582 40.244C9.87082 39.32 11.7029 40.218 11.9059 42.296C12.0509 43.774 11.9629 45.275 11.9789 46.765C11.9789 47.196 11.8789 47.509 11.3469 47.528C10.7789 47.549 10.5788 47.288 10.5848 46.752C10.5968 45.552 10.6169 44.345 10.5719 43.144C10.5339 42.126 10.3028 41.171 8.99583 41.156C8.74079 41.1327 8.48373 41.1649 8.24229 41.2503C8.00086 41.3357 7.78079 41.4724 7.59715 41.6509C7.41351 41.8294 7.27068 42.0455 7.17845 42.2844C7.08622 42.5234 7.04678 42.7794 7.06285 43.035C6.98385 44.235 6.99586 45.435 6.97386 46.635C6.96486 47.09 6.95388 47.498 6.31688 47.525C5.59188 47.556 5.56691 47.108 5.57091 46.59C5.56991 45.632 5.56993 44.67 5.56993 43.708Z" fill="#A5A5A5"/>
<path d="M61.0439 43.7C61.0439 42.736 61.0309 41.7719 61.0499 40.8079C61.0689 39.8439 62.0018 39.88 62.1978 40.252C62.6118 41.042 62.8059 40.677 63.2749 40.395C65.3449 39.152 67.2969 40.215 67.3979 42.632C67.4529 43.932 67.4219 45.2319 67.4209 46.5319C67.4209 47.0059 67.5119 47.5449 66.7439 47.5239C65.9509 47.5029 66.1438 46.9159 66.1358 46.4769C66.1058 45.3209 66.1658 44.161 66.0828 43.01C66.0138 42.059 65.7399 41.175 64.5019 41.15C64.2584 41.1294 64.0133 41.1585 63.7815 41.2357C63.5496 41.3128 63.3359 41.4364 63.1534 41.5988C62.9709 41.7612 62.8233 41.9591 62.7197 42.1804C62.6161 42.4017 62.5587 42.6417 62.5509 42.8859C62.3979 44.0729 62.4829 45.2859 62.4509 46.4929C62.4379 46.9449 62.5869 47.507 61.8099 47.525C60.9829 47.545 61.0469 46.9809 61.0459 46.4439C61.0425 45.5279 61.0419 44.6133 61.0439 43.7Z" fill="#A5A5A5"/>
<path d="M90.8061 47.6439C88.7651 47.7279 87.516 47.1119 86.918 45.5879C86.5576 44.8443 86.4225 44.0117 86.5291 43.1923C86.6357 42.3729 86.9795 41.6025 87.5181 40.9759C87.9498 40.4793 88.5241 40.1279 89.1628 39.9695C89.8014 39.8112 90.4734 39.8536 91.0871 40.0909C91.755 40.3704 92.3149 40.8582 92.683 41.4817C93.0512 42.1052 93.2079 42.831 93.13 43.5509C93.03 44.1049 92.697 44.1009 92.307 44.1029C91.151 44.1029 89.992 44.1469 88.838 44.0939C87.814 44.0479 87.8381 44.4939 88.1791 45.2159C88.7191 46.3639 89.8331 46.7909 91.3681 46.5219C91.7221 46.4599 92.3051 45.7679 92.5191 46.6219C92.7011 47.3509 92.0191 47.4499 91.5191 47.5729C91.2859 47.6298 91.0459 47.6537 90.8061 47.6439ZM89.751 43.3188C90.351 42.8188 91.564 43.9189 91.666 42.5729C91.6807 42.3522 91.6477 42.131 91.5695 41.9241C91.4913 41.7173 91.3696 41.5296 91.2126 41.3738C91.0556 41.2181 90.867 41.0978 90.6596 41.0212C90.4521 40.9446 90.2306 40.9135 90.01 40.9299C89.766 40.9037 89.5191 40.9296 89.2858 41.0059C89.0525 41.0821 88.838 41.2071 88.6565 41.3724C88.4751 41.5377 88.3307 41.7396 88.2331 41.9648C88.1354 42.1901 88.0866 42.4334 88.09 42.6789C88.085 43.8729 89.241 42.8408 89.751 43.3188Z" fill="#A5A5A5"/>
<path d="M24.7989 47.6499C22.9319 47.7099 21.7449 47.1239 21.1379 45.7589C20.7551 45.0254 20.5911 44.1975 20.6654 43.3734C20.7397 42.5494 21.0491 41.7641 21.5569 41.1109C21.9575 40.589 22.5118 40.2059 23.1417 40.0157C23.7716 39.8255 24.4453 39.8379 25.0679 40.0509C25.7776 40.2964 26.3856 40.7707 26.7964 41.3994C27.2071 42.0281 27.3972 42.7754 27.3369 43.5239C27.2559 44.1999 26.8059 44.0949 26.3959 44.0999C25.2869 44.1139 24.1769 44.1399 23.0699 44.0999C21.9409 44.0559 21.9799 44.6169 22.3909 45.3409C23.0969 46.5829 24.2129 46.7409 25.5149 46.5199C25.8839 46.4559 26.4858 45.7969 26.6888 46.5939C26.8918 47.3909 26.1269 47.4699 25.5759 47.5859C25.3198 47.6337 25.0594 47.6551 24.7989 47.6499ZM24.0989 43.3089C24.6349 42.8429 25.8398 43.9419 25.8498 42.5629C25.852 42.3436 25.8098 42.1262 25.7256 41.9237C25.6414 41.7213 25.517 41.5379 25.36 41.3849C25.203 41.2318 25.0165 41.1121 24.812 41.0331C24.6075 40.954 24.3891 40.9172 24.1699 40.9249C23.2289 40.8729 22.0769 41.8039 22.2179 42.6469C22.4259 43.8999 23.5039 42.8629 24.0959 43.3089H24.0989Z" fill="#A5A5A5"/>
<path d="M57.0589 47.6508C55.1959 47.7158 53.981 47.1439 53.342 45.7079C52.9605 44.9752 52.8013 44.1471 52.8841 43.3253C52.9669 42.5034 53.288 41.7236 53.808 41.0818C54.215 40.5658 54.7729 40.1898 55.4039 40.006C56.0349 39.8223 56.7076 39.8401 57.328 40.0569C58.0368 40.3049 58.6405 40.7862 59.0401 41.422C59.4398 42.0578 59.6119 42.8105 59.5281 43.5569C59.4281 44.1149 59.088 44.1009 58.701 44.1029C57.546 44.1089 56.388 44.1438 55.234 44.0968C54.225 44.0548 54.218 44.5118 54.552 45.2348C55.072 46.3578 56.2231 46.7808 57.7521 46.5178C58.0991 46.4578 58.691 45.7718 58.891 46.6338C59.061 47.3658 58.372 47.4518 57.878 47.5738C57.6087 47.6296 57.3339 47.6554 57.0589 47.6508ZM56.3511 43.3358C56.7641 42.7168 57.9949 43.9488 58.0589 42.6018C58.0711 42.3705 58.0331 42.1393 57.9471 41.9242C57.8612 41.709 57.7295 41.5151 57.5613 41.3559C57.393 41.1966 57.1923 41.0757 56.9728 41.0016C56.7533 40.9275 56.5203 40.9021 56.29 40.9268C55.39 40.9108 54.2091 41.9958 54.4291 42.7458C54.7171 43.7248 55.6521 42.9638 56.3511 43.3358Z" fill="#A5A5A5"/>
<path d="M121.135 47.6539C119.264 47.7099 118.012 47.1229 117.45 45.6749C117.106 44.9529 116.963 44.1515 117.037 43.3552C117.111 42.5589 117.398 41.7974 117.869 41.1509C118.26 40.624 118.806 40.2329 119.43 40.0327C120.055 39.8324 120.727 39.8332 121.351 40.0348C122.069 40.2499 122.691 40.7081 123.108 41.3311C123.525 41.954 123.713 42.7027 123.639 43.4489C123.579 44.0669 123.255 44.1149 122.776 44.1099C121.623 44.0959 120.468 44.1379 119.316 44.0979C118.395 44.0659 118.383 44.5159 118.644 45.1749C119.105 46.3359 120.358 46.7989 121.944 46.4969C122.258 46.4379 122.755 45.7969 122.991 46.5499C123.218 47.2729 122.617 47.4499 122.091 47.5589C121.776 47.6165 121.456 47.6483 121.135 47.6539ZM120.359 43.2959C120.922 42.8469 122.089 43.9129 122.19 42.6619C122.208 42.4292 122.175 42.1956 122.094 41.9768C122.013 41.758 121.885 41.5594 121.72 41.3944C121.556 41.2294 121.357 41.1021 121.138 41.0211C120.919 40.94 120.686 40.9072 120.453 40.9249C119.515 40.8969 118.364 41.9029 118.553 42.7249C118.798 43.7659 119.77 42.9349 120.359 43.2999V43.2959Z" fill="#A5A5A5"/>
<path d="M37.77 47.6309C37.5093 47.6674 37.2439 47.6471 36.9918 47.5714C36.7397 47.4957 36.5069 47.3663 36.3095 47.1922C36.1121 47.0181 35.9547 46.8033 35.8481 46.5627C35.7415 46.322 35.6883 46.0611 35.692 45.7979C35.61 44.6979 35.629 43.5879 35.623 42.4819C35.623 41.7949 35.718 41.0759 34.649 41.1639C34.322 41.1909 34.122 40.9779 34.133 40.6209C34.144 40.2639 34.348 40.0679 34.679 40.1049C35.715 40.2219 35.7269 39.5539 35.6889 38.8369C35.6539 38.1779 36.1109 37.9839 36.6149 37.9919C37.2269 38.0029 37.0149 38.5499 37.0049 38.8689C36.9859 39.6259 37.042 40.2349 38.056 40.0949C38.408 40.0459 38.7469 40.1139 38.7559 40.5889C38.7669 41.0139 38.545 41.2279 38.134 41.1739C37.066 41.0359 36.971 41.6739 37.009 42.4899C37.052 43.4019 36.9999 44.3189 37.0519 45.2299C37.0849 45.8099 37.201 46.4109 37.961 46.5009C38.361 46.5489 38.934 46.3919 38.832 47.1009C38.733 47.8229 38.095 47.5169 37.77 47.6309Z" fill="#A5A5A5"/>
<path d="M16.5959 45.8328C17.2617 44.2927 17.835 42.7142 18.3128 41.1058C18.3918 40.7854 18.5343 40.4841 18.7319 40.2198C18.8672 40.1172 19.0306 40.0585 19.2003 40.0516C19.3699 40.0446 19.5376 40.0897 19.6809 40.1808C19.9579 40.3278 19.8288 40.5918 19.7498 40.8138C19.0238 42.8478 18.2838 44.8758 17.5778 46.9138C17.3988 47.4338 17.0539 47.5138 16.5829 47.5348C16.3457 47.5726 16.1032 47.5174 15.9059 47.3806C15.7085 47.2438 15.5717 47.0361 15.5239 46.8008C14.8879 44.8878 14.1928 42.9948 13.5628 41.0798C13.4698 40.7958 13.0569 40.3148 13.6749 40.1298C13.7951 40.0709 13.9271 40.0403 14.061 40.0403C14.1949 40.0403 14.327 40.0708 14.4472 40.1297C14.5675 40.1886 14.6726 40.2741 14.7547 40.3799C14.8368 40.4856 14.8937 40.6087 14.9209 40.7398C15.3479 42.1638 15.8039 43.5788 16.2529 44.9958C16.3199 45.2098 16.4209 45.4098 16.5959 45.8328Z" fill="#A5A5A5"/>
<path d="M102.464 46.1C103.109 44.132 103.628 42.583 104.122 41.026C104.311 40.426 104.565 39.849 105.296 40.126C106.027 40.403 105.479 40.951 105.35 41.333C104.767 43.064 104.133 44.777 103.518 46.498C103.324 47.041 103.198 47.565 102.39 47.55C101.63 47.537 101.416 47.124 101.221 46.536C100.621 44.71 99.985 42.894 99.37 41.072C99.261 40.746 98.889 40.304 99.452 40.135C99.933 39.99 100.489 39.946 100.692 40.709C101.001 41.87 101.405 43.009 101.778 44.148C101.951 44.682 102.147 45.205 102.464 46.1Z" fill="#A5A5A5"/>
<path d="M127.636 40.041C127.892 40.058 128.229 40.072 128.563 40.106C128.978 40.149 129.343 40.282 129.271 40.806C129.185 41.426 128.746 41.206 128.385 41.139C128.154 41.0742 127.921 41.0218 127.685 40.982C127.085 40.935 126.444 41.014 126.234 41.649C126.024 42.284 126.623 42.561 127.07 42.827C127.564 43.121 128.108 43.335 128.59 43.647C128.934 43.8274 129.216 44.1066 129.399 44.4486C129.583 44.7906 129.66 45.1797 129.621 45.566C129.581 45.9748 129.419 46.362 129.154 46.676C128.889 46.9901 128.535 47.216 128.139 47.324C127.191 47.6958 126.14 47.7051 125.186 47.35C125.104 47.3328 125.027 47.2989 124.958 47.2504C124.89 47.2018 124.833 47.1398 124.79 47.0681C124.747 46.9963 124.719 46.9164 124.709 46.8335C124.698 46.7505 124.704 46.6663 124.728 46.586C124.828 46.019 125.194 46.294 125.501 46.365C125.78 46.4368 126.064 46.4856 126.351 46.511C127.042 46.554 127.788 46.554 128.043 45.76C128.317 44.906 127.595 44.603 127.005 44.275C126.838 44.181 126.664 44.099 126.497 44.005C125.511 43.448 124.463 42.87 124.87 41.484C125.256 40.165 126.403 40.048 127.636 40.041Z" fill="#A5A5A5"/>
<path d="M31.3699 40.0329C31.6859 40.0629 32.0699 40.0769 32.4489 40.1429C32.8659 40.2169 32.9699 40.5199 32.9019 40.9009C32.8229 41.3379 32.5019 41.2228 32.2299 41.1728C32.0419 41.1388 31.8639 41.0468 31.6759 41.0188C30.9899 40.9188 30.2069 40.8479 29.9309 41.6189C29.6549 42.3899 30.4309 42.6329 30.9519 42.9429C31.1169 43.0429 31.2919 43.1209 31.4619 43.2109C33.1749 44.1109 33.7019 45.1679 33.0319 46.3559C32.3909 47.4949 29.9369 48.0199 28.7319 47.3169C28.6544 47.2867 28.5837 47.2412 28.524 47.1832C28.4644 47.1252 28.417 47.0559 28.3845 46.9793C28.3521 46.9027 28.3353 46.8203 28.3352 46.7371C28.3351 46.6539 28.3517 46.5716 28.3839 46.4949C28.5229 46.0829 28.8279 46.2709 29.0939 46.3489C29.2307 46.3944 29.3713 46.4279 29.5139 46.4488C30.3219 46.5388 31.2889 46.7859 31.6639 45.8279C32.0899 44.7429 31.0019 44.5279 30.3539 44.1029C30.0739 43.9199 29.7789 43.7579 29.4869 43.5929C29.1124 43.4162 28.8113 43.1142 28.6359 42.7392C28.4604 42.3641 28.4215 41.9396 28.5259 41.5389C28.7189 40.5929 29.4589 40.2589 30.2969 40.0939C30.6527 40.0486 31.0112 40.0282 31.3699 40.0329Z" fill="#A5A5A5"/>
<path d="M72.396 47.6318C72.1535 47.6644 71.907 47.6454 71.6724 47.5761C71.4378 47.5068 71.2204 47.3888 71.0345 47.2298C70.8487 47.0707 70.6986 46.8742 70.5939 46.6531C70.4892 46.432 70.4323 46.1914 70.427 45.9468C70.334 44.7978 70.3361 43.6398 70.3101 42.4858C70.2951 41.8218 70.462 41.0648 69.364 41.1608C69.03 41.1898 68.847 40.9668 68.855 40.6118C68.8457 40.5392 68.8541 40.4654 68.8791 40.3966C68.9042 40.3278 68.9454 40.2661 68.9993 40.2165C69.0531 40.1669 69.118 40.1308 69.1886 40.1114C69.2592 40.0919 69.3334 40.0897 69.405 40.1048C70.325 40.2048 70.4311 39.6588 70.3771 38.9508C70.3514 38.8312 70.3542 38.7073 70.3851 38.589C70.4161 38.4706 70.4744 38.3612 70.5553 38.2695C70.6362 38.1778 70.7374 38.1063 70.8509 38.0609C70.9645 38.0154 71.0871 37.9973 71.209 38.0078C72.018 37.9678 71.6811 38.6238 71.6641 38.9338C71.6161 39.7768 71.834 40.2288 72.774 40.0988C73.138 40.0488 73.445 40.1628 73.443 40.6318C73.441 41.1008 73.13 41.2198 72.771 41.1688C71.653 41.0128 71.654 41.7058 71.683 42.4918C71.716 43.4068 71.683 44.3238 71.704 45.2388C71.72 45.8638 71.9331 46.3898 72.6431 46.4968C73.0431 46.5568 73.6 46.3638 73.52 47.0828C73.436 47.8378 72.805 47.5278 72.396 47.6318Z" fill="#A5A5A5"/>
<path d="M114.404 41.1999C113.922 41.1164 113.426 41.1912 112.99 41.4134C112.555 41.6355 112.202 41.9929 111.987 42.4319C111.728 42.8996 111.607 43.4315 111.638 43.9654C111.67 44.4993 111.853 45.0132 112.166 45.4469C112.467 45.8591 112.887 46.1691 113.37 46.3354C113.853 46.5016 114.375 46.5161 114.866 46.3769C115.237 46.3149 115.73 45.8659 115.901 46.6029C116.062 47.3029 115.472 47.3779 115.032 47.5029C114.261 47.7117 113.445 47.6814 112.691 47.416C111.938 47.1507 111.283 46.6628 110.813 46.0169C110.385 45.3157 110.171 44.5048 110.197 43.6836C110.223 42.8625 110.488 42.0668 110.959 41.3939C111.501 40.8067 112.195 40.3804 112.964 40.1618C113.733 39.9432 114.548 39.9409 115.318 40.1549C115.668 40.2779 115.926 40.4309 115.843 40.8689C115.77 41.2489 115.77 41.2539 114.404 41.1999Z" fill="#A5A5A5"/>
<path d="M94.7001 43.8187C94.7001 42.8127 94.7121 41.8058 94.7001 40.7998C94.6911 40.0998 95.414 39.8438 95.59 40.1638C96.27 41.4008 96.717 40.2308 97.262 40.1378C97.728 40.0578 98.353 39.6518 98.595 40.3908C98.827 41.0988 98.3251 41.2068 97.7171 41.2908C96.4641 41.4688 96.181 42.4798 96.109 43.5238C96.037 44.5678 96.0771 45.6317 96.0801 46.6857C96.0801 47.1587 96.0331 47.5318 95.4031 47.5308C94.7731 47.5298 94.703 47.1698 94.703 46.6928C94.7 45.7358 94.6991 44.7777 94.7001 43.8187Z" fill="#A5A5A5"/>
<path d="M3.09189 42.4369C3.09189 43.8369 3.09189 45.2369 3.09189 46.6369C3.09189 47.0739 3.12485 47.5158 2.46085 47.5368C1.81285 47.5548 1.62887 47.2519 1.63187 46.6609C1.64587 43.8162 1.64587 40.9709 1.63187 38.1249C1.63187 37.5599 1.75886 37.2098 2.43186 37.2248C3.08586 37.2398 3.08787 37.6499 3.08787 38.1029C3.09187 39.5449 3.09323 40.9895 3.09189 42.4369Z" fill="#A5A5A5"/>
<path d="M108.391 43.9578C108.391 44.8688 108.391 45.7788 108.391 46.6898C108.391 47.1748 108.291 47.5298 107.685 47.5278C107.055 47.5278 107.019 47.1278 107.02 46.6628C107.02 44.7455 107.02 42.8288 107.02 40.9128C107.02 40.4278 107.098 40.0778 107.713 40.0848C108.328 40.0918 108.394 40.4698 108.393 40.9388C108.389 41.9458 108.392 42.9518 108.391 43.9578Z" fill="#A5A5A5"/>
<path d="M107.658 36.663C108.123 36.622 108.365 36.8079 108.393 37.2979C108.424 37.8339 108.24 38.081 107.669 38.07C107.169 38.061 107.004 37.853 107.018 37.379C107.031 36.934 107.144 36.632 107.658 36.663Z" fill="#A5A5A5"/>
</g>
</svg>
