<svg width="159" height="33" viewBox="0 0 159 33" fill="none" xmlns="http://www.w3.org/2000/svg">
<g id="Group 3804" opacity="0.31">
<g id="Group 3803">
<g id="Group 3802">
<path id="Path 5851" d="M35.948 26.575C35.383 26.575 34.819 26.575 34.254 26.575C33.843 26.575 33.739 26.423 33.894 26.048C35.0427 23.272 36.1923 20.496 37.343 17.72C38.3323 15.33 39.3203 12.9397 40.307 10.549C41.2123 8.36638 42.1197 6.18473 43.029 4.00406C43.1409 3.73293 43.3298 3.50049 43.5724 3.33561C43.8149 3.17072 44.1005 3.08059 44.3938 3.07633C44.6871 3.07207 44.9753 3.15391 45.2225 3.31168C45.4698 3.46946 45.6653 3.69625 45.785 3.96403C46.185 4.84203 46.535 5.73701 46.905 6.62601C48.561 10.6127 50.2167 14.6 51.872 18.588C52.896 21.058 53.9193 23.5284 54.942 25.9991C55.13 26.4531 55.042 26.576 54.551 26.576H51.221C50.809 26.576 50.721 26.517 50.584 26.12C50.23 25.12 49.8721 24.12 49.5281 23.12C49.5016 22.9962 49.4299 22.8868 49.3271 22.8128C49.2244 22.7389 49.0978 22.7058 48.972 22.72C45.944 22.728 42.916 22.728 39.888 22.72C39.763 22.7051 39.6369 22.7372 39.5342 22.81C39.4314 22.8828 39.3594 22.9911 39.332 23.114C38.992 24.108 38.632 25.0961 38.285 26.0851C38.128 26.5311 38.0679 26.5721 37.5849 26.5721L35.948 26.575ZM44.4241 19.617H47.9241C48.3131 19.617 48.3469 19.569 48.2099 19.217C47.2299 16.699 46.2494 14.1817 45.268 11.665C45.035 11.065 44.803 10.465 44.561 9.87601C44.529 9.79801 44.441 9.74406 44.379 9.67606C44.325 9.73906 44.267 9.80004 44.219 9.86704C44.195 9.90932 44.1762 9.95428 44.1629 10.001C42.9783 13.0637 41.7933 16.127 40.608 19.191C40.472 19.542 40.5269 19.614 40.9179 19.614L44.4241 19.617Z" fill="#A5A5A5"/>
<path id="Path 5852" d="M86.7639 18.545C86.7639 21.028 86.778 23.5111 86.757 25.9941C86.7593 27.0588 86.547 28.1131 86.1329 29.0941C85.5286 30.4334 84.4204 31.4805 83.049 32.0081C81.9766 32.4736 80.8271 32.7357 79.6589 32.7811C79.0079 32.8091 78.3589 32.814 77.7039 32.834C77.5581 32.8464 77.4119 32.815 77.2842 32.7437C77.1564 32.6724 77.053 32.5646 76.9869 32.4341C76.5459 31.6781 76.0799 30.934 75.6389 30.18C75.5639 30.0511 75.4879 29.8241 75.5479 29.7421C75.6075 29.6841 75.6782 29.6385 75.7556 29.6082C75.8331 29.5778 75.9157 29.5631 75.9989 29.5651C77.0109 29.5501 78.0239 29.565 79.0369 29.553C79.7877 29.5505 80.531 29.4032 81.226 29.1191C81.7774 28.8868 82.2503 28.5008 82.5886 28.0072C82.9269 27.5136 83.1162 26.9332 83.1339 26.3351C83.1709 25.9981 83.1829 25.6571 83.1879 25.3181C83.1869 25.2732 83.1764 25.229 83.1571 25.1885C83.1378 25.148 83.1102 25.1121 83.0759 25.0831C83.0399 25.0571 82.9109 25.1181 82.8569 25.1721C82.2744 25.7001 81.5785 26.0876 80.8229 26.3048C80.0672 26.522 79.2719 26.5631 78.4979 26.425C77.3675 26.3306 76.2807 25.9447 75.3439 25.3051C74.7185 24.8698 74.1897 24.3101 73.7907 23.6611C73.3916 23.012 73.131 22.2876 73.0249 21.5331C72.7948 20.1598 72.7203 18.765 72.8029 17.3751C72.8001 16.1155 73.0636 14.8697 73.5759 13.7191C74.0459 12.6438 74.8318 11.737 75.8293 11.119C76.8269 10.501 77.9889 10.201 79.1609 10.259C80.3376 10.21 81.4961 10.5626 82.4459 11.259C82.5989 11.378 82.7339 11.521 82.8849 11.644C82.9399 11.688 83.0489 11.7441 83.0789 11.7261C83.1414 11.6722 83.1808 11.5962 83.1888 11.514C83.2028 11.301 83.1889 11.086 83.1959 10.871C83.1904 10.8219 83.1959 10.7722 83.2122 10.7256C83.2284 10.6789 83.255 10.6365 83.2898 10.6015C83.3246 10.5665 83.367 10.5397 83.4136 10.5232C83.4601 10.5067 83.5097 10.5008 83.5588 10.506C84.5038 10.506 85.4479 10.5 86.3929 10.506C86.6719 10.506 86.7639 10.6381 86.7639 10.9811C86.7639 12.7917 86.7639 14.6027 86.7639 16.4141C86.7646 17.1234 86.7646 17.8337 86.7639 18.545ZM83.2369 18.4611C83.1839 17.7151 83.1729 16.9611 83.0659 16.2261C82.9882 15.382 82.5981 14.5974 81.9719 14.0261C81.5932 13.7185 81.1501 13.5 80.6755 13.3869C80.2009 13.2738 79.707 13.2689 79.2302 13.3726C78.7535 13.4763 78.3062 13.686 77.9215 13.9861C77.5368 14.2861 77.2246 14.6689 77.0079 15.1061C76.6189 15.9045 76.4194 16.7819 76.4249 17.67C76.4249 18.505 76.4369 19.341 76.4879 20.17C76.5255 20.8643 76.7543 21.5346 77.1489 22.1071C77.476 22.5948 77.9286 22.9854 78.459 23.2376C78.9894 23.4898 79.578 23.5943 80.1628 23.54C80.7797 23.5275 81.3768 23.3203 81.8688 22.948C82.3607 22.5757 82.7223 22.0573 82.9019 21.467C83.1379 20.4828 83.2505 19.4731 83.2369 18.4611Z" fill="#A5A5A5"/>
<path id="Path 5853" d="M97.77 19.7999C96.17 19.7999 94.5727 19.7999 92.978 19.7999C92.761 19.7999 92.578 19.8209 92.605 20.1069C92.6304 21.1397 93.0506 22.1235 93.7791 22.856C94.3719 23.3711 95.1157 23.6802 95.8991 23.7369C96.4372 23.8343 96.9893 23.8238 97.5233 23.7061C98.0574 23.5883 98.5627 23.3656 99.01 23.051C99.3772 22.7486 99.7166 22.4139 100.024 22.051C100.26 21.794 100.362 21.7509 100.631 21.9719C101.236 22.4613 101.836 22.9549 102.431 23.4529C102.722 23.6969 102.723 23.789 102.502 24.088C101.649 25.2278 100.448 26.0582 99.0801 26.4529C97.4302 26.9855 95.6589 27.0133 93.9931 26.533C92.8448 26.2294 91.8051 25.6088 90.9927 24.7424C90.1803 23.8759 89.6281 22.7984 89.3991 21.6329C88.913 19.6907 88.8501 17.6666 89.215 15.6979C89.424 14.292 90.0998 12.9972 91.1337 12.0218C92.1675 11.0464 93.4994 10.447 94.9151 10.3199C96.3189 10.1285 97.7484 10.2886 99.0751 10.786C99.8475 11.0921 100.543 11.5651 101.111 12.1712C101.68 12.7773 102.107 13.5015 102.363 14.2919C102.903 15.859 103.141 17.5143 103.063 19.1699C103.063 19.2699 103.03 19.3619 103.026 19.4589C103.013 19.7209 102.865 19.8069 102.62 19.8029C102.192 19.7949 101.763 19.8029 101.335 19.8029L97.77 19.7999ZM95.994 17.166C97.025 17.166 98.057 17.166 99.088 17.166C99.261 17.166 99.426 17.138 99.411 16.929C99.402 16.0977 99.1561 15.2863 98.702 14.59C98.3741 14.1872 97.9594 13.8638 97.4888 13.6439C97.0182 13.4241 96.504 13.3134 95.9846 13.3204C95.4653 13.3273 94.9542 13.4516 94.4896 13.6839C94.0251 13.9162 93.6191 14.2506 93.302 14.6619C92.9119 15.2933 92.6893 16.0136 92.6551 16.7549C92.6211 17.1609 92.612 17.1639 93.02 17.1649L95.994 17.166Z" fill="#A5A5A5"/>
<path id="Path 5854" d="M60.978 11.926C61.223 11.726 61.4621 11.5459 61.6901 11.3499C62.5008 10.666 63.5225 10.2828 64.583 10.265C65.6738 10.1686 66.7711 10.3549 67.769 10.806C68.5056 11.149 69.1433 11.6728 69.6229 12.3286C70.1025 12.9845 70.4084 13.7511 70.512 14.5569C70.5908 15.0561 70.6303 15.5606 70.63 16.0659C70.64 19.3769 70.635 22.688 70.635 25.999C70.635 26.488 70.547 26.5749 70.056 26.5749H67.5701C67.1511 26.5749 67.058 26.4819 67.058 26.0579C67.058 22.9019 67.064 19.7469 67.053 16.5919C67.0803 16.1081 66.9975 15.6244 66.8105 15.1773C66.6236 14.7302 66.3375 14.3314 65.974 14.0109C65.5557 13.6554 65.0489 13.4199 64.5074 13.3296C63.966 13.2393 63.4101 13.2974 62.899 13.4979C62.3997 13.6603 61.9563 13.9605 61.6201 14.3639C61.284 14.7673 61.0687 15.2575 60.999 15.778C60.9531 16.0364 60.9317 16.2985 60.9351 16.5609C60.9311 19.6942 60.9311 22.83 60.9351 25.968C60.9351 26.483 60.8421 26.5749 60.3201 26.5749C59.4931 26.5749 58.665 26.5749 57.837 26.5749C57.455 26.5749 57.354 26.475 57.353 26.088C57.353 21.0526 57.353 16.0176 57.353 10.9829C57.353 10.5829 57.443 10.5009 57.834 10.5009C58.71 10.5009 59.5863 10.5009 60.463 10.5009C60.822 10.5009 60.928 10.6089 60.934 10.9739C60.939 11.2179 60.934 11.461 60.934 11.705C60.9414 11.7799 60.9562 11.8539 60.978 11.926Z" fill="#A5A5A5"/>
<path id="Path 5855" d="M128.038 15.4189C128.038 16.9959 128.088 18.5749 128.027 20.1489C128.003 21.5786 127.517 22.9622 126.64 24.092C125.764 25.2219 124.545 26.0373 123.166 26.4159C121.991 26.813 120.742 26.9466 119.51 26.8071C118.277 26.6677 117.09 26.2586 116.033 25.6089C115.227 25.1099 114.542 24.4385 114.027 23.6432C113.511 22.8478 113.178 21.9482 113.052 21.0089C112.963 20.4523 112.92 19.8895 112.923 19.3259C112.915 16.5259 112.895 13.717 112.937 10.913C112.931 9.34866 113.468 7.83071 114.456 6.61828C115.445 5.40585 116.824 4.57409 118.357 4.26494C120.223 3.80414 122.188 3.96095 123.957 4.7119C124.995 5.13691 125.904 5.82361 126.597 6.70501C127.29 7.5864 127.743 8.63244 127.911 9.74096C128.017 10.3634 128.072 10.9935 128.075 11.6249C128.1 12.8909 128.083 14.1569 128.083 15.4249L128.038 15.4189ZM125.849 15.4709H125.856C125.856 14.1759 125.856 12.881 125.856 11.585C125.862 11.1672 125.839 10.7495 125.787 10.335C125.698 9.53279 125.41 8.76557 124.949 8.10314C124.488 7.44071 123.868 6.90404 123.147 6.54192C122.065 6.01372 120.849 5.82579 119.658 6.00292C118.544 6.1026 117.497 6.57916 116.69 7.35393C116.177 7.84979 115.773 8.44689 115.504 9.10729C115.235 9.76769 115.105 10.477 115.125 11.1899C115.107 13.8899 115.118 16.5899 115.125 19.2829C115.119 19.6722 115.139 20.0613 115.184 20.4479C115.258 21.2868 115.551 22.0915 116.033 22.7822C116.514 23.4729 117.168 24.0255 117.93 24.3849C118.979 24.8657 120.144 25.0364 121.287 24.8769C122.514 24.783 123.662 24.2334 124.505 23.3361C125.348 22.4389 125.825 21.2589 125.842 20.0279C125.9 18.5119 125.849 16.9899 125.849 15.4709Z" fill="#A5A5A5"/>
<path id="Path 5856" d="M25.332 26.581C24.68 26.581 24.027 26.571 23.375 26.586C23.2641 26.5944 23.1533 26.5693 23.057 26.5138C22.9606 26.4583 22.8832 26.3751 22.8349 26.275C21.1243 23.4037 19.411 20.534 17.695 17.666C15.2617 13.596 12.8263 9.52767 10.389 5.46101C10.2962 5.33952 10.2449 5.19147 10.2425 5.03864C10.2402 4.88581 10.2869 4.73628 10.3759 4.61201C11.0699 3.48801 11.7379 2.34798 12.4179 1.21198C12.6279 0.861983 12.735 0.861978 12.941 1.20698C15.4743 5.44365 18.0057 9.68071 20.535 13.918C22.917 17.904 25.2976 21.8913 27.677 25.88C27.725 25.9529 27.7572 26.0351 27.7713 26.1213C27.7855 26.2074 27.7812 26.2956 27.759 26.38C27.695 26.496 27.454 26.561 27.289 26.566C26.637 26.593 25.984 26.581 25.332 26.581Z" fill="#A5A5A5"/>
<path id="Path 5857" d="M152.708 19.3401H147.741C147.37 19.3401 147.341 19.357 147.372 19.716C147.39 20.4435 147.463 21.1686 147.59 21.885C147.782 22.6519 148.202 23.3422 148.796 23.864C149.389 24.3858 150.128 24.7144 150.913 24.8061C151.807 24.9642 152.726 24.9076 153.594 24.641C154.575 24.3134 155.396 23.6282 155.894 22.722C156.117 22.33 156.194 22.307 156.576 22.531C156.895 22.717 157.212 22.907 157.529 23.097C157.824 23.273 157.861 23.3971 157.697 23.6971C157.088 24.8219 156.112 25.7041 154.931 26.1971C154.003 26.6199 152.998 26.8499 151.978 26.8729C150.958 26.8959 149.945 26.7116 148.998 26.331C148.085 25.9629 147.282 25.3655 146.667 24.5965C146.052 23.8275 145.645 22.9129 145.487 21.941C145.18 20.1756 145.086 18.3798 145.206 16.592C145.207 15.6947 145.382 14.8061 145.723 13.976C146.101 13.0044 146.734 12.1524 147.555 11.5095C148.376 10.8666 149.355 10.4564 150.389 10.3221C151.612 10.1155 152.866 10.1973 154.052 10.561C154.932 10.8302 155.727 11.3231 156.36 11.9917C156.993 12.6602 157.441 13.4814 157.661 14.375C157.926 15.2305 158.066 16.1196 158.078 17.015C158.09 17.628 158.112 18.2401 158.121 18.8531C158.128 19.3011 158.076 19.347 157.621 19.347L152.708 19.3401ZM151.62 17.498C152.945 17.498 154.27 17.498 155.593 17.498C155.899 17.498 155.954 17.432 155.93 17.135C155.894 16.7 155.875 16.262 155.824 15.828C155.775 15.2391 155.598 14.668 155.304 14.1551C155.01 13.6423 154.607 13.2002 154.124 12.86C153.232 12.2635 152.152 12.0145 151.089 12.16C150.423 12.1898 149.778 12.4002 149.222 12.7685C148.667 13.1368 148.222 13.6493 147.935 14.251C147.544 15.1545 147.351 16.1316 147.37 17.1161C147.355 17.4861 147.37 17.497 147.734 17.497C149.03 17.499 150.325 17.5 151.62 17.5V17.498Z" fill="#A5A5A5"/>
<path id="Path 5858" d="M132.994 12.2939C133.019 12.231 133.05 12.1704 133.086 12.1129C133.442 11.6354 133.889 11.2339 134.402 10.932C134.915 10.6301 135.484 10.4339 136.074 10.3549C137.372 10.1024 138.716 10.2471 139.93 10.7699C140.688 11.1008 141.348 11.6236 141.842 12.2868C142.337 12.95 142.651 13.7307 142.752 14.5519C142.832 15.0905 142.87 15.6345 142.866 16.1789C142.876 19.4699 142.871 22.7609 142.871 26.0519C142.871 26.4989 142.794 26.575 142.344 26.577C141.935 26.577 141.526 26.577 141.117 26.577C140.708 26.577 140.639 26.4909 140.639 26.0959C140.639 22.7179 140.637 19.3393 140.634 15.9599C140.65 15.08 140.353 14.2229 139.795 13.542C139.238 12.861 138.456 12.4006 137.59 12.2429C136.659 12.0079 135.673 12.1344 134.831 12.5969C133.989 13.0594 133.353 13.8238 133.052 14.7359C132.905 15.2394 132.832 15.7615 132.835 16.2859C132.816 19.5569 132.826 22.8289 132.825 26.0999C132.825 26.5159 132.772 26.573 132.359 26.577C131.921 26.577 131.483 26.584 131.045 26.577C130.704 26.571 130.637 26.4969 130.637 26.1589C130.637 21.0669 130.637 15.9746 130.637 10.8819C130.637 10.5279 130.675 10.4819 131.015 10.4819C131.493 10.4819 131.97 10.4819 132.447 10.4819C132.79 10.4819 132.824 10.5219 132.825 10.8819C132.826 11.2419 132.825 11.6029 132.825 11.9629C132.836 12.059 132.856 12.1537 132.885 12.2459L132.994 12.2939Z" fill="#A5A5A5"/>
<path id="Path 5859" d="M105.576 14.565V5.18799C105.576 4.58799 105.697 4.46999 106.293 4.46899C107.026 4.46899 107.757 4.46899 108.484 4.46899C108.984 4.46899 109.147 4.63301 109.147 5.13501C109.147 10.935 109.144 16.7387 109.139 22.546C109.139 23.167 109.419 23.699 110.256 23.658C111.017 23.621 111.019 23.65 111.019 24.412C111.019 24.967 111.019 25.522 111.019 26.077C111.019 26.447 110.939 26.535 110.581 26.536C109.763 26.541 108.944 26.553 108.127 26.536C107.442 26.5263 106.788 26.2448 106.31 25.7535C105.832 25.2623 105.569 24.6014 105.578 23.916C105.573 20.798 105.572 17.681 105.576 14.565Z" fill="#A5A5A5"/>
<path id="Path 5860" d="M15.1419 18.033C15.8039 18.033 16.465 18.033 17.127 18.033C17.475 18.033 17.5269 18.133 17.3549 18.433C16.7003 19.5703 16.0447 20.707 15.388 21.843C15.201 22.167 15.102 22.165 14.915 21.843C14.269 20.7244 13.6223 19.6047 12.9749 18.484C12.7629 18.119 12.815 18.032 13.244 18.031L15.1419 18.033Z" fill="#A5A5A5"/>
<path id="Path 5861" d="M4.96293 18.0331C5.61593 18.0331 6.26794 18.0331 6.92094 18.0331C7.24494 18.0331 7.32088 18.146 7.15788 18.42C6.49988 19.568 5.83897 20.7137 5.17497 21.857C4.99697 22.164 4.89496 22.162 4.71696 21.857C4.06296 20.729 3.41127 19.6 2.76194 18.47C2.56994 18.137 2.62796 18.0361 3.00596 18.0361C3.65796 18.0321 4.31093 18.0331 4.96293 18.0331Z" fill="#A5A5A5"/>
<path id="Path 5862" d="M10.1509 18.0331C10.8019 18.0331 11.4509 18.0331 12.1049 18.0331C12.4469 18.0331 12.515 18.141 12.346 18.433C11.6827 19.5863 11.016 20.738 10.346 21.888C10.197 22.146 10.084 22.1511 9.93595 21.8951C9.25728 20.7291 8.58195 19.5607 7.90995 18.39C7.77295 18.151 7.8499 18.033 8.1359 18.032C8.8089 18.031 9.47992 18.0331 10.1509 18.0331Z" fill="#A5A5A5"/>
<path id="Path 5863" d="M10.0859 9.37996C10.7469 9.37996 11.4078 9.37996 12.0688 9.37996C12.3978 9.37996 12.4488 9.47995 12.2818 9.76595C11.6231 10.9106 10.9632 12.0543 10.3018 13.197C10.1278 13.497 10.0229 13.497 9.8459 13.192C9.19256 12.0673 8.54113 10.9413 7.89179 9.81398C7.70079 9.48198 7.75791 9.37998 8.13191 9.37898C8.78391 9.37765 9.43522 9.37796 10.0859 9.37996Z" fill="#A5A5A5"/>
<path id="Path 5864" d="M17.847 22.53C18.498 22.53 19.147 22.53 19.801 22.53C20.143 22.53 20.2009 22.617 20.0359 22.902C19.3773 24.0466 18.7162 25.1903 18.0529 26.333C17.8729 26.643 17.7739 26.644 17.5989 26.341C16.9323 25.1897 16.2656 24.0373 15.5989 22.884C15.4479 22.62 15.499 22.532 15.799 22.531C16.485 22.527 17.17 22.53 17.847 22.53Z" fill="#A5A5A5"/>
<path id="Path 5865" d="M2.47799 22.53C3.13999 22.53 3.80098 22.53 4.46298 22.53C4.78498 22.53 4.83399 22.618 4.67599 22.892C4.01599 24.0374 3.35533 25.182 2.694 26.326C2.509 26.646 2.40701 26.644 2.22201 26.326L0.295985 22.993C0.0619851 22.587 0.09599 22.532 0.55099 22.531L2.47799 22.53Z" fill="#A5A5A5"/>
<path id="Path 5866" d="M12.6999 22.5301C13.3619 22.5301 14.0239 22.5301 14.6849 22.5301C14.9699 22.5301 15.0388 22.644 14.8958 22.893C14.2238 24.065 13.5479 25.2351 12.8679 26.4031C12.7389 26.6251 12.6178 26.623 12.4858 26.397C11.7958 25.2123 11.1105 24.0251 10.4299 22.8351C10.3109 22.6281 10.3838 22.535 10.6558 22.535C11.3368 22.528 12.0179 22.5301 12.6999 22.5301Z" fill="#A5A5A5"/>
<path id="Path 5867" d="M7.51701 22.53C8.18801 22.53 8.86005 22.53 9.53105 22.53C9.83105 22.53 9.89706 22.643 9.74406 22.909C9.08606 24.055 8.42503 25.2 7.76103 26.344C7.58703 26.644 7.48112 26.644 7.30412 26.333C6.65212 25.2057 6.00038 24.078 5.34904 22.95C5.14904 22.602 5.19101 22.53 5.59001 22.529C6.23201 22.5283 6.87435 22.5287 7.51701 22.53Z" fill="#A5A5A5"/>
<path id="Path 5868" d="M7.5179 13.694C8.1799 13.694 8.84186 13.694 9.50386 13.694C9.83586 13.694 9.88588 13.786 9.71688 14.079C9.06688 15.2077 8.41587 16.336 7.76387 17.464C7.56387 17.806 7.47386 17.805 7.27486 17.464C6.62686 16.3447 5.97982 15.2254 5.33382 14.1061C5.14382 13.7761 5.18885 13.697 5.56185 13.696C6.21385 13.693 6.8699 13.694 7.5179 13.694Z" fill="#A5A5A5"/>
<path id="Path 5869" d="M12.7499 13.7C13.4209 13.7 14.0929 13.7 14.7639 13.7C15.0729 13.7 15.1188 13.779 14.9638 14.048C14.2972 15.2027 13.6305 16.3557 12.9638 17.5071C12.8018 17.7861 12.6889 17.791 12.5339 17.523C11.8552 16.355 11.1792 15.185 10.5058 14.013C10.3738 13.784 10.4239 13.703 10.7059 13.7C11.3869 13.691 12.0699 13.7 12.7499 13.7Z" fill="#A5A5A5"/>
</g>
</g>
</g>
</svg>
