<svg width="42" height="42" viewBox="0 0 42 42" fill="none" xmlns="http://www.w3.org/2000/svg">
<g id="Group 39">
<g id="Group 38">
<path id="Path 108" d="M0.0528001 20.8841C0.0656628 16.7979 1.28976 12.8071 3.57026 9.41639C5.85075 6.02565 9.08529 3.38712 12.8651 1.83433C16.6448 0.281546 20.8001 -0.115788 24.8056 0.692556C28.8111 1.5009 32.4872 3.47863 35.369 6.37575C38.2507 9.27287 40.2088 12.9593 40.9958 16.9691C41.7828 20.9789 41.3635 25.132 39.7906 28.9035C38.2177 32.6749 35.562 35.8954 32.1591 38.1578C28.7563 40.4202 24.7591 41.623 20.6728 41.6141C15.1897 41.5988 9.93721 39.4063 6.07038 35.5188C2.20355 31.6314 0.0389898 26.3673 0.0528001 20.8841ZM20.7708 36.1931C24.2756 36.1919 27.6704 34.9691 30.3709 32.7351C30.7788 32.4252 31.1028 32.0185 31.3139 31.5518C31.525 31.0851 31.6165 30.5731 31.5799 30.0621C31.5308 28.3629 30.8414 26.7449 29.65 25.5324C28.4585 24.3198 26.853 23.6021 25.1549 23.5231C22.1999 23.4231 19.2368 23.4341 16.2808 23.5231C14.7639 23.593 13.3145 24.1712 12.166 25.1647C11.0174 26.1581 10.2365 27.5091 9.9488 29.0001C9.734 29.7406 9.75947 30.5301 10.0214 31.2553C10.2834 31.9804 10.7684 32.6039 11.4068 33.0361C14.1012 35.0798 17.389 36.1883 20.7708 36.1931ZM27.5299 13.4141C27.5482 12.0679 27.1672 10.7463 26.435 9.61643C25.7028 8.48654 24.6522 7.59898 23.4158 7.06585C22.1795 6.53272 20.8127 6.37794 19.4885 6.62105C18.1642 6.86416 16.9417 7.49425 15.9753 8.43175C15.0089 9.36926 14.3421 10.5721 14.0589 11.8884C13.7757 13.2047 13.889 14.5754 14.3843 15.8274C14.8797 17.0793 15.735 18.1564 16.8421 18.9226C17.9493 19.6888 19.2586 20.1097 20.6048 20.1321C22.4139 20.1594 24.1598 19.467 25.4584 18.2071C26.7571 16.9473 27.5022 15.2233 27.5299 13.4141Z" fill="white"/>
</g>
</g>
</svg>
