<svg width="28" height="28" viewBox="0 0 28 28" fill="none" xmlns="http://www.w3.org/2000/svg">
<path id="Vector" d="M14.6607 17.0068C14.6966 16.4015 14.9508 15.8304 15.3748 15.4009C15.7988 14.9714 16.3635 14.7137 16.9625 14.6754L28 13.9998L16.9625 13.3241C16.3638 13.2874 15.7992 13.0305 15.3752 12.6021C14.9512 12.1737 14.697 11.6031 14.6607 10.9981L14.0027 0L13.3452 10.9981C13.3089 11.6031 13.0546 12.1737 12.6307 12.6021C12.2063 13.0305 11.642 13.2874 11.0434 13.3241L0 13.9998L11.0434 14.6754C11.6424 14.7137 12.2071 14.9714 12.6311 15.4009C13.055 15.8305 13.3089 16.4015 13.3452 17.0068L14.0028 28L14.6607 17.0068Z" fill="white"/>
</svg>
