<svg width="35" height="35" viewBox="0 0 35 35" fill="none" xmlns="http://www.w3.org/2000/svg">
<g id="Group 762" opacity="0.5">
<g id="Group 651">
<path id="Path 835" d="M30.8533 19.778C28.9433 19.778 27.0853 19.778 25.2283 19.778C24.9052 19.7736 24.5826 19.8072 24.2673 19.878C23.8492 19.9748 23.4657 20.1845 23.1585 20.4842C22.8513 20.784 22.6323 21.1623 22.5253 21.578C22.0758 23.0061 22.0709 24.5371 22.5113 25.968C22.6499 26.5293 22.9825 27.0234 23.4502 27.3632C23.9179 27.7031 24.4907 27.8666 25.0673 27.825C26.8543 27.834 28.6403 27.825 30.4273 27.825H30.8533C30.8533 28.619 30.8533 29.383 30.8533 30.146C30.8749 30.6488 30.8639 31.1525 30.8203 31.654C30.7335 32.3578 30.3874 33.0039 29.8497 33.4662C29.312 33.9285 28.6212 34.1737 27.9123 34.154C26.3123 34.161 24.7223 34.154 23.1283 34.154C16.533 34.154 9.93866 34.154 3.34533 34.154C2.63036 34.1844 1.92973 33.9472 1.38019 33.4889C0.830658 33.0305 0.471675 32.3838 0.373326 31.675C0.349799 31.497 0.339772 31.3175 0.343327 31.138C0.343327 26.246 0.343327 21.3539 0.343327 16.4619C0.323554 16.0603 0.388121 15.6591 0.532872 15.284C0.677622 14.9088 0.899347 14.5682 1.18376 14.284C1.46817 13.9997 1.80896 13.7782 2.18419 13.6337C2.55941 13.4892 2.96074 13.4249 3.36232 13.445C11.515 13.445 19.6683 13.445 27.8223 13.445C28.2253 13.4236 28.6283 13.4871 29.0051 13.6314C29.382 13.7757 29.7243 13.9976 30.0099 14.2827C30.2955 14.5679 30.518 14.9098 30.6629 15.2865C30.8079 15.6631 30.8721 16.0659 30.8513 16.469C30.8553 17.558 30.8533 18.646 30.8533 19.778Z" fill="white"/>
<path id="Path 836" d="M5.32812 12.2938L7.88912 10.0458C10.3231 7.91245 12.7565 5.77916 15.1891 3.64582C15.4274 3.38056 15.7439 3.19791 16.0927 3.12422C16.4416 3.05052 16.8049 3.08956 17.1301 3.23579C17.4691 3.38285 17.7534 3.63239 17.9434 3.94929C18.1333 4.2662 18.2192 4.63459 18.1891 5.00282C18.1821 5.68582 18.1781 6.36883 18.1891 7.05183C18.1995 7.14466 18.1781 7.23823 18.1283 7.31727C18.0785 7.39631 18.0033 7.45612 17.9151 7.48683C14.7731 9.04483 11.6331 10.6075 8.49512 12.1748C8.3936 12.2361 8.27999 12.2746 8.16212 12.2878C7.26112 12.2978 6.34812 12.2938 5.32812 12.2938Z" fill="white"/>
<path id="Path 837" d="M28.5113 20.9282C29.6373 20.9282 30.7643 20.9282 31.8903 20.9282C32.1369 20.9118 32.3841 20.9483 32.6154 21.0354C32.8467 21.1224 33.0566 21.258 33.2311 21.433C33.4056 21.608 33.5406 21.8183 33.6271 22.0498C33.7135 22.2813 33.7494 22.5286 33.7323 22.7752C33.7323 23.4822 33.7323 24.1892 33.7323 24.8962C33.7413 25.1339 33.7011 25.3708 33.6141 25.5921C33.5271 25.8135 33.3953 26.0145 33.2269 26.1824C33.0585 26.3503 32.8572 26.4816 32.6356 26.568C32.414 26.6543 32.1769 26.6939 31.9393 26.6842C29.662 26.6882 27.385 26.6882 25.1083 26.6842C24.7502 26.7302 24.3883 26.6339 24.1004 26.4158C23.8126 26.1977 23.6219 25.8755 23.5693 25.5182C23.2718 24.3882 23.2738 23.2002 23.5753 22.0712C23.6319 21.7211 23.8219 21.4065 24.1056 21.1936C24.3892 20.9806 24.7443 20.8859 25.0963 20.9292C26.2343 20.9242 27.3723 20.9282 28.5113 20.9282ZM29.1243 23.8142C29.1255 23.3586 28.9913 22.913 28.7389 22.5337C28.4864 22.1545 28.1271 21.8588 27.7063 21.6841C27.2856 21.5093 26.8224 21.4635 26.3756 21.5524C25.9288 21.6413 25.5184 21.8609 25.1965 22.1833C24.8747 22.5057 24.6558 22.9165 24.5677 23.3634C24.4796 23.8104 24.5263 24.2735 24.7017 24.6939C24.8771 25.1144 25.1735 25.4732 25.5532 25.725C25.9328 25.9768 26.3787 26.1102 26.8343 26.1082C27.4409 26.1035 28.0212 25.8602 28.4498 25.4309C28.8783 25.0016 29.1206 24.4208 29.1243 23.8142Z" fill="white"/>
<path id="Path 838" d="M29.1199 11.138L26.8359 9.42401C27.6667 9.00675 28.3398 8.33153 28.7544 7.49951C29.1691 6.6675 29.3029 5.72345 29.1359 4.80896C28.7219 4.80896 28.3289 4.83097 27.9359 4.79797C27.8463 4.79419 27.7584 4.77172 27.678 4.73193C27.5976 4.69215 27.5264 4.63597 27.4689 4.56702C27.4454 4.48091 27.4413 4.39062 27.457 4.30273C27.4728 4.21485 27.5079 4.13153 27.5599 4.05896C28.3959 2.90296 29.2479 1.75902 30.1059 0.619019C30.1811 0.490383 30.2886 0.383667 30.4179 0.309509C30.5471 0.235352 30.6935 0.196289 30.8424 0.196289C30.9914 0.196289 31.1378 0.235352 31.267 0.309509C31.3962 0.383667 31.5038 0.490383 31.5789 0.619019C32.4359 1.75902 33.2879 2.90298 34.1249 4.05798C34.1783 4.1297 34.215 4.21245 34.2323 4.30017C34.2496 4.38789 34.2471 4.47838 34.2249 4.565C34.1677 4.63376 34.0966 4.68967 34.0163 4.72913C33.936 4.76858 33.8483 4.7907 33.7589 4.79401C33.3809 4.82801 32.9969 4.80499 32.5879 4.80499C32.5751 6.35631 32.0926 7.86734 31.2039 9.13898C30.6478 9.93613 29.9395 10.6155 29.1199 11.138Z" fill="white"/>
<path id="Path 839" d="M11 12.2198C13.0133 11.2144 15.0267 10.2098 17.04 9.20579C18.2613 8.59646 19.4827 7.98811 20.704 7.38078C20.9783 7.20231 21.2976 7.10523 21.6248 7.10075C21.952 7.09627 22.2738 7.18462 22.5529 7.35551C22.832 7.5264 23.057 7.77284 23.2018 8.06632C23.3466 8.35981 23.4052 8.68831 23.371 9.01377C23.371 10.0678 23.371 11.1224 23.371 12.1778C23.3662 12.2091 23.3585 12.2399 23.348 12.2698H11.011L11 12.2198Z" fill="white"/>
<path id="Path 840" d="M27.9738 23.8181C27.9716 24.0465 27.9014 24.2691 27.7723 24.4575C27.6432 24.6459 27.4609 24.7915 27.2487 24.876C27.0366 24.9605 26.804 24.9801 26.5807 24.932C26.3575 24.884 26.1535 24.7706 25.9949 24.6063C25.8362 24.442 25.73 24.2342 25.6898 24.0093C25.6496 23.7845 25.6772 23.5528 25.7691 23.3437C25.861 23.1346 26.013 22.9576 26.2058 22.8351C26.3986 22.7127 26.6235 22.6504 26.8518 22.6561C27.1533 22.6655 27.4393 22.7921 27.6489 23.0092C27.8584 23.2262 27.975 23.5164 27.9738 23.8181Z" fill="white"/>
</g>
</g>
</svg>
